<svg width="32" height="32" viewBox="0 0 32 32" fill="none" xmlns="http://www.w3.org/2000/svg">
<path d="M16.0003 28.7997C12.3075 28.7997 8.61154 28.7997 4.91874 28.7997C3.93954 28.7997 3.27394 28.0893 3.36354 27.1165C3.43714 26.2941 3.51714 25.4717 3.63234 24.6557C3.76994 23.6989 3.96834 22.7549 4.32034 21.8461C4.58594 21.1581 5.02754 20.6589 5.69954 20.3485C6.74914 19.8621 7.82434 19.4525 8.91874 19.0909C9.63554 18.8541 10.3491 18.6173 11.0659 18.3869C11.3315 18.3005 11.5971 18.2237 11.8659 18.1501C11.9107 18.1373 11.9779 18.1469 12.0131 18.1725C12.7587 18.7133 13.5011 19.2605 14.2435 19.8045C14.8035 20.2141 15.3635 20.6205 15.9203 21.0333C16.0163 21.1069 16.0707 21.0365 16.1315 20.9917C16.6019 20.6461 17.0691 20.3005 17.5363 19.9549C18.3331 19.3725 19.1299 18.7933 19.9267 18.2077C20.0163 18.1405 20.0899 18.1213 20.2019 18.1565C21.4435 18.5693 22.6947 18.9565 23.9299 19.3885C24.7139 19.6637 25.4787 20.0061 26.2499 20.3229C27.0147 20.6365 27.4691 21.2189 27.7411 21.9837C28.0291 22.7901 28.2211 23.6157 28.3395 24.4573C28.4643 25.3437 28.5571 26.2365 28.6403 27.1293C28.7299 28.0733 28.0579 28.7901 27.1107 28.7901C23.8691 28.7901 20.6243 28.7869 17.3827 28.7869C16.9219 28.7869 16.4611 28.7869 16.0003 28.7869C16.0003 28.7965 16.0003 28.7965 16.0003 28.7997ZM17.6323 28.0093C17.7059 28.0093 17.7667 28.0093 17.8275 28.0093C19.9779 28.0093 22.1251 28.0093 24.2755 28.0093C25.2035 28.0093 26.1315 28.0093 27.0563 28.0093C27.6131 28.0093 27.9075 27.6765 27.8467 27.1293C27.8275 26.9629 27.8243 26.7965 27.8019 26.6301C27.7027 25.8205 27.6163 25.0109 27.4883 24.2077C27.3667 23.4493 27.1907 22.6973 26.8771 21.9901C26.7299 21.6541 26.5315 21.3597 26.1859 21.1933C25.9619 21.0845 25.7475 20.9597 25.5171 20.8701C24.6115 20.5181 23.7091 20.1629 22.7939 19.8397C21.9779 19.5517 21.1491 19.3053 20.3267 19.0429C20.2723 19.0269 20.1891 19.0237 20.1475 19.0525C19.8883 19.2285 19.6355 19.4141 19.3827 19.5997C18.8707 19.9741 18.3619 20.3485 17.8499 20.7229C17.3891 21.0621 16.9283 21.3981 16.4707 21.7437C16.4387 21.7693 16.4163 21.8365 16.4227 21.8781C16.5155 22.3837 16.6147 22.8925 16.7171 23.3981C16.9379 24.5085 17.1587 25.6221 17.3795 26.7325C17.4627 27.1485 17.5459 27.5741 17.6323 28.0093ZM9.54594 28.0093C11.1075 28.0093 12.6659 28.0093 14.2275 28.0125C14.3331 28.0125 14.3747 27.9901 14.3971 27.8781C14.5987 26.8317 14.8099 25.7853 15.0147 24.7357C15.1971 23.8077 15.3795 22.8797 15.5683 21.9549C15.5939 21.8333 15.5811 21.7597 15.4691 21.6829C14.9667 21.3277 14.4707 20.9565 13.9715 20.5917C13.2771 20.0829 12.5827 19.5773 11.8851 19.0749C11.8339 19.0397 11.7443 19.0237 11.6835 19.0429C11.3155 19.1485 10.9475 19.2605 10.5827 19.3789C9.02754 19.8845 7.47554 20.3901 5.99714 21.0973C5.65794 21.2605 5.36354 21.4685 5.21314 21.8205C5.06914 22.1597 4.91874 22.4989 4.81954 22.8541C4.40994 24.3037 4.25634 25.7917 4.15074 27.2893C4.14114 27.4045 4.18274 27.5325 4.23394 27.6349C4.37794 27.9197 4.63714 28.0125 4.94114 28.0125C6.47394 28.0093 8.00994 28.0093 9.54594 28.0093Z" fill="#F2F2F7"/>
<path d="M16.0003 28.9597H4.91552C4.39072 28.9597 3.92672 28.7677 3.60992 28.4221C3.29952 28.0797 3.15232 27.6125 3.20032 27.1037C3.27712 26.2653 3.35712 25.4461 3.47232 24.6365C3.63552 23.5069 3.85632 22.6045 4.16992 21.7917C4.45792 21.0493 4.93472 20.5309 5.63232 20.2077C6.61472 19.7533 7.67392 19.3405 8.87072 18.9437C9.58752 18.7069 10.3011 18.4701 11.0179 18.2397C11.2835 18.1533 11.5555 18.0765 11.8243 18.0029C11.9011 17.9805 12.0227 17.9869 12.1091 18.0509C12.6563 18.4477 13.2035 18.8509 13.7475 19.2509L14.8611 20.0669C15.2419 20.3453 15.6227 20.6237 16.0003 20.9021L16.0035 20.8989L16.0355 20.8733L16.6915 20.3901C16.9411 20.2045 17.1907 20.0221 17.4403 19.8397L18.3555 19.1709C18.8483 18.8125 19.3379 18.4541 19.8275 18.0925C19.9203 18.0253 20.0515 17.9549 20.2467 18.0189C20.6755 18.1629 21.1075 18.3005 21.5395 18.4413C22.3427 18.7005 23.1715 18.9693 23.9811 19.2541C24.5443 19.4525 25.1043 19.6861 25.6451 19.9133C25.8659 20.0061 26.0867 20.0989 26.3075 20.1885C27.0595 20.4957 27.5779 21.0685 27.8883 21.9453C28.1667 22.7261 28.3651 23.5453 28.4931 24.4509C28.6243 25.3693 28.7139 26.2813 28.7939 27.1293C28.8419 27.6253 28.6947 28.0893 28.3843 28.4285C28.0707 28.7741 27.6163 28.9661 27.1075 28.9661C24.4035 28.9661 21.7027 28.9629 18.9987 28.9629H16.1539L16.0003 28.9597ZM11.9203 18.3069C11.6419 18.3837 11.3763 18.4573 11.1139 18.5437C10.3971 18.7773 9.68352 19.0109 8.96672 19.2477C7.78272 19.6413 6.73312 20.0477 5.76352 20.4989C5.14592 20.7837 4.72032 21.2445 4.46432 21.9069C4.16032 22.6941 3.94272 23.5741 3.78592 24.6813C3.67072 25.4813 3.59392 26.2973 3.51712 27.1325C3.47872 27.5517 3.59712 27.9325 3.84672 28.2077C4.10272 28.4861 4.48032 28.6429 4.91552 28.6429L19.0019 28.6397C21.7027 28.6397 24.4067 28.6429 27.1075 28.6429C27.5267 28.6429 27.8947 28.4893 28.1507 28.2109C28.4003 27.9357 28.5155 27.5613 28.4771 27.1549C28.3971 26.3101 28.3075 25.4045 28.1763 24.4925C28.0515 23.6093 27.8595 22.8125 27.5875 22.0509C27.3059 21.2669 26.8483 20.7549 26.1859 20.4829C25.9619 20.3933 25.7411 20.2973 25.5203 20.2045C24.9827 19.9805 24.4291 19.7469 23.8755 19.5517C23.0691 19.2701 22.2435 19.0013 21.4435 18.7421C21.0115 18.6013 20.5795 18.4637 20.1507 18.3197C20.0995 18.3037 20.0803 18.3037 20.0227 18.3453C19.5331 18.7069 19.0403 19.0653 18.5475 19.4237L17.6323 20.0925C17.3827 20.2749 17.1331 20.4605 16.8835 20.6429L16.2243 21.1293C16.1539 21.1837 16.0067 21.3053 15.8243 21.1709C15.4403 20.8861 15.0563 20.6045 14.6723 20.3229L13.5587 19.5069C13.0147 19.1037 12.4675 18.7037 11.9203 18.3069ZM14.2275 28.1725C12.9571 28.1693 11.6899 28.1693 10.4227 28.1693H4.94112C4.53472 28.1693 4.24672 28.0125 4.08992 27.7053C4.04832 27.6221 3.97792 27.4525 3.99072 27.2733C4.11232 25.5965 4.27232 24.1981 4.66592 22.8061C4.76192 22.4701 4.89952 22.1469 5.03392 21.8333L5.06912 21.7533C5.25472 21.3149 5.62912 21.0909 5.93312 20.9469C7.42432 20.2333 9.00512 19.7213 10.5379 19.2221C10.9059 19.1037 11.2739 18.9885 11.6451 18.8829C11.7539 18.8509 11.8947 18.8765 11.9843 18.9405C12.5987 19.3821 13.2099 19.8301 13.8211 20.2749L14.5219 20.7901C14.8675 21.0461 15.2163 21.2989 15.5683 21.5485C15.7635 21.6861 15.7603 21.8461 15.7315 21.9837C15.5939 22.6589 15.4627 23.3341 15.3283 24.0093L15.0243 25.5453C14.8675 26.3325 14.7107 27.1197 14.5603 27.9069C14.5059 28.1437 14.3459 28.1725 14.2275 28.1725ZM11.3027 27.8493C12.2787 27.8493 13.2515 27.8493 14.2275 27.8525C14.2307 27.8525 14.2339 27.8525 14.2371 27.8525C14.3939 27.0461 14.5507 26.2653 14.7043 25.4877L15.0083 23.9517C15.1427 23.2765 15.2739 22.6013 15.4115 21.9261C15.4275 21.8493 15.4243 21.8493 15.3763 21.8141C15.0243 21.5645 14.6755 21.3085 14.3267 21.0525L13.6259 20.5405C13.0147 20.0957 12.4067 19.6477 11.7923 19.2061C11.7795 19.1997 11.7443 19.1933 11.7283 19.1965C11.3603 19.3021 10.9955 19.4141 10.6307 19.5325C9.10752 20.0285 7.53632 20.5373 6.06432 21.2413C5.68672 21.4205 5.46912 21.6189 5.35712 21.8845L5.32192 21.9645C5.19392 22.2685 5.05952 22.5821 4.96992 22.8989C4.58272 24.2621 4.42592 25.6445 4.30432 27.2989C4.29792 27.3725 4.32352 27.4685 4.37152 27.5613C4.47392 27.7597 4.65312 27.8525 4.93792 27.8525H10.4195C10.7139 27.8493 11.0083 27.8493 11.3027 27.8493ZM25.9395 28.1693C25.6611 28.1693 25.3859 28.1693 25.1075 28.1693H17.5011L16.5603 23.4205C16.4611 22.9149 16.3619 22.4061 16.2659 21.9005C16.2499 21.8109 16.2851 21.6765 16.3747 21.6093C16.7843 21.3021 17.1971 20.9981 17.6099 20.6973L17.8787 20.4989C18.3491 20.1533 18.8163 19.8109 19.2867 19.4685L19.3283 19.4397C19.5683 19.2637 19.8115 19.0877 20.0579 18.9213C20.1539 18.8541 20.2883 18.8669 20.3747 18.8925L20.9987 19.0877C21.6067 19.2765 22.2339 19.4749 22.8483 19.6893C23.6483 19.9709 24.4515 20.2845 25.2291 20.5885L25.5747 20.7229C25.7411 20.7869 25.8947 20.8669 26.0483 20.9469C26.1187 20.9821 26.1859 21.0173 26.2563 21.0525C26.6915 21.2637 26.9027 21.6541 27.0243 21.9293C27.3059 22.5661 27.5043 23.2861 27.6451 24.1885C27.7379 24.7773 27.8083 25.3789 27.8787 25.9581C27.9043 26.1757 27.9299 26.3965 27.9587 26.6141C27.9715 26.7069 27.9779 26.7997 27.9843 26.8893C27.9907 26.9629 27.9971 27.0397 28.0035 27.1133C28.0387 27.4301 27.9683 27.6957 27.7987 27.8845C27.6291 28.0733 27.3731 28.1725 27.0531 28.1725C26.6851 28.1693 26.3107 28.1693 25.9395 28.1693ZM17.7635 27.8493H25.1075C25.7571 27.8493 26.4067 27.8493 27.0531 27.8493C27.2803 27.8493 27.4563 27.7853 27.5619 27.6669C27.6675 27.5485 27.7091 27.3693 27.6867 27.1453C27.6771 27.0653 27.6707 26.9885 27.6675 26.9085C27.6611 26.8221 27.6547 26.7357 27.6451 26.6493C27.6163 26.4285 27.5907 26.2109 27.5651 25.9901C27.4947 25.4109 27.4243 24.8157 27.3315 24.2301C27.1939 23.3565 27.0019 22.6621 26.7331 22.0509C26.5699 21.6829 26.3811 21.4621 26.1187 21.3341C26.0451 21.2989 25.9747 21.2605 25.9043 21.2253C25.7539 21.1485 25.6131 21.0749 25.4627 21.0173L25.1171 20.8829C24.3427 20.5821 23.5395 20.2685 22.7427 19.9901C22.1379 19.7757 21.5107 19.5805 20.9059 19.3917L20.2787 19.1965C20.2595 19.1901 20.2307 19.1901 20.2243 19.1933C19.9939 19.3501 19.7539 19.5261 19.5171 19.6989L19.4755 19.7277C19.0051 20.0701 18.5379 20.4157 18.0675 20.7581L17.7987 20.9565C17.3859 21.2573 16.9763 21.5613 16.5667 21.8685C16.6755 22.3517 16.7747 22.8573 16.8739 23.3629L17.7635 27.8493Z" fill="#F2F2F7"/>
<path d="M21.5745 9.45237C21.5073 9.96437 21.4529 10.4764 21.3665 10.9852C21.1745 12.0796 20.7745 13.1004 20.2401 14.0764C19.7921 14.8956 19.2481 15.6412 18.5441 16.2588C17.7953 16.9148 16.9441 17.3596 15.9137 17.334C15.3089 17.318 14.7553 17.1292 14.2369 16.8188C13.3377 16.2812 12.6721 15.5132 12.1089 14.6492C11.4401 13.622 10.9729 12.502 10.6977 11.3116C10.4865 10.406 10.3905 9.48437 10.5313 8.55317C10.6945 7.46517 11.0945 6.47957 11.7761 5.61237C12.4577 4.74517 13.3089 4.11157 14.3585 3.76917C15.6897 3.33397 17.0049 3.40757 18.2689 4.02517C19.8401 4.79317 20.8129 6.06997 21.3025 7.72437C21.4689 8.28437 21.5489 8.86357 21.5329 9.44917C21.5457 9.44917 21.5585 9.45237 21.5745 9.45237ZM20.7393 9.57397C20.7393 9.44277 20.7457 9.31157 20.7361 9.18037C20.7265 9.01397 20.7073 8.84757 20.6849 8.68117C20.4737 7.23797 19.8209 6.05077 18.6433 5.17397C17.6929 4.46997 16.6241 4.16917 15.4561 4.32597C13.8113 4.54677 12.6401 5.47157 11.8753 6.91157C11.2801 8.02837 11.1425 9.22837 11.3441 10.4796C11.5489 11.7564 11.9905 12.9404 12.6625 14.0412C13.1649 14.8668 13.7665 15.6028 14.6081 16.1116C15.1777 16.4572 15.7889 16.6364 16.4609 16.4892C17.3409 16.3004 17.9969 15.7564 18.5665 15.1036C19.2993 14.2652 19.8177 13.2956 20.2017 12.2492C20.5153 11.3884 20.7041 10.4956 20.7393 9.57397Z" fill="#F2F2F7"/>
<path d="M16.0001 17.4941C15.9681 17.4941 15.9361 17.4941 15.9073 17.4941C15.3121 17.4781 14.7201 17.2957 14.1505 16.9565C13.3281 16.4637 12.6369 15.7597 11.9713 14.7357C11.3025 13.7085 10.8225 12.5693 10.5377 11.3469C10.2977 10.3037 10.2401 9.38214 10.3681 8.52774C10.5377 7.38854 10.9697 6.37414 11.6481 5.51014C12.3681 4.59174 13.2609 3.95494 14.3041 3.61254C15.6929 3.15814 17.0465 3.24774 18.3361 3.87814C19.8817 4.63334 20.9313 5.91014 21.4529 7.67654C21.6097 8.21094 21.6929 8.75814 21.6929 9.30534L21.7537 9.31174L21.7313 9.47494C21.7089 9.63494 21.6897 9.79174 21.6705 9.95174C21.6257 10.3005 21.5841 10.6589 21.5201 11.0141C21.3409 12.0509 20.9665 13.0781 20.3745 14.1533C19.8721 15.0717 19.3057 15.7981 18.6433 16.3773C17.7889 17.1293 16.9217 17.4941 16.0001 17.4941ZM16.0257 3.65094C15.4913 3.65094 14.9505 3.74054 14.4033 3.91974C13.4209 4.23974 12.5793 4.84454 11.8977 5.70854C11.2545 6.52774 10.8449 7.49414 10.6849 8.57574C10.5633 9.38854 10.6177 10.2717 10.8481 11.2733C11.1233 12.4605 11.5905 13.5645 12.2369 14.5597C12.8737 15.5389 13.5361 16.2141 14.3137 16.6781C14.8417 16.9949 15.3665 17.1549 15.9137 17.1709C16.7937 17.1997 17.6001 16.8669 18.4353 16.1341C19.0689 15.5805 19.6129 14.8797 20.0961 13.9965C20.6689 12.9533 21.0305 11.9581 21.2065 10.9565C21.2673 10.6109 21.3121 10.2557 21.3537 9.91014C21.3665 9.80454 21.3793 9.69894 21.3921 9.59334L21.3665 9.59014L21.3697 9.44294C21.3825 8.87974 21.3089 8.31654 21.1457 7.76614C20.6497 6.08934 19.6545 4.87974 18.1953 4.16614C17.4913 3.82374 16.7649 3.65094 16.0257 3.65094ZM15.9873 16.7037C15.5041 16.7037 15.0209 16.5533 14.5217 16.2525C13.7601 15.7917 13.1233 15.1165 12.5217 14.1277C11.8401 13.0077 11.3889 11.7917 11.1841 10.5085C10.9665 9.16454 11.1521 7.92934 11.7313 6.84134C12.5569 5.29254 13.8017 4.39334 15.4337 4.17254C16.6273 4.00934 17.7377 4.30694 18.7361 5.04934C19.9105 5.92294 20.6177 7.13574 20.8417 8.66214C20.8673 8.83174 20.8833 9.00134 20.8961 9.17414C20.9025 9.27014 20.8993 9.36294 20.8993 9.45894V9.58374C20.8641 10.4893 20.6817 11.4077 20.3489 12.3101C19.9233 13.4685 19.3793 14.4189 18.6849 15.2157C17.9649 16.0381 17.2897 16.4797 16.4929 16.6525C16.3233 16.6845 16.1569 16.7037 15.9873 16.7037ZM16.0577 4.44774C15.8657 4.44774 15.6737 4.46054 15.4785 4.48614C13.9553 4.69094 12.7905 5.53254 12.0161 6.98854C11.4689 8.01574 11.2961 9.18054 11.5009 10.4541C11.6993 11.6957 12.1377 12.8733 12.7969 13.9581C13.3697 14.9021 13.9713 15.5421 14.6881 15.9773C15.2897 16.3421 15.8593 16.4605 16.4257 16.3357C17.1521 16.1789 17.7729 15.7693 18.4449 15.0013C19.1137 14.2365 19.6385 13.3181 20.0513 12.1981C20.3713 11.3277 20.5473 10.4445 20.5825 9.57094V9.44934C20.5825 9.36294 20.5857 9.27654 20.5793 9.19014C20.5697 9.02694 20.5537 8.86694 20.5281 8.70374C20.3169 7.26694 19.6513 6.12134 18.5473 5.30214C17.7825 4.73574 16.9473 4.44774 16.0577 4.44774Z" fill="#F2F2F7"/>
</svg>
