<svg width="32" height="32" viewBox="0 0 32 32" fill="none" xmlns="http://www.w3.org/2000/svg">
<path d="M18.9146 3.6709V8.46557C18.9146 9.1149 19.1732 9.7389 19.6346 10.1989C20.0971 10.6594 20.7232 10.9178 21.3759 10.9176H26.8759" stroke="white" stroke-linecap="round" stroke-linejoin="round"/>
<path d="M27 11.4241V22.8481C26.9735 23.5954 26.7993 24.33 26.4877 25.0096C26.176 25.6892 25.7329 26.3005 25.184 26.8081C24.0741 27.8377 22.6008 28.3844 21.088 28.3281H10.968C10.2143 28.363 9.46109 28.2486 8.75174 27.9914C8.0424 27.7342 7.39089 27.3393 6.83467 26.8295C6.28065 26.3202 5.83321 25.7061 5.51828 25.0227C5.20334 24.3393 5.02718 23.6001 5 22.8481V9.14948C5.02647 8.40224 5.20056 7.66764 5.51224 6.98799C5.82392 6.30834 6.26701 5.6971 6.816 5.18948C7.92589 4.15992 9.39917 3.6132 10.912 3.66948H18.5307C19.6936 3.66576 20.8162 4.09603 21.6787 4.87615L25.6253 8.50548C26.0464 8.8683 26.3864 9.31568 26.6233 9.81853C26.8601 10.3214 26.9885 10.8684 27 11.4241Z" stroke="white" stroke-linecap="round" stroke-linejoin="round"/>
<path d="M16 23.031V13.999" stroke="white" stroke-miterlimit="10" stroke-linecap="round"/>
<path d="M11.8589 19.2271L15.4122 22.7817C15.4893 22.8592 15.5809 22.9207 15.6818 22.9626C15.7827 23.0046 15.8909 23.0262 16.0002 23.0262C16.1095 23.0262 16.2177 23.0046 16.3186 22.9626C16.4195 22.9207 16.5112 22.8592 16.5882 22.7817L20.1416 19.2284" stroke="white" stroke-linecap="round" stroke-linejoin="round"/>
</svg>
