<svg width="32" height="32" viewBox="0 0 32 32" fill="none" xmlns="http://www.w3.org/2000/svg">
<path d="M15.9998 28.7997C12.307 28.7997 8.61105 28.7997 4.91825 28.7997C3.93905 28.7997 3.27345 28.0893 3.36305 27.1165C3.43665 26.2941 3.51665 25.4717 3.63185 24.6557C3.76945 23.6989 3.96785 22.7549 4.31985 21.8461C4.58545 21.1581 5.02705 20.6589 5.69905 20.3485C6.74865 19.8621 7.82385 19.4525 8.91825 19.0909C9.63505 18.8541 10.3486 18.6173 11.0654 18.3869C11.331 18.3005 11.5966 18.2237 11.8654 18.1501C11.9102 18.1373 11.9774 18.1469 12.0126 18.1725C12.7582 18.7133 13.5006 19.2605 14.243 19.8045C14.803 20.2141 15.363 20.6205 15.9198 21.0333C16.0158 21.1069 16.0702 21.0365 16.131 20.9917C16.6014 20.6461 17.0686 20.3005 17.5358 19.9549C18.3326 19.3725 19.1294 18.7933 19.9262 18.2077C20.0158 18.1405 20.0894 18.1213 20.2014 18.1565C21.443 18.5693 22.6942 18.9565 23.9294 19.3885C24.7134 19.6637 25.4782 20.0061 26.2494 20.3229C27.0142 20.6365 27.4686 21.2189 27.7406 21.9837C28.0286 22.7901 28.2206 23.6157 28.339 24.4573C28.4638 25.3437 28.5566 26.2365 28.6398 27.1293C28.7294 28.0733 28.0574 28.7901 27.1102 28.7901C23.8686 28.7901 20.6238 28.7869 17.3822 28.7869C16.9214 28.7869 16.4606 28.7869 15.9998 28.7869C15.9998 28.7965 15.9998 28.7965 15.9998 28.7997ZM17.6318 28.0093C17.7054 28.0093 17.7662 28.0093 17.827 28.0093C19.9774 28.0093 22.1246 28.0093 24.275 28.0093C25.203 28.0093 26.131 28.0093 27.0558 28.0093C27.6126 28.0093 27.907 27.6765 27.8462 27.1293C27.827 26.9629 27.8238 26.7965 27.8014 26.6301C27.7022 25.8205 27.6158 25.0109 27.4878 24.2077C27.3662 23.4493 27.1902 22.6973 26.8766 21.9901C26.7294 21.6541 26.531 21.3597 26.1854 21.1933C25.9614 21.0845 25.747 20.9597 25.5166 20.8701C24.611 20.5181 23.7086 20.1629 22.7934 19.8397C21.9774 19.5517 21.1486 19.3053 20.3262 19.0429C20.2718 19.0269 20.1886 19.0237 20.147 19.0525C19.8878 19.2285 19.635 19.4141 19.3822 19.5997C18.8702 19.9741 18.3614 20.3485 17.8494 20.7229C17.3886 21.0621 16.9278 21.3981 16.4702 21.7437C16.4382 21.7693 16.4158 21.8365 16.4222 21.8781C16.515 22.3837 16.6142 22.8925 16.7166 23.3981C16.9374 24.5085 17.1582 25.6221 17.379 26.7325C17.4622 27.1485 17.5454 27.5741 17.6318 28.0093ZM9.54545 28.0093C11.107 28.0093 12.6654 28.0093 14.227 28.0125C14.3326 28.0125 14.3742 27.9901 14.3966 27.8781C14.5982 26.8317 14.8094 25.7853 15.0142 24.7357C15.1966 23.8077 15.379 22.8797 15.5678 21.9549C15.5934 21.8333 15.5806 21.7597 15.4686 21.6829C14.9662 21.3277 14.4702 20.9565 13.971 20.5917C13.2766 20.0829 12.5822 19.5773 11.8846 19.0749C11.8334 19.0397 11.7438 19.0237 11.683 19.0429C11.315 19.1485 10.947 19.2605 10.5822 19.3789C9.02705 19.8845 7.47505 20.3901 5.99665 21.0973C5.65745 21.2605 5.36305 21.4685 5.21265 21.8205C5.06865 22.1597 4.91825 22.4989 4.81905 22.8541C4.40945 24.3037 4.25585 25.7917 4.15025 27.2893C4.14065 27.4045 4.18225 27.5325 4.23345 27.6349C4.37745 27.9197 4.63665 28.0125 4.94065 28.0125C6.47345 28.0093 8.00945 28.0093 9.54545 28.0093Z" fill="white"/>
<path d="M15.9998 28.9597H4.91503C4.39023 28.9597 3.92623 28.7677 3.60943 28.4221C3.29903 28.0797 3.15183 27.6125 3.19983 27.1037C3.27663 26.2653 3.35663 25.4461 3.47183 24.6365C3.63503 23.5069 3.85583 22.6045 4.16943 21.7917C4.45743 21.0493 4.93423 20.5309 5.63183 20.2077C6.61423 19.7533 7.67343 19.3405 8.87023 18.9437C9.58703 18.7069 10.3006 18.4701 11.0174 18.2397C11.283 18.1533 11.555 18.0765 11.8238 18.0029C11.9006 17.9805 12.0222 17.9869 12.1086 18.0509C12.6558 18.4477 13.203 18.8509 13.747 19.2509L14.8606 20.0669C15.2414 20.3453 15.6222 20.6237 15.9998 20.9021L16.003 20.8989L16.035 20.8733L16.691 20.3901C16.9406 20.2045 17.1902 20.0221 17.4398 19.8397L18.355 19.1709C18.8478 18.8125 19.3374 18.4541 19.827 18.0925C19.9198 18.0253 20.051 17.9549 20.2462 18.0189C20.675 18.1629 21.107 18.3005 21.539 18.4413C22.3422 18.7005 23.171 18.9693 23.9806 19.2541C24.5438 19.4525 25.1038 19.6861 25.6446 19.9133C25.8654 20.0061 26.0862 20.0989 26.307 20.1885C27.059 20.4957 27.5774 21.0685 27.8878 21.9453C28.1662 22.7261 28.3646 23.5453 28.4926 24.4509C28.6238 25.3693 28.7134 26.2813 28.7934 27.1293C28.8414 27.6253 28.6942 28.0893 28.3838 28.4285C28.0702 28.7741 27.6158 28.9661 27.107 28.9661C24.403 28.9661 21.7022 28.9629 18.9982 28.9629H16.1534L15.9998 28.9597ZM11.9198 18.3069C11.6414 18.3837 11.3758 18.4573 11.1134 18.5437C10.3966 18.7773 9.68303 19.0109 8.96623 19.2477C7.78223 19.6413 6.73263 20.0477 5.76303 20.4989C5.14543 20.7837 4.71983 21.2445 4.46383 21.9069C4.15983 22.6941 3.94223 23.5741 3.78543 24.6813C3.67023 25.4813 3.59343 26.2973 3.51663 27.1325C3.47823 27.5517 3.59663 27.9325 3.84623 28.2077C4.10223 28.4861 4.47983 28.6429 4.91503 28.6429L19.0014 28.6397C21.7022 28.6397 24.4062 28.6429 27.107 28.6429C27.5262 28.6429 27.8942 28.4893 28.1502 28.2109C28.3998 27.9357 28.515 27.5613 28.4766 27.1549C28.3966 26.3101 28.307 25.4045 28.1758 24.4925C28.051 23.6093 27.859 22.8125 27.587 22.0509C27.3054 21.2669 26.8478 20.7549 26.1854 20.4829C25.9614 20.3933 25.7406 20.2973 25.5198 20.2045C24.9822 19.9805 24.4286 19.7469 23.875 19.5517C23.0686 19.2701 22.243 19.0013 21.443 18.7421C21.011 18.6013 20.579 18.4637 20.1502 18.3197C20.099 18.3037 20.0798 18.3037 20.0222 18.3453C19.5326 18.7069 19.0398 19.0653 18.547 19.4237L17.6318 20.0925C17.3822 20.2749 17.1326 20.4605 16.883 20.6429L16.2238 21.1293C16.1534 21.1837 16.0062 21.3053 15.8238 21.1709C15.4398 20.8861 15.0558 20.6045 14.6718 20.3229L13.5582 19.5069C13.0142 19.1037 12.467 18.7037 11.9198 18.3069ZM14.227 28.1725C12.9566 28.1693 11.6894 28.1693 10.4222 28.1693H4.94063C4.53423 28.1693 4.24623 28.0125 4.08943 27.7053C4.04783 27.6221 3.97743 27.4525 3.99023 27.2733C4.11183 25.5965 4.27183 24.1981 4.66543 22.8061C4.76143 22.4701 4.89903 22.1469 5.03343 21.8333L5.06863 21.7533C5.25423 21.3149 5.62863 21.0909 5.93263 20.9469C7.42383 20.2333 9.00463 19.7213 10.5374 19.2221C10.9054 19.1037 11.2734 18.9885 11.6446 18.8829C11.7534 18.8509 11.8942 18.8765 11.9838 18.9405C12.5982 19.3821 13.2094 19.8301 13.8206 20.2749L14.5214 20.7901C14.867 21.0461 15.2158 21.2989 15.5678 21.5485C15.763 21.6861 15.7598 21.8461 15.731 21.9837C15.5934 22.6589 15.4622 23.3341 15.3278 24.0093L15.0238 25.5453C14.867 26.3325 14.7102 27.1197 14.5598 27.9069C14.5054 28.1437 14.3454 28.1725 14.227 28.1725ZM11.3022 27.8493C12.2782 27.8493 13.251 27.8493 14.227 27.8525C14.2302 27.8525 14.2334 27.8525 14.2366 27.8525C14.3934 27.0461 14.5502 26.2653 14.7038 25.4877L15.0078 23.9517C15.1422 23.2765 15.2734 22.6013 15.411 21.9261C15.427 21.8493 15.4238 21.8493 15.3758 21.8141C15.0238 21.5645 14.675 21.3085 14.3262 21.0525L13.6254 20.5405C13.0142 20.0957 12.4062 19.6477 11.7918 19.2061C11.779 19.1997 11.7438 19.1933 11.7278 19.1965C11.3598 19.3021 10.995 19.4141 10.6302 19.5325C9.10703 20.0285 7.53583 20.5373 6.06383 21.2413C5.68623 21.4205 5.46863 21.6189 5.35663 21.8845L5.32143 21.9645C5.19343 22.2685 5.05903 22.5821 4.96943 22.8989C4.58223 24.2621 4.42543 25.6445 4.30383 27.2989C4.29743 27.3725 4.32303 27.4685 4.37103 27.5613C4.47343 27.7597 4.65263 27.8525 4.93743 27.8525H10.419C10.7134 27.8493 11.0078 27.8493 11.3022 27.8493ZM25.939 28.1693C25.6606 28.1693 25.3854 28.1693 25.107 28.1693H17.5006L16.5598 23.4205C16.4606 22.9149 16.3614 22.4061 16.2654 21.9005C16.2494 21.8109 16.2846 21.6765 16.3742 21.6093C16.7838 21.3021 17.1966 20.9981 17.6094 20.6973L17.8782 20.4989C18.3486 20.1533 18.8158 19.8109 19.2862 19.4685L19.3278 19.4397C19.5678 19.2637 19.811 19.0877 20.0574 18.9213C20.1534 18.8541 20.2878 18.8669 20.3742 18.8925L20.9982 19.0877C21.6062 19.2765 22.2334 19.4749 22.8478 19.6893C23.6478 19.9709 24.451 20.2845 25.2286 20.5885L25.5742 20.7229C25.7406 20.7869 25.8942 20.8669 26.0478 20.9469C26.1182 20.9821 26.1854 21.0173 26.2558 21.0525C26.691 21.2637 26.9022 21.6541 27.0238 21.9293C27.3054 22.5661 27.5038 23.2861 27.6446 24.1885C27.7374 24.7773 27.8078 25.3789 27.8782 25.9581C27.9038 26.1757 27.9294 26.3965 27.9582 26.6141C27.971 26.7069 27.9774 26.7997 27.9838 26.8893C27.9902 26.9629 27.9966 27.0397 28.003 27.1133C28.0382 27.4301 27.9678 27.6957 27.7982 27.8845C27.6286 28.0733 27.3726 28.1725 27.0526 28.1725C26.6846 28.1693 26.3102 28.1693 25.939 28.1693ZM17.763 27.8493H25.107C25.7566 27.8493 26.4062 27.8493 27.0526 27.8493C27.2798 27.8493 27.4558 27.7853 27.5614 27.6669C27.667 27.5485 27.7086 27.3693 27.6862 27.1453C27.6766 27.0653 27.6702 26.9885 27.667 26.9085C27.6606 26.8221 27.6542 26.7357 27.6446 26.6493C27.6158 26.4285 27.5902 26.2109 27.5646 25.9901C27.4942 25.4109 27.4238 24.8157 27.331 24.2301C27.1934 23.3565 27.0014 22.6621 26.7326 22.0509C26.5694 21.6829 26.3806 21.4621 26.1182 21.3341C26.0446 21.2989 25.9742 21.2605 25.9038 21.2253C25.7534 21.1485 25.6126 21.0749 25.4622 21.0173L25.1166 20.8829C24.3422 20.5821 23.539 20.2685 22.7422 19.9901C22.1374 19.7757 21.5102 19.5805 20.9054 19.3917L20.2782 19.1965C20.259 19.1901 20.2302 19.1901 20.2238 19.1933C19.9934 19.3501 19.7534 19.5261 19.5166 19.6989L19.475 19.7277C19.0046 20.0701 18.5374 20.4157 18.067 20.7581L17.7982 20.9565C17.3854 21.2573 16.9758 21.5613 16.5662 21.8685C16.675 22.3517 16.7742 22.8573 16.8734 23.3629L17.763 27.8493Z" fill="white"/>
<path d="M21.5745 9.45237C21.5073 9.96437 21.4529 10.4764 21.3665 10.9852C21.1745 12.0796 20.7745 13.1004 20.2401 14.0764C19.7921 14.8956 19.2481 15.6412 18.5441 16.2588C17.7953 16.9148 16.9441 17.3596 15.9137 17.334C15.3089 17.318 14.7553 17.1292 14.2369 16.8188C13.3377 16.2812 12.6721 15.5132 12.1089 14.6492C11.4401 13.622 10.9729 12.502 10.6977 11.3116C10.4865 10.406 10.3905 9.48437 10.5313 8.55317C10.6945 7.46517 11.0945 6.47957 11.7761 5.61237C12.4577 4.74517 13.3089 4.11157 14.3585 3.76917C15.6897 3.33397 17.0049 3.40757 18.2689 4.02517C19.8401 4.79317 20.8129 6.06997 21.3025 7.72437C21.4689 8.28437 21.5489 8.86357 21.5329 9.44917C21.5457 9.44917 21.5585 9.45237 21.5745 9.45237ZM20.7393 9.57397C20.7393 9.44277 20.7457 9.31157 20.7361 9.18037C20.7265 9.01397 20.7073 8.84757 20.6849 8.68117C20.4737 7.23797 19.8209 6.05077 18.6433 5.17397C17.6929 4.46997 16.6241 4.16917 15.4561 4.32597C13.8113 4.54677 12.6401 5.47157 11.8753 6.91157C11.2801 8.02837 11.1425 9.22837 11.3441 10.4796C11.5489 11.7564 11.9905 12.9404 12.6625 14.0412C13.1649 14.8668 13.7665 15.6028 14.6081 16.1116C15.1777 16.4572 15.7889 16.6364 16.4609 16.4892C17.3409 16.3004 17.9969 15.7564 18.5665 15.1036C19.2993 14.2652 19.8177 13.2956 20.2017 12.2492C20.5153 11.3884 20.7041 10.4956 20.7393 9.57397Z" fill="white"/>
<path d="M16.0001 17.4941C15.9681 17.4941 15.9361 17.4941 15.9073 17.4941C15.3121 17.4781 14.7201 17.2957 14.1505 16.9565C13.3281 16.4637 12.6369 15.7597 11.9713 14.7357C11.3025 13.7085 10.8225 12.5693 10.5377 11.3469C10.2977 10.3037 10.2401 9.38214 10.3681 8.52774C10.5377 7.38854 10.9697 6.37414 11.6481 5.51014C12.3681 4.59174 13.2609 3.95494 14.3041 3.61254C15.6929 3.15814 17.0465 3.24774 18.3361 3.87814C19.8817 4.63334 20.9313 5.91014 21.4529 7.67654C21.6097 8.21094 21.6929 8.75814 21.6929 9.30534L21.7537 9.31174L21.7313 9.47494C21.7089 9.63494 21.6897 9.79174 21.6705 9.95174C21.6257 10.3005 21.5841 10.6589 21.5201 11.0141C21.3409 12.0509 20.9665 13.0781 20.3745 14.1533C19.8721 15.0717 19.3057 15.7981 18.6433 16.3773C17.7889 17.1293 16.9217 17.4941 16.0001 17.4941ZM16.0257 3.65094C15.4913 3.65094 14.9505 3.74054 14.4033 3.91974C13.4209 4.23974 12.5793 4.84454 11.8977 5.70854C11.2545 6.52774 10.8449 7.49414 10.6849 8.57574C10.5633 9.38854 10.6177 10.2717 10.8481 11.2733C11.1233 12.4605 11.5905 13.5645 12.2369 14.5597C12.8737 15.5389 13.5361 16.2141 14.3137 16.6781C14.8417 16.9949 15.3665 17.1549 15.9137 17.1709C16.7937 17.1997 17.6001 16.8669 18.4353 16.1341C19.0689 15.5805 19.6129 14.8797 20.0961 13.9965C20.6689 12.9533 21.0305 11.9581 21.2065 10.9565C21.2673 10.6109 21.3121 10.2557 21.3537 9.91014C21.3665 9.80454 21.3793 9.69894 21.3921 9.59334L21.3665 9.59014L21.3697 9.44294C21.3825 8.87974 21.3089 8.31654 21.1457 7.76614C20.6497 6.08934 19.6545 4.87974 18.1953 4.16614C17.4913 3.82374 16.7649 3.65094 16.0257 3.65094ZM15.9873 16.7037C15.5041 16.7037 15.0209 16.5533 14.5217 16.2525C13.7601 15.7917 13.1233 15.1165 12.5217 14.1277C11.8401 13.0077 11.3889 11.7917 11.1841 10.5085C10.9665 9.16454 11.1521 7.92934 11.7313 6.84134C12.5569 5.29254 13.8017 4.39334 15.4337 4.17254C16.6273 4.00934 17.7377 4.30694 18.7361 5.04934C19.9105 5.92294 20.6177 7.13574 20.8417 8.66214C20.8673 8.83174 20.8833 9.00134 20.8961 9.17414C20.9025 9.27014 20.8993 9.36294 20.8993 9.45894V9.58374C20.8641 10.4893 20.6817 11.4077 20.3489 12.3101C19.9233 13.4685 19.3793 14.4189 18.6849 15.2157C17.9649 16.0381 17.2897 16.4797 16.4929 16.6525C16.3233 16.6845 16.1569 16.7037 15.9873 16.7037ZM16.0577 4.44774C15.8657 4.44774 15.6737 4.46054 15.4785 4.48614C13.9553 4.69094 12.7905 5.53254 12.0161 6.98854C11.4689 8.01574 11.2961 9.18054 11.5009 10.4541C11.6993 11.6957 12.1377 12.8733 12.7969 13.9581C13.3697 14.9021 13.9713 15.5421 14.6881 15.9773C15.2897 16.3421 15.8593 16.4605 16.4257 16.3357C17.1521 16.1789 17.7729 15.7693 18.4449 15.0013C19.1137 14.2365 19.6385 13.3181 20.0513 12.1981C20.3713 11.3277 20.5473 10.4445 20.5825 9.57094V9.44934C20.5825 9.36294 20.5857 9.27654 20.5793 9.19014C20.5697 9.02694 20.5537 8.86694 20.5281 8.70374C20.3169 7.26694 19.6513 6.12134 18.5473 5.30214C17.7825 4.73574 16.9473 4.44774 16.0577 4.44774Z" fill="white"/>
<path d="M22.8246 6.76163C22.8082 6.6237 22.8472 6.48488 22.9331 6.37571C23.019 6.26654 23.1447 6.19597 23.2826 6.17952C23.4206 6.16306 23.5594 6.20208 23.6686 6.28798C23.7777 6.37387 23.8483 6.49962 23.8648 6.63756C23.9346 7.21806 24.1966 7.75851 24.6092 8.1728C25.0218 8.58709 25.5611 8.8514 26.1413 8.92361C26.7216 8.99582 27.3092 8.87178 27.8108 8.57126C28.3123 8.27073 28.6989 7.81101 28.9088 7.26532C29.1188 6.71963 29.1401 6.11938 28.9693 5.56018C28.7986 5.00098 28.4456 4.51501 27.9667 4.17968C27.4877 3.84435 26.9103 3.67896 26.3264 3.70985C25.7425 3.74074 25.1858 3.96614 24.7449 4.35014C24.6402 4.44139 24.5035 4.48729 24.3649 4.47776C24.2263 4.46823 24.0972 4.40403 24.0059 4.2993C23.9147 4.19457 23.8688 4.05788 23.8783 3.9193C23.8879 3.78072 23.952 3.65161 24.0568 3.56036C24.6741 3.0227 25.4535 2.7071 26.271 2.66385C27.0885 2.6206 27.8969 2.85217 28.5675 3.32168C29.2381 3.7912 29.7322 4.47163 29.9712 5.25458C30.2102 6.03752 30.1803 6.87793 29.8863 7.6419C29.5922 8.40588 29.0509 9.04946 28.3487 9.47011C27.6464 9.89076 26.8236 10.0643 26.0112 9.96302C25.1989 9.86176 24.4438 9.49155 23.8663 8.91137C23.2888 8.33118 22.9221 7.57441 22.8246 6.76163Z" fill="white"/>
<path d="M26.237 4.06508C26.303 4.08442 26.3645 4.11657 26.4181 4.1597C26.4717 4.20283 26.5163 4.25609 26.5493 4.31644C26.5823 4.3768 26.6031 4.44306 26.6105 4.51145C26.6179 4.57984 26.6118 4.64902 26.5924 4.71504C26.5731 4.78106 26.5409 4.84262 26.4978 4.89621C26.4547 4.9498 26.4014 4.99437 26.3411 5.02738C26.2807 5.06039 26.2144 5.08119 26.146 5.08858C26.0776 5.09598 26.0085 5.08984 25.9425 5.0705L23.865 4.46171C23.7336 4.42106 23.6234 4.33032 23.5583 4.2091C23.4932 4.08788 23.4785 3.94592 23.5172 3.8139C23.5559 3.68188 23.6451 3.5704 23.7653 3.50355C23.8856 3.43671 24.0273 3.41987 24.1599 3.45668L26.237 4.06508Z" fill="white"/>
<path d="M24.354 1.97968C24.4141 1.8564 24.5201 1.76161 24.6494 1.71569C24.7786 1.66977 24.9207 1.67637 25.0451 1.73408C25.1695 1.79179 25.2663 1.89599 25.3148 2.02431C25.3632 2.15263 25.3593 2.29483 25.304 2.42034L24.4881 4.17873C24.4601 4.24246 24.4196 4.29994 24.369 4.34783C24.3185 4.39572 24.2589 4.43305 24.1937 4.45763C24.1286 4.48221 24.0592 4.49355 23.9896 4.49099C23.92 4.48843 23.8516 4.47203 23.7885 4.44273C23.7253 4.41343 23.6686 4.37183 23.6217 4.32036C23.5748 4.26889 23.5386 4.20858 23.5153 4.14297C23.492 4.07736 23.482 4.00775 23.4859 3.93823C23.4898 3.86871 23.5076 3.80066 23.5381 3.73807L24.354 1.97968Z" fill="white"/>
</svg>
