<svg width="32" height="32" viewBox="0 0 32 32" fill="none" xmlns="http://www.w3.org/2000/svg">
<path d="M12.8702 3.75049C13.0526 3.85289 13.1422 3.98409 13.075 4.21129C12.9918 4.48649 13.1198 4.62729 13.411 4.63689C13.6158 4.64329 13.8302 4.63689 14.0286 4.68809C14.3838 4.78089 14.5886 5.06569 14.595 5.43049C14.6014 5.84009 14.6174 6.25289 14.5918 6.66249C14.5566 7.15529 14.3486 7.45289 13.7822 7.46569C12.7134 7.49129 11.6446 7.47529 10.5758 7.47209C10.0862 7.47209 9.76304 7.15529 9.75984 6.66889C9.75664 6.27529 9.75024 5.87849 9.75664 5.48489C9.76624 4.93769 10.0766 4.63689 10.6206 4.63369C10.7358 4.63369 10.8542 4.63369 10.9694 4.63369C11.2286 4.63049 11.3726 4.46409 11.2766 4.23369C11.1806 4.00649 11.2798 3.87849 11.4366 3.75049C11.9102 3.75049 12.3902 3.75049 12.8702 3.75049ZM12.1662 7.05289C12.5086 7.05289 12.851 7.07209 13.187 7.04329C13.3406 7.03049 13.4974 6.94729 13.6318 6.86409C13.8558 6.72329 13.923 6.50249 13.8942 6.24329C13.8782 6.08329 13.891 5.91689 13.891 5.75689C13.891 5.37289 13.5742 5.05609 13.1934 5.05609C12.5118 5.05609 11.8302 5.05609 11.1486 5.05609C10.7326 5.05609 10.451 5.34089 10.451 5.76329C10.451 5.97129 10.451 6.18249 10.451 6.39049C10.451 6.76489 10.739 7.05289 11.1198 7.05609C11.4686 7.05289 11.8174 7.05289 12.1662 7.05289Z" fill="#F2F2F7"/>
<path d="M23.6703 11.7471C23.8207 11.8591 23.9615 11.9551 24.0927 12.0671C24.7231 12.6015 25.3471 13.1391 25.9775 13.6703C26.1663 13.8303 26.1983 14.0383 26.0319 14.2399C25.7311 14.6015 25.4175 14.9503 25.1135 15.3087C24.6111 15.8943 24.1119 16.4799 23.6095 17.0655C23.2031 17.5391 22.7999 18.0159 22.3967 18.4895C22.2655 18.6431 22.1375 18.7967 21.9999 18.9407C21.8623 19.0879 21.7119 19.1039 21.5519 18.9663C21.0015 18.4927 20.4511 18.0223 19.9039 17.5487C19.7407 17.4079 19.5743 17.2703 19.4111 17.1295C19.2415 16.9823 19.2159 16.8127 19.3599 16.6399C19.7823 16.1311 20.2143 15.6287 20.6431 15.1231C21.2319 14.4287 21.8175 13.7343 22.4063 13.0431C22.7327 12.6623 23.0591 12.2847 23.3951 11.9103C23.4527 11.8463 23.5519 11.8143 23.6703 11.7471Z" fill="#F2F2F7"/>
<path d="M28.745 10.7619C28.6778 10.9123 28.6074 11.1907 28.4442 11.3987C28.009 11.9555 27.5354 12.4835 27.0714 13.0179C26.9466 13.1587 26.7866 13.2003 26.6266 13.0627C25.993 12.5219 25.3594 11.9811 24.7258 11.4435C24.6202 11.3539 24.5082 11.2707 24.4122 11.1715C24.281 11.0371 24.2778 10.8739 24.393 10.7331C24.7642 10.2883 25.1386 9.84986 25.5226 9.41786C25.6826 9.23546 25.8458 9.04346 26.041 8.90266C26.4474 8.60506 27.0202 8.64026 27.401 8.95706C27.7018 9.20986 28.0026 9.46267 28.3034 9.71867C28.5818 9.95547 28.7162 10.2691 28.745 10.7619Z" fill="#F2F2F7"/>
<path d="M12.1533 13.6034C10.2941 13.6034 8.43488 13.6066 6.57248 13.597C6.40288 13.597 6.19808 13.533 6.07328 13.4242C5.97728 13.341 5.92608 13.1234 5.96448 12.9954C6.00288 12.8674 6.16288 12.7618 6.29088 12.685C6.37408 12.637 6.50208 12.653 6.61088 12.653C10.1757 12.653 13.7405 12.6498 17.3053 12.653C17.5517 12.653 17.8013 12.6562 18.0445 12.685C18.2461 12.7074 18.3965 12.909 18.4029 13.1074C18.4093 13.3026 18.2493 13.5202 18.0509 13.5618C17.9325 13.5874 17.8077 13.6002 17.6829 13.6002C15.8429 13.6066 13.9965 13.6034 12.1533 13.6034Z" fill="#F2F2F7"/>
<path d="M12.1726 16.6655C10.2878 16.6655 8.40303 16.6655 6.52143 16.6655C6.13743 16.6655 5.92623 16.4831 5.93903 16.1663C5.94863 15.9487 6.07343 15.8111 6.27823 15.7567C6.37423 15.7311 6.47663 15.7247 6.57583 15.7247C7.32783 15.7311 8.07663 15.7535 8.82863 15.7503C11.7662 15.7439 14.7006 15.7279 17.6382 15.7183C17.7534 15.7183 17.8718 15.7183 17.9838 15.7407C18.2398 15.7887 18.435 16.0255 18.403 16.2303C18.3614 16.4991 18.1566 16.6687 17.8718 16.6687C15.971 16.6687 14.0734 16.6687 12.1726 16.6687V16.6655Z" fill="#EBEDF0"/>
<path d="M12.1566 10.5155C10.2878 10.5155 8.42222 10.5155 6.55342 10.5155C6.36782 10.5155 6.18542 10.5123 6.04462 10.3491C5.83022 10.0931 5.94542 9.69311 6.27182 9.61311C6.37422 9.58751 6.48622 9.58111 6.59182 9.57791C9.43662 9.57471 12.2814 9.57791 15.123 9.57791C16.0126 9.57791 16.9022 9.57791 17.7886 9.57471C18.1342 9.57471 18.2782 9.66751 18.3678 9.94591C18.4414 10.1699 18.2878 10.4451 18.0542 10.4931C17.9646 10.5123 17.8718 10.5155 17.779 10.5155C15.907 10.5155 14.0318 10.5155 12.1566 10.5155Z" fill="#EBEDF0"/>
<path d="M13.3373 22.144C12.7901 22.5024 12.4061 22.992 12.1725 23.6032C12.1309 23.7152 12.1021 23.8368 12.0637 23.952C11.9837 24.1952 11.7373 24.3232 11.4909 24.256C11.2477 24.1888 11.0973 23.9264 11.1645 23.6768C11.4109 22.7296 11.9485 21.9744 12.7357 21.4176C13.2189 21.0752 13.5709 21.024 13.9709 21.3696C14.2045 21.5712 14.2909 21.8464 14.3133 22.1408C14.3581 22.7168 14.2557 23.2672 14.0445 23.808C13.9677 24.0064 13.9997 24.2496 13.9773 24.528C14.3933 24.3712 14.6653 24.16 14.8445 23.8496C15.1261 23.3536 15.3885 22.8416 15.8493 22.4864C16.1373 22.2624 16.4509 22.0704 16.7677 21.8912C16.9565 21.7856 17.2637 21.9168 17.3533 22.1056C17.4621 22.3392 17.3885 22.5888 17.1645 22.7264C16.9821 22.8384 16.7965 22.944 16.6173 23.0624C16.2141 23.3312 15.9741 23.728 15.7597 24.1472C15.4749 24.7136 15.0365 25.1232 14.4477 25.3472C13.6733 25.6416 13.1613 25.2128 13.0621 24.432C13.0109 24.0352 13.0909 23.6672 13.2253 23.2864C13.3501 22.9344 13.3757 22.544 13.4429 22.1728C13.4045 22.1664 13.3725 22.1568 13.3373 22.144Z" fill="#EBEDF0"/>
<path d="M11.382 18.7842C12.9852 18.7842 14.5916 18.7842 16.1948 18.7842C16.5788 18.7842 16.7324 18.8674 16.8252 19.1266C16.9116 19.3666 16.7804 19.6386 16.534 19.7058C16.4252 19.7346 16.3068 19.7506 16.1916 19.7506C12.982 19.7538 9.77244 19.7538 6.56604 19.7506C6.44764 19.7506 6.31964 19.725 6.21084 19.6802C6.02524 19.6034 5.92284 19.4594 5.93564 19.245C5.94844 19.0338 6.06044 18.8962 6.24924 18.8322C6.35484 18.797 6.47644 18.7906 6.59164 18.7906C8.18844 18.7874 9.78524 18.7874 11.382 18.7874V18.7842Z" fill="#EBEDF0"/>
<path d="M17.5226 21.0432C17.6122 20.6048 17.7082 20.1184 17.8138 19.632C17.929 19.088 18.0442 18.544 18.1818 18.0064C18.2138 17.8848 18.3162 17.7312 18.425 17.6896C18.521 17.6544 18.6938 17.7184 18.7866 17.7952C19.5002 18.384 20.201 18.9856 20.905 19.584C20.9626 19.6352 21.0234 19.6864 21.0714 19.7472C21.2186 19.9264 21.1642 20.1728 20.9466 20.2592C19.9386 20.656 18.9274 21.0432 17.9162 21.4304C17.7114 21.5104 17.5162 21.3344 17.5226 21.0432Z" fill="#EBEDF0"/>
<path d="M21.1006 6.81624C20.9438 6.32664 20.6206 6.02584 20.1278 5.90744C20.0958 5.90104 20.067 5.88824 20.035 5.88184H15.779C15.779 5.88184 15.7534 6.43864 15.7534 6.72344H19.8046C20.1598 6.72344 20.3262 6.89304 20.3262 7.25464C20.3262 9.33784 20.3262 11.4562 20.3262 13.5394C20.3678 13.5394 20.3358 13.5554 21.1518 13.5554V7.01784C21.1358 6.95064 21.123 6.88024 21.1006 6.81624Z" fill="#EBEDF0"/>
<path d="M20.3262 21.8658C20.3262 23.5138 20.3262 25.1938 20.3262 26.8418C20.3262 27.2066 20.1598 27.373 19.8046 27.373C14.6238 27.373 9.44304 27.373 4.26224 27.373C3.90704 27.373 3.74064 27.2034 3.74064 26.8418C3.74064 23.5778 3.74064 20.3138 3.74064 17.0466C3.74064 13.7858 3.74064 10.525 3.74064 7.26424C3.74064 7.19704 3.74064 7.12984 3.75344 7.06584C3.79824 6.86424 3.97104 6.72984 4.17584 6.72344C4.24944 6.72024 4.32304 6.72344 4.39344 6.72344H8.74864C8.71664 6.44504 8.71664 6.16024 8.74544 5.88184H4.03184C3.96464 5.90104 3.89744 5.91384 3.83344 5.93624C3.35984 6.09304 3.06224 6.41944 2.94384 6.91544C2.93424 6.95064 2.92464 6.98584 2.91504 7.02104V27.0818C2.92144 27.1074 2.93104 27.1298 2.93744 27.1554C3.03664 27.6354 3.31184 27.9618 3.75664 28.141C3.78224 28.1506 3.80784 28.1634 3.83664 28.1762H20.2366C20.387 28.093 20.5534 28.0226 20.6878 27.917C20.9278 27.7346 21.0654 27.4754 21.1294 27.1746C21.1358 27.1426 21.1454 27.1106 21.155 27.0786V21.8498C20.9022 21.8498 20.371 21.869 20.3262 21.8658Z" fill="#EBEDF0"/>
</svg>
