<svg width="32" height="32" viewBox="0 0 32 32" fill="none" xmlns="http://www.w3.org/2000/svg">
<path fill-rule="evenodd" clip-rule="evenodd" d="M16.7505 4.2665H15.2492L14.3892 7.70384L13.5265 7.9705C13.0238 8.1254 12.5368 8.32718 12.0718 8.57317L11.2732 8.99584L8.23317 7.17184L7.17184 8.2345L8.99584 11.2745L8.57317 12.0718C8.32672 12.5367 8.1245 13.0238 7.96917 13.5265L7.70384 14.3892L4.2665 15.2492V16.7505L7.70384 17.6105L7.9705 18.4732C8.12428 18.9781 8.32517 19.4629 8.57317 19.9278L8.99584 20.7265L7.17184 23.7665L8.2345 24.8278L11.2745 23.0038L12.0718 23.4265C12.5367 23.6736 13.0216 23.875 13.5265 24.0305L14.3892 24.2958L15.2492 27.7332H16.7505L17.6105 24.2958L18.4732 24.0292C18.9759 23.8743 19.4629 23.6725 19.9278 23.4265L20.7265 23.0038L23.7665 24.8278L24.8278 23.7652L23.0038 20.7252L23.4265 19.9278C23.6736 19.4629 23.875 18.9781 24.0305 18.4732L24.2958 17.6105L27.7332 16.7505V15.2492L24.2958 14.3892L24.0292 13.5265C23.8743 13.0238 23.6725 12.5368 23.4265 12.0718L23.0038 11.2732L24.8278 8.23317L23.7652 7.17184L20.7252 8.99584L19.9278 8.57317C19.4629 8.32672 18.9759 8.1245 18.4732 7.96917L17.6105 7.70384L16.7505 4.2665ZM20.6772 7.15984L23.1212 5.69317C23.376 5.54032 23.6746 5.47698 23.9696 5.51322C24.2645 5.54945 24.5389 5.68318 24.7492 5.89317L26.1065 7.2505C26.3165 7.46077 26.4502 7.73516 26.4865 8.03011C26.5227 8.32506 26.4594 8.62366 26.3065 8.8785L24.8398 11.3225C25.1332 11.8736 25.3732 12.4514 25.5598 13.0558L28.3238 13.7478C28.6122 13.8201 28.8681 13.9866 29.051 14.2209C29.2338 14.4552 29.3332 14.7439 29.3332 15.0412V16.9585C29.3332 17.2557 29.2338 17.5445 29.051 17.7788C28.8681 18.0131 28.6122 18.1796 28.3238 18.2518L25.5598 18.9438C25.3732 19.5483 25.1332 20.1261 24.8398 20.6772L26.3065 23.1212C26.4594 23.376 26.5227 23.6746 26.4865 23.9696C26.4502 24.2645 26.3165 24.5389 26.1065 24.7492L24.7492 26.1065C24.5389 26.3165 24.2645 26.4502 23.9696 26.4865C23.6746 26.5227 23.376 26.4594 23.1212 26.3065L20.6772 24.8398C20.1261 25.1332 19.5483 25.3732 18.9438 25.5598L18.2518 28.3238C18.1796 28.6122 18.0131 28.8681 17.7788 29.051C17.5445 29.2338 17.2557 29.3332 16.9585 29.3332H15.0412C14.7439 29.3332 14.4552 29.2338 14.2209 29.051C13.9866 28.8681 13.8201 28.6122 13.7478 28.3238L13.0558 25.5598C12.4568 25.3747 11.8764 25.1336 11.3225 24.8398L8.8785 26.3065C8.62366 26.4594 8.32506 26.5227 8.03011 26.4865C7.73516 26.4502 7.46077 26.3165 7.2505 26.1065L5.89317 24.7492C5.68318 24.5389 5.54945 24.2645 5.51322 23.9696C5.47698 23.6746 5.54032 23.376 5.69317 23.1212L7.15984 20.6772C6.86603 20.1232 6.62496 19.5429 6.43984 18.9438L3.67584 18.2518C3.38773 18.1797 3.13197 18.0134 2.94912 17.7793C2.76627 17.5453 2.66681 17.2568 2.6665 16.9598V15.0425C2.66651 14.7453 2.76584 14.4566 2.94871 14.2222C3.13158 13.9879 3.38751 13.8214 3.67584 13.7492L6.43984 13.0572C6.6265 12.4527 6.8665 11.8749 7.15984 11.3238L5.69317 8.87984C5.54032 8.62499 5.47698 8.32639 5.51322 8.03145C5.54945 7.7365 5.68318 7.4621 5.89317 7.25184L7.2505 5.89317C7.46077 5.68318 7.73516 5.54945 8.03011 5.51322C8.32506 5.47698 8.62366 5.54032 8.8785 5.69317L11.3225 7.15984C11.8736 6.8665 12.4514 6.6265 13.0558 6.43984L13.7478 3.67584C13.82 3.38773 13.9863 3.13197 14.2204 2.94912C14.4544 2.76627 14.7428 2.66681 15.0398 2.6665H16.9572C17.2544 2.66651 17.5431 2.76584 17.7774 2.94871C18.0118 3.13158 18.1783 3.38751 18.2505 3.67584L18.9425 6.43984C19.5469 6.6265 20.1247 6.8665 20.6758 7.15984H20.6772ZM15.9998 19.7332C16.99 19.7332 17.9396 19.3398 18.6397 18.6397C19.3398 17.9396 19.7332 16.99 19.7332 15.9998C19.7332 15.0097 19.3398 14.0601 18.6397 13.36C17.9396 12.6598 16.99 12.2665 15.9998 12.2665C15.0097 12.2665 14.0601 12.6598 13.36 13.36C12.6598 14.0601 12.2665 15.0097 12.2665 15.9998C12.2665 16.99 12.6598 17.9396 13.36 18.6397C14.0601 19.3398 15.0097 19.7332 15.9998 19.7332ZM15.9998 21.3332C14.5854 21.3332 13.2288 20.7713 12.2286 19.7711C11.2284 18.7709 10.6665 17.4143 10.6665 15.9998C10.6665 14.5854 11.2284 13.2288 12.2286 12.2286C13.2288 11.2284 14.5854 10.6665 15.9998 10.6665C17.4143 10.6665 18.7709 11.2284 19.7711 12.2286C20.7713 13.2288 21.3332 14.5854 21.3332 15.9998C21.3332 17.4143 20.7713 18.7709 19.7711 19.7711C18.7709 20.7713 17.4143 21.3332 15.9998 21.3332Z" fill="white"/>
</svg>
