<svg width="32" height="32" viewBox="0 0 32 32" fill="none" xmlns="http://www.w3.org/2000/svg">
<path d="M1.37449 22.7051C1.37449 23.5616 1.56583 23.7484 2.43599 23.7484C4.02142 23.7484 5.60684 23.7484 7.19226 23.7484H9.55673C9.56584 23.8441 9.57495 23.9215 9.57495 24.0035C9.60229 25.1561 9.71163 25.2655 10.8551 25.2655H13.616C15.944 25.2655 18.272 25.27 20.6 25.2609C20.7868 25.2609 20.9554 25.2655 21.1012 25.27C21.2105 25.2746 21.3107 25.2791 21.4064 25.2791C21.6934 25.2791 21.9121 25.2427 22.0807 25.0787C22.313 24.8509 22.3495 24.45 22.3358 23.7484H24.6501C26.2538 23.7484 27.8574 23.7484 29.4611 23.7484C30.3176 23.7484 30.5044 23.557 30.5044 22.6869V22.0992C30.5089 21.3703 30.5089 20.6368 30.4998 19.9078C30.477 18.2541 29.2925 16.7917 27.6889 16.4226C27.2424 16.3224 26.7185 16.286 26.2356 16.7962C25.5021 17.5707 24.3905 17.5707 23.5385 16.7917C23.2834 16.5593 22.8688 16.3999 22.4861 16.3862C22.2492 16.3725 22.0351 16.45 21.8255 16.5183C21.6889 16.5639 21.5613 16.6049 21.4383 16.6185C21.2834 16.6368 21.0966 16.6094 20.9554 16.5411C20.7048 16.4226 20.4634 16.286 20.2173 16.1538C19.8574 15.9579 19.4884 15.7529 19.1012 15.5935C18.5545 15.3657 18.0397 15.4978 17.575 15.9898C17.1604 16.4272 16.5818 16.6778 15.9804 16.6778C15.4064 16.6778 14.8825 16.4545 14.4998 16.0491C13.8164 15.3292 13.1148 15.4614 12.6456 15.6208C12.1854 15.7803 11.6114 15.9807 11.2059 16.3497C10.8278 16.696 10.5772 16.737 10.1353 16.532C9.44739 16.2085 8.83236 16.3179 8.30844 16.86C7.97131 17.2062 7.51117 17.3976 7.0647 17.393C6.57267 17.3885 6.09887 17.1789 5.73896 16.7962C5.32438 16.3589 4.89613 16.3315 4.49978 16.3725C2.88702 16.5365 1.42916 18.1083 1.3836 19.7347C1.36082 20.4728 1.36537 21.2199 1.36993 21.9397L1.37449 22.7051ZM9.57951 20.8372C9.58862 21.3156 9.59773 21.8076 9.55673 22.2951H2.69567C2.70934 22.0491 2.71845 21.8031 2.72756 21.5616C2.75945 20.8236 2.78679 20.1265 2.87335 19.434C2.94624 18.8554 3.31982 18.3771 3.98497 18.0126C4.4041 17.7803 4.67745 17.7347 5.07381 18.0764C6.18543 19.0422 7.94853 19.0331 9.07837 18.0627C9.36539 17.8167 9.56129 17.7803 9.90297 17.9488C9.54306 18.901 9.56129 19.8851 9.57951 20.8372ZM10.9873 22.9785C10.9827 22.081 10.9827 21.1926 10.9964 20.3088C11.0009 19.8759 11.0191 19.3703 11.1194 18.8919C11.2652 18.1857 11.7071 17.6254 12.4314 17.2199C12.9508 16.9283 13.3016 16.86 13.7936 17.2882C15.0829 18.4135 17.0602 18.3589 18.3996 17.1652C18.6365 16.9557 18.7914 16.9238 19.0829 17.0377C19.8483 17.3292 20.7777 17.9488 20.8643 19.2381C20.9372 20.3406 20.9235 21.4295 20.9053 22.5821C20.9007 22.9967 20.8916 23.4113 20.8916 23.8304H10.9873V22.9785ZM22.1399 17.8668C22.3403 17.7712 22.5454 17.7529 22.8506 18.0172C24.0442 19.0559 25.7982 19.0468 27.0101 18.0035C27.2789 17.7757 27.452 17.7939 27.7435 17.9261C28.6046 18.3224 29.0738 19.024 29.1331 20.0081C29.165 20.5639 29.1604 21.1151 29.1513 21.7028C29.1467 21.8896 29.1467 22.081 29.1467 22.2723H22.3905L22.1399 17.8668Z" fill="#F2F2F7"/>
<path d="M14.2905 15.3339C14.8189 15.5936 15.3839 15.7211 15.9442 15.7211C16.6731 15.7211 17.3975 15.507 18.0308 15.0788C19.2654 14.2496 19.803 13.0195 19.7347 11.2109V11.2063C19.7255 11.0879 19.721 10.9649 19.7164 10.8464C19.7028 10.5731 19.6891 10.2997 19.6572 10.0264C19.4431 8.29972 18.0991 6.92387 16.459 6.74619C14.5547 6.54118 12.9009 7.56624 12.4408 9.23367C12.1583 10.2633 12.1902 11.4113 12.2494 12.2997C12.336 13.6164 13.1014 14.7508 14.2905 15.3339ZM18.3132 11.466C18.3087 11.5435 18.3041 11.6209 18.2996 11.6984C18.2768 12.0309 18.2586 12.3498 18.1766 12.6414C17.8577 13.7713 16.7962 14.4455 15.598 14.2861C14.4955 14.1357 13.639 13.1562 13.6071 12.0082C13.5934 11.466 13.5934 10.9284 13.6071 10.4227C13.6435 9.13799 14.6686 8.12205 15.9397 8.11294C15.9442 8.11294 15.9533 8.11294 15.9579 8.11294C17.2198 8.11294 18.2631 9.16077 18.2859 10.4546C18.2905 10.6369 18.2905 10.8191 18.2859 11.0013V11.2519L18.3132 11.466Z" fill="#F2F2F7"/>
<path d="M21.5066 12.8876C21.5066 13.1017 21.502 13.2794 21.5111 13.4616C21.5612 15.0653 22.7412 16.4229 24.3221 16.6872C24.5134 16.7191 24.7048 16.7327 24.8961 16.7327C26.3038 16.7327 27.5658 15.8671 28.0168 14.5277C28.4223 13.3159 28.4269 12.0493 28.0214 10.8648C27.6569 9.79877 26.7777 9.00605 25.6751 8.74182C24.5453 8.47302 23.3699 8.79193 22.5316 9.60287C21.748 10.3637 21.4063 11.3523 21.5111 12.5414L21.5066 12.8876ZM26.8232 12.9969C26.8278 13.1701 26.8278 13.3432 26.8187 13.5118C26.7458 14.4958 25.9986 15.2339 24.9963 15.3159C24.035 15.3888 23.1284 14.7327 22.9918 13.8398C22.8733 13.0698 22.8733 12.2726 22.9963 11.53C23.1376 10.6644 23.9303 10.063 24.8915 10.063C24.969 10.063 25.051 10.0676 25.1284 10.0767C26.0123 10.1678 26.7549 10.9605 26.8187 11.8808C26.8323 12.0721 26.8278 12.2589 26.8232 12.4503C26.8232 12.5414 26.8187 12.6325 26.8187 12.7282C26.8232 12.8147 26.8232 12.9058 26.8232 12.9969Z" fill="#F2F2F7"/>
<path d="M6.59104 16.705C6.73227 16.7232 6.87805 16.7324 7.01928 16.7324C8.40425 16.7324 9.63888 15.9214 10.1036 14.6549C10.2585 14.2312 10.3223 13.7756 10.3815 13.3383C10.4088 13.1469 10.4361 12.951 10.468 12.7642L10.5136 12.5273L10.3769 12.5046V12.4727C10.3769 12.2995 10.3769 12.131 10.3769 11.9579C10.3314 10.2449 9.16963 8.96013 7.41108 8.68679C5.81655 8.43622 4.25846 9.4385 3.86666 10.9647C3.65709 11.7756 3.61153 12.7369 3.71632 13.9032C3.84388 15.3155 5.07851 16.5228 6.59104 16.705ZM5.04206 12.4499C5.04206 12.4043 5.04662 12.3633 5.04662 12.3178C5.05573 12.0535 5.06028 11.803 5.11495 11.5661C5.30174 10.6868 6.08534 10.0763 7.01928 10.0763C7.02384 10.0763 7.02384 10.0763 7.0284 10.0763C7.98056 10.0809 8.76872 10.7141 8.90084 11.5797C9.00562 12.2722 9.01018 13.0103 8.91906 13.7164C8.78694 14.6914 7.89856 15.3975 6.90083 15.3201C5.86666 15.2426 5.1104 14.459 5.06484 13.4112C5.05573 13.2472 5.06028 13.0831 5.06028 12.9191V12.4544L5.04206 12.4499Z" fill="#F2F2F7"/>
</svg>
