<svg width="919" height="700" viewBox="0 0 919 700" fill="none" xmlns="http://www.w3.org/2000/svg">
<g clip-path="url(#clip0_1764_16261)">
<path d="M456.927 41.5822L464.29 41.5364L467.484 555.002L460.12 555.047L456.927 41.5822Z" fill="#235364"/>
<path d="M449.562 41.6281L456.925 41.5823L460.118 555.048L452.755 555.093L449.562 41.6281Z" fill="#283F4A"/>
<path d="M452.174 48.6207L452.146 48.6209C450.943 48.69 449.761 48.2804 448.859 47.4815C447.956 46.6825 447.407 45.5591 447.33 44.3564C447.328 44.0764 447.356 43.797 447.414 43.5231L451.917 4.65793C452.07 3.52097 452.642 2.4818 453.519 1.7432C454.397 1.0046 455.519 0.619559 456.665 0.663218L456.963 48.5909L452.174 48.6207Z" fill="#283F4A"/>
<path d="M461.753 48.5609L456.964 48.5907L456.666 0.663031C457.812 0.604114 458.939 0.974668 459.828 1.70234C460.716 2.43001 461.301 3.46255 461.468 4.59834L466.502 43.9033C466.551 44.5045 466.465 45.1092 466.251 45.6729C466.036 46.2365 465.697 46.7449 465.26 47.1607C464.316 48.0635 463.059 48.5653 461.753 48.5609Z" fill="#235364"/>
<path d="M460.646 639.807C460.688 645.97 459.516 652.08 457.195 657.789C454.875 663.499 451.453 668.695 447.124 673.081C442.795 677.467 437.644 680.957 431.966 683.352C426.287 685.746 420.193 686.999 414.03 687.037C407.867 687.075 401.758 685.899 396.05 683.575C390.342 681.251 385.148 677.826 380.765 673.494C376.382 669.162 372.895 664.008 370.504 658.329C368.113 652.649 366.865 646.553 366.831 640.391L366.791 634.079L373.1 634.04C373.929 634.034 374.751 634.192 375.519 634.505C376.287 634.817 376.986 635.277 377.576 635.86C378.166 636.442 378.636 637.135 378.958 637.899C379.28 638.663 379.449 639.483 379.454 640.312C379.511 649.405 383.177 658.103 389.647 664.493C396.117 670.883 404.86 674.441 413.953 674.384C423.046 674.328 431.744 670.661 438.134 664.192C444.524 657.722 448.082 648.979 448.025 639.886L447.498 555.11C447.492 554.281 447.65 553.46 447.963 552.692C448.275 551.924 448.735 551.225 449.318 550.635C449.9 550.045 450.593 549.576 451.357 549.254C452.121 548.932 452.941 548.763 453.77 548.758L460.079 548.719L460.646 639.807Z" fill="#357E64"/>
<path d="M360.481 634.118L366.793 634.079L366.832 640.391C366.866 646.553 368.115 652.649 370.506 658.329C372.897 664.009 376.383 669.162 380.767 673.494C385.15 677.826 390.344 681.251 396.051 683.575C401.759 685.899 407.869 687.075 414.031 687.037C420.194 686.999 426.289 685.746 431.967 683.352C437.645 680.957 442.796 677.467 447.125 673.081C451.454 668.695 454.877 663.499 457.197 657.79C459.517 652.08 460.689 645.97 460.647 639.807L460.081 548.719L466.392 548.68C468.067 548.67 469.676 549.325 470.867 550.501C472.058 551.678 472.733 553.28 472.743 554.954L473.271 639.729C473.331 647.554 471.848 655.315 468.907 662.566C465.966 669.818 461.623 676.419 456.129 681.991C450.634 687.563 444.095 691.997 436.885 695.039C429.675 698.081 421.936 699.672 414.11 699.721C406.285 699.77 398.527 698.275 391.28 695.323C384.032 692.37 377.438 688.018 371.875 682.515C366.311 677.011 361.887 670.465 358.856 663.251C355.824 656.036 354.245 648.295 354.209 640.469C354.203 639.64 354.362 638.819 354.674 638.051C354.986 637.283 355.447 636.584 356.029 635.995C356.612 635.405 357.305 634.936 358.069 634.614C358.833 634.292 359.652 634.124 360.481 634.118Z" fill="#1F7053"/>
</g>
<path d="M902.603 339.648V349.68C902.586 351.02 902.994 352.335 903.774 353.456C904.554 354.577 905.671 355.453 906.983 355.973C908.632 356.58 910.469 356.549 912.094 355.886C913.718 355.223 914.999 353.982 915.657 352.434L918.881 345.314L918.581 345.161C916.838 344.485 911.241 342.352 902.603 339.648Z" fill="black"/>
<path d="M291.642 373.519L294.808 380.511C295.465 382.06 296.746 383.301 298.371 383.964C299.996 384.628 301.833 384.659 303.482 384.052C304.794 383.533 305.912 382.656 306.692 381.535C307.472 380.414 307.88 379.1 307.863 377.759V365.381C297.481 370.175 291.694 373.559 291.694 373.559L291.642 373.519Z" fill="black"/>
<path d="M610.794 365.881V378.205C610.777 379.545 611.184 380.86 611.965 381.982C612.745 383.103 613.862 383.979 615.174 384.499C616.823 385.106 618.66 385.075 620.285 384.411C621.91 383.748 623.191 382.507 623.848 380.958L626.984 374.037L626.953 374.06C626.953 374.06 621.178 370.678 610.794 365.881Z" fill="black"/>
<path d="M0 345.368L3.22371 352.486C3.88129 354.035 5.16195 355.276 6.78671 355.939C8.41147 356.602 10.2487 356.634 11.8981 356.027C13.2095 355.507 14.3266 354.631 15.1067 353.51C15.8867 352.389 16.2943 351.074 16.2774 349.734V339.683C7.64987 342.387 2.07391 344.516 0.374392 345.176L0 345.368Z" fill="black"/>
<path d="M459.23 48.192L459.44 48.1814C450.926 47.79 182.176 37.9733 0 345.363C0 345.363 195.766 277.854 292.146 374.94C292.146 374.94 353.656 333.757 459.44 333.701C459.37 333.701 459.3 333.699 459.23 333.699V48.192Z" fill="#1F7053"/>
<path d="M459.44 48.1824L459.229 48.193V333.7C459.3 333.7 459.37 333.702 459.44 333.702C565.226 333.758 626.734 374.941 626.734 374.941C723.114 277.855 918.88 345.364 918.88 345.364C736.705 37.9743 467.956 47.791 459.44 48.1824Z" fill="#1F7053"/>
<path opacity="0.1" d="M459.439 48.6188L459.419 48.6179C452.456 48.2989 268.686 41.5867 102.36 211.39C158.782 205.885 244.607 207.871 304.238 258.308C304.326 258.226 304.433 258.126 304.56 258.01C304.963 257.64 305.567 257.098 306.372 256.409C307.982 255.031 310.394 253.065 313.61 250.706C320.043 245.989 329.694 239.699 342.579 233.399C368.35 220.799 407.054 208.162 458.812 207.983L458.818 207.983C458.905 207.984 458.966 207.985 459.025 207.987C459.087 207.988 459.146 207.989 459.231 207.99C459.231 207.99 459.232 207.99 459.232 207.99L459.229 208.427C562.315 208.918 613.371 258.895 613.371 258.895L459.439 48.6188ZM459.439 48.6188L459.459 48.6179C466.425 48.299 650.293 41.5803 816.654 211.525C760.258 205.855 673.508 207.457 613.388 258.308L459.439 48.6188Z" fill="white" stroke="black" stroke-width="0.874454"/>
<defs>
<clipPath id="clip0_1764_16261">
<rect width="119.064" height="698.689" fill="white" transform="matrix(-0.999981 0.00621948 0.00621948 0.999981 469.295 0.584473)"/>
</clipPath>
</defs>
</svg>
