<svg width="94" height="94" viewBox="0 0 94 94" fill="none" xmlns="http://www.w3.org/2000/svg">
<circle cx="47" cy="47" r="47" fill="#1F7053"/>
<g clip-path="url(#clip0_1316_6681)">
<mask id="path-2-outside-1_1316_6681" maskUnits="userSpaceOnUse" x="27.4458" y="50.9746" width="38" height="18" fill="black">
<rect fill="white" x="27.4458" y="50.9746" width="38" height="18"/>
<path d="M64.7098 67.5229C64.7119 67.4293 64.6775 67.3386 64.6139 67.2699C64.5504 67.2012 64.4625 67.16 64.3691 67.1549C64.2276 67.1398 64.0854 67.1341 63.9432 67.1379C62.7661 67.1379 61.5881 67.1328 60.4101 67.1379C60.1486 67.1379 60.0294 67.0987 60.1708 66.8074C60.2764 66.5902 60.2781 66.344 60.2764 66.0996C60.2713 64.9795 60.2764 63.8578 60.2764 62.7369C60.2764 61.9703 60.2764 61.9703 61.0532 61.9703C61.9995 61.966 62.5863 61.426 62.5957 60.4908C62.6068 58.7873 62.6153 57.0838 62.5693 55.3802C62.5233 53.6767 60.8752 52.0516 59.1725 52.0082C57.8966 51.9758 56.619 51.9758 55.3396 52.0082C53.6225 52.0524 51.9701 53.6989 51.9326 55.4152C51.8951 57.1033 51.9045 58.7924 51.9147 60.4806C51.9198 61.3187 52.4437 61.8434 53.2818 61.9115C53.48 61.9306 53.6795 61.9326 53.878 61.9175C54.1557 61.8919 54.2392 61.9933 54.2358 62.2735C54.2213 63.5648 54.2358 64.856 54.2272 66.1473C54.2272 66.3628 54.2272 66.5808 54.3243 66.7699C54.4947 67.1106 54.3303 67.1379 54.0467 67.1362C52.6566 67.1285 51.2657 67.1362 49.8731 67.1302C49.6337 67.1302 49.3407 67.229 49.1712 67.0791C49.0205 66.9462 49.2283 66.6932 49.2249 66.4829C49.2113 65.5749 49.2487 64.6661 49.2087 63.7573C49.1891 63.3101 49.3313 63.2164 49.7496 63.2309C50.5715 63.259 51.0792 62.7428 51.0817 61.9311C51.086 60.6969 51.0919 59.461 51.0817 58.2277C51.063 56.5991 49.6848 55.2465 48.0512 55.2397C47.1994 55.2397 46.3477 55.2346 45.4959 55.2397C44.0854 55.2491 42.7592 56.3725 42.5693 57.7711C42.3751 59.1953 42.4841 60.6322 42.5071 62.0614C42.519 62.7667 43.082 63.2223 43.7694 63.2402C44.3554 63.2556 44.3418 63.2556 44.358 63.8595C44.3861 64.8816 44.2728 65.9037 44.4244 66.9147C44.461 67.1498 44.3137 67.131 44.1689 67.131C42.5221 67.131 40.8754 67.131 39.2287 67.131C39.0328 67.131 38.9178 67.097 39.026 66.8645C39.1682 66.5612 39.158 66.2333 39.1571 65.9062C39.1529 64.8705 39.1571 63.8348 39.1571 62.799C39.1571 61.972 39.1571 61.972 39.9936 61.9635C40.8598 61.9549 41.462 61.4039 41.468 60.5495C41.4807 58.8188 41.4927 57.0872 41.4484 55.3538C41.4066 53.7023 39.767 52.0601 38.1163 52.0056C36.8267 51.963 35.5338 51.9656 34.2434 52.0056C32.6302 52.0541 30.9905 53.6469 30.9062 55.2602C30.8134 57.0309 30.8585 58.8069 30.8858 60.5794C30.8977 61.3042 31.419 61.8178 32.1387 61.8928C32.3648 61.9196 32.5929 61.9258 32.8201 61.9115C33.1131 61.8877 33.2085 61.9865 33.2051 62.2888C33.1889 63.5511 33.2051 64.8143 33.1957 66.0774C33.1957 66.333 33.1957 66.5961 33.3064 66.8261C33.4504 67.1174 33.2996 67.1302 33.0773 67.1285C32.3823 67.1242 31.6864 67.1285 30.9914 67.1285C30.31 67.1285 29.6286 67.1285 28.9472 67.1285C28.6686 67.1285 28.4583 67.2281 28.4463 67.522C28.4336 67.8372 28.6508 67.9649 28.9421 67.9785C29.0698 67.9854 29.1976 67.9785 29.3253 67.9785H46.5649C52.3397 67.9785 58.1146 67.9785 63.8895 67.9785C64.0591 67.983 64.2287 67.9724 64.3963 67.947C64.6289 67.9147 64.7243 67.7545 64.7098 67.5229ZM38.3974 57.9176C38.3974 59.2651 38.3974 60.6126 38.3974 61.9601C38.3974 63.3356 38.3974 64.7112 38.3974 66.0868C38.3974 66.626 38.0916 67.0101 37.6453 67.0731C37.1112 67.1498 36.6845 66.7546 36.6819 66.1532C36.6734 64.7206 36.6819 63.2879 36.6819 61.8561C36.6819 61.7284 36.6819 61.6006 36.6819 61.4728C36.6632 61.1994 36.5516 61.0044 36.2416 61.0146C35.9316 61.0248 35.8396 61.2233 35.8396 61.5018C35.8396 62.9333 35.8396 64.3657 35.8396 65.7989C35.8396 65.9403 35.8455 66.0834 35.8345 66.2248C35.791 66.7588 35.4188 67.1302 34.9393 67.1251C34.4069 67.1183 34.0602 66.7401 34.0602 66.1413C34.0568 63.4611 34.0568 60.7807 34.0602 58.0999C34.0602 57.7669 34.1361 57.3333 33.6344 57.3291C33.1327 57.3248 33.2136 57.7635 33.2085 58.0956C33.2085 58.9891 33.2 59.8843 33.2085 60.7761C33.2085 61.024 33.1497 61.1509 32.8772 61.1245C32.6949 61.1066 32.5084 61.1245 32.3244 61.1185C31.9539 61.1006 31.735 60.8988 31.735 60.5291C31.735 58.8137 31.6975 57.0957 31.7724 55.3828C31.8295 54.0856 33.0501 52.9229 34.3592 52.8667C35.6045 52.8131 36.8566 52.8139 38.1018 52.8667C39.4016 52.9221 40.6264 54.0898 40.6835 55.3888C40.7584 57.0872 40.7176 58.7907 40.7176 60.4925C40.7176 60.8468 40.5063 61.0265 40.1605 61.0691C39.29 61.1764 39.2517 61.1449 39.2517 60.2795C39.2517 59.4857 39.2517 58.691 39.2517 57.8946C39.2517 57.5837 39.3045 57.2132 38.8403 57.2056C38.3403 57.2022 38.3982 57.5948 38.3974 57.9176ZM48.7189 59.2668C48.3638 59.2719 48.2999 59.5411 48.2999 59.8366C48.2999 61.9075 48.2999 63.9784 48.2999 66.0493C48.3057 66.22 48.2986 66.3908 48.2786 66.5604C48.2232 66.9113 48.0231 67.1447 47.6525 67.1251C47.3025 67.1055 47.1304 66.8627 47.1176 66.5212C47.1057 66.1958 47.1117 65.8696 47.1117 65.5434C47.1117 64.6632 47.1117 63.7831 47.1117 62.9029C47.1117 62.5972 47.0751 62.3067 46.6756 62.3186C46.3042 62.3297 46.2795 62.6133 46.2795 62.8995C46.2795 63.9784 46.2795 65.0573 46.2795 66.1362C46.2795 66.2503 46.2846 66.3636 46.2795 66.4769C46.2514 66.8857 46.024 67.143 45.6986 67.1328C45.4065 67.1234 45.1339 66.8125 45.1305 66.4514C45.122 65.5579 45.1305 64.6627 45.1305 63.7709V63.1329C45.1305 62.0546 45.1305 60.9771 45.1305 59.8962C45.1305 59.6049 45.1058 59.3349 44.7293 59.3256C44.3324 59.3162 44.2822 59.593 44.283 59.9031C44.283 60.57 44.289 61.2369 44.2787 61.903C44.2787 62.0733 44.3886 62.334 44.0351 62.3161C43.7183 62.299 43.3444 62.4013 43.2686 61.9243C43.2545 61.7688 43.2519 61.6125 43.2609 61.4567C43.2609 60.4218 43.2541 59.386 43.2609 58.3512C43.272 56.9798 44.2285 56.0199 45.5879 56.0105C46.3826 56.0046 47.1773 56.0003 47.9728 56.0105C48.5466 56.0158 49.0957 56.2448 49.5032 56.6489C49.9106 57.053 50.1442 57.6002 50.1541 58.174C50.1763 59.3792 50.1652 60.5853 50.1601 61.7906C50.1601 62.2335 49.6346 62.512 49.2385 62.2939C49.0903 62.2088 49.1465 62.0682 49.1457 61.9532C49.1397 61.2446 49.138 60.5351 49.1457 59.8238C49.144 59.5189 49.0767 59.2608 48.7189 59.2668ZM59.4297 57.7635V61.9371C59.4297 62.6798 59.4297 63.4228 59.4297 64.1661C59.4297 64.7845 59.4297 65.4034 59.4297 66.0229C59.4297 66.3176 59.3863 66.5893 59.1742 66.8074C58.9238 67.0629 58.6206 67.1592 58.2816 67.034C58.1099 66.9807 57.9607 66.8719 57.8576 66.7247C57.7544 66.5774 57.7031 66.4001 57.7118 66.2205C57.7118 65.27 57.7118 64.3194 57.7118 63.3689C57.7118 62.7871 57.7118 62.2062 57.7118 61.6245C57.7118 61.3263 57.6905 61.0282 57.2901 61.0197C56.8898 61.0112 56.8643 61.3042 56.8643 61.61C56.8643 63.0426 56.8643 64.4756 56.8643 65.9088C56.8688 66.0363 56.8657 66.164 56.8549 66.2912C56.7961 66.7767 56.429 67.1276 55.9861 67.1268C55.5432 67.1259 55.1752 66.7767 55.1241 66.2912C55.1112 66.1212 55.1072 65.9506 55.1122 65.7802C55.1122 63.2249 55.1122 60.6711 55.1122 58.1186C55.1146 57.9629 55.109 57.8071 55.0952 57.6519C55.0722 57.4304 54.9163 57.3299 54.7161 57.3214C54.516 57.3129 54.3499 57.3998 54.3064 57.6153C54.2807 57.7557 54.2687 57.8983 54.2707 58.0411C54.2707 58.9491 54.2613 59.8571 54.2707 60.7667C54.2707 61.0444 54.1778 61.1551 53.9002 61.1287C53.7298 61.1117 53.5595 61.1287 53.3891 61.1219C53.0194 61.0998 52.7971 60.8911 52.7929 60.5257C52.7835 58.8665 52.7367 57.2039 52.8108 55.5472C52.8789 54.0387 54.1395 52.8897 55.6471 52.8505C56.7391 52.8224 57.8327 52.8207 58.9238 52.8505C59.6571 52.8626 60.3576 53.1559 60.8808 53.6698C61.4039 54.1837 61.7096 54.879 61.7346 55.6119C61.784 57.2141 61.7567 58.8179 61.7499 60.4209C61.7499 60.8775 61.554 61.0487 61.0907 61.0759C60.9774 61.0819 60.8624 61.0666 60.75 61.081C60.3812 61.1296 60.2577 60.9882 60.2687 60.6083C60.2951 59.6578 60.2747 58.7072 60.2781 57.7566C60.2781 57.456 60.2202 57.2022 59.8522 57.2056C59.4843 57.209 59.4297 57.4688 59.4297 57.7635Z"/>
</mask>
<path d="M64.7098 67.5229C64.7119 67.4293 64.6775 67.3386 64.6139 67.2699C64.5504 67.2012 64.4625 67.16 64.3691 67.1549C64.2276 67.1398 64.0854 67.1341 63.9432 67.1379C62.7661 67.1379 61.5881 67.1328 60.4101 67.1379C60.1486 67.1379 60.0294 67.0987 60.1708 66.8074C60.2764 66.5902 60.2781 66.344 60.2764 66.0996C60.2713 64.9795 60.2764 63.8578 60.2764 62.7369C60.2764 61.9703 60.2764 61.9703 61.0532 61.9703C61.9995 61.966 62.5863 61.426 62.5957 60.4908C62.6068 58.7873 62.6153 57.0838 62.5693 55.3802C62.5233 53.6767 60.8752 52.0516 59.1725 52.0082C57.8966 51.9758 56.619 51.9758 55.3396 52.0082C53.6225 52.0524 51.9701 53.6989 51.9326 55.4152C51.8951 57.1033 51.9045 58.7924 51.9147 60.4806C51.9198 61.3187 52.4437 61.8434 53.2818 61.9115C53.48 61.9306 53.6795 61.9326 53.878 61.9175C54.1557 61.8919 54.2392 61.9933 54.2358 62.2735C54.2213 63.5648 54.2358 64.856 54.2272 66.1473C54.2272 66.3628 54.2272 66.5808 54.3243 66.7699C54.4947 67.1106 54.3303 67.1379 54.0467 67.1362C52.6566 67.1285 51.2657 67.1362 49.8731 67.1302C49.6337 67.1302 49.3407 67.229 49.1712 67.0791C49.0205 66.9462 49.2283 66.6932 49.2249 66.4829C49.2113 65.5749 49.2487 64.6661 49.2087 63.7573C49.1891 63.3101 49.3313 63.2164 49.7496 63.2309C50.5715 63.259 51.0792 62.7428 51.0817 61.9311C51.086 60.6969 51.0919 59.461 51.0817 58.2277C51.063 56.5991 49.6848 55.2465 48.0512 55.2397C47.1994 55.2397 46.3477 55.2346 45.4959 55.2397C44.0854 55.2491 42.7592 56.3725 42.5693 57.7711C42.3751 59.1953 42.4841 60.6322 42.5071 62.0614C42.519 62.7667 43.082 63.2223 43.7694 63.2402C44.3554 63.2556 44.3418 63.2556 44.358 63.8595C44.3861 64.8816 44.2728 65.9037 44.4244 66.9147C44.461 67.1498 44.3137 67.131 44.1689 67.131C42.5221 67.131 40.8754 67.131 39.2287 67.131C39.0328 67.131 38.9178 67.097 39.026 66.8645C39.1682 66.5612 39.158 66.2333 39.1571 65.9062C39.1529 64.8705 39.1571 63.8348 39.1571 62.799C39.1571 61.972 39.1571 61.972 39.9936 61.9635C40.8598 61.9549 41.462 61.4039 41.468 60.5495C41.4807 58.8188 41.4927 57.0872 41.4484 55.3538C41.4066 53.7023 39.767 52.0601 38.1163 52.0056C36.8267 51.963 35.5338 51.9656 34.2434 52.0056C32.6302 52.0541 30.9905 53.6469 30.9062 55.2602C30.8134 57.0309 30.8585 58.8069 30.8858 60.5794C30.8977 61.3042 31.419 61.8178 32.1387 61.8928C32.3648 61.9196 32.5929 61.9258 32.8201 61.9115C33.1131 61.8877 33.2085 61.9865 33.2051 62.2888C33.1889 63.5511 33.2051 64.8143 33.1957 66.0774C33.1957 66.333 33.1957 66.5961 33.3064 66.8261C33.4504 67.1174 33.2996 67.1302 33.0773 67.1285C32.3823 67.1242 31.6864 67.1285 30.9914 67.1285C30.31 67.1285 29.6286 67.1285 28.9472 67.1285C28.6686 67.1285 28.4583 67.2281 28.4463 67.522C28.4336 67.8372 28.6508 67.9649 28.9421 67.9785C29.0698 67.9854 29.1976 67.9785 29.3253 67.9785H46.5649C52.3397 67.9785 58.1146 67.9785 63.8895 67.9785C64.0591 67.983 64.2287 67.9724 64.3963 67.947C64.6289 67.9147 64.7243 67.7545 64.7098 67.5229ZM38.3974 57.9176C38.3974 59.2651 38.3974 60.6126 38.3974 61.9601C38.3974 63.3356 38.3974 64.7112 38.3974 66.0868C38.3974 66.626 38.0916 67.0101 37.6453 67.0731C37.1112 67.1498 36.6845 66.7546 36.6819 66.1532C36.6734 64.7206 36.6819 63.2879 36.6819 61.8561C36.6819 61.7284 36.6819 61.6006 36.6819 61.4728C36.6632 61.1994 36.5516 61.0044 36.2416 61.0146C35.9316 61.0248 35.8396 61.2233 35.8396 61.5018C35.8396 62.9333 35.8396 64.3657 35.8396 65.7989C35.8396 65.9403 35.8455 66.0834 35.8345 66.2248C35.791 66.7588 35.4188 67.1302 34.9393 67.1251C34.4069 67.1183 34.0602 66.7401 34.0602 66.1413C34.0568 63.4611 34.0568 60.7807 34.0602 58.0999C34.0602 57.7669 34.1361 57.3333 33.6344 57.3291C33.1327 57.3248 33.2136 57.7635 33.2085 58.0956C33.2085 58.9891 33.2 59.8843 33.2085 60.7761C33.2085 61.024 33.1497 61.1509 32.8772 61.1245C32.6949 61.1066 32.5084 61.1245 32.3244 61.1185C31.9539 61.1006 31.735 60.8988 31.735 60.5291C31.735 58.8137 31.6975 57.0957 31.7724 55.3828C31.8295 54.0856 33.0501 52.9229 34.3592 52.8667C35.6045 52.8131 36.8566 52.8139 38.1018 52.8667C39.4016 52.9221 40.6264 54.0898 40.6835 55.3888C40.7584 57.0872 40.7176 58.7907 40.7176 60.4925C40.7176 60.8468 40.5063 61.0265 40.1605 61.0691C39.29 61.1764 39.2517 61.1449 39.2517 60.2795C39.2517 59.4857 39.2517 58.691 39.2517 57.8946C39.2517 57.5837 39.3045 57.2132 38.8403 57.2056C38.3403 57.2022 38.3982 57.5948 38.3974 57.9176ZM48.7189 59.2668C48.3638 59.2719 48.2999 59.5411 48.2999 59.8366C48.2999 61.9075 48.2999 63.9784 48.2999 66.0493C48.3057 66.22 48.2986 66.3908 48.2786 66.5604C48.2232 66.9113 48.0231 67.1447 47.6525 67.1251C47.3025 67.1055 47.1304 66.8627 47.1176 66.5212C47.1057 66.1958 47.1117 65.8696 47.1117 65.5434C47.1117 64.6632 47.1117 63.7831 47.1117 62.9029C47.1117 62.5972 47.0751 62.3067 46.6756 62.3186C46.3042 62.3297 46.2795 62.6133 46.2795 62.8995C46.2795 63.9784 46.2795 65.0573 46.2795 66.1362C46.2795 66.2503 46.2846 66.3636 46.2795 66.4769C46.2514 66.8857 46.024 67.143 45.6986 67.1328C45.4065 67.1234 45.1339 66.8125 45.1305 66.4514C45.122 65.5579 45.1305 64.6627 45.1305 63.7709V63.1329C45.1305 62.0546 45.1305 60.9771 45.1305 59.8962C45.1305 59.6049 45.1058 59.3349 44.7293 59.3256C44.3324 59.3162 44.2822 59.593 44.283 59.9031C44.283 60.57 44.289 61.2369 44.2787 61.903C44.2787 62.0733 44.3886 62.334 44.0351 62.3161C43.7183 62.299 43.3444 62.4013 43.2686 61.9243C43.2545 61.7688 43.2519 61.6125 43.2609 61.4567C43.2609 60.4218 43.2541 59.386 43.2609 58.3512C43.272 56.9798 44.2285 56.0199 45.5879 56.0105C46.3826 56.0046 47.1773 56.0003 47.9728 56.0105C48.5466 56.0158 49.0957 56.2448 49.5032 56.6489C49.9106 57.053 50.1442 57.6002 50.1541 58.174C50.1763 59.3792 50.1652 60.5853 50.1601 61.7906C50.1601 62.2335 49.6346 62.512 49.2385 62.2939C49.0903 62.2088 49.1465 62.0682 49.1457 61.9532C49.1397 61.2446 49.138 60.5351 49.1457 59.8238C49.144 59.5189 49.0767 59.2608 48.7189 59.2668ZM59.4297 57.7635V61.9371C59.4297 62.6798 59.4297 63.4228 59.4297 64.1661C59.4297 64.7845 59.4297 65.4034 59.4297 66.0229C59.4297 66.3176 59.3863 66.5893 59.1742 66.8074C58.9238 67.0629 58.6206 67.1592 58.2816 67.034C58.1099 66.9807 57.9607 66.8719 57.8576 66.7247C57.7544 66.5774 57.7031 66.4001 57.7118 66.2205C57.7118 65.27 57.7118 64.3194 57.7118 63.3689C57.7118 62.7871 57.7118 62.2062 57.7118 61.6245C57.7118 61.3263 57.6905 61.0282 57.2901 61.0197C56.8898 61.0112 56.8643 61.3042 56.8643 61.61C56.8643 63.0426 56.8643 64.4756 56.8643 65.9088C56.8688 66.0363 56.8657 66.164 56.8549 66.2912C56.7961 66.7767 56.429 67.1276 55.9861 67.1268C55.5432 67.1259 55.1752 66.7767 55.1241 66.2912C55.1112 66.1212 55.1072 65.9506 55.1122 65.7802C55.1122 63.2249 55.1122 60.6711 55.1122 58.1186C55.1146 57.9629 55.109 57.8071 55.0952 57.6519C55.0722 57.4304 54.9163 57.3299 54.7161 57.3214C54.516 57.3129 54.3499 57.3998 54.3064 57.6153C54.2807 57.7557 54.2687 57.8983 54.2707 58.0411C54.2707 58.9491 54.2613 59.8571 54.2707 60.7667C54.2707 61.0444 54.1778 61.1551 53.9002 61.1287C53.7298 61.1117 53.5595 61.1287 53.3891 61.1219C53.0194 61.0998 52.7971 60.8911 52.7929 60.5257C52.7835 58.8665 52.7367 57.2039 52.8108 55.5472C52.8789 54.0387 54.1395 52.8897 55.6471 52.8505C56.7391 52.8224 57.8327 52.8207 58.9238 52.8505C59.6571 52.8626 60.3576 53.1559 60.8808 53.6698C61.4039 54.1837 61.7096 54.879 61.7346 55.6119C61.784 57.2141 61.7567 58.8179 61.7499 60.4209C61.7499 60.8775 61.554 61.0487 61.0907 61.0759C60.9774 61.0819 60.8624 61.0666 60.75 61.081C60.3812 61.1296 60.2577 60.9882 60.2687 60.6083C60.2951 59.6578 60.2747 58.7072 60.2781 57.7566C60.2781 57.456 60.2202 57.2022 59.8522 57.2056C59.4843 57.209 59.4297 57.4688 59.4297 57.7635Z" fill="white"/>
<path d="M64.7098 67.5229C64.7119 67.4293 64.6775 67.3386 64.6139 67.2699C64.5504 67.2012 64.4625 67.16 64.3691 67.1549C64.2276 67.1398 64.0854 67.1341 63.9432 67.1379C62.7661 67.1379 61.5881 67.1328 60.4101 67.1379C60.1486 67.1379 60.0294 67.0987 60.1708 66.8074C60.2764 66.5902 60.2781 66.344 60.2764 66.0996C60.2713 64.9795 60.2764 63.8578 60.2764 62.7369C60.2764 61.9703 60.2764 61.9703 61.0532 61.9703C61.9995 61.966 62.5863 61.426 62.5957 60.4908C62.6068 58.7873 62.6153 57.0838 62.5693 55.3802C62.5233 53.6767 60.8752 52.0516 59.1725 52.0082C57.8966 51.9758 56.619 51.9758 55.3396 52.0082C53.6225 52.0524 51.9701 53.6989 51.9326 55.4152C51.8951 57.1033 51.9045 58.7924 51.9147 60.4806C51.9198 61.3187 52.4437 61.8434 53.2818 61.9115C53.48 61.9306 53.6795 61.9326 53.878 61.9175C54.1557 61.8919 54.2392 61.9933 54.2358 62.2735C54.2213 63.5648 54.2358 64.856 54.2272 66.1473C54.2272 66.3628 54.2272 66.5808 54.3243 66.7699C54.4947 67.1106 54.3303 67.1379 54.0467 67.1362C52.6566 67.1285 51.2657 67.1362 49.8731 67.1302C49.6337 67.1302 49.3407 67.229 49.1712 67.0791C49.0205 66.9462 49.2283 66.6932 49.2249 66.4829C49.2113 65.5749 49.2487 64.6661 49.2087 63.7573C49.1891 63.3101 49.3313 63.2164 49.7496 63.2309C50.5715 63.259 51.0792 62.7428 51.0817 61.9311C51.086 60.6969 51.0919 59.461 51.0817 58.2277C51.063 56.5991 49.6848 55.2465 48.0512 55.2397C47.1994 55.2397 46.3477 55.2346 45.4959 55.2397C44.0854 55.2491 42.7592 56.3725 42.5693 57.7711C42.3751 59.1953 42.4841 60.6322 42.5071 62.0614C42.519 62.7667 43.082 63.2223 43.7694 63.2402C44.3554 63.2556 44.3418 63.2556 44.358 63.8595C44.3861 64.8816 44.2728 65.9037 44.4244 66.9147C44.461 67.1498 44.3137 67.131 44.1689 67.131C42.5221 67.131 40.8754 67.131 39.2287 67.131C39.0328 67.131 38.9178 67.097 39.026 66.8645C39.1682 66.5612 39.158 66.2333 39.1571 65.9062C39.1529 64.8705 39.1571 63.8348 39.1571 62.799C39.1571 61.972 39.1571 61.972 39.9936 61.9635C40.8598 61.9549 41.462 61.4039 41.468 60.5495C41.4807 58.8188 41.4927 57.0872 41.4484 55.3538C41.4066 53.7023 39.767 52.0601 38.1163 52.0056C36.8267 51.963 35.5338 51.9656 34.2434 52.0056C32.6302 52.0541 30.9905 53.6469 30.9062 55.2602C30.8134 57.0309 30.8585 58.8069 30.8858 60.5794C30.8977 61.3042 31.419 61.8178 32.1387 61.8928C32.3648 61.9196 32.5929 61.9258 32.8201 61.9115C33.1131 61.8877 33.2085 61.9865 33.2051 62.2888C33.1889 63.5511 33.2051 64.8143 33.1957 66.0774C33.1957 66.333 33.1957 66.5961 33.3064 66.8261C33.4504 67.1174 33.2996 67.1302 33.0773 67.1285C32.3823 67.1242 31.6864 67.1285 30.9914 67.1285C30.31 67.1285 29.6286 67.1285 28.9472 67.1285C28.6686 67.1285 28.4583 67.2281 28.4463 67.522C28.4336 67.8372 28.6508 67.9649 28.9421 67.9785C29.0698 67.9854 29.1976 67.9785 29.3253 67.9785H46.5649C52.3397 67.9785 58.1146 67.9785 63.8895 67.9785C64.0591 67.983 64.2287 67.9724 64.3963 67.947C64.6289 67.9147 64.7243 67.7545 64.7098 67.5229ZM38.3974 57.9176C38.3974 59.2651 38.3974 60.6126 38.3974 61.9601C38.3974 63.3356 38.3974 64.7112 38.3974 66.0868C38.3974 66.626 38.0916 67.0101 37.6453 67.0731C37.1112 67.1498 36.6845 66.7546 36.6819 66.1532C36.6734 64.7206 36.6819 63.2879 36.6819 61.8561C36.6819 61.7284 36.6819 61.6006 36.6819 61.4728C36.6632 61.1994 36.5516 61.0044 36.2416 61.0146C35.9316 61.0248 35.8396 61.2233 35.8396 61.5018C35.8396 62.9333 35.8396 64.3657 35.8396 65.7989C35.8396 65.9403 35.8455 66.0834 35.8345 66.2248C35.791 66.7588 35.4188 67.1302 34.9393 67.1251C34.4069 67.1183 34.0602 66.7401 34.0602 66.1413C34.0568 63.4611 34.0568 60.7807 34.0602 58.0999C34.0602 57.7669 34.1361 57.3333 33.6344 57.3291C33.1327 57.3248 33.2136 57.7635 33.2085 58.0956C33.2085 58.9891 33.2 59.8843 33.2085 60.7761C33.2085 61.024 33.1497 61.1509 32.8772 61.1245C32.6949 61.1066 32.5084 61.1245 32.3244 61.1185C31.9539 61.1006 31.735 60.8988 31.735 60.5291C31.735 58.8137 31.6975 57.0957 31.7724 55.3828C31.8295 54.0856 33.0501 52.9229 34.3592 52.8667C35.6045 52.8131 36.8566 52.8139 38.1018 52.8667C39.4016 52.9221 40.6264 54.0898 40.6835 55.3888C40.7584 57.0872 40.7176 58.7907 40.7176 60.4925C40.7176 60.8468 40.5063 61.0265 40.1605 61.0691C39.29 61.1764 39.2517 61.1449 39.2517 60.2795C39.2517 59.4857 39.2517 58.691 39.2517 57.8946C39.2517 57.5837 39.3045 57.2132 38.8403 57.2056C38.3403 57.2022 38.3982 57.5948 38.3974 57.9176ZM48.7189 59.2668C48.3638 59.2719 48.2999 59.5411 48.2999 59.8366C48.2999 61.9075 48.2999 63.9784 48.2999 66.0493C48.3057 66.22 48.2986 66.3908 48.2786 66.5604C48.2232 66.9113 48.0231 67.1447 47.6525 67.1251C47.3025 67.1055 47.1304 66.8627 47.1176 66.5212C47.1057 66.1958 47.1117 65.8696 47.1117 65.5434C47.1117 64.6632 47.1117 63.7831 47.1117 62.9029C47.1117 62.5972 47.0751 62.3067 46.6756 62.3186C46.3042 62.3297 46.2795 62.6133 46.2795 62.8995C46.2795 63.9784 46.2795 65.0573 46.2795 66.1362C46.2795 66.2503 46.2846 66.3636 46.2795 66.4769C46.2514 66.8857 46.024 67.143 45.6986 67.1328C45.4065 67.1234 45.1339 66.8125 45.1305 66.4514C45.122 65.5579 45.1305 64.6627 45.1305 63.7709V63.1329C45.1305 62.0546 45.1305 60.9771 45.1305 59.8962C45.1305 59.6049 45.1058 59.3349 44.7293 59.3256C44.3324 59.3162 44.2822 59.593 44.283 59.9031C44.283 60.57 44.289 61.2369 44.2787 61.903C44.2787 62.0733 44.3886 62.334 44.0351 62.3161C43.7183 62.299 43.3444 62.4013 43.2686 61.9243C43.2545 61.7688 43.2519 61.6125 43.2609 61.4567C43.2609 60.4218 43.2541 59.386 43.2609 58.3512C43.272 56.9798 44.2285 56.0199 45.5879 56.0105C46.3826 56.0046 47.1773 56.0003 47.9728 56.0105C48.5466 56.0158 49.0957 56.2448 49.5032 56.6489C49.9106 57.053 50.1442 57.6002 50.1541 58.174C50.1763 59.3792 50.1652 60.5853 50.1601 61.7906C50.1601 62.2335 49.6346 62.512 49.2385 62.2939C49.0903 62.2088 49.1465 62.0682 49.1457 61.9532C49.1397 61.2446 49.138 60.5351 49.1457 59.8238C49.144 59.5189 49.0767 59.2608 48.7189 59.2668ZM59.4297 57.7635V61.9371C59.4297 62.6798 59.4297 63.4228 59.4297 64.1661C59.4297 64.7845 59.4297 65.4034 59.4297 66.0229C59.4297 66.3176 59.3863 66.5893 59.1742 66.8074C58.9238 67.0629 58.6206 67.1592 58.2816 67.034C58.1099 66.9807 57.9607 66.8719 57.8576 66.7247C57.7544 66.5774 57.7031 66.4001 57.7118 66.2205C57.7118 65.27 57.7118 64.3194 57.7118 63.3689C57.7118 62.7871 57.7118 62.2062 57.7118 61.6245C57.7118 61.3263 57.6905 61.0282 57.2901 61.0197C56.8898 61.0112 56.8643 61.3042 56.8643 61.61C56.8643 63.0426 56.8643 64.4756 56.8643 65.9088C56.8688 66.0363 56.8657 66.164 56.8549 66.2912C56.7961 66.7767 56.429 67.1276 55.9861 67.1268C55.5432 67.1259 55.1752 66.7767 55.1241 66.2912C55.1112 66.1212 55.1072 65.9506 55.1122 65.7802C55.1122 63.2249 55.1122 60.6711 55.1122 58.1186C55.1146 57.9629 55.109 57.8071 55.0952 57.6519C55.0722 57.4304 54.9163 57.3299 54.7161 57.3214C54.516 57.3129 54.3499 57.3998 54.3064 57.6153C54.2807 57.7557 54.2687 57.8983 54.2707 58.0411C54.2707 58.9491 54.2613 59.8571 54.2707 60.7667C54.2707 61.0444 54.1778 61.1551 53.9002 61.1287C53.7298 61.1117 53.5595 61.1287 53.3891 61.1219C53.0194 61.0998 52.7971 60.8911 52.7929 60.5257C52.7835 58.8665 52.7367 57.2039 52.8108 55.5472C52.8789 54.0387 54.1395 52.8897 55.6471 52.8505C56.7391 52.8224 57.8327 52.8207 58.9238 52.8505C59.6571 52.8626 60.3576 53.1559 60.8808 53.6698C61.4039 54.1837 61.7096 54.879 61.7346 55.6119C61.784 57.2141 61.7567 58.8179 61.7499 60.4209C61.7499 60.8775 61.554 61.0487 61.0907 61.0759C60.9774 61.0819 60.8624 61.0666 60.75 61.081C60.3812 61.1296 60.2577 60.9882 60.2687 60.6083C60.2951 59.6578 60.2747 58.7072 60.2781 57.7566C60.2781 57.456 60.2202 57.2022 59.8522 57.2056C59.4843 57.209 59.4297 57.4688 59.4297 57.7635Z" stroke="white" stroke-width="0.5" mask="url(#path-2-outside-1_1316_6681)"/>
<path d="M65.8534 41.3243L65.8535 41.3246C66.0969 42.3655 66.2383 43.4276 66.2757 44.4959M65.8534 41.3243L66.2757 44.4959M65.8534 41.3243C64.2812 34.6689 60.3164 30.0038 54.0594 27.3053C51.556 26.2248 48.9094 25.8111 46.1923 25.8829C45.0371 25.8875 43.8859 26.0196 42.7597 26.2769C37.585 27.4267 33.4598 30.1695 30.4731 34.5573L30.4731 34.5573C28.4445 37.5386 27.3684 40.8556 27.197 44.4603L27.197 44.4605C27.1901 44.6129 27.1964 44.7843 27.261 44.9252C27.2945 44.9981 27.3443 45.0646 27.4163 45.1148C27.4881 45.1649 27.5752 45.1941 27.6761 45.2031M65.8534 41.3243L65.8941 45.187M66.2757 44.4959C66.2764 44.5149 66.2778 44.5399 66.2793 44.5668C66.2814 44.6056 66.2838 44.6484 66.2845 44.6824C66.286 44.7479 66.2839 44.8213 66.267 44.8911C66.2496 44.9625 66.2152 45.036 66.1482 45.0929C66.0818 45.1495 65.9956 45.1793 65.8941 45.187M66.2757 44.4959L65.8941 45.187M65.8941 45.187C65.6983 45.206 65.5469 45.1431 65.44 45.0184C65.3402 44.9019 65.2888 44.7424 65.2574 44.5843L65.3772 44.5605L65.2574 44.5843C65.1189 43.8873 64.8556 43.3097 64.4586 42.8597C64.062 42.4102 63.5262 42.0812 62.8316 41.8901L62.8314 41.8901C60.8649 41.346 58.8656 42.8082 58.7837 44.8409L58.7836 44.842C58.7744 45.0318 58.7594 45.2582 58.5755 45.4367L58.5729 45.4392L58.5728 45.4392C58.4972 45.5084 58.4034 45.5547 58.3025 45.5728C58.203 45.5905 58.1007 45.5801 58.0069 45.5428C57.8758 45.4992 57.7917 45.415 57.7414 45.3105C57.6936 45.2114 57.678 45.0977 57.6697 44.9951C57.5792 43.8833 57.1406 42.9559 56.2076 42.329L56.2075 42.329C54.1053 40.9158 51.3747 42.2945 51.1422 44.9125C51.1286 45.0682 51.1076 45.2447 51.0212 45.3746C50.9749 45.4442 50.9106 45.5002 50.824 45.5338C50.7395 45.5666 50.6414 45.5753 50.53 45.5642M50.53 45.5642L50.5424 45.4398L50.5302 45.5642C50.5302 45.5642 50.5301 45.5642 50.53 45.5642ZM50.53 45.5642C50.3293 45.5444 50.194 45.4542 50.1157 45.3141C50.0436 45.1851 50.0283 45.0276 50.0256 44.8869M50.0256 44.8869L50.1495 44.8845L50.0256 44.8868C50.0256 44.8868 50.0256 44.8868 50.0256 44.8869ZM50.0256 44.8869C49.9816 42.6158 47.4583 41.2009 45.4233 42.0393L45.4232 42.0394C44.2168 42.5348 43.7079 43.5425 43.5408 44.7938C43.5377 44.8229 43.5382 44.8523 43.5389 44.8911C43.539 44.8954 43.5391 44.8998 43.5392 44.9044C43.5399 44.9472 43.5403 45.0007 43.5303 45.0565L43.5302 45.0573C43.5051 45.1912 43.4577 45.3246 43.3624 45.4233C43.2624 45.5267 43.1245 45.577 42.9523 45.5698C42.7864 45.5629 42.6517 45.5118 42.5593 45.4025C42.4709 45.2977 42.4386 45.159 42.4299 45.0147L42.5547 45.0071L42.4299 45.0146C42.3703 44.0277 42.0112 43.1841 41.2449 42.548C40.3085 41.7738 39.2513 41.5737 38.1098 41.9736L38.1097 41.9736C36.9206 42.3894 36.2295 43.2625 35.9625 44.4944L35.9621 44.4962C35.9254 44.654 35.9028 44.8147 35.8945 44.9765C35.89 45.1193 35.8678 45.2691 35.7858 45.3852C35.6967 45.5113 35.5552 45.5742 35.3675 45.5767L35.3671 45.5767C35.1707 45.5787 35.017 45.5142 34.9163 45.3889C34.8197 45.2689 34.7869 45.1117 34.7869 44.9565M34.7869 44.9565C34.7869 44.9563 34.7869 44.9562 34.7869 44.956H34.9117L34.7869 44.9568C34.7869 44.9567 34.7869 44.9566 34.7869 44.9565ZM34.7869 44.9565C34.783 44.3135 34.5771 43.6881 34.1985 43.1685L34.1972 43.1669L34.1973 43.1669C33.4397 42.0908 32.0777 41.5625 30.8236 41.8539L30.8222 41.8542L30.8222 41.8542C30.1803 41.9954 29.5963 42.3279 29.1473 42.8079C28.6983 43.2879 28.4055 43.8928 28.3075 44.5426C28.2837 44.7024 28.2437 44.875 28.1503 45.0043C28.1018 45.0714 28.0383 45.1279 27.9558 45.164C27.8737 45.2 27.7801 45.2125 27.6761 45.2031M27.6761 45.2031L27.6873 45.0787L27.6762 45.2032C27.6761 45.2032 27.6761 45.2031 27.6761 45.2031ZM35.0216 42.3034L35.0174 42.3504C35.0126 42.3882 35.0061 42.4265 34.9981 42.4693C34.1811 41.4625 33.1671 40.8489 31.8859 40.743C30.6584 40.6379 29.5758 40.9966 28.6406 41.8014C29.9952 34.6692 35.7763 29.298 41.6213 27.7601C40.9845 28.2568 40.3962 28.8132 39.8644 29.4221L39.8637 29.4229C38.0019 31.5896 36.8606 34.1243 36.0688 36.8238C35.5405 38.6115 35.1897 40.4469 35.0216 42.3034ZM44.1276 27.5612C44.4118 27.4269 44.71 27.3251 45.0166 27.2578C44.5224 28.1769 44.1997 29.1185 43.9416 30.0801C43.3316 32.3504 43.0174 34.6733 42.7829 37.0026L42.7691 37.1401H42.77C42.6047 38.8107 42.5021 40.4853 42.4338 42.1945C41.4535 41.2756 40.4403 40.7779 39.3896 40.7153C38.3314 40.6523 37.2554 41.0319 36.1593 41.8297C36.1709 41.5479 36.2198 41.274 36.2699 40.9933C36.2832 40.9189 36.2966 40.844 36.3094 40.7683C36.873 37.4363 37.8828 34.2733 39.7636 31.4474L39.7638 31.4472C40.8788 29.7632 42.2485 28.3689 44.1236 27.563L44.1236 27.5631L44.1276 27.5612ZM48.812 31.7218C49.537 35.16 49.8313 38.6493 49.9378 42.1612C49.0324 41.246 48.0053 40.7348 46.749 40.7324C45.4701 40.7299 44.4005 41.2154 43.5423 42.1215C43.6789 38.1468 44.0012 34.2008 44.9942 30.3421L44.9942 30.342C45.2223 29.4542 45.5011 28.5872 45.9432 27.7917C45.9617 27.7585 45.9799 27.7254 45.9979 27.6925C46.0831 27.537 46.1648 27.3877 46.2689 27.2661C46.3899 27.1248 46.5306 27.0341 46.7271 27.0306C46.9222 27.0272 47.0635 27.1141 47.1856 27.2537C47.2955 27.3794 47.3815 27.5379 47.4703 27.7015C47.4842 27.727 47.4981 27.7526 47.5122 27.7783C48.1841 29.0037 48.5218 30.3508 48.812 31.7218ZM57.3033 41.7906C56.219 41.0293 55.1537 40.6581 54.1077 40.7138C53.0557 40.7698 52.0426 41.2566 51.0666 42.1751C51.0415 41.7838 51.0174 41.3921 50.9932 41.0003C50.7067 36.3571 50.4186 31.6888 48.5598 27.2413C49.1473 27.4006 49.7101 27.6414 50.2315 27.9572L50.2315 27.9572L50.2332 27.9581C52.0486 29.0192 53.3372 30.588 54.3654 32.4023L54.3654 32.4023C55.9571 35.2098 56.8364 38.2532 57.2581 41.4453C57.2629 41.4817 57.2676 41.5183 57.2724 41.5552C57.2823 41.6311 57.2924 41.7087 57.3033 41.7906ZM54.4314 30.467C53.7047 29.4331 52.827 28.5148 51.828 27.7425C57.5626 29.1817 63.422 34.473 64.8426 41.8074C63.8903 40.9912 62.7974 40.6291 61.5558 40.7457L61.3991 40.7604L61.4008 40.7655C60.2181 40.9168 59.2678 41.5042 58.5006 42.4491C58.4751 42.2579 58.4507 42.0694 58.4267 41.883C58.3516 41.3017 58.2793 40.7412 58.1832 40.1853L58.1832 40.1852C57.5791 36.7062 56.513 33.391 54.4314 30.467Z" fill="white" stroke="white" stroke-width="0.25"/>
<path d="M57.2584 45.5592C55.5605 45.5708 54.2628 46.9026 54.2725 48.6158L54.2725 48.6158C54.2823 50.2597 55.6213 51.5512 57.2942 51.5415H57.2942C58.9029 51.5317 60.2943 50.1402 60.288 48.5439L60.288 48.5436C60.2855 48.1486 60.205 47.7579 60.0513 47.394C59.8976 47.0302 59.6736 46.7002 59.3922 46.423C59.1108 46.1458 58.7775 45.9268 58.4113 45.7786C58.0452 45.6304 57.6534 45.5558 57.2584 45.5592ZM57.2584 45.5592C57.2584 45.5592 57.2584 45.5592 57.2583 45.5592L57.2594 45.6842L57.2586 45.5592C57.2585 45.5592 57.2585 45.5592 57.2584 45.5592ZM57.365 50.4448V50.4448L57.3628 50.4449C57.1095 50.4494 56.8579 50.4038 56.6224 50.3106C56.3869 50.2175 56.1721 50.0786 55.9905 49.9021C55.8089 49.7255 55.664 49.5148 55.5643 49.282C55.4647 49.0498 55.4121 48.8002 55.4092 48.5477C55.4206 48.0508 55.6261 47.578 55.9817 47.2307C56.3377 46.8829 56.8159 46.6885 57.3137 46.6892C57.8114 46.6899 58.2891 46.8857 58.6441 47.2346C58.9989 47.5832 59.203 48.0569 59.2127 48.5542C59.2146 49.6126 58.4066 50.4383 57.368 50.4448H57.365Z" fill="white" stroke="white" stroke-width="0.25"/>
<path d="M33.1602 48.4842L33.1602 48.4843L36.19 45.5592C36.1899 45.5592 36.1899 45.5592 36.1898 45.5592C34.533 45.5434 33.1682 46.8563 33.1602 48.4842ZM38.0987 48.5851L38.0987 48.5863C38.0989 48.8319 38.0504 49.0751 37.956 49.3019C37.8615 49.5286 37.7231 49.7344 37.5486 49.9072C37.3741 50.0801 37.167 50.2166 36.9394 50.3089C36.7118 50.4012 36.4681 50.4474 36.2225 50.4449L36.2225 50.4449H36.2212H36.2186C35.1798 50.4449 34.2994 49.5684 34.2892 48.552C34.2914 48.3023 34.3428 48.0554 34.4403 47.8254C34.538 47.5951 34.68 47.3863 34.8584 47.211C35.0367 47.0356 35.2479 46.897 35.4798 46.8032C35.7117 46.7095 35.9598 46.6623 36.2099 46.6644C36.46 46.6665 36.7073 46.7178 36.9376 46.8155C37.1679 46.9131 37.3767 47.0552 37.5521 47.2336C37.7275 47.4119 37.866 47.6231 37.9598 47.855C38.0536 48.0869 38.1008 48.335 38.0987 48.5851Z" fill="white" stroke="white" stroke-width="0.25"/>
<path d="M46.7924 50.0894L46.7924 50.0894C45.3907 50.0796 44.306 51.1296 44.2995 52.5132C44.2923 53.1597 44.5422 53.7826 44.9943 54.245C45.4464 54.7074 46.0638 54.9712 46.7104 54.9785C47.3571 54.9858 47.9802 54.7358 48.4426 54.2837C48.9051 53.8315 49.1689 53.2142 49.1762 52.5675L49.1762 52.5674C49.1905 51.1815 48.1537 50.0993 46.7924 50.0894ZM46.6979 53.8908H46.6978C45.9547 53.8908 45.3983 53.3237 45.3944 52.5433L45.3944 52.5432C45.3933 52.3662 45.427 52.1907 45.4937 52.0268C45.5604 51.8628 45.6587 51.7136 45.7831 51.5877C45.9074 51.4618 46.0553 51.3615 46.2184 51.2928C46.3815 51.224 46.5565 51.188 46.7335 51.1869C46.9105 51.1858 47.086 51.2195 47.2499 51.2862C47.4138 51.3529 47.563 51.4512 47.689 51.5756C47.8149 51.6999 47.9151 51.8479 47.9839 52.0109C48.0526 52.1738 48.0886 52.3487 48.0898 52.5254C48.0871 53.3013 47.4889 53.8916 46.6979 53.8908Z" fill="white" stroke="white" stroke-width="0.25"/>
<path d="M67.1246 67.0251L67.1246 67.0251L67.1228 67.025C66.9873 67.0168 66.8467 67.0196 66.7123 67.0222C66.6768 67.0229 66.6416 67.0237 66.6071 67.0241L66.6048 67.0188H66.5224C66.4611 67.0188 66.3976 67.0178 66.333 67.0168C66.1991 67.0147 66.0604 67.0125 65.9253 67.019L65.9251 67.019C65.7979 67.0253 65.675 67.0578 65.5798 67.1401C65.4823 67.2245 65.4316 67.3457 65.42 67.4925C65.409 67.631 65.427 67.7687 65.4999 67.8802C65.5759 67.9962 65.6985 68.0643 65.8547 68.0846L65.8547 68.0846L65.8563 68.0848C66.2848 68.1349 66.7176 68.1349 67.1461 68.0849C67.2968 68.0688 67.4163 68.0035 67.4951 67.8996C67.5722 67.7981 67.6015 67.6717 67.5979 67.5465C67.5943 67.4212 67.5578 67.2969 67.4771 67.1989C67.3946 67.0988 67.2742 67.0364 67.1246 67.0251Z" fill="white" stroke="white" stroke-width="0.25"/>
<path d="M26.7379 68.1212L26.8713 68.1301V68.1174C26.9307 68.1188 26.9946 68.1193 27.0535 68.1142L27.054 68.1141C27.1932 68.1015 27.3398 68.0692 27.4522 67.9812C27.5726 67.887 27.6348 67.7448 27.6327 67.5573C27.6308 67.3749 27.5738 67.23 27.454 67.1352C27.3402 67.0453 27.191 67.0182 27.0414 67.018C26.9006 67.0152 26.7564 67.0161 26.6141 67.0171C26.5436 67.0175 26.4736 67.018 26.4047 67.018L26.4043 67.018C26.248 67.0185 26.1144 67.0664 26.0188 67.1643C25.9244 67.2611 25.8816 67.3921 25.8761 67.5316C25.8706 67.6711 25.9027 67.8045 25.987 67.9093C26.0723 68.0153 26.1989 68.0769 26.3523 68.0943L26.3664 67.9701L26.3519 68.0942C26.441 68.1046 26.5348 68.1097 26.624 68.1145C26.6631 68.1167 26.7014 68.1187 26.7379 68.1212Z" fill="white" stroke="white" stroke-width="0.25"/>
</g>
<defs>
<clipPath id="clip0_1316_6681">
<rect width="41.4736" height="42" fill="white" transform="translate(26 26)"/>
</clipPath>
</defs>
</svg>
