<svg xmlns="http://www.w3.org/2000/svg" viewBox="0 0 43.20001 53.89999"><defs><style>.cls-1{fill:#fff;}.cls-2,.cls-3{fill:none;stroke:#fff;stroke-linecap:round;}.cls-2{stroke-linejoin:round;}.cls-3{stroke-miterlimit:10;}</style></defs><g id="Layer_2" data-name="Layer 2"><g id="Layer_1-2" data-name="Layer 1"><g id="logo_3" data-name="logo 3"><g id="Mother"><ellipse class="cls-1" cx="8" cy="26.89999" rx="2.79999" ry="2.60001"/><path class="cls-1" d="M4.4,30.8.5,39.6a.66281.66281,0,0,0,.2.7.616.616,0,0,0,.7-.1c1.1-1.8,2.1-3.6,3.2-5.4.1-.2.5-.1.5.2l-1.5,8.1a.26516.26516,0,0,0,.3.3h1.2c.1,0,.2.1.3.2l.5,9a.61.61,0,0,0,1.2,0l.5-9.1h.7l.6,9.1a.54832.54832,0,0,0,.6.4.67524.67524,0,0,0,.6-.4l.5-8.8c0-.1.1-.2.3-.2h1.3a.26515.26515,0,0,0,.3-.3l-1.6-8.2c-.1-.3.3-.4.5-.2l3.2,5.2a.61835.61835,0,0,0,.7.2.67521.67521,0,0,0,.4-.6q-1.95-4.35-3.9-8.7a2.169,2.169,0,0,0-.7-.6,2.64953,2.64953,0,0,0-1-.3h-3.7a2.79774,2.79774,0,0,0-1.1.2A1.05629,1.05629,0,0,0,4.4,30.8Z"/></g><g id="father"><ellipse class="cls-1" cx="34.80002" cy="26.79999" rx="2.79999" ry="2.60001"/><path class="cls-1" d="M30.4,31.4l-3.2,8.3a.42965.42965,0,0,0,.2.7.67.67,0,0,0,.8-.3c1.1-2.1,2.2-4.1,3.3-6.2a.21474.21474,0,0,1,.4.1l.2,4.9h0L31.5,52a.97382.97382,0,0,0,1,.8,1.08141,1.08141,0,0,0,1.1-.7c.4-3.2.8-6.5,1.1-9.7,0-.2.4-.2.4,0l1.1,9.7a.99345.99345,0,0,0,1,.7,1.08749,1.08749,0,0,0,1-.7c-.2-4.4-.3-8.9-.5-13.3h0l.1-4.9a.21474.21474,0,0,1,.4-.1L41.4,40a.66288.66288,0,0,0,.7.2.61.61,0,0,0,.3-.7c-1.1-2.7-2.2-5.5-3.2-8.2a3.74044,3.74044,0,0,0-.9-.9,2.1369,2.1369,0,0,0-1.3-.5,10.75673,10.75673,0,0,0-4,0,2.54422,2.54422,0,0,0-1.6.5C30.8,30.8,30.5,31.1,30.4,31.4Z"/></g><g id="child"><ellipse class="cls-1" cx="21.40002" cy="40.39999" rx="1.79999" ry="1.7"/><path class="cls-1" d="M16.6,40.2A.41731.41731,0,0,0,16,40a.43972.43972,0,0,0-.1.5l1.8,2.3c.1.1.2.2.3.2l1.3.7a.60465.60465,0,0,1,.3.6l.1,2.7h0l-.3,5.4a.85787.85787,0,0,0,.7.6c.3,0,.5-.3.6-.6.3-1.6.5-3.1.8-4.7l.8,4.7a.50066.50066,0,0,0,.6.5.56.56,0,0,0,.6-.5c-.1-1.8-.2-3.7-.3-5.5h0l.1-2.5a.71278.71278,0,0,1,.3-.6l1.3-.8c.1-.1.3-.2.4-.3l1.7-2a.36056.36056,0,1,0-.6-.4c-.6.6-1.1,1.2-1.7,1.8l-1.1.6h-.2a6.5275,6.5275,0,0,0-1.7-.3,4.19807,4.19807,0,0,0-1.4.3h-.1l-1.2-.5h0Z"/></g><g id="umbrella"><path id="umbrealla" class="cls-1" d="M40.1,21.1a15.45953,15.45953,0,0,0-.4-3.1A19.37621,19.37621,0,0,0,28,4.1a17.4362,17.4362,0,0,0-7.8-1.4,13.16748,13.16748,0,0,0-3.4.4,19.51733,19.51733,0,0,0-15.5,18c0,.3,0,.6.4.6.3,0,.4-.2.5-.6a3.1026,3.1026,0,0,1,.9-1.8,4.24778,4.24778,0,0,1,1.7-1,3.296,3.296,0,0,1,3.5,1.4,3.07717,3.07717,0,0,1,.6,1.9c0,.3.1.5.5.5.3,0,.4-.2.4-.5a.90149.90149,0,0,1,.1-.5,3.37653,3.37653,0,0,1,5.5-2,3.225,3.225,0,0,1,1.2,2.6c0,.3.1.4.4.4a.3663.3663,0,0,0,.4-.4v-.3a3.41894,3.41894,0,0,1,2-2.9,3.49135,3.49135,0,0,1,4.8,3,.54836.54836,0,0,0,.4.6c.4,0,.4-.2.5-.5a3.40108,3.40108,0,0,1,6.8.1c0,.2.1.4.3.4h.2c.1,0,.1,0,.2-.1a.76385.76385,0,0,0,.2-.5,3.36792,3.36792,0,0,1,6.7-.3c.1.3.2.5.5.5C40.2,21.7,40.2,21.4,40.1,21.1ZM16.9,13.6c-.2,1.8-.3,3.6-.4,5.5-2.1-2.1-4.2-2.2-6.5-.4a5.06669,5.06669,0,0,1,.2-1.3A24.95208,24.95208,0,0,1,13.7,8a9.79531,9.79531,0,0,1,4.4-3.9,5.63643,5.63643,0,0,1,1.2-.4,12.53757,12.53757,0,0,0-1.2,3,33.27818,33.27818,0,0,0-1.2,6.9ZM25,19.1c-.3-5.2-.5-10.4-2.6-15.4a6.39,6.39,0,0,1,1.9.8A12.9514,12.9514,0,0,1,28.5,9a24.27736,24.27736,0,0,1,2.9,9.1c0,.2.1.4.1.6-2.3-1.8-4.5-1.7-6.5.4Z"/><path class="cls-2" d="M21,.5V31.6a1.664,1.664,0,0,1-2.7,1.3h0a1.99721,1.99721,0,0,1,0-2.7"/></g><line class="cls-3" x1="0.5" y1="53.39999" x2="42.70001" y2="53.39999"/></g></g></g></svg>