<svg width="45" height="45" viewBox="0 0 45 45" fill="none" xmlns="http://www.w3.org/2000/svg">
<path opacity="0.16" d="M11.25 18.75V35.625H33.75V18.75C33.75 15.7663 32.5647 12.9048 30.455 10.795C28.3452 8.68526 25.4837 7.5 22.5 7.5C19.5163 7.5 16.6548 8.68526 14.545 10.795C12.4353 12.9048 11.25 15.7663 11.25 18.75Z" fill="white"/>
<path d="M11.25 35.625V18.75C11.25 15.7663 12.4353 12.9048 14.545 10.795C16.6548 8.68526 19.5163 7.5 22.5 7.5C25.4837 7.5 28.3452 8.68526 30.455 10.795C32.5647 12.9048 33.75 15.7663 33.75 18.75V35.625M11.25 35.625H33.75M11.25 35.625H7.5M33.75 35.625H37.5M20.625 41.25H24.375" stroke="white" stroke-width="2" stroke-linecap="round" stroke-linejoin="round"/>
<path d="M22.5 7.5C23.5355 7.5 24.375 6.66053 24.375 5.625C24.375 4.58947 23.5355 3.75 22.5 3.75C21.4645 3.75 20.625 4.58947 20.625 5.625C20.625 6.66053 21.4645 7.5 22.5 7.5Z" stroke="white" stroke-width="2"/>
</svg>
