<svg width="42" height="42" viewBox="0 0 42 42" fill="none" xmlns="http://www.w3.org/2000/svg">
<g clip-path="url(#clip0_1230_11296)">
<path d="M38.7098 41.5229C38.7119 41.4293 38.6775 41.3386 38.6139 41.2699C38.5504 41.2012 38.4625 41.16 38.3691 41.1549C38.2276 41.1398 38.0854 41.1341 37.9432 41.1379C36.7661 41.1379 35.5881 41.1328 34.4101 41.1379C34.1486 41.1379 34.0294 41.0987 34.1708 40.8074C34.2764 40.5902 34.2781 40.344 34.2764 40.0996C34.2713 38.9795 34.2764 37.8578 34.2764 36.7369C34.2764 35.9703 34.2764 35.9703 35.0532 35.9703C35.9995 35.966 36.5863 35.426 36.5957 34.4908C36.6068 32.7873 36.6153 31.0838 36.5693 29.3802C36.5233 27.6767 34.8752 26.0516 33.1725 26.0082C31.8966 25.9758 30.619 25.9758 29.3396 26.0082C27.6225 26.0524 25.9701 27.6989 25.9326 29.4152C25.8951 31.1033 25.9045 32.7924 25.9147 34.4806C25.9198 35.3187 26.4437 35.8434 27.2818 35.9115C27.48 35.9306 27.6795 35.9326 27.878 35.9175C28.1557 35.8919 28.2392 35.9933 28.2358 36.2735C28.2213 37.5648 28.2358 38.856 28.2272 40.1473C28.2272 40.3628 28.2272 40.5808 28.3243 40.7699C28.4947 41.1106 28.3303 41.1379 28.0467 41.1362C26.6566 41.1285 25.2657 41.1362 23.8731 41.1302C23.6337 41.1302 23.3407 41.229 23.1712 41.0791C23.0205 40.9462 23.2283 40.6932 23.2249 40.4829C23.2113 39.5749 23.2487 38.6661 23.2087 37.7573C23.1891 37.3101 23.3313 37.2164 23.7496 37.2309C24.5715 37.259 25.0791 36.7428 25.0817 35.9311C25.086 34.6969 25.0919 33.461 25.0817 32.2277C25.063 30.5991 23.6848 29.2465 22.0512 29.2397C21.1994 29.2397 20.3477 29.2346 19.4959 29.2397C18.0854 29.2491 16.7592 30.3725 16.5693 31.7711C16.3751 33.1953 16.4841 34.6322 16.5071 36.0614C16.519 36.7667 17.082 37.2224 17.7694 37.2402C18.3554 37.2556 18.3418 37.2556 18.358 37.8595C18.3861 38.8816 18.2728 39.9037 18.4244 40.9147C18.461 41.1498 18.3137 41.131 18.1689 41.131C16.5221 41.131 14.8754 41.131 13.2287 41.131C13.0328 41.131 12.9178 41.097 13.026 40.8645C13.1682 40.5612 13.158 40.2333 13.1571 39.9062C13.1529 38.8705 13.1571 37.8348 13.1571 36.799C13.1571 35.972 13.1571 35.972 13.9936 35.9635C14.8598 35.9549 15.462 35.4039 15.468 34.5495C15.4807 32.8188 15.4927 31.0872 15.4484 29.3538C15.4066 27.7023 13.767 26.0601 12.1163 26.0056C10.8267 25.963 9.53378 25.9656 8.24338 26.0056C6.63015 26.0541 4.99053 27.6469 4.9062 29.2602C4.81336 31.0309 4.8585 32.8069 4.88576 34.5794C4.89769 35.3042 5.41896 35.8178 6.13869 35.8928C6.36479 35.9196 6.59286 35.9258 6.82009 35.9115C7.1131 35.8877 7.20849 35.9865 7.20509 36.2888C7.1889 37.5511 7.20509 38.8143 7.19572 40.0774C7.19572 40.333 7.19572 40.5961 7.30645 40.8261C7.45039 41.1174 7.29963 41.1302 7.07732 41.1285C6.38229 41.1242 5.68641 41.1285 4.99138 41.1285C4.30997 41.1285 3.62857 41.1285 2.94717 41.1285C2.66864 41.1285 2.45826 41.2281 2.44634 41.522C2.43356 41.8372 2.65076 41.9649 2.94206 41.9785C3.06982 41.9854 3.19758 41.9785 3.32535 41.9785H20.5649C26.3397 41.9785 32.1146 41.9785 37.8895 41.9785C38.0591 41.983 38.2287 41.9724 38.3963 41.947C38.6289 41.9147 38.7243 41.7545 38.7098 41.5229ZM12.3974 31.9176C12.3974 33.2651 12.3974 34.6126 12.3974 35.9601C12.3974 37.3356 12.3974 38.7112 12.3974 40.0868C12.3974 40.626 12.0916 41.0101 11.6453 41.0731C11.1112 41.1498 10.6845 40.7546 10.6819 40.1532C10.6734 38.7206 10.6819 37.2879 10.6819 35.8561C10.6819 35.7284 10.6819 35.6006 10.6819 35.4728C10.6632 35.1994 10.5516 35.0044 10.2416 35.0146C9.93155 35.0248 9.83956 35.2233 9.83956 35.5018C9.83956 36.9333 9.83956 38.3657 9.83956 39.7989C9.83956 39.9403 9.84553 40.0834 9.83445 40.2248C9.79101 40.7588 9.4188 41.1302 8.93926 41.1251C8.40691 41.1183 8.06025 40.7401 8.06025 40.1413C8.05684 37.4611 8.05684 34.7807 8.06025 32.0999C8.06025 31.7669 8.13605 31.3333 7.63437 31.3291C7.13269 31.3248 7.2136 31.7635 7.20849 32.0956C7.20849 32.9891 7.19998 33.8843 7.20849 34.7761C7.20849 35.024 7.14972 35.1509 6.87716 35.1245C6.69489 35.1066 6.50835 35.1245 6.32437 35.1185C5.95386 35.1006 5.73496 34.8988 5.73496 34.5291C5.73496 32.8137 5.69748 31.0957 5.77244 29.3828C5.8295 28.0856 7.05007 26.9229 8.35921 26.8667C9.60448 26.8131 10.8566 26.8139 12.1018 26.8667C13.4016 26.9221 14.6264 28.0898 14.6835 29.3888C14.7584 31.0872 14.7176 32.7907 14.7176 34.4925C14.7176 34.8468 14.5063 35.0265 14.1605 35.0691C13.29 35.1764 13.2517 35.1449 13.2517 34.2795C13.2517 33.4857 13.2517 32.691 13.2517 31.8946C13.2517 31.5837 13.3045 31.2132 12.8403 31.2056C12.3403 31.2022 12.3982 31.5948 12.3974 31.9176ZM22.7189 33.2668C22.3638 33.2719 22.2999 33.5411 22.2999 33.8366C22.2999 35.9075 22.2999 37.9784 22.2999 40.0493C22.3057 40.22 22.2986 40.3908 22.2786 40.5604C22.2232 40.9113 22.0231 41.1447 21.6525 41.1251C21.3025 41.1055 21.1304 40.8627 21.1176 40.5212C21.1057 40.1958 21.1117 39.8696 21.1117 39.5434C21.1117 38.6632 21.1117 37.7831 21.1117 36.9029C21.1117 36.5972 21.0751 36.3067 20.6756 36.3186C20.3042 36.3297 20.2795 36.6133 20.2795 36.8995C20.2795 37.9784 20.2795 39.0573 20.2795 40.1362C20.2795 40.2503 20.2846 40.3636 20.2795 40.4769C20.2514 40.8857 20.024 41.143 19.6986 41.1328C19.4065 41.1234 19.1339 40.8125 19.1305 40.4514C19.122 39.5579 19.1305 38.6627 19.1305 37.7709V37.1329C19.1305 36.0546 19.1305 34.9771 19.1305 33.8962C19.1305 33.6049 19.1058 33.3349 18.7293 33.3256C18.3324 33.3162 18.2822 33.593 18.283 33.9031C18.283 34.57 18.289 35.2369 18.2787 35.903C18.2787 36.0733 18.3886 36.334 18.0351 36.3161C17.7183 36.299 17.3444 36.4013 17.2686 35.9243C17.2545 35.7688 17.2519 35.6125 17.2609 35.4567C17.2609 34.4218 17.2541 33.386 17.2609 32.3512C17.272 30.9798 18.2285 30.0199 19.5879 30.0105C20.3826 30.0046 21.1773 30.0003 21.9728 30.0105C22.5466 30.0158 23.0957 30.2448 23.5032 30.6489C23.9106 31.053 24.1442 31.6002 24.1541 32.174C24.1763 33.3792 24.1652 34.5853 24.1601 35.7906C24.1601 36.2335 23.6346 36.512 23.2385 36.2939C23.0903 36.2088 23.1465 36.0682 23.1457 35.9532C23.1397 35.2446 23.138 34.5351 23.1457 33.8238C23.144 33.5189 23.0767 33.2608 22.7189 33.2668ZM33.4298 31.7635V35.9371C33.4298 36.6798 33.4298 37.4228 33.4298 38.1661C33.4298 38.7845 33.4298 39.4034 33.4298 40.0229C33.4298 40.3176 33.3863 40.5893 33.1742 40.8074C32.9238 41.0629 32.6206 41.1592 32.2816 41.034C32.1099 40.9807 31.9607 40.8719 31.8576 40.7247C31.7544 40.5774 31.7031 40.4001 31.7118 40.2205C31.7118 39.27 31.7118 38.3194 31.7118 37.3689C31.7118 36.7871 31.7118 36.2062 31.7118 35.6245C31.7118 35.3263 31.6905 35.0282 31.2901 35.0197C30.8898 35.0112 30.8643 35.3042 30.8643 35.61C30.8643 37.0426 30.8643 38.4756 30.8643 39.9088C30.8688 40.0363 30.8657 40.164 30.8549 40.2912C30.7961 40.7767 30.429 41.1276 29.9861 41.1268C29.5432 41.1259 29.1752 40.7767 29.1241 40.2912C29.1112 40.1212 29.1072 39.9506 29.1122 39.7802C29.1122 37.2249 29.1122 34.6711 29.1122 32.1186C29.1146 31.9629 29.109 31.8071 29.0952 31.6519C29.0722 31.4304 28.9163 31.3299 28.7161 31.3214C28.516 31.3129 28.3499 31.3998 28.3064 31.6153C28.2807 31.7557 28.2687 31.8983 28.2707 32.0411C28.2707 32.9491 28.2613 33.8571 28.2707 34.7667C28.2707 35.0444 28.1778 35.1551 27.9002 35.1287C27.7298 35.1117 27.5595 35.1287 27.3891 35.1219C27.0194 35.0998 26.7971 34.8911 26.7929 34.5257C26.7835 32.8665 26.7367 31.2039 26.8108 29.5472C26.8789 28.0387 28.1395 26.8897 29.6471 26.8505C30.7391 26.8224 31.8327 26.8207 32.9238 26.8505C33.6571 26.8626 34.3576 27.1559 34.8808 27.6698C35.4039 28.1837 35.7096 28.879 35.7346 29.6119C35.784 31.2141 35.7567 32.8179 35.7499 34.4209C35.7499 34.8775 35.554 35.0487 35.0907 35.0759C34.9774 35.0819 34.8624 35.0666 34.75 35.081C34.3812 35.1296 34.2577 34.9882 34.2687 34.6083C34.2951 33.6578 34.2747 32.7072 34.2781 31.7566C34.2781 31.456 34.2202 31.2022 33.8522 31.2056C33.4843 31.209 33.4298 31.4688 33.4298 31.7635Z" fill="white"/>
<path d="M40.1508 18.5003C40.1137 17.4401 39.9733 16.3861 39.7318 15.3531C38.1688 8.73666 34.2311 4.10311 28.0099 1.42009C25.5253 0.347729 22.8968 -0.0636686 20.1942 0.00787879C19.0476 0.0123289 17.905 0.143443 16.7872 0.398834C11.6426 1.54189 7.54482 4.26665 4.57645 8.62763C2.5612 11.5892 1.49225 14.8838 1.3219 18.4662C1.30827 18.7644 1.35427 19.0488 1.6873 19.0787C2.03652 19.1102 2.13703 18.8385 2.18387 18.5242C2.28564 17.8492 2.58973 17.221 3.05598 16.7226C3.52224 16.2241 4.12872 15.8787 4.79535 15.7321C6.10024 15.4289 7.5133 15.9783 8.29947 17.0949C8.69363 17.6358 8.90786 18.2868 8.91188 18.956C8.91188 19.2371 9.03198 19.4551 9.36587 19.4517C9.68357 19.4475 9.76108 19.2465 9.7696 18.9713C9.77826 18.8018 9.80192 18.6333 9.84029 18.4679C10.1154 17.1988 10.8334 16.2875 12.0685 15.8556C13.2524 15.4408 14.3554 15.6503 15.3247 16.4518C16.122 17.1137 16.4933 17.9918 16.5547 19.0071C16.5709 19.2746 16.6714 19.433 16.9576 19.4449C17.2437 19.4568 17.3613 19.2805 17.4073 19.0344C17.4226 18.9492 17.4073 18.864 17.4166 18.7788C17.587 17.5012 18.1125 16.4425 19.3757 15.9238C21.4804 15.0567 24.1046 16.5132 24.1506 18.8845C24.1557 19.1596 24.2128 19.4074 24.5424 19.4398C24.9359 19.479 24.9896 19.2218 25.0177 18.9015C25.2579 16.1972 28.0891 14.7543 30.2773 16.2253C31.2483 16.8777 31.7014 17.8436 31.7943 18.985C31.8104 19.1851 31.8522 19.3614 32.0498 19.4253C32.1228 19.4551 32.2028 19.4636 32.2805 19.4497C32.3581 19.4359 32.4302 19.4002 32.4884 19.347C32.6332 19.2064 32.6494 19.0284 32.6588 18.8359C32.744 16.7227 34.8205 15.204 36.8648 15.7696C38.2948 16.1631 39.0963 17.1324 39.38 18.5599C39.4405 18.864 39.5648 19.094 39.8834 19.0625C40.2173 19.0378 40.1593 18.7388 40.1508 18.5003ZM9.14697 16.3147C9.13589 16.4391 9.10523 16.5626 9.07031 16.7661C8.24155 15.6503 7.20582 14.9775 5.87538 14.8676C4.56368 14.7552 3.42403 15.1861 2.45218 16.1452C3.72555 8.53479 10.0004 2.84592 16.1884 1.49504C15.3677 2.0735 14.6191 2.74806 13.9585 3.50433C12.1119 5.65331 10.9774 8.17024 10.1887 10.8592C9.66267 12.639 9.31347 14.4664 9.14611 16.3147H9.14697ZM16.9081 11.0151C16.7259 12.8191 16.6177 14.6274 16.5479 16.4791C14.49 14.4187 12.3351 14.302 10.0345 16.0796C10.0141 15.6163 10.1129 15.181 10.1861 14.7475C10.7517 11.4043 11.7661 8.22305 13.6596 5.37819C14.783 3.68149 16.1697 2.26673 18.0742 1.4482C18.4482 1.27137 18.8459 1.14945 19.2547 1.0862C18.6934 2.06657 18.3408 3.07505 18.0623 4.11248C17.455 6.37304 17.1415 8.68811 16.9073 11.0151H16.9081ZM24.0484 16.4595C23.1115 15.4297 22.057 14.8599 20.7487 14.8574C19.4404 14.8548 18.3595 15.3761 17.5018 16.3513C17.3672 16.3139 17.4166 16.2117 17.4166 16.1393C17.5529 12.1539 17.8749 8.18983 18.8731 4.31094C19.1023 3.41915 19.3842 2.54014 19.8339 1.73098C20.0375 1.36643 20.2402 0.914145 20.7249 0.905628C21.2095 0.89711 21.4207 1.35195 21.6218 1.7182C22.3032 2.96091 22.6439 4.32372 22.9343 5.69589C23.6617 9.1455 23.9564 12.6445 24.0629 16.1622C24.0637 16.2176 24.0569 16.2738 24.0476 16.4595H24.0484ZM24.9598 16.4595C24.6191 11.2519 24.4828 6.01445 22.3466 1.05894C23.0344 1.21756 23.6925 1.48466 24.2963 1.85022C26.1369 2.92599 27.4392 4.51451 28.4741 6.34067C30.0754 9.16509 30.9587 12.2246 31.382 15.4289C31.4076 15.6239 31.4323 15.819 31.4672 16.0643C29.1632 14.3301 27.0006 14.3991 24.9564 16.457L24.9598 16.4595ZM35.5684 14.8727C34.2558 14.9962 33.2295 15.6572 32.4169 16.7619C32.2917 15.8582 32.2022 15.0294 32.06 14.2066C31.4578 10.7383 30.3965 7.44284 28.3293 4.53921C27.561 3.44591 26.622 2.48309 25.5483 1.68754C25.4819 1.63899 25.3959 1.60662 25.378 1.50952C31.4025 2.79823 37.6944 8.36955 39.0325 16.1512C38.041 15.1802 36.892 14.7458 35.5675 14.8701L35.5684 14.8727Z" fill="white"/>
<path d="M31.2594 19.6842C29.6317 19.6953 28.3881 20.9695 28.3975 22.6151C28.4069 24.1874 29.6871 25.4259 31.2935 25.4165C32.8343 25.4071 34.169 24.0707 34.163 22.5444C34.1606 22.1658 34.0835 21.7914 33.9362 21.4427C33.7888 21.0939 33.5742 20.7777 33.3045 20.512C33.0348 20.2463 32.7153 20.0365 32.3644 19.8944C32.0135 19.7524 31.638 19.6809 31.2594 19.6842ZM31.365 24.5698C31.0953 24.5747 30.8273 24.5261 30.5764 24.4269C30.3255 24.3277 30.0968 24.1797 29.9034 23.9917C29.7099 23.8036 29.5556 23.5792 29.4494 23.3312C29.3431 23.0832 29.287 22.8167 29.2842 22.5469C29.2958 22.0166 29.5149 21.5119 29.8943 21.1413C30.2738 20.7706 30.7834 20.5634 31.3139 20.5642C31.8443 20.565 32.3533 20.7736 32.7317 21.1454C33.1101 21.5172 33.3276 22.0225 33.3377 22.5529C33.3402 23.6789 32.4783 24.563 31.3684 24.5698H31.365Z" fill="white"/>
<path d="M10.1888 19.6842C8.59859 19.6689 7.29285 20.9286 7.28518 22.4848C7.27837 24.1372 8.49382 25.4072 10.0909 25.4165C11.7169 25.4259 13.0405 24.1389 13.0405 22.5512C13.0401 21.7936 12.74 21.067 12.2057 20.5298C11.6714 19.9927 10.9464 19.6887 10.1888 19.6842ZM10.2186 24.5699C9.11135 24.5699 8.17442 23.6381 8.1642 22.5521C8.16643 22.2855 8.22115 22.022 8.32522 21.7766C8.42929 21.5312 8.58068 21.3087 8.77074 21.1218C8.9608 20.9349 9.18581 20.7873 9.43292 20.6874C9.68003 20.5874 9.94441 20.5371 10.211 20.5394C10.4775 20.5416 10.741 20.5963 10.9864 20.7004C11.2318 20.8045 11.4543 20.9559 11.6412 21.1459C11.8281 21.336 11.9757 21.561 12.0757 21.8081C12.1756 22.0552 12.2259 22.3196 12.2237 22.5861C12.2239 22.8483 12.1721 23.1079 12.0713 23.3499C11.9706 23.5919 11.8228 23.8115 11.6365 23.996C11.4503 24.1805 11.2293 24.3263 10.9863 24.4248C10.7434 24.5233 10.4833 24.5726 10.2212 24.5699H10.2186Z" fill="white"/>
<path d="M20.7915 24.2144C19.4568 24.2051 18.4304 25.2016 18.4245 26.5142C18.4176 27.1277 18.6547 27.7188 19.0837 28.1576C19.5126 28.5963 20.0983 28.8466 20.7118 28.8535C21.3254 28.8604 21.9165 28.6233 22.3553 28.1943C22.794 27.7653 23.0443 27.1797 23.0512 26.5661C23.0648 25.2467 22.081 24.2238 20.7915 24.2144ZM20.6978 28.0158C19.8818 28.0158 19.2737 27.3889 19.2694 26.544C19.2682 26.3506 19.305 26.1588 19.3779 25.9797C19.4508 25.8005 19.5582 25.6375 19.6941 25.4999C19.83 25.3623 19.9917 25.2527 20.1699 25.1776C20.3481 25.1025 20.5393 25.0631 20.7327 25.0619C20.9261 25.0607 21.1179 25.0976 21.297 25.1704C21.4761 25.2433 21.6392 25.3507 21.7768 25.4866C21.9144 25.6225 22.0239 25.7842 22.0991 25.9624C22.1742 26.1406 22.2135 26.3318 22.2148 26.5252C22.2122 27.3719 21.5564 28.0167 20.6978 28.0158Z" fill="white"/>
<path d="M40.5249 41.1498C40.7217 41.1498 40.9193 41.1379 41.1152 41.1498C41.352 41.1677 41.467 41.3414 41.4729 41.5501C41.4789 41.7588 41.3741 41.9351 41.1322 41.9606C40.7132 42.0096 40.2899 42.0096 39.8708 41.9606C39.6153 41.9274 39.525 41.7494 39.5446 41.5024C39.5642 41.2554 39.7081 41.1549 39.9313 41.1438C40.128 41.1344 40.3256 41.1438 40.5224 41.1438L40.5249 41.1498Z" fill="white"/>
<path d="M0.746285 41.9965C0.619373 41.9879 0.490758 41.9845 0.366402 41.9701C0.110876 41.9411 -0.00836949 41.7725 0.00099981 41.5365C0.0103691 41.3006 0.143243 41.1439 0.404731 41.143C0.616818 41.143 0.830608 41.1387 1.04014 41.143C1.31696 41.143 1.50435 41.2452 1.50775 41.5587C1.51116 41.8721 1.30589 41.9658 1.0427 41.9897C0.944743 41.9982 0.845088 41.9897 0.746285 41.9897V41.9965Z" fill="white"/>
</g>
<defs>
<clipPath id="clip0_1230_11296">
<rect width="41.4736" height="42" fill="white"/>
</clipPath>
</defs>
</svg>
