<svg width="61" height="60" viewBox="0 0 61 60" fill="none" xmlns="http://www.w3.org/2000/svg">
<g clip-path="url(#clip0_1878_11846)">
<path d="M30.4225 53.9997C23.4985 53.9997 16.5685 53.9997 9.64451 53.9997C7.80851 53.9997 6.56051 52.6677 6.72851 50.8437C6.86651 49.3017 7.01651 47.7597 7.23251 46.2297C7.49051 44.4357 7.86251 42.6657 8.52251 40.9617C9.02051 39.6717 9.84851 38.7357 11.1085 38.1537C13.0765 37.2417 15.0925 36.4737 17.1445 35.7957C18.4885 35.3517 19.8265 34.9077 21.1705 34.4757C21.6685 34.3137 22.1665 34.1697 22.6705 34.0317C22.7545 34.0077 22.8805 34.0257 22.9465 34.0737C24.3445 35.0877 25.7365 36.1137 27.1285 37.1337C28.1785 37.9017 29.2285 38.6637 30.2725 39.4377C30.4525 39.5757 30.5545 39.4437 30.6685 39.3597C31.5505 38.7117 32.4265 38.0637 33.3025 37.4157C34.7965 36.3237 36.2905 35.2377 37.7845 34.1397C37.9525 34.0137 38.0905 33.9777 38.3005 34.0437C40.6285 34.8177 42.9745 35.5437 45.2905 36.3537C46.7605 36.8697 48.1945 37.5117 49.6405 38.1057C51.0745 38.6937 51.9265 39.7857 52.4365 41.2197C52.9765 42.7317 53.3365 44.2797 53.5585 45.8577C53.7925 47.5197 53.9665 49.1937 54.1225 50.8677C54.2905 52.6377 53.0305 53.9817 51.2545 53.9817C45.1765 53.9817 39.0925 53.9757 33.0145 53.9757C32.1505 53.9757 31.2865 53.9757 30.4225 53.9757C30.4225 53.9937 30.4225 53.9937 30.4225 53.9997ZM33.4825 52.5177C33.6205 52.5177 33.7345 52.5177 33.8485 52.5177C37.8805 52.5177 41.9065 52.5177 45.9385 52.5177C47.6785 52.5177 49.4185 52.5177 51.1525 52.5177C52.1965 52.5177 52.7485 51.8937 52.6345 50.8677C52.5985 50.5557 52.5925 50.2437 52.5505 49.9317C52.3645 48.4137 52.2025 46.8957 51.9625 45.3897C51.7345 43.9677 51.4045 42.5577 50.8165 41.2317C50.5405 40.6017 50.1685 40.0497 49.5205 39.7377C49.1005 39.5337 48.6985 39.2997 48.2665 39.1317C46.5685 38.4717 44.8765 37.8057 43.1605 37.1997C41.6305 36.6597 40.0765 36.1977 38.5345 35.7057C38.4325 35.6757 38.2765 35.6697 38.1985 35.7237C37.7125 36.0537 37.2385 36.4017 36.7645 36.7497C35.8045 37.4517 34.8505 38.1537 33.8905 38.8557C33.0265 39.4917 32.1625 40.1217 31.3045 40.7697C31.2445 40.8177 31.2025 40.9437 31.2145 41.0217C31.3885 41.9697 31.5745 42.9237 31.7665 43.8717C32.1805 45.9537 32.5945 48.0417 33.0085 50.1237C33.1645 50.9037 33.3205 51.7017 33.4825 52.5177ZM18.3205 52.5177C21.2485 52.5177 24.1705 52.5177 27.0985 52.5237C27.2965 52.5237 27.3745 52.4817 27.4165 52.2717C27.7945 50.3097 28.1905 48.3477 28.5745 46.3797C28.9165 44.6397 29.2585 42.8997 29.6125 41.1657C29.6605 40.9377 29.6365 40.7997 29.4265 40.6557C28.4845 39.9897 27.5545 39.2937 26.6185 38.6097C25.3165 37.6557 24.0145 36.7077 22.7065 35.7657C22.6105 35.6997 22.4425 35.6697 22.3285 35.7057C21.6385 35.9037 20.9485 36.1137 20.2645 36.3357C17.3485 37.2837 14.4385 38.2317 11.6665 39.5577C11.0305 39.8637 10.4785 40.2537 10.1965 40.9137C9.92651 41.5497 9.64451 42.1857 9.45851 42.8517C8.69051 45.5697 8.40251 48.3597 8.20451 51.1677C8.18651 51.3837 8.26451 51.6237 8.36051 51.8157C8.63051 52.3497 9.11651 52.5237 9.68651 52.5237C12.5605 52.5177 15.4405 52.5177 18.3205 52.5177Z" fill="#2BB786"/>
<path d="M30.4225 54.2999H9.63847C8.65447 54.2999 7.78447 53.9399 7.19047 53.2919C6.60847 52.6499 6.33247 51.7739 6.42247 50.8199C6.56647 49.2479 6.71647 47.7119 6.93247 46.1939C7.23847 44.0759 7.65247 42.3839 8.24047 40.8599C8.78047 39.4679 9.67447 38.4959 10.9825 37.8899C12.8245 37.0379 14.8105 36.2639 17.0545 35.5199C18.3985 35.0759 19.7365 34.6319 21.0805 34.1999C21.5785 34.0379 22.0885 33.8939 22.5925 33.7559C22.7365 33.7139 22.9645 33.7259 23.1265 33.8459C24.1525 34.5899 25.1785 35.3459 26.1985 36.0959L28.2865 37.6259C29.0005 38.1479 29.7145 38.6699 30.4225 39.1919L30.4285 39.1859L30.4885 39.1379L31.7185 38.2319C32.1865 37.8839 32.6545 37.5419 33.1225 37.1999L34.8385 35.9459C35.7625 35.2739 36.6805 34.6019 37.5985 33.9239C37.7725 33.7979 38.0185 33.6659 38.3845 33.7859C39.1885 34.0559 39.9985 34.3139 40.8085 34.5779C42.3145 35.0639 43.8685 35.5679 45.3865 36.1019C46.4425 36.4739 47.4925 36.9119 48.5065 37.3379C48.9205 37.5119 49.3345 37.6859 49.7485 37.8539C51.1585 38.4299 52.1305 39.5039 52.7125 41.1479C53.2345 42.6119 53.6065 44.1479 53.8465 45.8459C54.0925 47.5679 54.2605 49.2779 54.4105 50.8679C54.5005 51.7979 54.2245 52.6679 53.6425 53.3039C53.0545 53.9519 52.2025 54.3119 51.2485 54.3119C46.1785 54.3119 41.1145 54.3059 36.0445 54.3059H30.7105L30.4225 54.2999ZM22.7725 34.3259C22.2505 34.4699 21.7525 34.6079 21.2605 34.7699C19.9165 35.2079 18.5785 35.6459 17.2345 36.0899C15.0145 36.8279 13.0465 37.5899 11.2285 38.4359C10.0705 38.9699 9.27247 39.8339 8.79247 41.0759C8.22247 42.5519 7.81447 44.2019 7.52047 46.2779C7.30447 47.7779 7.16047 49.3079 7.01647 50.8739C6.94447 51.6599 7.16647 52.3739 7.63447 52.8899C8.11447 53.4119 8.82247 53.7059 9.63847 53.7059L36.0505 53.6999C41.1145 53.6999 46.1845 53.7059 51.2485 53.7059C52.0345 53.7059 52.7245 53.4179 53.2045 52.8959C53.6725 52.3799 53.8885 51.6779 53.8165 50.9159C53.6665 49.3319 53.4985 47.6339 53.2525 45.9239C53.0185 44.2679 52.6585 42.7739 52.1485 41.3459C51.6205 39.8759 50.7625 38.9159 49.5205 38.4059C49.1005 38.2379 48.6865 38.0579 48.2725 37.8839C47.2645 37.4639 46.2265 37.0259 45.1885 36.6599C43.6765 36.1319 42.1285 35.6279 40.6285 35.1419C39.8185 34.8779 39.0085 34.6199 38.2045 34.3499C38.1085 34.3199 38.0725 34.3199 37.9645 34.3979C37.0465 35.0759 36.1225 35.7479 35.1985 36.4199L33.4825 37.6739C33.0145 38.0159 32.5465 38.3639 32.0785 38.7059L30.8425 39.6179C30.7105 39.7199 30.4345 39.9479 30.0925 39.6959C29.3725 39.1619 28.6525 38.6339 27.9325 38.1059L25.8445 36.5759C24.8245 35.8199 23.7985 35.0699 22.7725 34.3259ZM27.0985 52.8239C24.7165 52.8179 22.3405 52.8179 19.9645 52.8179H9.68647C8.92447 52.8179 8.38447 52.5239 8.09047 51.9479C8.01247 51.7919 7.88047 51.4739 7.90447 51.1379C8.13247 47.9939 8.43247 45.3719 9.17047 42.7619C9.35047 42.1319 9.60847 41.5259 9.86047 40.9379L9.92647 40.7879C10.2745 39.9659 10.9765 39.5459 11.5465 39.2759C14.3425 37.9379 17.3065 36.9779 20.1805 36.0419C20.8705 35.8199 21.5605 35.6039 22.2565 35.4059C22.4605 35.3459 22.7245 35.3939 22.8925 35.5139C24.0445 36.3419 25.1905 37.1819 26.3365 38.0159L27.6505 38.9819C28.2985 39.4619 28.9525 39.9359 29.6125 40.4039C29.9785 40.6619 29.9725 40.9619 29.9185 41.2199C29.6605 42.4859 29.4145 43.7519 29.1625 45.0179L28.5925 47.8979C28.2985 49.3739 28.0045 50.8499 27.7225 52.3259C27.6205 52.7699 27.3205 52.8239 27.0985 52.8239ZM21.6145 52.2179C23.4445 52.2179 25.2685 52.2179 27.0985 52.2239C27.1045 52.2239 27.1105 52.2239 27.1165 52.2239C27.4105 50.7119 27.7045 49.2479 27.9925 47.7899L28.5625 44.9099C28.8145 43.6439 29.0605 42.3779 29.3185 41.1119C29.3485 40.9679 29.3425 40.9679 29.2525 40.9019C28.5925 40.4339 27.9385 39.9539 27.2845 39.4739L25.9705 38.5139C24.8245 37.6799 23.6845 36.8399 22.5325 36.0119C22.5085 35.9999 22.4425 35.9879 22.4125 35.9939C21.7225 36.1919 21.0385 36.4019 20.3545 36.6239C17.4985 37.5539 14.5525 38.5079 11.7925 39.8279C11.0845 40.1639 10.6765 40.5359 10.4665 41.0339L10.4005 41.1839C10.1605 41.7539 9.90847 42.3419 9.74047 42.9359C9.01447 45.4919 8.72047 48.0839 8.49247 51.1859C8.48047 51.3239 8.52847 51.5039 8.61847 51.6779C8.81047 52.0499 9.14647 52.2239 9.68047 52.2239H19.9585C20.5105 52.2179 21.0625 52.2179 21.6145 52.2179ZM49.0585 52.8179C48.5365 52.8179 48.0205 52.8179 47.4985 52.8179H33.2365L31.4725 43.9139C31.2865 42.9659 31.1005 42.0119 30.9205 41.0639C30.8905 40.8959 30.9565 40.6439 31.1245 40.5179C31.8925 39.9419 32.6665 39.3719 33.4405 38.8079L33.9445 38.4359C34.8265 37.7879 35.7025 37.1459 36.5845 36.5039L36.6625 36.4499C37.1125 36.1199 37.5685 35.7899 38.0305 35.4779C38.2105 35.3519 38.4625 35.3759 38.6245 35.4239L39.7945 35.7899C40.9345 36.1439 42.1105 36.5159 43.2625 36.9179C44.7625 37.4459 46.2685 38.0339 47.7265 38.6039L48.3745 38.8559C48.6865 38.9759 48.9745 39.1259 49.2625 39.2759C49.3945 39.3419 49.5205 39.4079 49.6525 39.4739C50.4685 39.8699 50.8645 40.6019 51.0925 41.1179C51.6205 42.3119 51.9925 43.6619 52.2565 45.3539C52.4305 46.4579 52.5625 47.5859 52.6945 48.6719C52.7425 49.0799 52.7905 49.4939 52.8445 49.9019C52.8685 50.0759 52.8805 50.2499 52.8925 50.4179C52.9045 50.5559 52.9165 50.6999 52.9285 50.8379C52.9945 51.4319 52.8625 51.9299 52.5445 52.2839C52.2265 52.6379 51.7465 52.8239 51.1465 52.8239C50.4565 52.8179 49.7545 52.8179 49.0585 52.8179ZM33.7285 52.2179H47.4985C48.7165 52.2179 49.9345 52.2179 51.1465 52.2179C51.5725 52.2179 51.9025 52.0979 52.1005 51.8759C52.2985 51.6539 52.3765 51.3179 52.3345 50.8979C52.3165 50.7479 52.3045 50.6039 52.2985 50.4539C52.2865 50.2919 52.2745 50.1299 52.2565 49.9679C52.2025 49.5539 52.1545 49.1459 52.1065 48.7319C51.9745 47.6459 51.8425 46.5299 51.6685 45.4319C51.4105 43.7939 51.0505 42.4919 50.5465 41.3459C50.2405 40.6559 49.8865 40.2419 49.3945 40.0019C49.2565 39.9359 49.1245 39.8639 48.9925 39.7979C48.7105 39.6539 48.4465 39.5159 48.1645 39.4079L47.5165 39.1559C46.0645 38.5919 44.5585 38.0039 43.0645 37.4819C41.9305 37.0799 40.7545 36.7139 39.6205 36.3599L38.4445 35.9939C38.4085 35.9819 38.3545 35.9819 38.3425 35.9879C37.9105 36.2819 37.4605 36.6119 37.0165 36.9359L36.9385 36.9899C36.0565 37.6319 35.1805 38.2799 34.2985 38.9219L33.7945 39.2939C33.0205 39.8579 32.2525 40.4279 31.4845 41.0039C31.6885 41.9099 31.8745 42.8579 32.0605 43.8059L33.7285 52.2179Z" fill="#2BB786"/>
<path d="M40.875 17.7237C40.749 18.6837 40.647 19.6437 40.485 20.5977C40.125 22.6497 39.375 24.5637 38.373 26.3937C37.533 27.9297 36.513 29.3277 35.193 30.4857C33.789 31.7157 32.193 32.5497 30.261 32.5017C29.127 32.4717 28.089 32.1177 27.117 31.5357C25.431 30.5277 24.183 29.0877 23.127 27.4677C21.873 25.5417 20.997 23.4417 20.481 21.2097C20.085 19.5117 19.905 17.7837 20.169 16.0377C20.475 13.9977 21.225 12.1497 22.503 10.5237C23.781 8.89774 25.377 7.70974 27.345 7.06774C29.841 6.25174 32.307 6.38974 34.677 7.54774C37.623 8.98774 39.447 11.3817 40.365 14.4837C40.677 15.5337 40.827 16.6197 40.797 17.7177C40.821 17.7177 40.845 17.7237 40.875 17.7237ZM39.309 17.9517C39.309 17.7057 39.321 17.4597 39.303 17.2137C39.285 16.9017 39.249 16.5897 39.207 16.2777C38.811 13.5717 37.587 11.3457 35.379 9.70174C33.597 8.38174 31.593 7.81774 29.403 8.11174C26.319 8.52574 24.123 10.2597 22.689 12.9597C21.573 15.0537 21.315 17.3037 21.693 19.6497C22.077 22.0437 22.905 24.2637 24.165 26.3277C25.107 27.8757 26.235 29.2557 27.813 30.2097C28.881 30.8577 30.027 31.1937 31.287 30.9177C32.937 30.5637 34.167 29.5437 35.235 28.3197C36.609 26.7477 37.581 24.9297 38.301 22.9677C38.889 21.3537 39.243 19.6797 39.309 17.9517Z" fill="#2BB786"/>
<path d="M30.4227 32.8019C30.3627 32.8019 30.3027 32.8019 30.2487 32.8019C29.1327 32.7719 28.0227 32.4299 26.9547 31.7939C25.4127 30.8699 24.1167 29.5499 22.8687 27.6299C21.6147 25.7039 20.7147 23.5679 20.1807 21.2759C19.7307 19.3199 19.6227 17.5919 19.8627 15.9899C20.1807 13.8539 20.9907 11.9519 22.2627 10.3319C23.6127 8.60994 25.2867 7.41594 27.2427 6.77394C29.8467 5.92194 32.3847 6.08994 34.8027 7.27194C37.7007 8.68794 39.6687 11.0819 40.6467 14.3939C40.9407 15.3959 41.0967 16.4219 41.0967 17.4479L41.2107 17.4599L41.1687 17.7659C41.1267 18.0659 41.0907 18.3599 41.0547 18.6599C40.9707 19.3139 40.8927 19.9859 40.7727 20.6519C40.4367 22.5959 39.7347 24.5219 38.6247 26.5379C37.6827 28.2599 36.6207 29.6219 35.3787 30.7079C33.7767 32.1179 32.1507 32.8019 30.4227 32.8019ZM30.4707 6.84594C29.4687 6.84594 28.4547 7.01394 27.4287 7.34994C25.5867 7.94994 24.0087 9.08394 22.7307 10.7039C21.5247 12.2399 20.7567 14.0519 20.4567 16.0799C20.2287 17.6039 20.3307 19.2599 20.7627 21.1379C21.2787 23.3639 22.1547 25.4339 23.3667 27.2999C24.5607 29.1359 25.8027 30.4019 27.2607 31.2719C28.2507 31.8659 29.2347 32.1659 30.2607 32.1959C31.9107 32.2499 33.4227 31.6259 34.9887 30.2519C36.1767 29.2139 37.1967 27.8999 38.1027 26.2439C39.1767 24.2879 39.8547 22.4219 40.1847 20.5439C40.2987 19.8959 40.3827 19.2299 40.4607 18.5819C40.4847 18.3839 40.5087 18.1859 40.5327 17.9879L40.4847 17.9819L40.4907 17.7059C40.5147 16.6499 40.3767 15.5939 40.0707 14.5619C39.1407 11.4179 37.2747 9.14994 34.5387 7.81194C33.2187 7.16994 31.8567 6.84594 30.4707 6.84594ZM30.3987 31.3199C29.4927 31.3199 28.5867 31.0379 27.6507 30.4739C26.2227 29.6099 25.0287 28.3439 23.9007 26.4899C22.6227 24.3899 21.7767 22.1099 21.3927 19.7039C20.9847 17.1839 21.3327 14.8679 22.4187 12.8279C23.9667 9.92394 26.3007 8.23794 29.3607 7.82394C31.5987 7.51794 33.6807 8.07594 35.5527 9.46794C37.7547 11.1059 39.0807 13.3799 39.5007 16.2419C39.5487 16.5599 39.5787 16.8779 39.6027 17.2019C39.6147 17.3819 39.6087 17.5559 39.6087 17.7359V17.9699C39.5427 19.6679 39.2007 21.3899 38.5767 23.0819C37.7787 25.2539 36.7587 27.0359 35.4567 28.5299C34.1067 30.0719 32.8407 30.8999 31.3467 31.2239C31.0287 31.2839 30.7167 31.3199 30.3987 31.3199ZM30.5307 8.33994C30.1707 8.33994 29.8107 8.36394 29.4447 8.41194C26.5887 8.79594 24.4047 10.3739 22.9527 13.1039C21.9267 15.0299 21.6027 17.2139 21.9867 19.6019C22.3587 21.9299 23.1807 24.1379 24.4167 26.1719C25.4907 27.9419 26.6187 29.1419 27.9627 29.9579C29.0907 30.6419 30.1587 30.8639 31.2207 30.6299C32.5827 30.3359 33.7467 29.5679 35.0067 28.1279C36.2607 26.6939 37.2447 24.9719 38.0187 22.8719C38.6187 21.2399 38.9487 19.5839 39.0147 17.9459V17.7179C39.0147 17.5559 39.0207 17.3939 39.0087 17.2319C38.9907 16.9259 38.9607 16.6259 38.9127 16.3199C38.5167 13.6259 37.2687 11.4779 35.1987 9.94194C33.7647 8.87994 32.1987 8.33994 30.5307 8.33994Z" fill="#2BB786"/>
<circle cx="48.5029" cy="6.49951" r="5.5" fill="#FF1212"/>
</g>
<defs>
<clipPath id="clip0_1878_11846">
<rect width="60" height="60" fill="white" transform="translate(0.422363)"/>
</clipPath>
</defs>
</svg>
