<svg width="613" height="605" viewBox="0 0 613 605" fill="none" xmlns="http://www.w3.org/2000/svg">
<g clip-path="url(#clip0_1588_30747)">
<path d="M379.533 39.7755L383.45 40.9904L298.737 314.11L294.82 312.895L379.533 39.7755Z" fill="#235364"/>
<path d="M375.617 38.5606L379.533 39.7754L294.82 312.895L290.903 311.68L375.617 38.5606Z" fill="#283F4A"/>
<path d="M375.826 42.7123L375.811 42.7077C375.16 42.542 374.602 42.1257 374.258 41.5497C373.913 40.9737 373.81 40.2848 373.972 39.6334C374.018 39.4845 374.08 39.3409 374.157 39.2053L383.088 19.3308C383.36 18.753 383.839 18.2974 384.429 18.053C385.019 17.8086 385.679 17.793 386.281 18.0091L378.373 43.5025L375.826 42.7123Z" fill="#283F4A"/>
<path d="M380.921 44.2926L378.374 43.5025L386.281 18.0091C386.9 18.1707 387.436 18.5572 387.785 19.0929C388.134 19.6287 388.271 20.2752 388.168 20.9064L384.226 42.6193C384.151 42.9468 384.004 43.2533 383.795 43.5164C383.586 43.7795 383.321 43.9924 383.019 44.1396C382.366 44.4599 381.614 44.5148 380.921 44.2926Z" fill="#235364"/>
<path d="M280.835 357.98C279.821 361.259 278.17 364.305 275.977 366.946C273.785 369.586 271.094 371.769 268.057 373.369C265.021 374.968 261.699 375.954 258.282 376.27C254.864 376.586 251.418 376.225 248.14 375.208C244.862 374.191 241.817 372.539 239.178 370.345C236.539 368.15 234.358 365.458 232.76 362.42C231.162 359.383 230.178 356.061 229.865 352.643C229.552 349.225 229.915 345.779 230.934 342.502L231.975 339.145L235.331 340.186C235.772 340.322 236.182 340.545 236.537 340.84C236.892 341.135 237.185 341.497 237.401 341.905C237.616 342.314 237.749 342.761 237.791 343.22C237.833 343.68 237.785 344.144 237.648 344.585C236.148 349.422 236.631 354.656 238.99 359.137C241.349 363.618 245.392 366.978 250.229 368.478C255.065 369.978 260.3 369.496 264.781 367.137C269.262 364.777 272.622 360.735 274.122 355.898L288.109 310.805C288.245 310.364 288.467 309.954 288.762 309.599C289.058 309.244 289.42 308.95 289.828 308.735C290.237 308.52 290.684 308.387 291.143 308.345C291.603 308.303 292.067 308.351 292.508 308.488L295.863 309.529L280.835 357.98Z" fill="#357E64"/>
<path d="M228.618 338.104L231.975 339.145L230.934 342.502C229.915 345.78 229.552 349.225 229.865 352.643C230.179 356.061 231.162 359.383 232.76 362.421C234.358 365.458 236.539 368.15 239.178 370.345C241.817 372.539 244.863 374.192 248.141 375.208C251.418 376.225 254.865 376.586 258.282 376.27C261.7 375.955 265.021 374.969 268.058 373.369C271.094 371.769 273.785 369.586 275.978 366.946C278.17 364.305 279.821 361.259 280.835 357.98L295.863 309.529L299.221 310.57C300.111 310.847 300.856 311.465 301.29 312.291C301.724 313.116 301.813 314.079 301.537 314.97L287.55 360.063C286.265 364.227 284.172 368.098 281.39 371.452C278.608 374.807 275.193 377.58 271.338 379.614C267.483 381.647 263.265 382.9 258.926 383.302C254.586 383.704 250.21 383.246 246.048 381.955C241.885 380.664 238.018 378.565 234.668 375.778C231.317 372.991 228.549 369.571 226.522 365.713C224.495 361.855 223.248 357.636 222.852 353.296C222.457 348.955 222.922 344.58 224.219 340.42C224.356 339.979 224.578 339.569 224.873 339.214C225.168 338.859 225.53 338.566 225.939 338.351C226.347 338.136 226.794 338.003 227.254 337.961C227.713 337.918 228.177 337.967 228.618 338.104Z" fill="#1F7053"/>
</g>
<path d="M562.324 260.46L560.89 265.86C560.69 266.579 560.722 267.345 560.981 268.06C561.241 268.774 561.717 269.406 562.348 269.873C563.149 270.436 564.143 270.681 565.112 270.556C566.081 270.432 566.948 269.947 567.523 269.207L570.276 265.836L570.136 265.71C569.295 265.098 566.587 263.15 562.324 260.46Z" fill="black"/>
<path d="M228.625 191.405L229.33 195.62C229.463 196.548 229.975 197.399 230.755 197.988C231.535 198.577 232.519 198.857 233.494 198.766C234.274 198.673 235.001 198.361 235.581 197.869C236.161 197.378 236.568 196.728 236.751 196.004L238.519 189.341C232.246 190.439 228.648 191.434 228.648 191.434L228.625 191.405Z" fill="black"/>
<path d="M401.505 232.89L399.744 239.524C399.544 240.243 399.575 241.009 399.835 241.724C400.094 242.439 400.571 243.07 401.203 243.537C402.004 244.1 402.997 244.345 403.966 244.22C404.936 244.095 405.802 243.61 406.377 242.871L409.054 239.593L409.034 239.601C409.034 239.601 406.409 236.956 401.505 232.89Z" fill="black"/>
<path d="M75.6663 134.585L76.3846 138.877C76.5173 139.805 77.0293 140.656 77.8091 141.245C78.5889 141.834 79.5732 142.113 80.5478 142.022C81.328 141.93 82.0545 141.618 82.6345 141.126C83.2145 140.634 83.6217 139.985 83.8041 139.261L85.2401 133.851C80.2098 134.074 76.9043 134.423 75.8952 134.535L75.6663 134.585Z" fill="black"/>
<path d="M365.311 40.2353L365.426 40.2597C360.899 38.8325 217.642 -4.84747 75.667 134.582C75.667 134.582 190.686 126.214 228.694 192.241C228.694 192.241 267.686 178.862 324.634 193.945C324.596 193.935 324.559 193.924 324.521 193.914L365.311 40.2353Z" fill="#1F7053"/>
<path d="M365.425 40.2601L365.31 40.2358L324.52 193.914C324.558 193.924 324.595 193.935 324.633 193.946C381.566 209.089 408.79 240.044 408.79 240.044C474.538 201.556 570.268 265.862 570.268 265.862C516.125 74.378 370.065 41.2661 365.425 40.2601Z" fill="#1F7053"/>
<path opacity="0.1" d="M365.363 40.495L365.352 40.4917C361.65 39.3252 263.691 9.45714 149.905 77.0934C181.061 82.1916 226.974 95.5222 251.866 131.19C251.924 131.158 251.996 131.12 252.081 131.076C252.351 130.934 252.754 130.728 253.285 130.473C254.349 129.961 255.928 129.247 257.996 128.437C262.133 126.817 268.226 124.81 276.062 123.26C291.733 120.16 314.372 118.888 342.257 126.186L342.26 126.186C342.299 126.197 342.337 126.208 342.374 126.219C342.41 126.229 342.446 126.239 342.481 126.249C342.482 126.249 342.482 126.249 342.482 126.249L342.418 126.484C397.835 141.476 418.177 175.672 418.177 175.672L365.363 40.495ZM365.363 40.495L365.374 40.4974C369.168 41.3208 469.098 63.9735 534.365 179.217C504.819 168.107 457.895 156.576 418.27 175.358L365.363 40.495Z" fill="white" stroke="black" stroke-width="0.486986"/>
<g clip-path="url(#clip1_1588_30747)">
<path d="M88.0493 604.871L87.9356 602.993L85.9783 591.309L79.1894 592.04L77.3462 603.001L77 604.871H88.0493Z" fill="#E59375"/>
<path d="M104.73 517.823C104.73 517.823 87.8607 577.403 85.9786 591.309C85.9786 591.309 79.9459 598.146 79.1895 592.04C77.6718 579.85 82.3867 516.435 85.5907 511.505C88.7933 506.583 104.73 517.823 104.73 517.823Z" fill="#E59375"/>
<path d="M83.2111 522.233C83.2111 522.233 78.8964 555.637 78.46 596.373C78.46 596.373 85.7131 598.291 89.2565 596.717C89.2565 596.717 109.097 541.585 106.435 515.864C106.435 515.864 88.2225 505.908 83.2111 522.233Z" fill="#4B9EBF"/>
<path d="M162.309 397.781C161.31 409.629 157.404 412.911 161.638 424.995C165.547 436.158 175.17 444.001 177.009 456.16C178.316 464.797 176.817 479.043 171.514 486.329C163.818 496.902 144.84 492.162 134.084 490.957C121.853 489.585 94.7412 490.121 86.6568 478.316C80.5239 469.364 86.8985 452.575 88.7502 443.004C91.1019 430.858 93.5889 418.733 95.71 406.541C97.6422 395.459 100.329 377.431 107.93 368.419C114.387 360.761 123.293 360.095 133.974 361.511C154.169 364.189 163.558 382.985 162.309 397.781Z" fill="#3F1901"/>
<path d="M101.406 444.612C99.3312 444.553 97.2657 444.911 95.327 445.664C93.3883 446.418 91.6143 447.554 90.1064 449.006C88.5985 450.458 87.3862 452.199 86.5387 454.128C85.6912 456.058 85.2251 458.138 85.167 460.251C84.9253 469.137 89.6791 492.063 96.3251 486.297C109.385 474.969 115.9 468.153 116.146 459.267C116.389 450.379 110.129 444.86 101.406 444.612Z" fill="#E59375"/>
<path d="M89.153 457.027L104.947 454.833L114.517 468.363C114.517 468.363 102.489 520.294 95.2458 530.316C87.528 540.991 85.6725 529.989 84.4365 525.681C84.4365 525.681 83.9111 465.91 89.153 457.027Z" fill="#E59375"/>
<path d="M142.564 604.871C143.124 602.361 143.7 599.767 144.293 597.089L101.171 570.123C101.171 570.123 95.5053 590.454 92.4805 604.871H142.564Z" fill="#F7A483"/>
<path d="M142.436 604.871C142.902 601.711 143.116 599.913 143.116 599.913C150.901 564.169 99.1219 566.775 99.1219 566.775C94.4502 575.504 91.1405 589.263 88.7969 604.871H142.436Z" fill="#010814"/>
<path d="M118.835 525.731C116.834 525.361 108.577 529.702 108.577 529.702C108.577 529.702 98.2647 563.454 97.8256 568.588C97.3791 573.716 132.027 600.285 170.736 585.157C170.736 585.157 152.814 537.627 151.719 525.922C150.625 514.216 118.835 525.731 118.835 525.731Z" fill="#E79675"/>
<path d="M108.577 529.702C108.577 529.702 98.6928 560.14 97.8253 568.588C94.7381 598.49 134.461 611.029 173.165 595.902C173.165 595.902 175.676 554.791 151.719 525.922C151.719 525.922 145.355 531.833 108.577 529.702Z" fill="#09111C"/>
<path d="M173.041 604.871C173.123 603.3 173.166 602.432 173.166 602.432L168.806 604.871H173.041Z" fill="#09111C"/>
<path d="M172.831 604.871C175.389 579.942 162.135 576.032 162.135 576.032C139.097 565.554 117.889 578.979 120.891 604.871H172.831Z" fill="#09111C"/>
<path d="M143.253 442.836H116.316C117.536 438.839 120.076 428.497 116.15 421.457L143.369 403.251C143.369 403.251 138.53 433.804 143.253 442.836Z" fill="#F7A483"/>
<path d="M118.246 430.838C118.326 427.779 117.828 424.47 116.15 421.457L143.369 403.251C143.369 403.251 141.398 415.702 141.196 427.059C131.367 430.242 127.322 431.475 118.246 430.838Z" fill="#E1876F"/>
<path d="M161.765 445.204C173.89 451.244 167.15 465.76 167.15 465.76L150.763 526.517C150.763 526.517 135.447 532.895 108.578 529.702C104.848 524.262 97.1738 501.467 94.6078 484.062C92.489 469.729 85.9159 455.606 93.0773 447.613C95.8214 444.549 116.732 441.49 116.837 440.989H142.005L161.765 445.204Z" fill="#F7A483"/>
<path d="M111.963 423.949L110.331 419.901L106.239 407.955C105.662 406.054 105.303 403.433 105.857 401.519C106.522 399.218 106.943 395.501 105.908 391.424C103.14 380.504 107.66 374.494 107.66 374.494C113.482 364.018 128.404 363.294 128.404 363.294C146.904 363.315 149.32 381.437 149.32 381.437C152.885 393.394 143.912 403.933 143.893 403.952C142.758 405.286 142.73 407.356 142.234 408.959C141.69 410.676 140.85 412.281 139.753 413.697C137.311 416.863 134.073 419.939 130.681 421.923C127.469 423.806 121.166 425.89 116.628 426.075C114.747 426.154 112.897 426.271 111.963 423.949Z" fill="#F7A483"/>
<path d="M142.18 411.076C141.846 402.49 141.661 403.026 141.661 403.026C141.337 400.528 136.779 406.185 136.714 402.914C136.425 387.935 130.734 381.092 128.594 380.049C122.772 377.223 116.753 376.631 112.059 377.735C104.7 379.462 105.486 389.514 105.486 389.514C97.3233 352.987 138.261 362.675 138.261 362.675C158.176 366.915 157.089 385.883 157.089 385.883C160.509 406.015 141.511 418.692 141.511 418.692L142.18 411.076Z" fill="#3F1901"/>
<path d="M140.745 408.223C141.51 408.745 142.429 408.978 143.344 408.883C146.199 408.696 148.439 405.846 148.336 402.531C148.236 399.22 145.849 396.684 142.998 396.874C142.331 396.929 141.682 397.119 141.088 397.433C140.495 397.748 139.969 398.18 139.541 398.704C138.238 400.237 138.333 402.937 138.749 404.777C139.078 406.248 139.716 407.497 140.745 408.223Z" fill="#F8A07D"/>
<path d="M141.996 400.017C142.078 398.268 145.616 399.752 145.139 400.758C144.866 401.338 144.28 401.782 143.828 402.201C143.201 402.774 142.908 403.288 142.861 404.159C142.854 404.256 142.848 404.561 142.952 404.624C143.414 404.918 144.794 403.145 145.097 402.769C145.692 402.031 145.72 400.827 145.37 399.968C145.004 399.059 144.384 398.653 143.417 398.764C142.641 398.85 141.854 398.945 141.946 399.925C141.952 399.944 141.991 400.106 141.996 400.017Z" fill="#E98B6F"/>
<path d="M143.191 401.763C142.812 401.418 142.485 401.74 142.131 402.027C141.82 402.295 141.619 402.672 141.567 403.083C141.412 403.998 141.593 405.201 142.141 405.965C142.355 406.269 142.642 406.512 142.975 406.671C143.308 406.83 143.676 406.899 144.042 406.872C145.083 406.789 145.343 405.837 145.338 404.938C145.338 404.701 145.328 404.13 145.092 403.993C144.835 403.846 144.675 404.251 144.52 404.428C144.281 404.649 143.977 404.784 143.655 404.811C143.362 404.841 143.066 404.799 142.792 404.691C142.518 404.583 142.272 404.411 142.075 404.188C142.002 404.112 141.943 404.022 141.903 403.923C141.931 404.51 141.97 404.638 142.013 404.313C142.052 404.163 142.111 404.019 142.189 403.886C142.408 403.469 142.803 403.173 143.051 402.769C143.171 402.587 143.38 401.942 143.191 401.763Z" fill="#E98B6F"/>
<path d="M123.741 396.268C123.689 397.313 124.219 398.189 124.918 398.222C125.609 398.253 126.215 397.432 126.262 396.386C126.308 395.337 125.78 394.464 125.085 394.433C124.387 394.401 123.784 395.222 123.741 396.268Z" fill="#3C2415"/>
<path d="M109.446 395.052C109.461 396.102 110.037 396.941 110.734 396.932C111.432 396.924 111.987 396.064 111.973 395.016C111.958 393.97 111.382 393.129 110.683 393.141C109.986 393.15 109.431 394.005 109.446 395.052Z" fill="#3C2415"/>
<path d="M129.785 394.546C127.037 390.892 119.82 392.324 119.82 392.324C119.82 392.324 119.402 392.322 119.449 391.014C119.449 391.014 119.422 389.861 120.333 389.925C120.333 389.925 129.179 388.392 129.785 394.546Z" fill="#3F1901"/>
<path d="M105.485 389.513C106.747 387.054 113.482 389.407 113.482 389.407C114.39 389.495 114.18 390.63 114.18 390.63C114.017 391.926 113.602 391.856 113.602 391.856C113.602 391.856 106.906 389.201 105.761 390.771C105.557 389.908 105.617 389.98 105.485 389.513Z" fill="#3F1901"/>
<path d="M111.736 408.893L121.718 410.242C122.238 410.318 122.451 410.705 122.17 411.104C122.17 411.104 119.331 415.218 116.094 414.769C112.858 414.323 111.21 409.587 111.21 409.587C111.067 409.173 111.306 408.898 111.736 408.893Z" fill="white"/>
<path d="M119.096 406.496C113.779 406.38 113.419 404.979 113.419 404.979L115.911 399.15C115.911 399.15 115.558 404.868 119.096 406.496Z" fill="#E98B6F"/>
<path d="M140.637 408.837C140.655 409.189 140.775 409.528 140.982 409.81C141.189 410.093 141.473 410.307 141.799 410.425C142.125 410.543 142.478 410.559 142.814 410.473C143.149 410.387 143.452 410.201 143.684 409.939C143.916 409.678 144.067 409.352 144.117 409.003C144.167 408.654 144.114 408.298 143.966 407.98C143.817 407.661 143.58 407.395 143.283 407.214C142.985 407.033 142.642 406.946 142.297 406.964C142.067 406.976 141.842 407.034 141.634 407.134C141.426 407.235 141.24 407.376 141.086 407.55C140.932 407.724 140.813 407.927 140.736 408.148C140.659 408.369 140.625 408.603 140.637 408.837Z" fill="white"/>
<path d="M145.736 458.126C145.193 466.997 149.748 475.71 158.459 476.256C167.168 476.81 189.821 472.751 184.389 465.792C173.72 452.109 167.258 445.242 158.548 444.693C149.833 444.14 146.271 449.251 145.736 458.126Z" fill="#F7A483"/>
<path d="M152.378 471.03L157.918 455.805L174.143 453.583C174.143 453.583 213.437 488.861 218.703 500.092C224.31 512.061 213.907 508.541 209.596 507.621C209.596 507.621 157.596 479.925 152.378 471.03Z" fill="#F7A483"/>
<path d="M219.596 507.794C219.596 507.794 200.018 535.849 181.784 551.831C181.784 551.831 173.926 551.035 176.416 546.667C180.651 539.256 198.074 504.536 202.355 497.095C204.767 492.914 219.596 507.794 219.596 507.794Z" fill="#F7A483"/>
<path d="M176.416 546.667L167.208 549.061L163.267 543.832C163.316 549.625 161.467 553.592 161.467 553.592C156.326 559.158 153.231 563.517 153.231 563.517C151.215 565.41 153.459 566.461 153.459 566.461C157.233 565.318 164.367 559.658 164.367 559.658C160.799 563.415 154.001 568.776 154.001 568.776C152.62 570.635 154.92 571.192 154.92 571.192C160.355 571.053 166.634 562.839 166.634 562.839C164.357 566.016 157.887 571.515 157.887 571.515C157.602 573.173 158.518 573.075 158.518 573.075C162.842 573.636 168.864 565.715 168.864 565.715L166.535 568.622C162.995 572.312 166.255 572.698 166.255 572.698L168.404 571.061C174.865 565.957 177.321 559.458 177.321 559.458L181.784 551.83L176.416 546.667Z" fill="#F7A483"/>
<path d="M220.321 504.242C220.321 504.242 221.914 506.586 216.292 514.398C216.292 514.398 195.209 545.385 181.592 552.939C181.592 552.939 175.595 550.497 174.829 545.941C174.829 545.941 192.899 503.571 204.15 496.353C204.15 496.353 213.103 489.658 220.321 504.242Z" fill="#4FA6C9"/>
<path d="M92.2159 447.193C92.2159 447.193 84.0506 449.269 84.0506 467.836C84.0506 467.836 77.548 531.827 88.8711 534.944C88.8711 534.944 102.984 539.511 113.251 472.955C113.251 472.955 110.914 446.902 92.2159 447.193Z" fill="#4B9EBF"/>
<path d="M109.445 442.48L97.8218 444.607C97.8218 444.607 89.3481 446.495 89.0686 453.884C89.0686 453.884 88.5921 467.88 96.0716 493.19C96.0716 493.19 108.439 454.354 109.445 442.48Z" fill="#4FA6C9"/>
<path d="M112.411 442.016L107.172 442.836C107.172 442.836 97.0065 462.857 94.6074 484.062C97.1734 501.467 102.327 527.82 108.577 529.703C129.759 536.084 151.87 526.054 151.87 526.054L161.999 484.851C134.792 474.061 148.543 442.383 148.543 442.383L142.829 440.989L118.78 465.752L112.411 442.016Z" fill="#4FA6C9"/>
<path d="M148.543 442.383L161.999 444.651C161.999 444.651 168.449 446.978 172.237 451.684C172.237 451.684 226.097 492.652 220.152 507.409C220.152 507.409 218.402 512.39 212.842 510.854L160.688 485.793C160.688 485.793 131.604 472.128 148.543 442.383Z" fill="#4FA6C9"/>
<path d="M101.665 455.681C101.665 455.681 91.0352 470.681 89.1824 478.407C87.9649 483.487 96.6565 494.925 103.672 496.943C107.507 498.044 107.598 456.691 101.665 455.681Z" fill="#4FA6C9"/>
<path d="M101.665 455.681C101.665 455.681 91.0352 470.681 89.1824 478.407C87.9649 483.487 96.6565 494.925 103.672 496.943C107.507 498.044 107.598 456.691 101.665 455.681Z" fill="#111924"/>
<path d="M106.366 442.836C106.366 442.836 96.6833 462.982 94.2842 484.189C96.8513 501.593 102.328 527.82 108.578 529.703C129.759 536.084 151.871 526.054 151.871 526.054L162 484.851C134.793 474.061 148.543 442.383 148.543 442.383L142.83 440.989L117.389 478.035L112.412 442.016L106.366 442.836Z" fill="#111924"/>
<path d="M142.833 440.989L117.39 478.035L135.688 472.991C135.688 472.991 138.346 470.697 136.656 468.191L134.139 463.188L137.49 462.174C137.49 462.174 141.891 461.644 142.62 457.991L145.368 441.609L142.833 440.989Z" fill="#222B35"/>
<path d="M112.502 442.07L117.389 478.035L107.448 468.629C107.448 468.629 103.358 465.243 107.189 463.551L111.923 462.054L106.366 456.968C106.366 456.968 105.212 455.413 106.366 452.485L109.704 442.383L112.502 442.07Z" fill="#222B35"/>
<path d="M152.812 522.233L169.019 549.594C169.019 549.594 154.613 564.076 126.266 566.646C126.266 566.646 106.412 567.152 94.2842 555.826L104.41 522.233H152.812Z" fill="#111924"/>
<path d="M122.4 447.887L122.706 461.783L127.73 456.78L122.4 447.887Z" fill="#4592B1"/>
<path d="M122.4 447.576C122.4 447.576 137.641 441.22 141.42 434.89L148.543 442.383L130.058 460.65L122.4 447.887" fill="#7AD0E2"/>
<path d="M108.835 448.281C108.835 448.281 110.314 442.462 117.556 437.543L116.606 457.605C116.606 457.605 112.59 447.343 108.835 448.281Z" fill="#7AD0E2"/>
<path d="M108.179 457.605L108.834 448.281C111.049 447.729 113.023 450.881 114.635 453.466L108.179 457.605Z" fill="#4592B1"/>
<path d="M114.387 374.384C126.918 380.56 134.107 386.461 131.697 401.738C129.523 415.514 128.925 423.025 136.904 434.801C144.396 445.858 145.346 452.345 139.993 464.89C135.695 474.965 131.456 484.64 143.749 489.923C166.95 499.893 187.087 480.511 177.354 455.978C172.988 444.979 163.361 437.83 158.423 427.296C153.42 416.626 157.251 407.115 157.653 396.046C158.325 377.533 132.286 352.045 117.613 370.711C116.383 372.276 115.373 374.212 114.463 376.003L114.387 374.384Z" fill="#3F1901"/>
<path d="M519.788 458.589L524.84 459.71C524.84 459.71 538.653 520.258 533.457 534.633C528.26 549.006 519.905 534.777 517.295 533.477C514.688 532.176 491.597 465.546 491.597 465.546L519.788 458.589Z" fill="#E59375"/>
<path d="M537.196 527.056L528.113 456.733C522.707 438.234 502.751 445.067 502.751 445.067C487.779 450.72 490.158 462.721 490.158 462.721L510.663 534.971C510.663 534.971 514.545 545.943 528.768 544.484C528.768 544.484 539.121 541.963 537.196 527.056Z" fill="#001940"/>
<path d="M509.97 551.052L523.831 464.737C523.831 464.737 528.61 451.764 519.056 445.28L482.643 427.844H456.963L413.187 454.2L441.88 551.052H509.97Z" fill="#F7A483"/>
<path d="M509.875 604.871L509.97 551.052H441.88C441.88 551.052 434.834 567.455 432.474 604.871H509.875Z" fill="#00264E"/>
<path d="M479.876 604.871C477.117 593.85 467.544 585.753 456.215 585.839C445.005 585.924 435.635 593.987 432.919 604.871H479.876Z" fill="#00264E"/>
<path d="M464.95 604.871C460.704 603.036 455.347 602.566 448.673 604.871H464.95Z" fill="#00264E"/>
<path d="M508.592 604.871C505.823 594.226 498.962 586.892 487.803 588.055C478.159 589.057 470.434 595.87 467.425 604.871H508.592Z" fill="#00264E"/>
<path d="M417.012 464.811L412.02 466.169C412.02 466.169 404.235 527.031 410.079 541.142C415.919 555.256 421.411 541.26 423.958 539.837C426.504 538.415 445.492 470.437 445.492 470.437L417.012 464.811Z" fill="#F7A483"/>
<path d="M430.417 539.289L446.774 467.614C443.399 448.228 425.283 449.592 425.283 449.592C409.382 451.063 408.602 463.279 408.602 463.279L407.55 536.18C407.55 536.18 406.499 548.642 415.718 547.978C415.718 547.978 428.915 545.878 430.417 539.289Z" fill="#001940"/>
<path d="M456.834 408.78V436.741H485.858C485.858 436.741 478.723 425.657 482.291 408.78H456.834Z" fill="#F7A483"/>
<path d="M471.559 432.524C474.173 434.239 479.734 437.889 482.908 435.752C483.279 435.515 483.595 435.199 483.833 434.824C484.07 434.45 484.225 434.027 484.285 433.585C482.416 429.157 479.849 420.324 482.291 408.78H456.834V411.316C460.009 419.497 464.086 427.615 471.559 432.524Z" fill="#E1876F"/>
<path d="M456.139 409.171C456.139 409.171 451.199 406.986 445.605 394.532C445.605 394.532 433.463 379.804 442.07 363.083C442.07 363.083 447.156 348.944 471.801 352.898C471.801 352.898 474.016 390.796 456.139 409.171Z" fill="#F8A07D"/>
<path d="M486.491 416.733L488.134 412.35C488.134 412.35 492.672 396.038 492.672 396.036C493.238 393.986 493.273 391.239 492.906 389.131C492.508 386.838 492.254 384.441 492.84 382.022C495.702 370.291 489.8 363.631 489.8 363.631C483.296 352.566 467.287 352.2 467.287 352.2C447.466 352.725 445.355 372.202 445.355 372.202C441.845 385.104 451.737 396.155 451.755 396.176C452.547 397.059 452.034 401.322 452.247 402.543C453.177 407.746 457.968 411.044 462.23 413.342C466.912 415.863 472.585 418.561 477.871 419.18C479.877 419.415 485.548 419.248 486.491 416.733Z" fill="#F7A483"/>
<path d="M482.617 392.089L477.102 393.799C477.102 393.799 484.303 394.797 484.737 392.678C484.737 392.678 483.942 388.419 483.045 384.372C483.045 384.372 483.436 391.837 482.617 392.089Z" fill="#E98B6F"/>
<path d="M473.818 383.536C473.851 384.692 473.246 385.645 472.477 385.666C471.709 385.69 471.056 384.772 471.025 383.614C470.996 382.458 471.594 381.506 472.362 381.482C473.133 381.46 473.787 382.381 473.818 383.536Z" fill="#3C2415"/>
<path d="M489.407 382.891C489.485 384.049 488.919 385.022 488.148 385.072C487.38 385.126 486.696 384.236 486.623 383.078C486.548 381.921 487.112 380.946 487.881 380.893C488.648 380.844 489.335 381.739 489.407 382.891Z" fill="#3C2415"/>
<path d="M475.559 379.732C476.049 379.88 476.224 379.202 476.224 379.202C476.347 378.805 476.365 378.383 476.278 377.976C476.183 377.692 475.986 377.456 475.727 377.313C474.449 377.032 471.917 377.173 469.747 377.657C468.545 377.927 466.572 378.676 466.369 379.769C466.31 380.096 466.237 380.664 466.598 380.792C469.546 380.156 472.546 379.801 475.559 379.732Z" fill="#602A05"/>
<path d="M493.272 379.259C490.949 379.135 488.619 379.208 486.308 379.477C485.836 379.685 485.582 379.037 485.578 379.037C485.407 378.659 485.335 378.241 485.37 377.826C485.428 377.533 485.595 377.273 485.836 377.1C487.066 376.65 488.802 376.471 491.017 376.666C491.887 376.735 492.745 376.918 493.568 377.212C493.568 377.212 493.686 377.645 493.272 379.259Z" fill="#602A05"/>
<path d="M486.316 398.379C486.755 398.434 486.985 398.777 486.799 399.228C486.799 399.228 484.677 404.446 481.271 404.611C477.861 404.776 475.256 399.792 475.256 399.792C475.001 399.31 475.253 398.891 475.804 398.859C475.804 398.859 481.686 398.511 486.316 398.379Z" fill="white"/>
<path d="M437.166 548.708C437.224 551.583 432.939 581.666 434.741 582.052C434.75 582.055 483.738 593.554 509.864 582.052L509.97 551.052L523.831 464.737C523.831 464.737 528.61 451.764 519.056 445.28L482.643 427.844L485.1 435.364L479.838 450.613L456.963 427.844L413.187 454.2C415.631 462.454 418.072 470.714 420.508 478.978C425.023 494.2 429.415 509.467 434.064 524.647C434.064 524.647 437.91 541.115 437.166 548.708Z" fill="#95D7E3"/>
<path d="M476.676 433.271L476.373 447.169L471.347 442.163L476.676 433.271Z" fill="#3EAEC6"/>
<path d="M483.076 455.681C483.076 456.073 482.962 456.457 482.749 456.783C482.535 457.11 482.231 457.365 481.875 457.515C481.519 457.666 481.128 457.705 480.75 457.629C480.372 457.553 480.025 457.364 479.752 457.087C479.479 456.81 479.294 456.456 479.218 456.071C479.143 455.686 479.181 455.287 479.329 454.925C479.476 454.562 479.725 454.252 480.046 454.034C480.366 453.816 480.743 453.7 481.128 453.699C481.644 453.699 482.139 453.908 482.504 454.279C482.87 454.651 483.075 455.155 483.076 455.681Z" fill="#CFEAE6"/>
<path d="M483.076 491.688C483.076 492.08 482.961 492.464 482.747 492.79C482.534 493.116 482.229 493.371 481.874 493.521C481.518 493.671 481.126 493.71 480.748 493.634C480.371 493.557 480.024 493.368 479.751 493.091C479.479 492.814 479.293 492.46 479.218 492.075C479.143 491.691 479.181 491.292 479.329 490.929C479.476 490.567 479.726 490.257 480.046 490.039C480.366 489.821 480.743 489.704 481.128 489.704C481.384 489.704 481.637 489.755 481.873 489.855C482.11 489.954 482.325 490.101 482.506 490.285C482.686 490.469 482.83 490.688 482.928 490.929C483.025 491.169 483.076 491.427 483.076 491.688Z" fill="#CFEAE6"/>
<path d="M483.076 527.69C483.076 528.082 482.963 528.466 482.749 528.793C482.535 529.119 482.231 529.374 481.876 529.525C481.52 529.676 481.128 529.715 480.75 529.639C480.372 529.563 480.025 529.374 479.752 529.097C479.48 528.82 479.294 528.466 479.218 528.082C479.143 527.697 479.181 527.298 479.329 526.935C479.476 526.572 479.725 526.262 480.046 526.044C480.366 525.826 480.743 525.709 481.128 525.709C481.383 525.709 481.637 525.76 481.873 525.859C482.109 525.959 482.324 526.105 482.504 526.289C482.685 526.473 482.829 526.691 482.927 526.931C483.025 527.172 483.075 527.429 483.076 527.69Z" fill="#CFEAE6"/>
<path d="M483.076 563.697C483.076 564.09 482.962 564.473 482.748 564.8C482.535 565.126 482.231 565.381 481.875 565.532C481.519 565.682 481.127 565.722 480.75 565.645C480.372 565.569 480.024 565.38 479.752 565.103C479.479 564.826 479.294 564.472 479.218 564.087C479.143 563.702 479.181 563.304 479.329 562.941C479.476 562.578 479.726 562.268 480.046 562.05C480.366 561.832 480.743 561.716 481.128 561.716C481.384 561.715 481.637 561.767 481.873 561.866C482.109 561.966 482.324 562.112 482.505 562.296C482.686 562.48 482.829 562.698 482.927 562.939C483.025 563.179 483.075 563.437 483.076 563.697Z" fill="#CFEAE6"/>
<path d="M476.676 448.753V585.399" stroke="#74CEE2" stroke-width="7.2752" stroke-miterlimit="10"/>
<path d="M509.561 584.899C509.561 584.899 484.54 596.84 433.334 584.637C432.493 584.432 432.848 582.208 432.848 582.208L433.334 577.184C433.558 575.576 434.439 575.652 434.439 575.652C434.452 575.654 483.436 587.153 509.561 575.652C509.561 575.652 510.616 575.463 510.662 577.074V583.336C510.662 583.336 510.662 584.585 509.561 584.899Z" fill="#471F08"/>
<path d="M484.145 588.687C484.147 588.874 484.113 589.06 484.045 589.233C483.977 589.407 483.875 589.566 483.747 589.699C483.619 589.833 483.466 589.94 483.297 590.014C483.128 590.088 482.947 590.127 482.763 590.129H472.796C472.426 590.124 472.072 589.969 471.814 589.698C471.555 589.428 471.413 589.064 471.417 588.687V581.377C471.412 580.999 471.555 580.636 471.814 580.365C472.072 580.095 472.426 579.94 472.796 579.935H482.763C482.947 579.937 483.128 579.976 483.297 580.05C483.466 580.123 483.619 580.23 483.747 580.364C483.876 580.498 483.977 580.656 484.045 580.83C484.113 581.004 484.147 581.19 484.145 581.377V588.687Z" stroke="#BCBEC0" stroke-width="11.9022" stroke-miterlimit="10"/>
<path d="M471.417 584.571H476.691" stroke="#BCBEC0" stroke-width="11.9022" stroke-miterlimit="10"/>
<path d="M476.676 432.96C476.676 432.96 460.612 426.603 456.834 420.276L452.086 429.49L469.02 446.034L476.676 433.27" fill="#7AD0E2"/>
<path d="M435.332 377.606C441.805 397.491 451.406 404.645 451.406 404.645C451.406 404.645 448.765 389.511 456.619 391.582L457.974 391.506C457.974 391.506 455.272 382.636 460.87 378.257C458.216 374.78 460.371 367.838 460.909 366.846C463.622 361.85 471.458 363.979 476.041 362.657C479.587 361.633 488.399 360.11 490.43 364.475C505.817 364.022 498.046 345.025 498.046 345.025C497.641 350.646 493.058 351.916 493.058 351.916C497.937 345.923 491.391 335 491.391 335C484.737 340.436 467.265 341.546 467.265 341.546C454.701 341.143 451.591 349.343 451.591 349.343C451.591 349.343 428.218 354.028 435.332 377.606Z" fill="#602A05"/>
<path d="M454.726 398.077C453.939 398.735 452.954 399.094 451.936 399.094C448.777 399.195 446.019 396.31 445.775 392.651C445.538 388.999 447.897 385.953 451.052 385.849C451.791 385.837 452.526 385.975 453.212 386.256C453.898 386.537 454.522 386.955 455.047 387.485C456.636 389.03 456.821 392.004 456.558 394.076C456.344 395.731 455.778 397.17 454.726 398.077Z" fill="#F7A483"/>
<path d="M452.481 389.197C452.209 387.284 448.482 389.3 449.104 390.353C449.469 390.964 450.154 391.385 450.702 391.796C451.45 392.365 451.824 392.892 451.97 393.842C451.989 393.951 452.024 394.285 451.917 394.37C451.44 394.741 449.74 392.939 449.365 392.564C448.632 391.818 448.475 390.491 448.764 389.512C449.077 388.47 449.717 387.954 450.797 387.973C451.653 387.979 452.529 388.001 452.529 389.087C452.527 389.111 452.495 389.295 452.481 389.197Z" fill="#E98B6F"/>
<path d="M451.357 391.247C451.733 390.824 452.127 391.141 452.548 391.422C452.922 391.68 453.185 392.074 453.283 392.523C453.547 393.509 453.475 394.851 452.951 395.75C452.749 396.109 452.459 396.408 452.11 396.62C451.761 396.832 451.364 396.948 450.958 396.958C449.807 396.976 449.418 395.96 449.326 394.97C449.302 394.709 449.254 394.08 449.501 393.905C449.768 393.719 449.984 394.141 450.175 394.317C450.46 394.536 450.807 394.652 451.164 394.648C451.489 394.649 451.811 394.572 452.102 394.423C452.393 394.274 452.646 394.057 452.84 393.791C452.909 393.695 452.963 393.59 453.001 393.478C453.028 394.128 453.001 394.276 452.916 393.922C452.86 393.761 452.779 393.611 452.677 393.476C452.395 393.036 451.928 392.749 451.617 392.341C451.462 392.148 451.166 391.464 451.357 391.247Z" fill="#E98B6F"/>
<path d="M423.999 604.871H466.812L469.16 501.899L449.689 432.224L413.187 454.2L432.118 540.473L423.999 604.871Z" fill="#001940"/>
<path d="M449.689 432.224L469.159 501.899L469.076 505.207L444.553 479.637C444.553 479.637 441.977 475.199 445.464 472.574L451.26 466.928L447.127 463.91C447.127 463.91 441.333 461.047 442.037 455.681L443.696 435.505L449.689 432.224Z" fill="#002952"/>
<path d="M521.053 604.871L517.735 533.828L525.027 460.04C527.607 446.723 514.988 443.33 514.988 443.33L492.813 432.712L489.709 500.02L497.394 604.871H521.053Z" fill="#001940"/>
<path d="M490.242 433.664C490.242 433.664 488.762 427.844 481.521 422.929L482.471 442.99C482.471 442.99 486.488 432.727 490.242 433.664Z" fill="#7AD0E2"/>
<path d="M490.897 442.991L490.242 433.664C488.029 433.111 486.053 436.268 484.44 438.853L490.897 442.991Z" fill="#3EAEC6"/>
<path d="M475.097 438.294L474.503 437.167L470.466 443.481L473.934 444.743L475.097 438.294Z" fill="#004788"/>
<path d="M484.44 438.852L485.575 437.086C485.575 437.086 489.891 440.778 485.358 444.743C485.358 444.743 485.359 441.473 484.44 438.852Z" fill="#004788"/>
<path d="M475.098 438.295C475.098 438.295 478.519 441.395 484.44 438.853C485.736 440.53 485.733 442.666 485.358 444.743L482.291 451.189H478.006L473.934 444.743C473.934 444.743 473.514 443.32 475.098 438.295Z" fill="#0059A5"/>
<path d="M478.006 451.189L474.542 543.413L481.772 557.738L487.669 543.487L482.291 451.189H478.006Z" fill="#004788"/>
<path d="M492.813 432.712L498.529 435.453L502.658 454.877C502.658 454.877 504.727 459.908 501.731 461.222L496.345 464.424L503.939 469.319C503.939 469.319 507.936 471.87 505.475 475.627L490.242 505.922L489.763 500.743L492.813 432.712Z" fill="#002952"/>
<path d="M454.065 509.635L445.161 502.474C445.161 502.474 431.76 500.471 425.068 501.331C425.068 501.331 422.854 504.466 439.757 504.945C439.757 504.945 427.903 508.803 424.098 511.675C424.098 511.675 423.487 515.245 434.326 510.058L439.262 509.688L427.79 515.52C427.79 515.52 428.239 517.741 438.684 514.85L449.155 516.023L454.065 509.635Z" fill="#F7A483"/>
<path d="M511.07 510.966L453.703 503.977C450.837 507.545 448.072 514.024 449.302 520.805L522.578 544.48C522.578 544.48 541.937 547.978 536.832 524.23C536.832 524.23 528.655 512.12 511.07 510.966Z" fill="#00153B"/>
<path d="M511.07 510.966C511.07 510.966 500.763 516.623 496.897 517.073L490.897 506.532L499.092 501.118L504.713 499.799C504.713 499.799 513.951 497.37 516.388 510.289L511.07 510.966Z" fill="#F7A483"/>
<path d="M408.51 531.413C405.044 552.763 420.288 547.371 420.288 547.371L498.02 518.873C495.828 506.605 490.898 504.685 490.898 504.685L424.419 517.607C424.419 517.607 411.908 521.611 408.51 531.413Z" fill="#002952"/>
<path d="M384.342 604.871H437.979C435.634 589.263 432.323 575.504 427.651 566.775C427.651 566.775 375.876 564.169 383.663 599.913C383.663 599.913 383.876 601.711 384.342 604.871Z" fill="#E59375"/>
<path d="M422.961 406.074C424.009 419.349 426.486 432.385 433.626 443.88C435.605 447.069 437.622 450.459 440.374 453.036C429.724 455.34 401.688 455.26 397.412 439.043C394.618 428.436 394.009 417.337 394.381 406.406C394.715 396.521 394.935 385.478 399.051 376.344C402.8 368.035 416.023 368.144 420.936 375.754C423.321 379.448 421.987 383.99 422.117 388.176C422.307 394.113 422.49 400.118 422.961 406.074Z" fill="#5C1B1B"/>
<path d="M425.371 444.612C434.094 444.365 438.881 452.267 441.605 460.251C444.473 468.647 437.097 492.063 430.453 486.297C417.394 474.969 410.877 468.153 410.631 459.267C410.389 450.379 416.647 444.86 425.371 444.612Z" fill="#E59375"/>
<path d="M407.941 525.731C409.943 525.361 418.198 529.702 418.198 529.702C418.198 529.702 428.508 563.454 428.95 568.588C429.395 573.716 394.745 600.285 356.041 585.157C356.041 585.157 373.959 537.627 375.057 525.922C376.151 514.216 407.941 525.731 407.941 525.731Z" fill="#E79675"/>
<path d="M418.198 529.702C418.198 529.702 428.079 560.14 428.951 568.588C432.036 598.49 392.315 611.029 353.609 595.902C353.609 595.902 351.097 554.791 375.057 525.922C375.057 525.922 381.422 531.833 418.198 529.702Z" fill="#09111C"/>
<path d="M357.971 604.871L353.608 602.432C353.608 602.432 353.653 603.3 353.734 604.871H357.971Z" fill="#F7A483"/>
<path d="M405.885 604.871C408.888 578.979 387.677 565.554 364.643 576.032C364.643 576.032 351.383 579.942 353.945 604.871H405.885Z" fill="#F7A483"/>
<path d="M383.52 442.836H410.462C409.236 438.839 406.699 428.497 410.627 421.457L383.407 403.251C383.407 403.251 388.247 433.804 383.52 442.836Z" fill="#F7A483"/>
<path d="M408.53 430.838C408.45 427.779 408.945 424.47 410.627 421.457L383.407 403.251C383.407 403.251 385.378 415.702 385.58 427.059C395.407 430.242 399.453 431.475 408.53 430.838Z" fill="#E1876F"/>
<path d="M365.462 445.422C352.854 451.564 359.624 465.76 359.624 465.76L376.014 526.517C376.014 526.517 391.325 532.895 418.197 529.702C421.928 524.262 429.599 501.467 432.169 484.062C434.284 469.729 440.858 455.606 433.698 447.613C430.953 444.549 410.045 441.49 409.936 440.989L385.251 440.885L365.462 445.422Z" fill="#F7A483"/>
<path d="M414.813 423.949L416.446 419.901L420.534 407.955C421.112 406.054 421.472 403.433 420.918 401.519C420.252 399.218 419.831 395.501 420.865 391.424C423.632 380.504 419.113 374.494 419.113 374.494C413.295 364.018 398.37 363.294 398.37 363.294C379.87 363.315 377.458 381.437 377.458 381.437C373.886 393.394 382.864 403.933 382.882 403.952C384.019 405.286 384.044 407.356 384.543 408.959C385.085 410.676 385.923 412.28 387.019 413.697C389.464 416.863 392.704 419.939 396.092 421.923C399.304 423.806 405.608 425.89 410.145 426.075C412.029 426.154 413.879 426.271 414.813 423.949Z" fill="#F7A483"/>
<path d="M384.596 411.076C384.93 402.49 385.116 403.026 385.116 403.026C385.438 400.528 389.996 406.185 390.062 402.914C390.348 387.935 396.039 381.092 398.182 380.049C404.001 377.223 410.023 376.631 414.714 377.735C422.076 379.462 421.288 389.514 421.288 389.514C429.451 352.987 388.513 362.675 388.513 362.675C368.601 366.915 369.683 385.883 369.683 385.883C366.264 406.015 385.262 418.692 385.262 418.692L384.596 411.076Z" fill="#5C1B1B"/>
<path d="M386.031 408.223C385.266 408.745 384.347 408.978 383.431 408.883C380.576 408.696 378.338 405.846 378.437 402.531C378.537 399.22 380.926 396.684 383.779 396.874C384.445 396.929 385.095 397.119 385.689 397.433C386.282 397.748 386.808 398.18 387.236 398.704C388.535 400.237 388.444 402.937 388.027 404.777C387.696 406.248 387.058 407.497 386.031 408.223Z" fill="#F8A07D"/>
<path d="M384.779 400.017C384.699 398.268 381.16 399.752 381.632 400.758C381.909 401.338 382.494 401.782 382.949 402.201C383.573 402.774 383.869 403.288 383.916 404.159C383.923 404.256 383.929 404.561 383.823 404.624C383.362 404.918 381.98 403.145 381.68 402.769C381.082 402.031 381.056 400.827 381.403 399.968C381.769 399.059 382.39 398.653 383.359 398.764C384.136 398.85 384.923 398.945 384.828 399.925C384.824 399.944 384.783 400.106 384.779 400.017Z" fill="#E98B6F"/>
<path d="M383.581 401.763C383.961 401.418 384.29 401.74 384.641 402.027C384.954 402.293 385.158 402.67 385.21 403.083C385.363 403.998 385.183 405.201 384.636 405.965C384.422 406.269 384.134 406.512 383.801 406.671C383.468 406.829 383.1 406.899 382.733 406.872C381.692 406.789 381.432 405.837 381.437 404.938C381.437 404.701 381.449 404.13 381.681 403.993C381.942 403.846 382.098 404.251 382.257 404.428C382.495 404.649 382.799 404.784 383.121 404.811C383.414 404.84 383.71 404.798 383.984 404.69C384.258 404.582 384.504 404.41 384.702 404.188C384.774 404.111 384.832 404.021 384.873 403.923C384.842 404.51 384.806 404.638 384.763 404.313C384.724 404.163 384.665 404.019 384.586 403.886C384.367 403.469 383.975 403.173 383.723 402.769C383.605 402.587 383.392 401.942 383.581 401.763Z" fill="#E98B6F"/>
<path d="M403.039 396.268C403.087 397.313 402.559 398.189 401.86 398.222C401.165 398.253 400.562 397.432 400.515 396.386C400.469 395.337 400.995 394.464 401.692 394.433C402.391 394.401 402.99 395.222 403.039 396.268Z" fill="#3C2415"/>
<path d="M417.33 395.052C417.316 396.102 416.74 396.941 416.041 396.932C415.342 396.924 414.789 396.064 414.804 395.016C414.818 393.97 415.393 393.129 416.093 393.141C416.792 393.15 417.345 394.005 417.33 395.052Z" fill="#3C2415"/>
<path d="M396.99 394.546C399.739 390.892 406.954 392.324 406.954 392.324C406.954 392.324 407.375 392.322 407.327 391.014C407.327 391.014 407.353 389.861 406.44 389.925C406.44 389.925 397.596 388.392 396.99 394.546Z" fill="#5C1B1B"/>
<path d="M421.037 390.921C421.052 386.877 413.4 389.031 413.4 389.031C412.491 389.02 412.58 390.17 412.58 390.17C412.608 391.478 413.029 391.453 413.029 391.453C413.029 391.453 419.961 389.533 420.935 391.219C421.229 390.382 420.859 391.37 421.037 390.921Z" fill="#5C1B1B"/>
<path d="M407.68 406.496C412.995 406.38 413.356 404.979 413.356 404.979L410.864 399.15C410.864 399.15 411.217 404.868 407.68 406.496Z" fill="#E98B6F"/>
<path d="M405.306 409.572L415.483 408.898C416.019 408.87 416.304 409.264 416.111 409.78C416.111 409.78 414.133 415.077 410.834 415.287C407.531 415.493 404.928 410.478 404.928 410.478C404.701 410.042 404.885 409.675 405.306 409.572Z" fill="#9F4541"/>
<path d="M414.513 412.729C413.615 413.987 412.368 415.189 410.835 415.287C409.288 415.383 407.902 414.337 406.859 413.194C408.697 410.858 412.278 410.691 414.513 412.729Z" fill="#D45F5A"/>
<path d="M405.208 409.62C405.24 409.602 405.273 409.586 405.307 409.572L415.483 408.898C415.577 408.897 415.671 408.91 415.761 408.938C416.065 409.387 415.772 410.22 414.969 410.774C413.427 411.181 409.887 411.892 406.136 411.346C405.208 410.53 404.831 409.86 405.208 409.62Z" fill="white"/>
<path d="M386.139 408.837C386.122 409.189 386.002 409.528 385.795 409.811C385.588 410.094 385.304 410.308 384.978 410.426C384.652 410.544 384.299 410.561 383.963 410.475C383.627 410.389 383.324 410.204 383.092 409.942C382.86 409.68 382.709 409.355 382.658 409.006C382.608 408.657 382.66 408.301 382.808 407.982C382.956 407.663 383.194 407.397 383.491 407.215C383.788 407.034 384.131 406.947 384.477 406.964C384.941 406.988 385.377 407.199 385.689 407.55C386 407.901 386.163 408.364 386.139 408.837Z" fill="white"/>
<path d="M432.169 445.968C432.169 445.968 438.782 445.968 442.529 463.024C442.529 463.024 460.871 519.75 449.107 523.031C449.107 523.031 431.542 519.504 415.011 474.332C415.011 474.332 413.498 447.048 432.169 445.968Z" fill="#9698BC"/>
<path d="M417.329 442.48L428.954 444.607C428.954 444.607 437.426 446.495 437.708 453.884C437.708 453.884 438.182 467.88 430.704 493.19C430.704 493.19 418.335 454.354 417.329 442.48Z" fill="#9698BC"/>
<path d="M414.361 442.016L419.601 442.836C419.601 442.836 429.767 462.857 432.168 484.062C429.599 501.467 424.447 527.82 418.197 529.703C397.014 536.084 374.9 526.054 374.9 526.054L364.772 484.851C391.981 474.061 378.232 442.383 378.232 442.383L383.947 440.989L407.992 465.752L414.361 442.016Z" fill="#9698BC"/>
<path d="M425.109 455.681C425.109 455.681 435.74 470.681 437.591 478.407C438.81 483.487 430.119 494.925 423.1 496.943C419.268 498.044 419.176 456.691 425.109 455.681Z" fill="#4FA6C9"/>
<path d="M425.109 455.681C425.109 455.681 435.74 470.681 437.591 478.407C438.81 483.487 430.119 494.925 423.1 496.943C419.268 498.044 419.176 456.691 425.109 455.681Z" fill="#09111C"/>
<path d="M420.406 442.836C420.406 442.836 430.092 462.982 432.493 484.189C429.921 501.593 424.447 527.82 418.197 529.703C397.014 536.084 374.9 526.054 374.9 526.054L364.772 484.851C391.981 474.061 378.232 442.383 378.232 442.383L383.947 440.989L409.386 478.035L414.361 442.016L420.406 442.836Z" fill="#09111C"/>
<path d="M383.944 440.989L409.386 478.035L391.088 472.991C391.088 472.991 388.43 470.697 390.117 468.191L392.636 463.188L389.282 462.174C389.282 462.174 384.881 461.644 384.153 457.991L381.407 441.609L383.944 440.989Z" fill="#222B35"/>
<path d="M414.273 442.07L409.387 478.035L419.327 468.629C419.327 468.629 423.417 465.243 419.587 463.551L414.853 462.054L420.407 456.968C420.407 456.968 421.564 455.413 420.407 452.485L417.071 442.383L414.273 442.07Z" fill="#222B35"/>
<path d="M404.374 447.887L404.07 461.783L399.046 456.78L404.374 447.887Z" fill="#7081AB"/>
<path d="M404.374 447.576C404.374 447.576 389.137 441.22 385.356 434.89L378.233 442.383L396.719 460.65L404.374 447.887" fill="#CDC5DA"/>
<path d="M417.938 448.281C417.938 448.281 416.462 442.462 409.22 437.543L410.166 457.605C410.166 457.605 414.185 447.343 417.938 448.281Z" fill="#CDC5DA"/>
<path d="M418.596 457.605L417.937 448.281C415.726 447.729 413.749 450.881 412.14 453.466L418.596 457.605Z" fill="#7081AB"/>
<path d="M439.158 604.871C436.276 588.467 432.482 573.449 427.52 564.126C427.52 564.126 357.123 557.492 353.84 584.296L352.983 604.871H439.158Z" fill="#09111C"/>
<path d="M359.94 449.619C359.94 449.619 357.113 452.623 354.834 461.233C354.834 461.233 343.681 502.766 351.889 523.872C351.889 523.872 354.572 528.158 361.476 530.065L383.407 476.323C383.407 476.323 392.759 453.822 377.905 442.186L365.463 445.422C365.463 445.422 361.853 446.817 359.94 449.619Z" fill="#9698BC"/>
<path d="M379.243 494.513L371.409 488.212C371.409 488.212 359.623 486.451 353.736 487.211C353.736 487.211 351.787 489.965 366.658 490.388C366.658 490.388 356.229 493.779 352.881 496.306C352.881 496.306 352.345 499.448 361.882 494.883L366.22 494.558L356.133 499.689C356.133 499.689 356.525 501.644 365.711 499.102L374.923 500.131L379.243 494.513Z" fill="#F7A483"/>
<path d="M429.383 495.684L378.924 489.536C376.4 492.675 373.969 498.372 375.052 504.339L439.508 525.163C439.508 525.163 456.536 528.239 452.045 507.35C452.045 507.35 444.852 496.699 429.383 495.684Z" fill="#9698BC"/>
<path d="M429.382 495.684C429.382 495.684 420.319 500.662 416.915 501.057L411.64 491.783L418.848 487.022L423.791 485.862C423.791 485.862 431.919 483.724 434.06 495.088L429.382 495.684Z" fill="#F7A483"/>
<path d="M362.436 530.349C362.436 530.349 348.614 531.637 352.079 516.312C355.069 507.689 366.071 504.168 366.071 504.168L411.64 490.158C411.64 490.158 415.975 491.847 417.903 502.64C417.903 502.64 378.053 530.759 362.436 530.349Z" fill="#A1A3C1"/>
<path d="M390.613 405.664C388.933 418.874 388.701 432.147 393.341 444.903C394.627 448.441 395.908 452.184 398.077 455.288C387.19 455.288 359.78 449.282 358.903 432.512C358.33 421.548 359.997 410.561 362.588 399.945C364.93 390.346 367.395 379.591 373.284 371.525C378.643 364.189 391.555 367.093 394.812 375.579C396.393 379.696 394.16 383.855 393.437 387.979C392.41 393.825 391.366 399.739 390.613 405.664Z" fill="#5C1B1B"/>
<path d="M371.995 604.871C372.484 583.396 370.156 537.332 367.578 533.08C364.534 528.05 348.25 538.765 348.25 538.765C348.25 538.765 359.438 583.681 363.401 604.871H371.995Z" fill="#E59375"/>
<path d="M360.401 466.349L365.313 467.982C365.313 467.982 373.096 529.633 366.513 543.404C359.927 557.176 352.349 543.337 349.878 541.777C347.412 540.219 331.663 470.392 331.663 470.392L360.401 466.349Z" fill="#E59375"/>
<path d="M370.978 536.247L367.836 459.012C364.278 440.052 345.222 445.698 345.222 445.698C329.77 449.793 330.513 467.436 330.513 467.436L343.8 541.414C343.8 541.414 346.583 552.726 360.881 552.726C360.881 552.726 371.428 551.278 370.978 536.247Z" fill="#121D28"/>
<path d="M357.485 604.871H374.077C374.005 585.075 373.351 546.036 369.5 530.61C369.5 530.61 343.219 531.169 345.111 544.014C345.111 544.014 350.036 577.747 357.485 604.871Z" fill="#121D28"/>
<path d="M351.083 552.385L364.947 466.074C364.947 466.074 369.724 453.099 360.169 446.612L323.758 429.18H298.077L254.301 455.534L282.995 552.385H351.083Z" fill="#F7A483"/>
<path d="M350.991 604.871L351.082 552.385H282.995C282.995 552.385 276.116 568.395 273.675 604.871H350.991Z" fill="#00264E"/>
<path d="M320.619 604.871C317.447 594.537 308.195 587.092 297.326 587.176C286.585 587.257 277.532 594.671 274.407 604.871H320.619Z" fill="#101B26"/>
<path d="M301.387 604.871C299.365 604.58 297.312 604.58 295.289 604.871H301.387Z" fill="#101B26"/>
<path d="M349.334 604.871C346.349 594.958 339.605 588.278 328.916 589.389C319.756 590.34 312.324 596.536 309.022 604.871H349.334Z" fill="#101B26"/>
<path d="M256.895 604.871C256.396 593.412 256.362 581.277 259.943 544.695C259.943 544.695 244.172 537.249 240.772 545.308C239.183 549.081 242.203 583.103 245.72 604.871H256.895Z" fill="#F7A483"/>
<path d="M271.053 457.119C254.15 453.199 248.379 469.111 248.379 469.111C248.379 469.111 239.891 522.078 239.995 544.774C240.065 560.09 258.412 547.756 259.617 545.065C262.272 539.123 281.556 475.32 281.556 475.32C281.556 475.32 282.558 460.334 271.053 457.119Z" fill="#F7A483"/>
<path d="M262.475 545.952L284.394 473.565C283.902 455.573 266.616 452.888 266.616 452.888C250.361 451.304 246.801 465.551 246.801 465.551L238.937 538.017C238.937 538.017 236.271 554.305 245.509 554.539C245.509 554.539 261.011 556.252 262.475 545.952Z" fill="#1A2530"/>
<path d="M260.596 604.871C261.846 583.538 263.805 541.56 263.805 541.56C256.348 528.337 238.937 538.017 238.937 538.017C235.831 551.313 241.022 585.953 244.283 604.871H260.596Z" fill="#1A2530"/>
<path d="M297.946 410.114V438.077H326.976C326.976 438.077 319.835 426.993 323.406 410.114H297.946Z" fill="#F7A483"/>
<path d="M312.672 433.86C315.29 435.575 320.849 439.225 324.022 437.088C324.393 436.851 324.709 436.533 324.947 436.158C325.185 435.783 325.339 435.36 325.398 434.918C323.531 430.49 320.965 421.659 323.406 410.114H297.946V412.65C301.125 420.835 305.198 428.953 312.672 433.86Z" fill="#E1876F"/>
<path d="M297.256 410.505C297.256 410.505 292.316 408.319 286.723 395.865C286.723 395.865 274.579 381.14 283.186 364.419C283.186 364.419 288.272 350.279 312.916 354.236C312.916 354.236 315.132 392.131 297.256 410.505Z" fill="#F8A07D"/>
<path d="M327.605 418.069L329.251 413.688C329.251 413.688 333.787 397.373 333.787 397.369C334.355 395.319 334.386 392.576 334.021 390.467C333.624 388.171 333.368 385.775 333.956 383.359C336.817 371.626 330.915 364.966 330.915 364.966C324.411 353.902 308.403 353.533 308.403 353.533C288.582 354.058 286.472 373.535 286.472 373.535C282.962 386.441 292.852 397.488 292.874 397.514C293.663 398.392 293.148 402.655 293.364 403.877C294.291 409.082 299.085 412.38 303.347 414.677C308.029 417.197 313.701 419.895 318.988 420.515C320.993 420.752 326.664 420.581 327.605 418.069Z" fill="#F7A483"/>
<path d="M323.733 393.427L318.215 395.132C318.215 395.132 325.419 396.13 325.852 394.014C325.852 394.014 325.057 389.752 324.158 385.706C324.158 385.706 324.548 393.17 323.733 393.427Z" fill="#E98B6F"/>
<path d="M314.931 384.849C314.984 386.005 314.395 386.966 313.625 387C312.858 387.036 312.189 386.13 312.142 384.973C312.09 383.821 312.677 382.854 313.444 382.818C314.213 382.782 314.884 383.694 314.931 384.849Z" fill="#3C2415"/>
<path d="M330.526 384.253C330.583 385.409 329.997 386.373 329.228 386.411C328.459 386.448 327.79 385.545 327.736 384.386C327.682 383.231 328.263 382.262 329.033 382.226C329.802 382.19 330.473 383.097 330.526 384.253Z" fill="#3C2415"/>
<path d="M316.672 381.069C317.166 381.213 317.338 380.535 317.338 380.535C317.46 380.138 317.478 379.715 317.39 379.309C317.297 379.026 317.102 378.791 316.844 378.65C315.562 378.368 313.032 378.506 310.859 378.991C309.659 379.259 307.688 380.012 307.483 381.103C307.422 381.43 307.351 381.998 307.712 382.126C310.659 381.49 313.659 381.136 316.672 381.069Z" fill="#D48A50"/>
<path d="M334.527 380.012C333.116 379.929 329.393 380.532 326.324 380.885C325.852 381.088 325.6 380.444 325.596 380.444C325.425 380.065 325.353 379.648 325.387 379.232C325.446 378.939 325.612 378.679 325.852 378.507C327.082 378.058 330.436 377.32 332.65 377.517C333.312 377.576 334.375 377.908 334.683 378.549C334.683 378.549 334.938 378.394 334.527 380.012Z" fill="#D48A50"/>
<path d="M278.283 550.042C278.343 552.919 274.056 583.001 275.856 583.388C275.869 583.388 324.851 594.887 350.978 583.388L351.083 552.385L364.947 466.074C364.947 466.074 369.724 453.099 360.169 446.612L323.758 429.18L326.215 436.698L320.951 451.951L298.077 429.18L254.301 455.534C256.747 463.792 259.19 472.051 261.628 480.311C266.14 495.533 270.531 510.802 275.181 525.985C275.181 525.985 279.027 542.451 278.283 550.042Z" fill="#95D7E3"/>
<path d="M317.792 434.607L317.487 448.502L312.465 443.5L317.792 434.607Z" fill="#3EAEC6"/>
<path d="M324.19 457.017C324.19 457.409 324.075 457.792 323.861 458.118C323.647 458.444 323.343 458.698 322.987 458.848C322.632 458.998 322.24 459.038 321.863 458.961C321.485 458.885 321.138 458.696 320.866 458.418C320.594 458.141 320.408 457.788 320.333 457.403C320.258 457.019 320.297 456.62 320.444 456.257C320.591 455.895 320.841 455.585 321.161 455.367C321.481 455.149 321.857 455.033 322.242 455.033C322.759 455.033 323.254 455.242 323.619 455.614C323.984 455.986 324.19 456.491 324.19 457.017Z" fill="#CFEAE6"/>
<path d="M324.19 493.021C324.19 493.413 324.076 493.797 323.862 494.123C323.648 494.449 323.344 494.704 322.989 494.854C322.633 495.004 322.241 495.044 321.864 494.967C321.486 494.891 321.139 494.702 320.867 494.425C320.594 494.148 320.409 493.794 320.333 493.41C320.258 493.025 320.297 492.626 320.444 492.264C320.591 491.901 320.84 491.591 321.161 491.373C321.481 491.155 321.857 491.039 322.242 491.039C322.498 491.038 322.751 491.089 322.987 491.189C323.224 491.288 323.438 491.434 323.619 491.619C323.8 491.803 323.944 492.021 324.042 492.262C324.139 492.503 324.19 492.761 324.19 493.021Z" fill="#CFEAE6"/>
<path d="M324.19 529.027C324.189 529.419 324.075 529.803 323.861 530.128C323.647 530.454 323.343 530.708 322.987 530.858C322.631 531.008 322.24 531.048 321.863 530.971C321.485 530.894 321.138 530.705 320.866 530.428C320.594 530.151 320.408 529.798 320.333 529.413C320.258 529.028 320.297 528.63 320.444 528.267C320.591 527.905 320.841 527.595 321.161 527.377C321.481 527.159 321.857 527.043 322.242 527.043C322.498 527.043 322.751 527.094 322.988 527.194C323.224 527.293 323.439 527.44 323.62 527.624C323.8 527.808 323.944 528.027 324.042 528.268C324.139 528.508 324.19 528.767 324.19 529.027Z" fill="#CFEAE6"/>
<path d="M324.19 565.032C324.19 565.424 324.075 565.807 323.861 566.133C323.647 566.459 323.343 566.714 322.987 566.864C322.632 567.014 322.24 567.053 321.863 566.976C321.485 566.9 321.138 566.711 320.866 566.433C320.594 566.156 320.408 565.803 320.333 565.418C320.258 565.034 320.297 564.635 320.444 564.273C320.591 563.91 320.841 563.6 321.161 563.383C321.481 563.165 321.857 563.048 322.242 563.048C322.498 563.048 322.751 563.099 322.987 563.199C323.224 563.299 323.438 563.445 323.619 563.629C323.8 563.813 323.944 564.032 324.041 564.273C324.139 564.513 324.19 564.771 324.19 565.032Z" fill="#CFEAE6"/>
<path d="M317.791 450.085V586.733" stroke="#74CEE2" stroke-width="7.2752" stroke-miterlimit="10"/>
<path d="M350.677 586.232C350.677 586.232 325.656 598.174 274.45 585.971C273.61 585.769 273.963 583.541 273.963 583.541L274.45 578.52C274.675 576.913 275.556 576.99 275.556 576.99C275.567 576.99 324.551 588.487 350.677 576.99C350.677 576.99 351.732 576.799 351.775 578.41V584.671C351.775 584.671 351.775 585.921 350.677 586.232Z" fill="#471F08"/>
<path d="M325.26 590.023C325.262 590.21 325.228 590.396 325.159 590.569C325.091 590.743 324.99 590.901 324.862 591.035C324.733 591.169 324.58 591.275 324.412 591.349C324.243 591.423 324.061 591.462 323.878 591.464H313.912C313.542 591.459 313.189 591.304 312.93 591.034C312.671 590.764 312.528 590.4 312.532 590.023V582.711C312.529 582.334 312.672 581.971 312.93 581.701C313.189 581.431 313.542 581.276 313.912 581.271H323.878C324.248 581.276 324.602 581.43 324.861 581.7C325.12 581.97 325.263 582.334 325.26 582.711V590.023Z" stroke="#BCBEC0" stroke-width="11.9022" stroke-miterlimit="10"/>
<path d="M312.532 585.906H317.809" stroke="#BCBEC0" stroke-width="11.9022" stroke-miterlimit="10"/>
<path d="M317.791 434.297C317.791 434.297 301.727 427.939 297.946 421.611L293.202 430.826L310.136 447.37L317.791 434.607" fill="#7AD0E2"/>
<path d="M317.155 363.992C320.3 363.084 323.934 362.469 327.185 363.074C330.436 363.677 332.267 368.115 335.623 365.863C336.981 364.949 339.573 362.951 340.424 361.574C341.731 359.457 338.9 355.489 336.97 354.774C334.805 353.974 335.017 353.247 333.949 351.084C333.043 349.243 332.822 347.544 330.587 346.918C328.449 346.32 326.397 347.77 324.312 347.455C320.719 346.914 320.043 342.969 316.27 342.294C312.104 341.549 309.899 348.668 305.777 348.388C302.206 348.145 299.899 344.969 296.029 345.728C292.037 346.509 291.013 350.866 287.402 352.136C283.717 353.43 279.65 352.744 278.546 357.608C277.65 361.566 279.354 364.265 276.596 367.642C273.534 371.396 274.643 375.306 276.276 379.258C279.211 386.368 282.14 393.398 286.689 399.624C287.954 401.377 289.361 403.019 290.894 404.533C291.154 404.786 292.459 405.634 292.519 405.982C292.519 405.973 289.885 390.849 297.734 392.92L299.09 392.841C299.09 392.841 296.389 383.969 301.984 379.59C299.33 376.113 301.486 369.175 302.025 368.183C304.739 363.186 312.57 365.316 317.155 363.992Z" fill="#D48A50"/>
<path d="M295.842 399.414C295.054 400.07 294.068 400.428 293.05 400.427C289.892 400.531 287.136 397.647 286.894 393.986C286.652 390.335 289.011 387.286 292.165 387.186C292.904 387.174 293.638 387.312 294.324 387.592C295.011 387.872 295.635 388.289 296.161 388.818C297.75 390.363 297.935 393.338 297.672 395.41C297.458 397.068 296.893 398.505 295.842 399.414Z" fill="#F7A483"/>
<path d="M293.597 390.531C293.324 388.617 289.597 390.634 290.221 391.691C290.585 392.297 291.275 392.719 291.819 393.13C292.563 393.701 292.94 394.226 293.086 395.176C293.105 395.288 293.14 395.621 293.034 395.706C292.558 396.076 290.855 394.276 290.482 393.896C289.75 393.155 289.59 391.824 289.882 390.849C290.193 389.805 290.831 389.287 291.911 389.306C292.768 389.316 293.646 389.333 293.642 390.424C293.642 390.449 293.614 390.631 293.597 390.531Z" fill="#E98B6F"/>
<path d="M292.47 392.585C292.847 392.157 293.24 392.475 293.663 392.758C294.036 393.016 294.299 393.409 294.398 393.857C294.66 394.846 294.588 396.187 294.066 397.086C293.863 397.444 293.572 397.744 293.223 397.955C292.874 398.167 292.477 398.283 292.071 398.294C290.921 398.312 290.535 397.296 290.441 396.304C290.418 396.045 290.368 395.414 290.617 395.24C290.882 395.056 291.099 395.477 291.291 395.655C291.575 395.872 291.923 395.987 292.278 395.981C292.604 395.983 292.926 395.906 293.217 395.757C293.508 395.608 293.76 395.391 293.953 395.124C294.022 395.03 294.076 394.925 294.113 394.814C294.141 395.463 294.116 395.612 294.032 395.254C293.974 395.095 293.894 394.945 293.793 394.809C293.508 394.373 293.044 394.086 292.73 393.674C292.577 393.485 292.281 392.801 292.47 392.585Z" fill="#E98B6F"/>
<path d="M265.282 604.871H307.955L310.274 503.233L290.805 433.561L254.301 455.534L273.232 541.81L265.282 604.871Z" fill="#1A2530"/>
<path d="M290.805 433.561L310.274 503.233L310.192 506.541L285.67 480.973C285.67 480.973 283.093 476.536 286.582 473.91L292.376 468.263L288.246 465.246C288.246 465.246 282.451 462.381 283.154 457.017L284.814 436.839L290.805 433.561Z" fill="#2A3C45"/>
<path d="M362.104 604.871L358.847 535.161L366.142 461.378C368.722 448.057 356.1 444.666 356.1 444.666L333.928 434.049L330.822 501.357L338.412 604.871H362.104Z" fill="#1A2530"/>
<path d="M331.356 435.001C331.356 435.001 329.878 429.181 322.637 424.262L323.585 444.325C323.585 444.325 327.605 434.064 331.356 435.001Z" fill="#7AD0E2"/>
<path d="M332.013 444.325L331.356 435.001C329.143 434.448 327.166 437.601 325.557 440.185L332.013 444.325Z" fill="#3EAEC6"/>
<path d="M316.21 439.63L315.616 438.505L311.578 444.816L315.051 446.076L316.21 439.63Z" fill="#00A8C1"/>
<path d="M325.557 440.185L326.689 438.418C326.689 438.418 331.004 442.112 326.471 446.076C326.471 446.076 326.475 442.811 325.557 440.185Z" fill="#00A8C1"/>
<path d="M316.21 439.63C316.21 439.63 319.634 442.727 325.557 440.185C326.852 441.866 326.847 444.003 326.472 446.076L323.405 452.522H319.122L315.051 446.076C315.051 446.076 314.633 444.654 316.21 439.63Z" fill="#00B5C9"/>
<path d="M319.122 452.521L315.659 544.75L322.887 559.075L328.787 544.82L323.406 452.521H319.122Z" fill="#00A8C1"/>
<path d="M333.928 434.049L339.646 436.786L343.773 456.214C343.773 456.214 345.844 461.24 342.847 462.556L337.459 465.756L345.051 470.656C345.051 470.656 349.049 473.206 346.59 476.961L331.357 507.258L330.877 502.076L333.928 434.049Z" fill="#2A3C45"/>
<path d="M315.81 400.555L328.002 399.747C328.644 399.713 328.985 400.187 328.754 400.803C328.754 400.803 326.382 407.151 322.431 407.4C318.476 407.652 315.357 401.642 315.357 401.642C315.087 401.12 315.305 400.68 315.81 400.555Z" fill="#9F4541"/>
<path d="M326.837 404.341C325.763 405.847 324.27 407.285 322.431 407.4C320.581 407.516 318.918 406.265 317.669 404.895C319.872 402.096 324.163 401.896 326.837 404.341Z" fill="#D45F5A"/>
<path d="M315.693 400.614C315.731 400.592 315.77 400.572 315.81 400.555L328.002 399.747C328.115 399.746 328.227 399.764 328.335 399.799C328.02 400.533 327.709 401.269 327.383 401.996C325.538 402.482 321.3 403.336 316.804 402.682C316.473 401.972 316.102 401.282 315.693 400.614Z" fill="white"/>
<path d="M176.104 604.871C180.066 583.679 191.254 538.764 191.254 538.764C191.254 538.764 174.969 528.051 171.926 533.08C169.35 537.332 167.02 583.397 167.51 604.871H176.104Z" fill="#E59375"/>
<path d="M179.106 466.351L174.189 467.982C174.189 467.982 166.406 529.635 172.994 543.406C179.578 557.179 187.158 543.338 189.628 541.777C192.094 540.215 207.843 470.391 207.843 470.391L179.106 466.351Z" fill="#E59375"/>
<path d="M168.526 536.248L171.669 459.012C175.224 440.052 194.284 445.696 194.284 445.696C209.734 449.795 208.992 467.433 208.992 467.433L195.708 541.416C195.708 541.416 192.922 552.726 178.624 552.729C178.624 552.729 168.077 551.278 168.526 536.248Z" fill="#010C18"/>
<path d="M182.019 604.871C189.469 577.748 194.394 544.016 194.394 544.016C196.287 531.172 170.006 530.611 170.006 530.611C166.153 546.037 165.501 585.074 165.429 604.871H182.019Z" fill="#010C18"/>
<path d="M188.42 552.387L174.558 466.074C174.558 466.074 169.783 453.099 179.335 446.614L215.748 429.179H241.429L285.206 455.535L256.511 552.387H188.42Z" fill="#F7A483"/>
<path d="M265.832 604.871C263.39 568.395 256.511 552.387 256.511 552.387H188.42L188.512 604.871H265.832Z" fill="#00264E"/>
<path d="M265.101 604.871C261.977 594.669 252.922 587.256 242.178 587.174C231.312 587.092 222.059 594.538 218.887 604.871H265.101Z" fill="#101B26"/>
<path d="M244.217 604.871C242.194 604.58 240.14 604.58 238.116 604.871H244.217Z" fill="#101B26"/>
<path d="M230.482 604.871C227.18 596.536 219.748 590.341 210.586 589.39C199.901 588.278 193.158 594.957 190.174 604.871H230.482Z" fill="#101B26"/>
<path d="M282.613 604.871H293.785C297.302 583.102 300.322 549.081 298.733 545.308C295.332 537.249 279.563 544.695 279.563 544.695C283.144 581.278 283.112 593.413 282.613 604.871Z" fill="#F7A483"/>
<path d="M268.453 457.117C285.355 453.199 291.129 469.111 291.129 469.111C291.129 469.111 299.614 522.076 299.511 544.775C299.441 560.09 281.094 547.756 279.889 545.062C277.231 539.12 257.953 475.323 257.953 475.323C257.953 475.323 256.948 460.335 268.453 457.117Z" fill="#F7A483"/>
<path d="M277.032 545.953L255.112 473.565C255.607 455.574 272.891 452.888 272.891 452.888C289.146 451.302 292.706 465.55 292.706 465.55L300.569 538.015C300.569 538.015 303.236 554.306 293.997 554.539C293.997 554.539 278.496 556.253 277.032 545.953Z" fill="#091420"/>
<path d="M295.223 604.871C298.484 585.952 303.676 551.311 300.57 538.015C300.57 538.015 283.16 528.337 275.702 541.56C275.702 541.56 277.662 583.539 278.912 604.871H295.223Z" fill="#091420"/>
<path d="M241.56 410.115V438.076H212.53C212.53 438.076 219.669 426.992 216.1 410.115H241.56Z" fill="#F7A483"/>
<path d="M226.831 433.86C224.215 435.574 218.658 439.223 215.481 437.088C215.111 436.851 214.796 436.534 214.558 436.159C214.321 435.785 214.167 435.362 214.107 434.92C215.973 430.493 218.541 421.659 216.099 410.115H241.56V412.651C238.379 420.835 234.305 428.951 226.831 433.86Z" fill="#E1876F"/>
<path d="M242.25 410.505C242.25 410.505 247.19 408.32 252.784 395.866C252.784 395.866 264.929 381.139 256.32 364.418C256.32 364.418 251.234 350.278 226.591 354.236C226.591 354.236 224.373 392.131 242.25 410.505Z" fill="#F8A07D"/>
<path d="M211.9 418.069L210.258 413.685C210.258 413.685 205.72 397.373 205.72 397.371C205.153 395.32 205.118 392.576 205.485 390.466C205.882 388.173 206.135 385.777 205.552 383.358C202.688 371.626 208.59 364.966 208.59 364.966C215.094 353.902 231.103 353.535 231.103 353.535C250.922 354.061 253.035 373.536 253.035 373.536C256.544 386.44 246.653 397.49 246.633 397.514C245.842 398.393 246.356 402.657 246.142 403.878C245.214 409.081 240.419 412.38 236.16 414.678C231.476 417.198 225.805 419.897 220.518 420.516C218.512 420.752 212.842 420.583 211.9 418.069Z" fill="#F7A483"/>
<path d="M215.774 393.426L221.29 395.134C221.29 395.134 214.086 396.132 213.655 394.014C213.655 394.014 214.449 389.754 215.347 385.707C215.347 385.707 214.956 393.172 215.774 393.426Z" fill="#E98B6F"/>
<path d="M224.571 384.849C224.521 386.003 225.111 386.967 225.878 387C226.647 387.036 227.314 386.128 227.364 384.974C227.414 383.818 226.83 382.854 226.061 382.82C225.294 382.784 224.621 383.693 224.571 384.849Z" fill="#3C2415"/>
<path d="M208.979 384.253C208.924 385.409 209.509 386.373 210.278 386.412C211.049 386.449 211.715 385.545 211.769 384.388C211.823 383.232 211.242 382.264 210.474 382.227C209.702 382.192 209.034 383.098 208.979 384.253Z" fill="#3C2415"/>
<path d="M222.833 381.069C222.339 381.215 222.168 380.537 222.168 380.537C222.044 380.14 222.025 379.717 222.112 379.31C222.208 379.027 222.405 378.791 222.664 378.65C223.942 378.368 226.474 378.507 228.644 378.993C229.848 379.262 231.82 380.009 232.023 381.105C232.081 381.432 232.155 382 231.792 382.127C228.844 381.492 225.845 381.137 222.833 381.069Z" fill="#3C2415"/>
<path d="M204.978 380.009C206.389 379.929 210.112 380.532 213.182 380.886C213.655 381.09 213.906 380.443 213.911 380.443C214.082 380.065 214.154 379.649 214.119 379.234C214.061 378.94 213.895 378.68 213.656 378.505C212.425 378.059 209.072 377.321 206.856 377.517C206.194 377.577 205.131 377.909 204.824 378.549C204.824 378.549 204.568 378.396 204.978 380.009Z" fill="#3C2415"/>
<path d="M261.223 550.043C261.165 552.918 265.452 583.003 263.65 583.386C263.639 583.39 214.654 594.889 188.526 583.386L188.42 552.387L174.558 466.074C174.558 466.074 169.783 453.099 179.335 446.614L215.748 429.179L213.289 436.699L218.554 451.951L241.429 429.179L285.206 455.535C282.758 463.792 280.316 472.052 277.88 480.314C273.367 495.535 268.974 510.803 264.329 525.985C264.329 525.985 260.481 542.45 261.223 550.043Z" fill="white"/>
<path d="M221.713 434.607L222.019 448.504L227.042 443.498L221.713 434.607Z" fill="#D1D3D4"/>
<path d="M215.315 457.014C215.315 457.407 215.428 457.791 215.642 458.117C215.855 458.444 216.159 458.699 216.515 458.85C216.87 459.001 217.262 459.04 217.64 458.964C218.018 458.888 218.365 458.7 218.638 458.423C218.911 458.145 219.096 457.792 219.172 457.407C219.247 457.022 219.209 456.623 219.062 456.261C218.915 455.898 218.665 455.588 218.345 455.37C218.025 455.152 217.648 455.035 217.263 455.035C216.747 455.035 216.252 455.243 215.887 455.615C215.522 455.986 215.317 456.489 215.315 457.014Z" fill="#E6E7E8"/>
<path d="M215.315 493.024C215.316 493.416 215.43 493.8 215.644 494.126C215.858 494.452 216.162 494.706 216.518 494.856C216.874 495.006 217.265 495.045 217.643 494.968C218.021 494.892 218.367 494.703 218.64 494.425C218.912 494.148 219.097 493.795 219.172 493.41C219.247 493.025 219.209 492.626 219.061 492.264C218.914 491.902 218.664 491.592 218.344 491.374C218.024 491.156 217.648 491.04 217.263 491.04C217.007 491.04 216.754 491.091 216.517 491.191C216.281 491.29 216.066 491.436 215.885 491.621C215.704 491.805 215.561 492.024 215.463 492.265C215.365 492.505 215.315 492.764 215.315 493.024Z" fill="#E6E7E8"/>
<path d="M215.315 529.025C215.315 529.417 215.428 529.801 215.642 530.128C215.855 530.454 216.159 530.709 216.515 530.86C216.871 531.011 217.262 531.05 217.64 530.974C218.018 530.898 218.365 530.709 218.638 530.432C218.911 530.155 219.096 529.802 219.172 529.417C219.247 529.032 219.209 528.633 219.062 528.27C218.914 527.908 218.665 527.598 218.345 527.38C218.024 527.162 217.648 527.045 217.263 527.045C216.747 527.045 216.252 527.253 215.887 527.624C215.522 527.996 215.316 528.5 215.315 529.025Z" fill="#E6E7E8"/>
<path d="M215.315 565.033C215.316 565.425 215.43 565.809 215.644 566.135C215.858 566.461 216.162 566.715 216.518 566.865C216.874 567.015 217.265 567.054 217.643 566.977C218.021 566.901 218.367 566.712 218.64 566.434C218.912 566.157 219.097 565.803 219.172 565.419C219.247 565.034 219.209 564.635 219.061 564.273C218.914 563.911 218.664 563.601 218.344 563.383C218.024 563.165 217.648 563.049 217.263 563.049C217.007 563.049 216.754 563.1 216.517 563.2C216.281 563.299 216.066 563.446 215.886 563.63C215.705 563.814 215.561 564.033 215.463 564.274C215.366 564.514 215.315 564.772 215.315 565.033Z" fill="#E6E7E8"/>
<path d="M221.713 450.087V586.734" stroke="#E6E7E8" stroke-width="7.2752" stroke-miterlimit="10"/>
<path d="M188.826 586.233C188.826 586.233 213.849 598.175 265.055 585.972C265.898 585.767 265.543 583.542 265.543 583.542L265.055 578.52C264.834 576.911 263.95 576.987 263.95 576.987C263.939 576.99 214.954 588.49 188.826 576.987C188.826 576.987 187.772 576.799 187.728 578.41V584.671C187.728 584.671 187.728 585.921 188.826 586.233Z" fill="#471F08"/>
<path d="M214.245 590.023C214.241 590.401 214.384 590.765 214.644 591.035C214.903 591.306 215.257 591.46 215.628 591.465H225.593C225.964 591.459 226.317 591.305 226.576 591.034C226.835 590.764 226.978 590.401 226.975 590.023V582.712C226.978 582.335 226.835 581.971 226.576 581.701C226.317 581.431 225.964 581.276 225.593 581.271H215.628C215.257 581.275 214.903 581.43 214.644 581.7C214.385 581.97 214.241 582.334 214.245 582.712V590.023Z" stroke="#BCBEC0" stroke-width="11.9022" stroke-miterlimit="10"/>
<path d="M226.975 585.907H221.698" stroke="#BCBEC0" stroke-width="11.9022" stroke-miterlimit="10"/>
<path d="M221.713 434.294C221.713 434.294 237.777 427.939 241.559 421.612L246.304 430.826L229.371 447.368L221.713 434.607" fill="#E6E7E8"/>
<path d="M199.337 349.717C201.445 354.989 206.063 356.571 206.063 356.571C205.503 358.344 201.83 359.679 201.83 359.679C205.089 365.343 212.321 363.074 212.321 363.074C215.573 362.468 219.205 363.084 222.351 363.993C226.933 365.315 234.768 363.186 237.481 368.181C238.02 369.175 240.174 376.115 237.523 379.59C243.12 383.971 240.417 392.842 240.417 392.842L241.771 392.918C249.623 390.849 246.986 405.974 246.986 405.981C247.047 405.633 248.353 404.787 248.613 404.534C250.147 403.035 253.385 397.655 254.399 395.756C259.923 385.437 259.405 384.91 260.884 378.818C261.898 374.66 261.461 363.389 255.517 357.725C255.517 357.725 257.363 350.303 245.862 345.812C245.862 345.812 221.331 339.538 209.437 347.796C209.437 347.796 204.13 350.498 199.337 349.717Z" fill="#3C2415"/>
<path d="M243.665 399.414C244.452 400.07 245.437 400.428 246.454 400.428C249.615 400.529 252.37 397.645 252.613 393.986C252.855 390.335 250.495 387.288 247.337 387.186C246.598 387.173 245.864 387.311 245.178 387.592C244.492 387.872 243.869 388.29 243.344 388.82C241.755 390.365 241.571 393.34 241.835 395.411C242.047 397.068 242.613 398.505 243.665 399.414Z" fill="#F7A483"/>
<path d="M245.909 390.532C246.181 388.617 249.909 390.637 249.284 391.689C248.92 392.299 248.234 392.719 247.688 393.132C246.939 393.701 246.565 394.227 246.42 395.177C246.4 395.286 246.366 395.619 246.473 395.705C246.949 396.078 248.651 394.273 249.025 393.899C249.758 393.154 249.916 391.827 249.623 390.846C249.311 389.805 248.676 389.29 247.593 389.309C246.737 389.316 245.86 389.336 245.861 390.423C245.863 390.449 245.893 390.63 245.909 390.532Z" fill="#E98B6F"/>
<path d="M247.036 392.582C246.66 392.159 246.265 392.477 245.842 392.756C245.47 393.016 245.208 393.41 245.108 393.859C244.844 394.846 244.916 396.186 245.438 397.085C245.642 397.444 245.932 397.744 246.282 397.955C246.632 398.167 247.03 398.284 247.436 398.294C248.586 398.31 248.974 397.295 249.065 396.305C249.09 396.045 249.138 395.414 248.889 395.24C248.624 395.054 248.407 395.476 248.216 395.655C247.931 395.873 247.583 395.988 247.227 395.983C246.901 395.984 246.58 395.907 246.289 395.758C245.998 395.609 245.745 395.393 245.552 395.126C245.483 395.031 245.43 394.926 245.393 394.814C245.365 395.464 245.391 395.612 245.474 395.256C245.531 395.096 245.612 394.945 245.714 394.81C245.997 394.373 246.463 394.086 246.776 393.675C246.931 393.483 247.224 392.801 247.036 392.582Z" fill="#E98B6F"/>
<path d="M274.223 604.871L266.273 541.811L285.206 455.535L248.703 433.559L229.229 503.234L231.551 604.871H274.223Z" fill="#091420"/>
<path d="M248.703 433.559L229.229 503.234L229.314 506.543L253.837 480.973C253.837 480.973 256.415 476.536 252.926 473.91L247.131 468.264L251.262 465.246C251.262 465.246 257.056 462.382 256.354 457.014L254.696 436.84L248.703 433.559Z" fill="#1F3038"/>
<path d="M180.656 535.163L177.402 604.871H201.094L208.681 501.354L205.579 434.049L183.403 444.666C183.403 444.666 170.782 448.059 173.364 461.378L180.656 535.163Z" fill="#091420"/>
<path d="M208.15 435.001C208.15 435.001 209.628 429.179 216.87 424.265L215.922 444.326C215.922 444.326 211.902 434.062 208.15 435.001Z" fill="#E6E7E8"/>
<path d="M207.492 444.326L208.15 435.001C210.363 434.448 212.339 437.603 213.948 440.187L207.492 444.326Z" fill="#D1D3D4"/>
<path d="M205.578 434.049L199.86 436.789L195.733 456.213C195.733 456.213 193.662 461.242 196.658 462.557L202.044 465.76L194.452 470.654C194.452 470.654 190.454 473.206 192.915 476.961L208.15 507.257L208.626 502.078L205.578 434.049Z" fill="#1F3038"/>
<path d="M223.697 400.557L211.502 399.747C210.861 399.714 210.518 400.188 210.75 400.805C210.75 400.805 213.12 407.151 217.074 407.401C221.03 407.649 224.148 401.643 224.148 401.643C224.418 401.12 224.2 400.68 223.697 400.557Z" fill="#9F4541"/>
<path d="M212.668 404.342C213.744 405.848 215.237 407.286 217.074 407.402C218.925 407.518 220.588 406.265 221.836 404.896C219.634 402.099 215.347 401.897 212.668 404.342Z" fill="#D45F5A"/>
<path d="M223.813 400.614C223.775 400.593 223.736 400.573 223.696 400.557L211.502 399.747C211.389 399.747 211.278 399.763 211.17 399.796C211.485 400.532 211.795 401.269 212.121 401.997C213.968 402.483 218.207 403.338 222.701 402.681C223.033 401.971 223.404 401.281 223.813 400.614Z" fill="white"/>
<path d="M243.895 402.346L241.771 392.918L240.417 392.842C240.417 392.842 239.047 399.086 231.711 400.191C231.711 400.191 228.541 400.682 227.188 400.862C227.012 400.888 225.059 398.92 224.806 398.754C222.636 397.313 220.028 396.925 217.498 396.724C214.91 396.523 212.144 396.267 209.663 397.226C209.337 397.355 206.165 398.991 206.063 398.53C206.063 398.53 209.416 413.637 211.778 417.955C211.778 417.955 212.808 421.279 220.43 420.465C220.43 420.465 233.514 419.281 243.675 409.636C245.357 408.342 243.895 402.346 243.895 402.346ZM209.736 401.699C210.037 400.129 210.1 399.137 211.421 398.889C214.03 398.401 216.884 398.855 219.481 399.193C221.581 399.463 224.187 399.741 225.044 402.081C225.803 404.137 225.248 407.138 224.184 409.017C222.39 412.187 216.576 413.82 213.631 411.769C211.125 410.018 209.172 404.662 209.736 401.699Z" fill="#3C2415"/>
<path d="M223.293 439.631L223.888 438.504L227.925 444.817L224.454 446.077L223.293 439.631Z" fill="#DB4849"/>
<path d="M213.948 440.187L212.816 438.42C212.816 438.42 208.5 442.113 213.032 446.077C213.032 446.077 213.032 442.811 213.948 440.187Z" fill="#DB4849"/>
<path d="M223.293 439.63C223.293 439.63 219.871 442.73 213.947 440.187C212.653 441.865 212.657 444.002 213.031 446.077L216.099 452.523H220.384L224.454 446.077C224.454 446.077 224.872 444.656 223.293 439.63Z" fill="#EC524F"/>
<path d="M220.384 452.523L223.846 544.748L216.62 559.075L210.723 544.821L216.099 452.523H220.384Z" fill="#DB4849"/>
</g>
<defs>
<clipPath id="clip0_1588_30747">
<rect width="66.3073" height="389.102" fill="white" transform="matrix(-0.955111 -0.296247 -0.296247 0.955111 392.998 20.0925)"/>
</clipPath>
<clipPath id="clip1_1588_30747">
<rect width="460.689" height="269.871" fill="white" transform="translate(77 335)"/>
</clipPath>
</defs>
</svg>
