<svg width="517" height="928" viewBox="0 0 517 928" fill="none" xmlns="http://www.w3.org/2000/svg">
<path style="mix-blend-mode:multiply" opacity="0.7" d="M352.317 696.953C502.608 546.713 502.608 303.127 352.317 152.887C202.026 2.64685 -41.6433 2.64685 -191.934 152.887C-342.225 303.127 -342.225 546.713 -191.934 696.953C-41.6433 847.193 202.026 847.193 352.317 696.953Z" fill="url(#paint0_radial_1573_9706)"/>
<path style="mix-blend-mode:screen" d="M373.287 588.989C535.16 427.172 535.16 164.814 373.287 2.99646C211.415 -158.821 -51.0319 -158.821 -212.904 2.99641C-374.777 164.814 -374.777 427.172 -212.904 588.989C-51.0319 750.807 211.415 750.807 373.287 588.989Z" fill="url(#paint1_radial_1573_9706)"/>
<path d="M334.761 621.489C475.355 480.942 475.355 253.07 334.761 112.523C194.166 -28.0235 -33.7827 -28.0235 -174.377 112.523C-314.972 253.07 -314.972 480.942 -174.377 621.489C-33.7827 762.036 194.166 762.036 334.761 621.489Z" fill="#F1F3F6"/>
<defs>
<radialGradient id="paint0_radial_1573_9706" cx="0" cy="0" r="1" gradientUnits="userSpaceOnUse" gradientTransform="translate(80.1914 424.92) scale(384.844 384.713)">
<stop offset="0.52239" stop-color="#545557"/>
<stop offset="0.5817" stop-color="#747577"/>
<stop offset="0.68265" stop-color="#A6A6A7"/>
<stop offset="0.77827" stop-color="#CCCDCD"/>
<stop offset="0.86582" stop-color="#E8E8E9"/>
<stop offset="0.94251" stop-color="#F9F9F9"/>
<stop offset="1" stop-color="white"/>
</radialGradient>
<radialGradient id="paint1_radial_1573_9706" cx="0" cy="0" r="1" gradientUnits="userSpaceOnUse" gradientTransform="translate(80.1915 295.993) scale(414.5 414.36)">
<stop offset="0.71891" stop-color="#F6F9FF"/>
<stop offset="0.75935" stop-color="#C0C3C7"/>
<stop offset="0.80788" stop-color="#87888B"/>
<stop offset="0.85469" stop-color="#56575A"/>
<stop offset="0.89848" stop-color="#313233"/>
<stop offset="0.93857" stop-color="#161617"/>
<stop offset="0.97368" stop-color="#060606"/>
<stop offset="1"/>
</radialGradient>
</defs>
</svg>
