<svg width="67" height="57" viewBox="0 0 67 57" fill="none" xmlns="http://www.w3.org/2000/svg">
<path d="M7.33366 47L7.33366 44.8334C7.33366 43.7 7.86699 42.6334 8.70033 42.1334C14.3337 38.7667 20.767 37 27.3337 37C27.4337 37 27.5003 37 27.6003 37.0334C27.9337 34.7 28.6003 32.4667 29.567 30.4334C28.8337 30.3667 28.1003 30.3334 27.3337 30.3334C19.267 30.3334 11.7337 32.5667 5.30033 36.4C2.36699 38.1334 0.666992 41.4 0.666992 44.8334L0.666992 53.6667L31.5337 53.6667C30.1337 51.6667 29.0337 49.4 28.3003 47L7.33366 47ZM27.3337 27C34.7003 27 40.667 21.0334 40.667 13.6667C40.667 6.30004 34.7003 0.333374 27.3337 0.333374C19.967 0.333374 14.0003 6.30004 14.0003 13.6667C14.0003 21.0334 19.967 27 27.3337 27ZM27.3337 7.00004C31.0003 7.00004 34.0003 10 34.0003 13.6667C34.0003 17.3334 31.0003 20.3334 27.3337 20.3334C23.667 20.3334 20.667 17.3334 20.667 13.6667C20.667 10 23.667 7.00004 27.3337 7.00004ZM63.167 40.3334C63.167 39.6 63.067 38.9334 62.967 38.2334L66.767 34.8667L63.4337 29.1L58.6003 30.7334C57.5337 29.8334 56.3337 29.1334 55.0003 28.6334L54.0003 23.6667L47.3337 23.6667L46.3337 28.6334C45.0003 29.1334 43.8003 29.8334 42.7337 30.7334L37.9003 29.1L34.567 34.8667L38.367 38.2334C38.267 38.9334 38.167 39.6 38.167 40.3334C38.167 41.0667 38.267 41.7334 38.367 42.4334L34.567 45.8L37.9003 51.5667L42.7337 49.9334C43.8003 50.8334 45.0003 51.5334 46.3337 52.0334L47.3337 57L54.0003 57L55.0003 52.0334C56.3337 51.5334 57.5337 50.8334 58.6003 49.9334L63.4337 51.5667L66.767 45.8L62.967 42.4334C63.067 41.7334 63.167 41.0667 63.167 40.3334ZM50.667 47C47.0003 47 44.0003 44 44.0003 40.3334C44.0003 36.6667 47.0003 33.6667 50.667 33.6667C54.3337 33.6667 57.3337 36.6667 57.3337 40.3334C57.3337 44 54.3337 47 50.667 47Z" fill="#1F7053"/>
</svg>
