<svg width="26" height="26" viewBox="0 0 26 26" fill="none" xmlns="http://www.w3.org/2000/svg">
<path d="M24.125 0.909668H1.875C1.51033 0.909668 1.16059 1.05453 0.902728 1.3124C0.644866 1.57026 0.5 1.92 0.5 2.28467V24.5347C0.5 24.8993 0.644866 25.2491 0.902728 25.5069C1.16059 25.7648 1.51033 25.9097 1.875 25.9097H13.85V16.2222H10.6V12.4722H13.85V9.65967C13.7827 8.99936 13.8606 8.33233 14.0784 7.70534C14.2962 7.07835 14.6485 6.5066 15.1106 6.03018C15.5727 5.55376 16.1335 5.18422 16.7535 4.94747C17.3736 4.71071 18.038 4.61248 18.7 4.65967C19.6729 4.65368 20.6454 4.70376 21.6125 4.80967V8.18467H19.625C18.05 8.18467 17.75 8.93467 17.75 10.0222V12.4347H21.5L21.0125 16.1847H17.75V25.9097H24.125C24.3056 25.9097 24.4844 25.8741 24.6512 25.805C24.818 25.7359 24.9696 25.6346 25.0973 25.5069C25.225 25.3793 25.3262 25.2277 25.3953 25.0609C25.4644 24.894 25.5 24.7152 25.5 24.5347V2.28467C25.5 2.1041 25.4644 1.9253 25.3953 1.75848C25.3262 1.59166 25.225 1.44008 25.0973 1.3124C24.9696 1.18472 24.818 1.08343 24.6512 1.01433C24.4844 0.945234 24.3056 0.909668 24.125 0.909668Z" fill="white"/>
</svg>

