<svg width="80" height="80" viewBox="0 0 80 80" fill="none" xmlns="http://www.w3.org/2000/svg">
<path d="M75 58.455L70 55.955V50C69.9939 46.4585 68.736 43.0331 66.4486 40.3294C64.1612 37.6257 60.9916 35.8177 57.5 35.225V30H52.5V35.225C49.0084 35.8177 45.8388 37.6257 43.5514 40.3294C41.264 43.0331 40.0061 46.4585 40 50V55.955L35 58.455V70H50V75H60V70H75V58.455ZM70 65H40V61.545L45 59.045V50C45 47.3478 46.0536 44.8043 47.9289 42.9289C49.8043 41.0536 52.3478 40 55 40C57.6522 40 60.1957 41.0536 62.0711 42.9289C63.9464 44.8043 65 47.3478 65 50V59.045L70 61.545V65Z" fill="#1F7053"/>
<path d="M70 15C70 13.6739 69.4732 12.4021 68.5355 11.4645C67.5979 10.5268 66.3261 10 65 10H55V5H50V10H30V5H25V10H15C13.6739 10 12.4021 10.5268 11.4645 11.4645C10.5268 12.4021 10 13.6739 10 15V65C10 66.3261 10.5268 67.5979 11.4645 68.5355C12.4021 69.4732 13.6739 70 15 70H25V65H15V15H25V20H30V15H50V20H55V15H65V30H70V15Z" fill="#1F7053"/>
</svg>
