<svg width="80" height="80" viewBox="0 0 80 80" fill="none" xmlns="http://www.w3.org/2000/svg">
<path d="M62.5 12.5H62.075V17.5H62.5C63.163 17.5 63.7989 17.7634 64.2678 18.2322C64.7366 18.7011 65 19.337 65 20V70C65 70.663 64.7366 71.2989 64.2678 71.7678C63.7989 72.2366 63.163 72.5 62.5 72.5H17.5C16.837 72.5 16.2011 72.2366 15.7322 71.7678C15.2634 71.2989 15 70.663 15 70V20C15 19.337 15.2634 18.7011 15.7322 18.2322C16.2011 17.7634 16.837 17.5 17.5 17.5H17.925V12.5H17.5C15.5109 12.5 13.6032 13.2902 12.1967 14.6967C10.7902 16.1032 10 18.0109 10 20V70C10 71.9891 10.7902 73.8968 12.1967 75.3033C13.6032 76.7098 15.5109 77.5 17.5 77.5H62.5C64.4891 77.5 66.3968 76.7098 67.8033 75.3033C69.2098 73.8968 70 71.9891 70 70V20C70 18.0109 69.2098 16.1032 67.8033 14.6967C66.3968 13.2902 64.4891 12.5 62.5 12.5Z" fill="#1F7053"/>
<path d="M57.5 7.5H50V0H30V7.5H22.5V22.5H57.5V7.5ZM52.5 17.5H27.5V12.5H35V5H45V12.5H52.5V17.5Z" fill="#1F7053"/>
<path d="M25 32.5H55V37.5H25V32.5ZM25 45H55V50H25V45ZM25 57.5H55V62.5H25V57.5Z" fill="#1F7053"/>
</svg>
