<svg width="64" height="64" viewBox="0 0 64 64" fill="none" xmlns="http://www.w3.org/2000/svg">
<path d="M32 4C30.4087 4 28.8826 4.63214 27.7574 5.75736C26.6321 6.88258 26 8.4087 26 10C26 11.5913 26.6321 13.1174 27.7574 14.2426C28.8826 15.3679 30.4087 16 32 16C33.5913 16 35.1174 15.3679 36.2426 14.2426C37.3679 13.1174 38 11.5913 38 10C38 8.4087 37.3679 6.88258 36.2426 5.75736C35.1174 4.63214 33.5913 4 32 4ZM22 10C22 7.34784 23.0536 4.8043 24.9289 2.92893C26.8043 1.05357 29.3478 0 32 0C34.6522 0 37.1957 1.05357 39.0711 2.92893C40.9464 4.8043 42 7.34784 42 10C42 12.6522 40.9464 15.1957 39.0711 17.0711C37.1957 18.9464 34.6522 20 32 20C29.3478 20 26.8043 18.9464 24.9289 17.0711C23.0536 15.1957 22 12.6522 22 10ZM54 8C52.9391 8 51.9217 8.42143 51.1716 9.17157C50.4214 9.92172 50 10.9391 50 12C50 13.0609 50.4214 14.0783 51.1716 14.8284C51.9217 15.5786 52.9391 16 54 16C55.0609 16 56.0783 15.5786 56.8284 14.8284C57.5786 14.0783 58 13.0609 58 12C58 10.9391 57.5786 9.92172 56.8284 9.17157C56.0783 8.42143 55.0609 8 54 8ZM46 12C46 9.87827 46.8429 7.84344 48.3431 6.34315C49.8434 4.84285 51.8783 4 54 4C56.1217 4 58.1566 4.84285 59.6569 6.34315C61.1571 7.84344 62 9.87827 62 12C62 14.1217 61.1571 16.1566 59.6569 17.6569C58.1566 19.1571 56.1217 20 54 20C51.8783 20 49.8434 19.1571 48.3431 17.6569C46.8429 16.1566 46 14.1217 46 12ZM6 12C6 10.9391 6.42143 9.92172 7.17157 9.17157C7.92172 8.42143 8.93913 8 10 8C11.0609 8 12.0783 8.42143 12.8284 9.17157C13.5786 9.92172 14 10.9391 14 12C14 13.0609 13.5786 14.0783 12.8284 14.8284C12.0783 15.5786 11.0609 16 10 16C8.93913 16 7.92172 15.5786 7.17157 14.8284C6.42143 14.0783 6 13.0609 6 12ZM10 4C7.87827 4 5.84344 4.84285 4.34315 6.34315C2.84285 7.84344 2 9.87827 2 12C2 14.1217 2.84285 16.1566 4.34315 17.6569C5.84344 19.1571 7.87827 20 10 20C12.1217 20 14.1566 19.1571 15.6569 17.6569C17.1571 16.1566 18 14.1217 18 12C18 9.87827 17.1571 7.84344 15.6569 6.34315C14.1566 4.84285 12.1217 4 10 4ZM12.4 51.992L12 52C9.87827 52 7.84344 51.1571 6.34315 49.6569C4.84285 48.1566 4 46.1217 4 44V29C4 28.7348 4.10536 28.4804 4.29289 28.2929C4.48043 28.1054 4.73478 28 5 28H12.056C12.216 26.532 12.736 25.168 13.516 24H5C2.24 24 7.13522e-08 26.24 7.13522e-08 29V44C-0.000186663 45.7125 0.366154 47.4052 1.07441 48.9643C1.78266 50.5235 2.81642 51.913 4.10622 53.0395C5.39602 54.166 6.91199 55.0033 8.55227 55.4954C10.1925 55.9874 11.9191 56.1226 13.616 55.892C13.0786 54.6369 12.6712 53.3301 12.4 51.992ZM50.384 55.892C50.912 55.964 51.4507 56 52 56C55.1826 56 58.2348 54.7357 60.4853 52.4853C62.7357 50.2348 64 47.1826 64 44V29C64 26.24 61.76 24 59 24H50.484C51.268 25.168 51.784 26.532 51.944 28H59C59.2652 28 59.5196 28.1054 59.7071 28.2929C59.8946 28.4804 60 28.7348 60 29V44C60.0003 45.0844 59.7801 46.1576 59.3528 47.1543C58.9255 48.151 58.3 49.0504 57.5143 49.7979C56.7287 50.5454 55.7993 51.1253 54.7826 51.5025C53.7659 51.8797 52.6831 52.0462 51.6 51.992C51.3288 53.3301 50.9214 54.6369 50.384 55.892ZM21 24C18.24 24 16 26.24 16 29V48C16 52.2435 17.6857 56.3131 20.6863 59.3137C23.6869 62.3143 27.7565 64 32 64C36.2435 64 40.3131 62.3143 43.3137 59.3137C46.3143 56.3131 48 52.2435 48 48V29C48 26.24 45.76 24 43 24H21ZM20 29C20 28.7348 20.1054 28.4804 20.2929 28.2929C20.4804 28.1054 20.7348 28 21 28H43C43.2652 28 43.5196 28.1054 43.7071 28.2929C43.8946 28.4804 44 28.7348 44 29V48C44 51.1826 42.7357 54.2348 40.4853 56.4853C38.2348 58.7357 35.1826 60 32 60C28.8174 60 25.7652 58.7357 23.5147 56.4853C21.2643 54.2348 20 51.1826 20 48V29Z" fill="#1F7053"/>
</svg>
