<svg width="380" height="274" viewBox="0 0 380 274" fill="none" xmlns="http://www.w3.org/2000/svg">
<g style="mix-blend-mode:multiply">
<path d="M77.6269 263.972C77.6269 269.485 64.0703 273.954 47.3471 273.954C30.6235 273.954 17.0664 269.485 17.0664 263.972C17.0664 258.459 30.6235 253.989 47.3471 253.989C64.0703 253.989 77.6269 258.459 77.6269 263.972Z" fill="#CAD8E6"/>
</g>
<g style="mix-blend-mode:multiply">
<path d="M147.671 263.972C147.671 269.485 134.114 273.954 117.391 273.954C100.667 273.954 87.1104 269.485 87.1104 263.972C87.1104 258.459 100.667 253.989 117.391 253.989C134.114 253.989 147.671 258.459 147.671 263.972Z" fill="#CAD8E6"/>
</g>
<g style="mix-blend-mode:multiply">
<path d="M201.234 265.279C201.234 270.07 189.453 273.954 174.92 273.954C160.386 273.954 148.604 270.07 148.604 265.279C148.604 260.488 160.386 256.604 174.92 256.604C189.453 256.604 201.234 260.488 201.234 265.279Z" fill="#CAD8E6"/>
</g>
<g style="mix-blend-mode:multiply">
<path d="M260.678 264.373C260.678 269.665 247.666 273.954 231.613 273.954C215.561 273.954 202.548 269.665 202.548 264.373C202.548 259.081 215.561 254.791 231.613 254.791C247.666 254.791 260.678 259.081 260.678 264.373Z" fill="#CAD8E6"/>
</g>
<g style="mix-blend-mode:multiply">
<path d="M324.001 264.373C324.001 269.665 310.989 273.954 294.937 273.954C278.884 273.954 265.871 269.665 265.871 264.373C265.871 259.081 278.884 254.791 294.937 254.791C310.989 254.791 324.001 259.081 324.001 264.373Z" fill="#CAD8E6"/>
</g>
<g style="mix-blend-mode:multiply">
<path d="M379.046 264.373C379.046 269.665 366.034 273.954 349.981 273.954C333.929 273.954 320.916 269.665 320.916 264.373C320.916 259.081 333.929 254.791 349.981 254.791C366.034 254.791 379.046 259.081 379.046 264.373Z" fill="#CAD8E6"/>
</g>
<path d="M255.167 247.519C255.666 248.512 256.241 251.019 256.877 252.357C258.352 255.462 259.022 257.117 260.967 260.861C262.038 262.926 262.528 267.9 257.685 268.428C252.676 268.974 250.236 264.332 249.887 262.051C249.087 256.791 248.628 253.85 247.694 248.656C247.337 246.675 249.6 245.891 251.594 245.931C253.146 245.963 254.554 246.301 255.167 247.519Z" fill="#5D2610"/>
<path d="M221.065 253.684C221.065 253.684 222.612 254.3 221.964 258.048C221.556 260.416 219.536 260.509 217.597 261.26C215.065 262.243 214 268.414 205.585 268.414C200.825 268.414 200.135 265.547 202.424 263.412C206.898 259.24 211.085 256.081 214.129 253.684H221.065Z" fill="#5D2610"/>
<path d="M247.704 128.195L248.902 50.7643C248.902 47.9874 245.403 45.8375 242.83 44.7931C239.886 43.7185 236.776 43.1683 233.641 43.1676C233.641 43.1676 232.646 49.2643 227.121 49.2643C222.09 49.2643 220.88 43.1676 220.88 43.1676C217.629 43.3297 214.431 44.0549 211.428 45.3107C208.865 46.3785 206.768 48.3566 206.47 51.4581C204.286 74.235 205.321 128.195 205.321 128.195H247.704Z" fill="#C7D3E3"/>
<path d="M242.43 48.8741C242.432 47.5106 242.592 46.1519 242.908 44.8253C242.882 44.8151 242.855 44.8043 242.83 44.7931C239.885 43.7185 236.775 43.1683 233.641 43.1676C233.641 43.1676 232.645 49.2643 227.121 49.2643C222.09 49.2643 220.88 43.1676 220.88 43.1676C217.492 43.2925 214.16 44.0737 211.07 45.4679C211.879 47.7344 212.32 50.1154 212.377 52.5211C212.354 55.2737 211.728 57.9878 210.545 60.4728C209.361 62.9579 207.647 65.1536 205.524 66.9059C204.523 92.5655 205.321 128.195 205.321 128.195H247.703L248.692 64.3444C244.859 61.0089 242.43 54.2579 242.43 48.8741Z" fill="#1C224E"/>
<path d="M233.775 43.8243C233.775 43.8243 233.054 50.0172 227.223 50.0172C221.843 50.0172 220.88 43.8243 220.88 43.8243V37.5094H233.775V43.8243Z" fill="#F7A08B"/>
<path d="M239.757 30.2169C237.005 39.3629 232.024 41.1446 227.193 41.1446C222.58 41.1446 217.525 38.7677 214.773 29.8453C213.741 25.6873 213.539 21.3666 214.179 17.1305C215.815 8.20807 221.375 5.69397 227.328 5.69397C233.436 5.69397 238.344 7.53867 240.277 16.3868C241.174 20.9752 240.996 25.7088 239.757 30.2169Z" fill="#F8AA97"/>
<path d="M247.722 126.984H205.302L210.16 253.546C210.16 253.546 213.821 255.56 216.843 255.56C218.953 255.675 221.034 255.024 222.703 253.728L225.929 145.201L227.587 146.654L236.381 199.347H236.416L246.438 251.163C246.433 251.161 247.042 253.542 251.409 253.542C253.608 253.52 255.796 253.228 257.924 252.673L254.716 199.347H254.751L247.722 126.984Z" fill="#EEC868"/>
<path d="M247.709 123.26H205.25V127.204H247.709V123.26Z" fill="#5D2610"/>
<path d="M223.894 122.637V127.826H230.061V122.637H223.894ZM229.323 127.197H224.71V125.699H226.571V124.765H224.71V123.266H229.323V127.197Z" fill="url(#paint0_linear_1615_18155)"/>
<path d="M217.673 127.204C217.673 127.204 219.085 142.568 205.852 142.168L205.302 127.204H217.673Z" fill="#EAA34D"/>
<path d="M240.227 127.204C240.227 127.204 237.154 140.036 249.137 141.55L247.713 127.204H240.227Z" fill="#EAA34D"/>
<path d="M220.424 14.6027C220.424 14.6027 216.582 16.2472 216.508 21.7863C216.476 24.1456 216.533 25.38 214.432 26.111C214.432 26.111 212.689 22.0099 214.676 13.6852L220.424 14.6027Z" fill="#5D2610"/>
<path d="M235.296 14.714C235.296 14.714 238.427 16.0734 238.501 21.6134C238.533 23.9728 237.667 26.2384 240.426 26.6691C240.426 26.6691 242.162 22.4098 240.168 13.7643L235.296 14.714Z" fill="#5D2610"/>
<path d="M216.058 25.1442C216.404 26.5758 215.957 27.9127 215.059 28.129C214.161 28.3468 213.152 27.3614 212.806 25.9283C212.461 24.4967 212.908 23.1603 213.806 22.9435C214.704 22.7262 215.712 23.7115 216.058 25.1442Z" fill="#F8AA97"/>
<path d="M238.502 25.7189C238.157 27.1515 238.604 28.4879 239.503 28.7047C240.401 28.922 241.409 27.9366 241.755 26.504C242.101 25.0714 241.653 23.7345 240.755 23.5177C239.856 23.3009 238.848 24.2863 238.502 25.7189Z" fill="#F8AA97"/>
<path d="M219.208 15.4122C221.948 16.6416 224.904 17.3152 227.906 17.3939C230.908 17.4727 233.896 16.9552 236.697 15.8712L240.168 13.7643C240.168 13.7643 238.7 4.9059 228.686 4.9059C228.686 4.9059 217.271 3.6637 214.552 14.2238L219.208 15.4122Z" fill="#5D2610"/>
<path d="M244.973 45.839C244.973 45.839 259.469 51.1544 262.653 89.3946L251.76 89.6515C251.76 89.6515 250.452 67.2667 248.692 63.8946C243.215 53.3976 244.973 45.839 244.973 45.839Z" fill="#C7D3E3"/>
<path d="M210.774 45.6095C210.774 45.6095 194.984 48.7189 189.599 91.6114L200.383 89.6515C200.383 89.6515 203.813 69.8458 205.573 66.4738C208.885 60.0106 210.665 52.8713 210.774 45.6095Z" fill="#C7D3E3"/>
<path d="M216.52 84.5571C212.841 83.9102 209.072 83.9797 205.42 84.7618C202.775 85.4031 200.436 86.9438 198.802 89.1202C198.802 89.1202 198.505 90.2814 201.107 89.6183C203.709 88.9537 212.707 88.3673 216.202 89.8229L216.52 84.5571Z" fill="#F8AA97"/>
<path d="M215.458 92.1427L216.262 84.3507L262.468 88.3234C262.468 88.3234 263.342 95.754 261.391 96.8683C258.736 98.3863 215.458 92.1427 215.458 92.1427Z" fill="#BCCFE2"/>
<path d="M233.171 86.7657C233.171 86.7657 235.396 85.5944 242.409 84.6642C248.165 83.9005 249.708 84.1886 251.556 85.6363C252.013 85.9943 254.126 88.0128 250.961 87.7179C246.698 87.3224 238.393 89.6691 234.342 90.7281L233.171 86.7657Z" fill="#F8AA97"/>
<path d="M237.118 92.8111L236.053 84.4663L190.021 88.4766C190.021 88.4766 188.054 96.898 189.838 98.2637C192.267 100.122 237.118 92.8111 237.118 92.8111Z" fill="#C7D3E3"/>
<path d="M227.359 49.9435C229.136 52.3835 231.543 54.2941 234.323 55.4703C234.323 55.4703 234.473 46.6544 236.425 43.318C235.547 43.1706 234.656 43.1199 233.767 43.1666C233.767 43.1666 231.213 50.0402 227.359 49.9435Z" fill="#A1B4D4"/>
<path d="M227.36 49.9435C227.36 49.9435 224.261 54.4664 220.397 55.4703C220.397 55.4703 220.248 46.7267 218.295 43.3898C219.153 43.2249 220.027 43.153 220.9 43.1754C220.9 43.1754 224.043 50.2052 227.36 49.9435Z" fill="#A1B4D4"/>
<path d="M369.136 27.0294C369.129 27.0236 369.121 27.0192 369.114 27.0138C369.304 26.8929 369.467 26.7356 369.596 26.5509C369.861 26.1697 369.972 25.7024 369.908 25.2425C369.843 24.7826 369.607 24.3642 369.247 24.0709C369.184 24.0227 369.119 23.979 369.05 23.9401C369.074 23.9122 369.097 23.882 369.119 23.8512C369.292 23.6028 369.365 23.2983 369.322 22.9987C369.28 22.6991 369.126 22.4265 368.892 22.2355C368.868 22.2169 368.843 22.2003 368.819 22.1837C368.919 22.111 369.006 22.0223 369.077 21.921C369.25 21.6725 369.322 21.368 369.28 21.0684C369.238 20.7688 369.085 20.4961 368.85 20.3048C368.818 20.2799 368.785 20.2568 368.75 20.2355C368.989 19.8374 369.076 19.3669 368.995 18.9099C368.915 18.453 368.673 18.0402 368.313 17.7472C368.152 17.6217 367.971 17.5253 367.777 17.4625C367.798 17.2665 367.77 17.0683 367.694 16.886C367.619 16.7038 367.499 16.5434 367.346 16.4196C367.223 16.3235 367.081 16.2555 366.929 16.2203C367.153 16.0079 367.284 15.7164 367.295 15.4083C367.309 15.1593 367.241 14.9125 367.103 14.7049C366.965 14.4974 366.763 14.3402 366.528 14.257C366.603 14.1275 366.646 13.9814 366.652 13.8317C366.667 13.6029 366.591 13.3774 366.441 13.2041C366.291 13.0309 366.079 12.9239 365.85 12.9064C365.666 12.8986 365.485 12.9542 365.337 13.0641C365.342 13.0245 365.346 12.9849 365.347 12.9454C365.367 12.6477 365.269 12.3542 365.074 12.1287C364.878 11.9032 364.602 11.7639 364.304 11.7413C364.274 11.7404 364.245 11.7404 364.216 11.7418C364.26 11.6227 364.286 11.4973 364.291 11.3702C364.311 11.0726 364.213 10.7792 364.018 10.5537C363.823 10.3283 363.546 10.1889 363.249 10.1661C363.161 10.1624 363.072 10.17 362.986 10.1886C362.994 10.1398 362.999 10.0905 363.001 10.0411C363.023 9.70823 362.913 9.38008 362.695 9.12793C362.476 8.87579 362.167 8.72003 361.835 8.69449C361.678 8.68839 361.522 8.71348 361.376 8.7683C361.229 8.82312 361.095 8.90657 360.981 9.01379C360.996 8.7217 360.896 8.43538 360.702 8.2159C360.509 7.99642 360.238 7.86117 359.946 7.83899C359.771 7.83279 359.597 7.87002 359.44 7.94737C359.282 8.02471 359.147 8.13978 359.045 8.28229C359.082 8.14568 359.095 8.00351 359.083 7.86239C359.075 7.71672 359.038 7.57412 358.974 7.44286C358.91 7.3116 358.821 7.19428 358.712 7.09772C358.602 7.00116 358.475 6.92727 358.337 6.88033C358.199 6.83339 358.053 6.81435 357.907 6.82429C357.753 6.83963 357.604 6.88936 357.472 6.96979C357.507 6.66191 357.422 6.35238 357.234 6.10609C357.147 5.98972 357.038 5.89252 356.912 5.82061C356.786 5.7487 356.646 5.70365 356.502 5.68828C356.358 5.67291 356.212 5.68756 356.074 5.73131C355.936 5.77507 355.808 5.84697 355.699 5.94249C355.567 6.05742 355.463 6.20149 355.395 6.36339C355.282 6.23373 355.13 6.14394 354.961 6.1072C354.793 6.07046 354.617 6.08872 354.46 6.15929C354.428 5.9701 354.35 5.79169 354.232 5.63979C354.146 5.52327 354.036 5.42594 353.91 5.35394C353.784 5.28194 353.645 5.23683 353.5 5.22145C353.356 5.20608 353.21 5.22078 353.072 5.26463C352.933 5.30847 352.806 5.38051 352.697 5.47619C352.674 5.49569 352.652 5.51719 352.632 5.53869C352.59 5.4199 352.53 5.30834 352.454 5.20809C352.368 5.09168 352.258 4.99446 352.132 4.92254C352.006 4.85062 351.866 4.80557 351.722 4.79021C351.578 4.77485 351.432 4.78952 351.294 4.8333C351.155 4.87708 351.027 4.94902 350.918 5.04459C350.75 5.19081 350.629 5.38265 350.568 5.59679C350.414 5.41872 350.226 5.27286 350.016 5.16761C349.805 5.06236 349.576 4.99981 349.341 4.98357C349.106 4.96732 348.871 4.99769 348.648 5.07294C348.425 5.14818 348.219 5.26681 348.042 5.42199C347.814 5.61882 347.635 5.86652 347.52 6.14509C347.334 6.01314 347.111 5.94235 346.883 5.94249C346.626 5.9426 346.377 6.03112 346.178 6.19314C345.979 6.35517 345.842 6.58081 345.79 6.83209C345.658 6.64116 345.472 6.49417 345.255 6.41008C345.039 6.32599 344.802 6.30865 344.576 6.36031C344.349 6.41196 344.144 6.53023 343.985 6.69988C343.827 6.86952 343.723 7.08276 343.686 7.31209C343.483 7.14806 343.229 7.05833 342.968 7.05769C342.814 7.05761 342.663 7.08772 342.521 7.14631C342.379 7.2049 342.251 7.29082 342.143 7.39916C342.034 7.5075 341.948 7.63613 341.89 7.77769C341.831 7.91926 341.801 8.07098 341.801 8.22419C341.803 8.26295 341.806 8.3016 341.812 8.33999C341.526 8.36837 341.261 8.50576 341.073 8.72373C340.886 8.9417 340.789 9.22354 340.803 9.51089C340.689 9.40359 340.555 9.32007 340.408 9.26523C340.262 9.21039 340.105 9.18532 339.949 9.19149C339.616 9.21694 339.307 9.37276 339.089 9.62506C338.87 9.87736 338.76 10.2057 338.783 10.5387C338.784 10.5879 338.789 10.637 338.797 10.6857C338.711 10.6674 338.623 10.6597 338.535 10.6627C338.238 10.6856 337.961 10.825 337.766 11.0505C337.571 11.2761 337.472 11.5696 337.492 11.8673C337.498 11.9943 337.523 12.1197 337.568 12.2389C337.538 12.2371 337.509 12.2367 337.479 12.2379C337.182 12.2605 336.905 12.3996 336.71 12.625C336.515 12.8504 336.416 13.1439 336.436 13.4415C336.441 13.5408 336.457 13.6392 336.486 13.7345C336.335 13.6929 336.18 13.6752 336.024 13.6822C335.592 13.7153 335.191 13.9174 334.908 14.2445C334.624 14.5716 334.481 14.9974 334.51 15.4293C334.523 15.7617 334.631 16.0835 334.821 16.3566C334.666 16.4152 334.521 16.497 334.391 16.5992C334.112 16.8249 333.906 17.1277 333.798 17.4697C333.691 17.8117 333.686 18.1778 333.784 18.5226C333.617 18.5628 333.461 18.6387 333.325 18.7452C333.185 18.8578 333.068 18.9979 332.983 19.1569C332.898 19.3159 332.847 19.4905 332.832 19.6702C332.816 19.8498 332.838 20.0307 332.895 20.2017C332.952 20.3728 333.043 20.5305 333.162 20.6652C333.081 20.7008 333.004 20.7465 332.933 20.8014C332.699 20.9926 332.545 21.2652 332.503 21.5647C332.461 21.8643 332.534 22.1687 332.706 22.4171C332.778 22.5187 332.865 22.6078 332.966 22.6808C332.94 22.6965 332.915 22.7138 332.892 22.7325C332.657 22.9235 332.504 23.196 332.461 23.4956C332.419 23.7952 332.492 24.0996 332.665 24.3478C332.687 24.3801 332.711 24.4109 332.737 24.4401C332.552 24.4383 332.373 24.4996 332.228 24.6139C332.048 24.761 331.93 24.9706 331.898 25.2009C331.865 25.4312 331.921 25.6652 332.054 25.8561C332.137 25.9758 332.249 26.0719 332.38 26.1349C332.229 26.3376 332.146 26.5824 332.141 26.8349C332.137 27.0875 332.211 27.3351 332.355 27.5431C332.438 27.6648 332.545 27.7681 332.67 27.8466C332.795 27.925 332.935 27.9769 333.081 27.9991C332.937 28.2015 332.858 28.4435 332.856 28.6921C332.854 28.9407 332.929 29.1838 333.071 29.3883C333.091 29.4175 333.113 29.4456 333.136 29.4723C333.083 29.4992 333.033 29.5309 332.987 29.567C332.789 29.7281 332.659 29.958 332.624 30.2106C332.588 30.4632 332.65 30.7199 332.795 30.9293C332.862 31.0253 332.946 31.1077 333.043 31.172C333.022 31.1984 333 31.2247 332.981 31.2521C332.78 31.5372 332.695 31.8876 332.741 32.2331C332.788 32.5786 332.964 32.8936 333.234 33.1149C333.39 33.2408 333.575 33.3253 333.773 33.3607C333.971 33.3961 334.174 33.3812 334.364 33.3175C334.332 33.5227 334.354 33.7328 334.428 33.9268C334.502 34.1208 334.626 34.2919 334.787 34.423C334.816 34.4454 334.844 34.4654 334.873 34.484C334.83 34.5257 334.791 34.5713 334.756 34.6202C334.609 34.8288 334.547 35.0852 334.581 35.3379C334.615 35.5906 334.744 35.821 334.941 35.983C335.03 36.0552 335.134 36.1089 335.244 36.1412C335.355 36.1735 335.47 36.1836 335.585 36.171C335.573 36.4067 335.618 36.6417 335.714 36.8571C335.811 37.0724 335.956 37.2619 336.14 37.4103C336.286 37.528 336.456 37.6132 336.638 37.6602C336.821 37.7072 337.01 37.7148 337.196 37.6827C337.171 37.74 337.15 37.7991 337.134 37.8595C337.053 38.1489 337.088 38.4581 337.23 38.7225C337.373 38.9869 337.612 39.1861 337.898 39.2784L337.954 39.2921L337.95 39.3038C337.883 39.5479 337.912 39.8087 338.032 40.0318C338.152 40.2549 338.354 40.4231 338.595 40.5011C338.705 40.5329 338.82 40.5426 338.934 40.5297C339.048 40.5168 339.158 40.4815 339.258 40.4259C339.328 40.6473 339.45 40.8483 339.615 41.0117C339.78 41.1751 339.982 41.2958 340.204 41.3634C340.48 41.4436 340.775 41.4305 341.042 41.3263C341.087 41.5786 341.218 41.8077 341.412 41.9744C341.607 42.1412 341.853 42.2353 342.109 42.2408C342.129 42.2408 342.148 42.2389 342.167 42.2379L342.167 42.2511C342.16 42.502 342.253 42.7455 342.425 42.928C342.598 43.1105 342.835 43.2172 343.086 43.2247C343.319 43.2235 343.543 43.1309 343.708 42.9669C343.83 43.1611 343.999 43.3215 344.199 43.4333C344.399 43.5451 344.625 43.6047 344.854 43.6066C345.121 43.6027 345.38 43.5219 345.602 43.3738C345.824 43.2258 345.999 43.0169 346.105 42.7721C349.339 43.7401 352.787 43.7307 356.016 42.7452C356.264 42.9781 356.59 43.1085 356.93 43.11C357.159 43.1081 357.384 43.0485 357.584 42.9368C357.784 42.8251 357.953 42.6648 358.075 42.4708C358.241 42.6348 358.464 42.7274 358.697 42.7286C358.948 42.7211 359.186 42.6144 359.359 42.4318C359.531 42.2492 359.624 42.0056 359.617 41.7545L359.617 41.7413C359.636 41.7428 359.655 41.7438 359.674 41.7438C359.93 41.7386 360.176 41.6447 360.371 41.4781C360.566 41.3115 360.696 41.0825 360.741 40.8302C361.009 40.9339 361.304 40.9465 361.579 40.8663C361.801 40.799 362.003 40.6785 362.168 40.5153C362.333 40.3521 362.455 40.1511 362.525 39.9298C362.625 39.9853 362.736 40.0205 362.85 40.0333C362.964 40.0461 363.079 40.0363 363.189 40.0045C363.43 39.9265 363.632 39.7584 363.752 39.5354C363.872 39.3125 363.901 39.0517 363.833 38.8077L363.829 38.795C363.848 38.7902 363.867 38.7877 363.886 38.7823C364.172 38.6899 364.411 38.4907 364.553 38.2263C364.695 37.9619 364.73 37.6527 364.65 37.3634C364.633 37.3029 364.613 37.2436 364.588 37.1862C364.773 37.2183 364.963 37.2106 365.145 37.1637C365.327 37.1168 365.497 37.0318 365.644 36.9142C365.827 36.7657 365.973 36.5761 366.069 36.3608C366.166 36.1455 366.21 35.9105 366.199 35.6749C366.43 35.6999 366.661 35.6323 366.843 35.4869C367.04 35.325 367.168 35.0946 367.203 34.8419C367.237 34.5892 367.175 34.3328 367.028 34.1241C366.994 34.075 366.954 34.0294 366.911 33.9879C366.94 33.969 366.969 33.9487 366.996 33.9269C367.176 33.7798 367.309 33.5833 367.379 33.3615C367.449 33.1398 367.452 32.9024 367.388 32.6788C367.575 32.7549 367.778 32.7797 367.977 32.7507C368.176 32.7217 368.363 32.6399 368.52 32.5138C368.773 32.3057 368.938 32.0098 368.982 31.6852C369.026 31.3607 368.946 31.0315 368.758 30.7633C368.661 30.6257 368.536 30.51 368.391 30.4235C368.846 30.3339 369.247 30.0697 369.51 29.6876C369.794 29.2791 369.913 28.7782 369.844 28.2852C369.775 27.7923 369.522 27.3437 369.136 27.0294Z" fill="#481700"/>
<path d="M340.05 246.552C339.618 247.591 339.121 250.213 338.574 251.613C337.301 254.861 336.723 256.592 335.046 260.51C334.122 262.669 333.699 267.874 337.877 268.426C342.197 268.997 344.303 264.14 344.603 261.754C345.294 256.251 345.689 253.175 346.495 247.741C346.803 245.67 344.85 244.849 343.131 244.891C341.792 244.924 340.577 245.277 340.05 246.552Z" fill="#B7735E"/>
<path d="M342.205 263.103C341.914 263.527 341.538 263.887 341.1 264.159C340.663 264.431 340.173 264.609 339.663 264.682C339.154 264.755 338.634 264.721 338.138 264.583C337.642 264.445 337.179 264.206 336.781 263.88C335.779 263.03 335.155 261.818 335.046 260.51C334.122 262.669 333.699 267.874 337.877 268.426C342.197 268.997 344.303 264.14 344.603 261.753C345.043 258.25 345.363 255.728 345.746 252.956C345.402 254.205 344.423 259.895 342.205 263.103Z" fill="#5D2610"/>
<path d="M354.294 250.596C354.294 250.596 352.96 251.24 353.518 255.161C353.871 257.638 355.613 257.735 357.286 258.521C359.47 259.549 360.389 266.004 367.647 266.004C371.753 266.004 372.348 263.006 370.374 260.773C366.515 256.408 362.904 253.102 360.278 250.596H354.294Z" fill="#B7735E"/>
<path d="M370.374 260.773C369.71 260.023 369.056 259.305 368.411 258.618C368.506 258.928 368.538 259.255 368.504 259.578C368.471 259.901 368.373 260.214 368.216 260.498C368.059 260.782 367.847 261.032 367.592 261.233C367.336 261.434 367.043 261.581 366.73 261.667C365.761 262.004 364.708 262.02 363.729 261.712C362.621 261.276 361.63 260.587 360.835 259.699C360.061 258.718 359.078 257.921 357.957 257.365C357.053 257.018 356.24 256.467 355.582 255.756C354.961 254.978 354.672 253.987 354.776 252.998C354.844 252.19 354.902 251.394 354.942 250.596H354.294C354.294 250.596 352.96 251.24 353.518 255.161C353.871 257.638 355.613 257.735 357.286 258.521C359.47 259.549 360.389 266.004 367.647 266.004C371.753 266.004 372.348 263.006 370.374 260.773Z" fill="#5D2610"/>
<path d="M366.08 56.8712C365.38 53.0812 364.999 48.9132 361.557 47.5719C359.315 46.761 356.936 46.3948 354.553 46.4938C354.553 46.4938 354.385 50.7863 350.569 51.2345C346.752 50.7863 346.585 46.4938 346.585 46.4938C344.445 46.2804 342.286 46.5822 340.287 47.3741C336.845 48.7159 335.006 53.6564 334.389 57.4611C332.03 72.0045 335.571 80.6232 335.426 94.0196C335.207 102.366 334.153 110.67 332.281 118.807H367.628C367.577 113.726 365.912 102.985 365.813 93.9161C365.669 80.5201 368.673 70.8956 366.08 56.8712Z" fill="#F2665E"/>
<path d="M355.566 47.3135C355.547 47.8899 355.412 48.4565 355.169 48.9794C354.926 49.5022 354.58 49.9706 354.151 50.3565C353.722 50.7423 353.22 51.0376 352.675 51.2247C352.129 51.4118 351.552 51.4868 350.977 51.4453C350.409 51.4851 349.84 51.4079 349.303 51.2183C348.767 51.0288 348.276 50.7311 347.859 50.3436C347.443 49.9561 347.111 49.4872 346.883 48.966C346.656 48.4447 346.538 47.8822 346.537 47.3135V40.708H355.566V47.3135Z" fill="#A46754"/>
<path d="M361.629 33.9434C358.001 42.961 353.892 44.5103 350.691 44.5103C348.163 44.5103 343.423 41.5576 339.705 32.9776C338.216 29.5435 338.493 24.8418 339.06 21.773C340.676 13.0225 346.889 11.4907 350.823 11.4907C354.969 11.4907 360.855 13.3814 362.765 22.0581C363.615 26.0425 363.218 30.192 361.629 33.9434Z" fill="#B7735E"/>
<path d="M367.628 118.807H332.282C330.327 124.823 329.286 131.098 329.194 137.423C329.201 141.245 328.982 152.411 329.721 159.462C333.469 195.229 336.472 251.204 336.472 251.204C336.472 251.204 339.63 253.312 342.237 253.312C343.166 253.352 344.093 253.203 344.961 252.873C345.83 252.544 346.623 252.041 347.291 251.395L349.752 140.088L354.945 194.985H354.974L352.131 250.823C352.126 250.82 352.652 253.312 356.418 253.312C358.326 253.286 360.22 252.98 362.038 252.403L370.76 194.985H370.791C370.791 194.985 370.176 144.034 368.925 126.767C368.762 124.077 368.328 121.41 367.628 118.807Z" fill="#1C224E"/>
<path d="M361.125 28.8403C360.852 30.1792 361.31 31.4028 362.149 31.5733C362.988 31.7446 363.89 30.7979 364.163 29.461C364.436 28.1226 363.977 26.8989 363.138 26.7285C362.298 26.5567 361.397 27.5025 361.125 28.8403Z" fill="#B7735E"/>
<path d="M337.474 29.4884C337.777 30.8204 338.7 31.7447 339.536 31.5538C340.37 31.3634 340.8 30.13 340.496 28.798C340.192 27.4674 339.269 26.5426 338.434 26.7325C337.6 26.923 337.169 28.1569 337.474 29.4884Z" fill="#B7735E"/>
<path d="M340.347 31.754C340.347 31.9092 340.301 32.0609 340.215 32.1899C340.129 32.3189 340.006 32.4195 339.863 32.4789C339.72 32.5383 339.562 32.5538 339.41 32.5236C339.258 32.4933 339.118 32.4186 339.008 32.3089C338.898 32.1992 338.824 32.0594 338.793 31.9072C338.763 31.755 338.779 31.5973 338.838 31.454C338.897 31.3106 338.998 31.1881 339.127 31.102C339.256 31.0158 339.408 30.9698 339.563 30.9698C339.771 30.9699 339.97 31.0526 340.117 31.1996C340.264 31.3467 340.347 31.5461 340.347 31.754Z" fill="#F2665E"/>
<path d="M362.364 32.5532C362.797 32.5532 363.148 32.2019 363.148 31.7687C363.148 31.3355 362.797 30.9843 362.364 30.9843C361.93 30.9843 361.579 31.3355 361.579 31.7687C361.579 32.2019 361.93 32.5532 362.364 32.5532Z" fill="#F2665E"/>
<path d="M361.557 47.5719C361.557 47.5719 374.532 50.6876 379.034 84.3429L370.535 84.5572C370.535 84.5572 368.404 68.358 367.031 65.5431C364.355 59.8457 362.512 53.7935 361.557 47.5719Z" fill="#F2665E"/>
<path d="M341.37 47.004C341.37 47.004 324.647 49.17 321.574 86.1935L329.988 84.5572C329.988 84.5572 332.118 68.358 333.491 65.5431C337.764 56.7804 341.37 47.004 341.37 47.004Z" fill="#F2665E"/>
<path d="M343.04 80.3048C340.173 79.7645 337.224 79.8226 334.38 80.4757C332.282 81.0382 330.453 82.3274 329.217 84.1134C329.217 84.1134 328.985 85.0836 331.015 84.5294C333.046 83.9747 340.065 83.485 342.792 84.7003L343.04 80.3048Z" fill="#B7735E"/>
<path d="M342.212 86.6363L342.839 80.132L378.889 83.4488C378.889 83.4488 379.569 89.651 378.049 90.5812C375.976 91.8483 342.212 86.6363 342.212 86.6363Z" fill="#F15F5A"/>
<path d="M355.569 82.1481C355.569 82.1481 357.304 81.17 362.776 80.3942C367.267 79.757 368.471 79.9972 369.913 81.2057C370.27 81.505 371.917 83.1891 369.449 82.943C366.123 82.6124 359.643 84.5724 356.483 85.4562L355.569 82.1481Z" fill="#B7735E"/>
<path d="M358.649 87.1949L357.817 80.2291L321.904 83.5768C321.904 83.5768 320.37 90.6061 321.761 91.7457C323.657 93.298 358.649 87.1949 358.649 87.1949Z" fill="#F2665E"/>
<path d="M364.241 26.7076C364.321 9.89759 350.596 11.0177 350.596 11.0177C338.754 11.0177 337.572 23.9288 337.611 25.8019C337.601 26.0278 337.638 26.2533 337.722 26.4635C337.805 26.6737 337.932 26.8637 338.094 27.0211C338.225 27.222 338.414 27.3776 338.637 27.4666C338.859 27.5557 339.103 27.5738 339.336 27.5185C339.569 27.4632 339.78 27.3372 339.938 27.1578C340.097 26.9783 340.196 26.7542 340.222 26.5162C340.43 26.5406 340.64 26.5083 340.831 26.4226C341.022 26.337 341.185 26.2012 341.305 26.0298C341.425 25.8584 341.496 25.6577 341.51 25.4492C341.525 25.2407 341.482 25.0322 341.388 24.8458C341.38 24.7819 341.367 24.7188 341.348 24.6573C341.511 24.6021 341.659 24.5112 341.782 24.3913C341.905 24.2714 341.999 24.1254 342.059 23.9642C342.118 23.803 342.141 23.6305 342.125 23.4595C342.109 23.2885 342.055 23.1231 341.966 22.9757C342.202 22.9614 342.427 22.8756 342.613 22.7298C342.798 22.584 342.935 22.3851 343.004 22.1597C343.073 21.9343 343.072 21.6931 343.001 21.4683C342.93 21.2435 342.792 21.0457 342.605 20.9015C342.63 20.9029 342.654 20.9088 342.68 20.9088C342.88 20.91 343.078 20.8592 343.253 20.7613C343.428 20.6634 343.575 20.5217 343.679 20.3501C343.783 20.1786 343.84 19.983 343.846 19.7825C343.852 19.5819 343.805 19.3834 343.711 19.2062C343.834 19.2509 343.963 19.2745 344.093 19.276C344.265 19.2765 344.434 19.2391 344.59 19.1663C344.745 19.0935 344.883 18.9872 344.992 18.855C345.102 18.7228 345.181 18.568 345.223 18.4017C345.266 18.2354 345.271 18.0617 345.238 17.8932C345.531 17.8747 345.806 17.7462 346.008 17.5335C346.211 17.3208 346.325 17.0396 346.328 16.7462C346.457 16.9077 346.627 17.0317 346.82 17.1055C347.012 17.1793 347.222 17.2 347.425 17.1656C347.629 17.1313 347.82 17.043 347.978 16.91C348.135 16.777 348.255 16.6041 348.323 16.4093C348.48 16.4832 348.65 16.5212 348.823 16.5206C348.996 16.5199 349.167 16.4806 349.322 16.4055C349.478 16.3304 349.615 16.2214 349.723 16.0866C349.831 15.9517 349.907 15.7944 349.946 15.6261C350.036 15.7585 350.153 15.8707 350.289 15.9557C350.424 16.0406 350.576 16.0965 350.734 16.1198C350.893 16.143 351.054 16.1331 351.208 16.0906C351.363 16.0482 351.506 15.9741 351.631 15.8732C351.726 16.1542 351.926 16.3873 352.19 16.5232C352.454 16.659 352.76 16.687 353.044 16.6012C354.004 16.7318 354.939 17.0107 355.814 17.4279C355.979 17.4273 356.143 17.3915 356.293 17.3229C356.312 17.5062 356.374 17.6823 356.475 17.8367C356.575 17.991 356.711 18.1191 356.872 18.2102C357.032 18.3013 357.211 18.3528 357.395 18.3604C357.58 18.368 357.763 18.3315 357.93 18.254L357.948 18.2745C357.946 18.3038 357.94 18.3312 357.94 18.3614C357.94 18.5157 357.97 18.6685 358.03 18.8109C358.09 18.9532 358.177 19.0823 358.287 19.1905C358.151 19.325 358.05 19.491 357.993 19.6739C357.936 19.8568 357.924 20.0509 357.96 20.2391C357.996 20.4274 358.078 20.6038 358.198 20.753C358.318 20.9022 358.473 21.0194 358.65 21.0944C358.611 21.245 358.603 21.4019 358.627 21.5556C358.65 21.7094 358.705 21.8567 358.787 21.9887C358.869 22.1207 358.978 22.2347 359.105 22.3238C359.233 22.4129 359.377 22.4752 359.529 22.507C359.559 22.6746 359.626 22.8336 359.724 22.9726C359.823 23.1117 359.951 23.2274 360.099 23.3116C360.039 23.4702 360.016 23.6403 360.032 23.809C360.047 23.9778 360.101 24.1408 360.189 24.2858C360.05 24.5181 359.998 24.7919 360.042 25.0587C360.086 25.3255 360.223 25.5682 360.429 25.7438C360.419 25.7975 360.414 25.8519 360.412 25.9064C360.413 26.1506 360.49 26.3884 360.634 26.5861C360.777 26.7838 360.979 26.9313 361.211 27.0079C361.243 27.2379 361.344 27.4529 361.5 27.6251C361.656 27.7973 361.86 27.9187 362.086 27.9736C362.311 28.0285 362.548 28.0144 362.766 27.9331C362.984 27.8519 363.172 27.7071 363.306 27.5177C363.513 27.4609 363.704 27.3586 363.866 27.2185C364.027 27.0783 364.156 26.9038 364.241 26.7076Z" fill="#481700"/>
<path d="M77.6505 125.239C76.5432 128.4 75.7218 131.655 75.196 134.963C74.8123 137.246 74.8097 140.825 77.6813 142.32C78.0031 142.488 78.9528 142.542 79.1662 142.265C79.445 141.906 79.4987 141.513 78.9245 140.66C78.471 140.109 78.1373 139.47 77.9446 138.783C77.7519 138.097 77.7045 137.377 77.8053 136.671C77.9542 135.783 78.0387 135.142 78.2057 134.147C78.3625 133.218 79.7625 131.028 80.4514 131.144C81.115 131.256 81.8947 133.718 82.1852 134.233C83.0871 135.826 85.0207 135.792 84.2897 134.031C83.2103 131.585 83.0263 128.836 83.7697 126.268L77.6505 125.239Z" fill="#F8AA97"/>
<path d="M141.844 247.236C142.35 248.242 142.934 250.783 143.577 252.139C145.073 255.286 145.752 256.963 147.723 260.758C148.808 262.85 149.305 267.892 144.397 268.427C139.32 268.981 136.846 264.275 136.493 261.964C135.682 256.632 135.217 253.652 134.27 248.387C133.909 246.381 136.203 245.586 138.223 245.626C139.796 245.659 141.223 246.002 141.844 247.236Z" fill="#5D2610"/>
<path d="M107.282 253.484C107.282 253.484 108.85 254.109 108.194 257.906C107.779 260.306 105.733 260.402 103.767 261.162C101.201 262.158 100.121 268.412 91.593 268.412C86.7688 268.412 86.0696 265.507 88.3894 263.344C92.925 259.115 97.1672 255.912 100.253 253.484H107.282Z" fill="#5D2610"/>
<path d="M134.28 126.3L135.496 47.8243C135.496 45.0109 131.949 42.8317 129.341 41.7736C126.356 40.6843 123.204 40.1265 120.027 40.1256C120.027 40.1256 119.019 46.3038 113.42 46.3038C108.321 46.3038 107.094 40.1256 107.094 40.1256C103.799 40.2899 100.557 41.0251 97.5135 42.2985C94.9178 43.381 92.7914 45.3844 92.4896 48.5279C90.2767 71.6129 91.3255 126.3 91.3255 126.3H134.28Z" fill="#C7D3E3"/>
<path d="M120.164 40.7916C120.164 40.7916 119.434 47.068 113.523 47.068C108.071 47.068 107.095 40.7916 107.095 40.7916V34.3917H120.164V40.7916Z" fill="#F7A08B"/>
<path d="M126.226 27.0001C123.437 36.2696 118.389 38.0753 113.494 38.0753C108.817 38.0753 103.693 35.6671 100.906 26.6232C99.8593 22.4091 99.6544 18.0299 100.303 13.7364C101.96 4.69353 107.596 2.14563 113.629 2.14563C119.82 2.14563 124.794 4.01573 126.753 12.9835C127.663 17.6337 127.482 22.4314 126.226 27.0001Z" fill="#F8AA97"/>
<path d="M95.5196 43.3839C95.5196 43.3839 83.3506 46.7399 77.5752 91.5309L88.5123 93.3595C88.5123 93.3595 90.9966 70.0807 91.3853 66.1334C92.1943 58.4578 93.5762 50.8534 95.5196 43.3839Z" fill="#1C224E"/>
<path d="M84.6603 127.343L76.2773 126.409L77.5473 91.417L88.5923 92.648L84.6603 127.343Z" fill="#1C224E"/>
<path d="M155.685 121.749C157.102 124.784 158.243 127.941 159.096 131.18C159.704 133.412 160.064 136.975 157.355 138.747C157.052 138.947 156.112 139.095 155.873 138.841C155.56 138.512 155.467 138.125 155.954 137.219C156.35 136.626 156.618 135.957 156.742 135.254C156.865 134.552 156.84 133.831 156.669 133.139C156.433 132.27 156.285 131.64 156.02 130.667C155.771 129.757 154.16 127.719 153.486 127.902C152.837 128.08 152.306 130.608 152.068 131.149C151.33 132.824 149.403 132.983 149.955 131.157C150.784 128.615 150.693 125.863 149.698 123.381L155.685 121.749Z" fill="#F8AA97"/>
<path d="M129.75 42.0802C129.75 42.0802 142.194 44.2071 152.401 88.2003L141.702 91.1095C141.702 91.1095 136.042 68.4718 135.261 64.5826C132.902 52.8165 129.75 42.0802 129.75 42.0802Z" fill="#1C224E"/>
<path d="M148.92 124.54L157.167 122.775L152.418 88.084L141.55 90.409L148.92 124.54Z" fill="#1C224E"/>
<path d="M134.299 125.072H91.3066L96.2299 253.343C96.2299 253.343 99.9414 255.386 103.004 255.386C105.142 255.502 107.251 254.842 108.941 253.528L112.212 143.536L113.893 145.008L122.805 198.413H122.839L132.999 250.929C132.994 250.926 133.61 253.34 138.035 253.34C140.264 253.317 142.482 253.021 144.64 252.459L141.389 198.413H141.424L134.299 125.072Z" fill="#080C36"/>
<path d="M134.287 121.298H91.2539V125.296H134.287V121.298Z" fill="#5D2610"/>
<path d="M110.149 120.668V125.927H116.399V120.668H110.149ZM115.651 125.29H110.976V123.77H112.862V122.825H110.976V121.305H115.651V125.29Z" fill="url(#paint1_linear_1615_18155)"/>
<path d="M103.845 125.297C103.845 125.297 105.277 140.868 91.8632 140.464L91.3066 125.297H103.845Z" fill="#000016"/>
<path d="M126.704 125.297C126.704 125.297 123.59 138.302 135.733 139.836L134.29 125.297H126.704Z" fill="#000016"/>
<path d="M106.632 11.1744C106.632 11.1744 102.738 12.8419 102.663 18.4557C102.631 20.8473 102.689 22.0978 100.559 22.839C100.559 22.839 98.7931 18.6822 100.807 10.2457L106.632 11.1744Z" fill="#5D2610"/>
<path d="M121.705 11.2877C121.705 11.2877 124.877 12.6661 124.954 18.2799C124.986 20.6715 124.108 22.9684 126.904 23.4044C126.904 23.4044 128.664 19.0875 126.643 10.3263L121.705 11.2877Z" fill="#5D2610"/>
<path d="M113.69 46.942C115.436 49.5421 117.884 51.5937 120.749 52.8585C120.749 52.8585 120.899 43.8151 122.878 40.3927C121.983 40.2041 121.07 40.1142 120.155 40.1246C120.155 40.1246 117.596 47.0406 113.69 46.942Z" fill="#A1B4D4"/>
<path d="M113.69 46.942C113.69 46.942 110.549 51.8282 106.633 52.8585C106.633 52.8585 106.482 43.8151 104.503 40.3927C105.356 40.2206 106.224 40.1311 107.095 40.1256C107.095 40.1256 110.328 47.2101 113.69 46.942Z" fill="#A1B4D4"/>
<path d="M115.345 54.118L117.053 50.551L113.69 46.942L110.328 50.551L112.036 54.118H115.345Z" fill="#91AAC9"/>
<path d="M117.912 97.822L113.492 103.047L108.782 97.822L112.036 54.118H115.372L117.912 97.822Z" fill="#91AAC9"/>
<path d="M129.286 41.7539C126.365 40.6658 123.272 40.1138 120.155 40.1245L121 126.281C121 126.281 138.11 131.067 137.87 127.021C136.362 101.6 135.441 47.8057 135.441 47.8057C135.441 44.9912 131.895 42.812 129.286 41.7539Z" fill="#1C224E"/>
<path d="M107.095 40.1256C103.825 40.2788 100.604 40.9778 97.565 42.1935C96.2509 42.689 95.105 43.5484 94.2616 44.6714C93.4181 45.7943 92.912 47.1342 92.8023 48.5343C90.5884 71.6188 89.3257 108.324 89.3223 127.579C89.3223 131.649 106.655 126.299 106.655 126.299L107.095 40.1256Z" fill="#1C224E"/>
<path d="M122.748 40.2551C123.39 40.3698 129.75 53.4221 129.75 53.4221L126.363 56.2361L129.436 69.2981L120.683 93.8635L120.155 40.1247C121.022 40.0967 121.889 40.1403 122.748 40.2551Z" fill="#080C36"/>
<path d="M104.619 40.333L97.3301 53.535L100.717 56.348L97.6441 69.411L106.817 94.469L107.094 40.126L104.619 40.333Z" fill="#080C36"/>
<path d="M100.761 10.3946C102.269 12.1463 104.228 13.4518 106.426 14.1696C108.623 14.8874 110.975 14.9903 113.227 14.4669C121.268 12.7579 123.89 10.2457 128.095 10.3263C128.095 10.3263 122.766 1.86189 115.827 1.13589C109.346 0.457094 103.656 1.96502 100.761 10.3946Z" fill="#5D2610"/>
<path d="M101.484 21.4697C101.484 21.4697 102.413 29.5078 106.633 31.2412C106.633 31.2412 112.737 26.4937 118.993 31.2412C120.845 30.6258 122.469 29.4659 123.652 27.913C124.835 26.3602 125.522 24.4866 125.623 22.5371L126.792 24.4971C126.792 24.4971 125.329 38.3257 113.287 38.3257C113.287 38.3257 101.4 39.1514 99.9365 21.5166L101.484 21.4697Z" fill="#5D2610"/>
<path d="M102.207 21.8585C102.557 23.3097 102.104 24.6652 101.193 24.8849C100.284 25.1046 99.2616 24.1056 98.9115 22.6539C98.5609 21.2028 99.0145 19.8473 99.9237 19.6276C100.835 19.4078 101.856 20.4069 102.207 21.8585Z" fill="#F8AA97"/>
<path d="M124.955 22.441C124.605 23.8927 125.058 25.2472 125.968 25.4679C126.879 25.6876 127.901 24.6886 128.251 23.2369C128.602 21.7863 128.148 20.4308 127.238 20.2111C126.327 19.9913 125.305 20.9899 124.955 22.441Z" fill="#F8AA97"/>
<path d="M316.408 247.236C316.914 248.243 317.498 250.783 318.142 252.139C319.637 255.286 320.316 256.963 322.287 260.758C323.373 262.851 323.87 267.892 318.961 268.427C313.885 268.981 311.411 264.275 311.059 261.964C310.246 256.632 309.781 253.652 308.835 248.388C308.473 246.381 310.766 245.586 312.788 245.626C314.361 245.659 315.788 246.002 316.408 247.236Z" fill="#5D2610"/>
<path d="M281.846 253.484C281.846 253.484 283.415 254.109 282.759 257.906C282.344 260.306 280.298 260.402 278.332 261.162C275.765 262.158 274.686 268.413 266.159 268.413C261.334 268.413 260.636 265.508 262.954 263.345C267.489 259.115 271.732 255.912 274.818 253.484H281.846Z" fill="#5D2610"/>
<path d="M308.845 126.3L310.06 47.8253C310.06 45.0109 306.514 42.8317 303.904 41.7736C300.92 40.6843 297.769 40.1265 294.592 40.1256C294.592 40.1256 293.583 46.3038 287.985 46.3038C282.886 46.3038 281.659 40.1256 281.659 40.1256C278.364 40.2899 275.122 41.0251 272.078 42.2985C269.482 43.381 267.356 45.3844 267.054 48.5279C264.841 71.6129 265.89 126.3 265.89 126.3H308.845Z" fill="#EEC868"/>
<path d="M294.729 40.7916C294.729 40.7916 293.997 47.068 288.087 47.068C282.635 47.068 281.659 40.7916 281.659 40.7916V34.3917H294.729V40.7916Z" fill="#A46754"/>
<path d="M300.791 27.0011C298.003 36.2696 292.953 38.0753 288.058 38.0753C283.383 38.0753 278.259 35.6671 275.47 26.6241C274.424 22.41 274.219 18.0308 274.868 13.7374C276.525 4.69453 282.161 2.14563 288.194 2.14563C294.385 2.14563 299.359 4.01573 301.318 12.9835C302.228 17.634 302.047 22.4321 300.791 27.0011Z" fill="#B7735E"/>
<path d="M270.085 43.3849C270.085 43.3849 256.823 45.3971 251.048 90.1876L261.563 91.2174C261.563 91.2174 265.562 70.0807 265.95 66.1334C266.759 58.458 268.141 50.854 270.085 43.3849Z" fill="#EEC868"/>
<path d="M308.864 125.073H265.871L270.794 253.343C270.794 253.343 274.505 255.386 277.567 255.386C279.706 255.502 281.815 254.842 283.507 253.528L286.777 143.536L288.457 145.009L297.369 198.414H297.405L307.562 250.929C307.557 250.926 308.174 253.34 312.601 253.34C314.829 253.317 317.047 253.022 319.204 252.46L315.953 198.414H315.988L308.864 125.073Z" fill="#1C224E"/>
<path d="M308.851 121.298H265.818V125.296H308.851V121.298Z" fill="#5D2610"/>
<path d="M284.713 120.669V125.927H290.964V120.669H284.713ZM290.216 125.29H285.541V123.771H287.427V122.825H285.541V121.305H290.216V125.29Z" fill="url(#paint2_linear_1615_18155)"/>
<path d="M277.273 125.297C277.273 125.297 277.926 138.722 266.379 139.122L265.871 125.297H277.273Z" fill="#01032A"/>
<path d="M301.268 125.297C301.268 125.297 298.153 138.302 310.298 139.836L308.856 125.297H301.268Z" fill="#01032A"/>
<path d="M288.255 46.942C290 49.5421 292.447 51.5938 295.312 52.8585C295.312 52.8585 295.462 43.8151 297.442 40.3927C296.547 40.2042 295.634 40.1143 294.72 40.1246C294.72 40.1246 292.16 47.0405 288.255 46.942Z" fill="#1C224E"/>
<path d="M288.255 46.942C288.255 46.942 285.114 51.8292 281.197 52.8585C281.197 52.8585 281.047 43.8151 279.066 40.3927C279.92 40.221 280.788 40.1316 281.659 40.1256C281.659 40.1256 284.892 47.2106 288.255 46.942Z" fill="#1C224E"/>
<path d="M289.909 54.119L291.618 50.552L288.255 46.942L284.893 50.552L286.601 54.119H289.909Z" fill="#01032A"/>
<path d="M292.476 97.823L288.057 103.048L283.348 97.823L286.601 54.119H289.937L292.476 97.823Z" fill="#01032A"/>
<path d="M273.111 125.073L266.08 130.983L251.048 90.188L261.599 90.894L273.111 125.073Z" fill="#EEC868"/>
<path d="M272.607 125.497C272.607 125.497 275.173 130.344 271.622 133.975C269.651 135.989 268.152 133.914 266.706 130.417L272.607 125.497Z" fill="#B7735E"/>
<path d="M306.006 42.9718C306.006 42.9718 319.267 44.984 325.042 89.775L314.525 90.8043C314.525 90.8043 310.528 69.6676 310.14 65.7198C309.331 58.0447 307.949 50.4408 306.006 42.9718Z" fill="#EEC868"/>
<path d="M302.979 124.66L310.01 130.569L325.042 89.775L314.492 90.482L302.979 124.66Z" fill="#EEC868"/>
<path d="M303.482 125.084C303.482 125.084 300.916 129.931 304.468 133.561C306.438 135.576 307.937 133.5 309.384 130.004L303.482 125.084Z" fill="#B7735E"/>
<path d="M301.207 10.3263C301.207 10.3263 300.132 1.7687 288.628 1.7687C288.628 1.7687 278.293 1.1388 275.372 10.2457C273.357 18.6822 275.123 22.839 275.123 22.839C277.253 22.0978 277.196 20.8473 277.228 18.4557C277.304 12.8419 280.209 11.5465 281.197 11.1754C284.725 9.8488 292.584 9.192 296.451 11.3839C298.092 12.3146 299.14 13.1105 299.517 18.2799C299.692 20.6652 298.672 22.9684 301.469 23.4044C301.469 23.4044 303.227 19.0875 301.207 10.3263Z" fill="#5D2610"/>
<path d="M276.772 21.8585C277.123 23.3097 276.669 24.6652 275.759 24.8849C274.848 25.1046 273.826 24.1056 273.476 22.6549C273.126 21.2028 273.579 19.8483 274.489 19.6276C275.4 19.4078 276.421 20.4069 276.772 21.8585Z" fill="#B7735E"/>
<path d="M299.519 22.4415C299.169 23.8927 299.622 25.2482 300.533 25.4679C301.443 25.6876 302.464 24.6886 302.816 23.2369C303.166 21.7863 302.713 20.4308 301.802 20.2111C300.892 19.9913 299.87 20.9899 299.519 22.4415Z" fill="#B7735E"/>
<path d="M187.14 19.8209C186.984 3.47282 175.616 4.39952 173.831 4.42642C170.233 4.48062 166.656 7.13002 166.656 10.4664C166.722 12.1307 167.444 13.701 168.666 14.8333C169.887 15.9655 171.508 16.5672 173.172 16.5065C174.934 16.5179 176.63 15.8395 177.897 14.6163C178.235 20.2628 176.917 30.1168 179.687 38.2711C184.01 51.0011 195.08 41.2648 195.08 41.2648C191.045 42.1954 187.285 35.2423 187.14 19.8209Z" fill="#5D2610"/>
<path d="M140.067 118.896C138.905 121.658 137.988 124.517 137.328 127.44C136.854 129.456 136.632 132.658 139.053 134.174C139.324 134.345 140.151 134.451 140.355 134.217C140.62 133.914 140.691 133.565 140.242 132.767C139.878 132.242 139.625 131.649 139.498 131.024C139.372 130.399 139.374 129.754 139.506 129.129C139.691 128.344 139.803 127.776 140.01 126.898C140.203 126.076 141.561 124.205 142.157 124.352C142.729 124.493 143.261 126.744 143.484 127.222C144.177 128.703 145.869 128.794 145.337 127.172C144.543 124.914 144.549 122.451 145.356 120.197L140.067 118.896Z" fill="#B7735E"/>
<path d="M189.336 56.8473C188.637 53.0655 187.282 48.4747 183.848 47.1359C181.611 46.3271 179.237 45.9619 176.86 46.0607C176.86 46.0607 176.693 50.3429 172.886 50.7897C169.079 50.3429 168.912 46.0607 168.912 46.0607C166.777 45.8477 164.622 46.1489 162.627 46.9391C159.194 48.2775 157.359 53.2062 156.744 57.0021C154.39 71.5109 157.923 80.1105 157.779 93.4752C157.56 101.802 156.508 110.086 154.641 118.203H189.905C189.854 113.133 188.193 102.419 188.094 93.3712C187.95 80.007 191.923 70.838 189.336 56.8473Z" fill="#C7D3E3"/>
<path d="M177.871 46.878C177.852 47.4531 177.717 48.0184 177.475 48.5402C177.232 49.0619 176.887 49.5293 176.459 49.9143C176.031 50.2994 175.531 50.5941 174.986 50.7808C174.442 50.9676 173.866 51.0425 173.292 51.0011C172.726 51.0408 172.158 50.9637 171.623 50.7745C171.087 50.5854 170.597 50.2883 170.182 49.9016C169.766 49.515 169.435 49.047 169.208 48.5269C168.981 48.0068 168.863 47.4455 168.862 46.878V40.2882H177.871V46.878Z" fill="#A46754"/>
<path d="M183.92 33.5401C180.299 42.5362 176.2 44.0816 173.007 44.0816C170.484 44.0816 165.758 41.1358 162.047 32.5757C160.562 29.1504 160.838 24.46 161.404 21.398C163.016 12.668 169.214 11.1406 173.138 11.1406C177.275 11.1406 183.147 13.0259 185.053 21.6826C185.9 25.6577 185.505 29.7974 183.92 33.5401Z" fill="#B7735E"/>
<path d="M222.74 106.278C225.14 108.073 227.694 109.652 230.372 110.998C232.215 111.945 235.267 112.932 237.323 110.949C237.554 110.727 237.857 109.95 237.68 109.696C237.448 109.366 237.128 109.212 236.244 109.457C235.647 109.684 235.011 109.786 234.373 109.758C233.736 109.729 233.111 109.571 232.537 109.293C231.818 108.924 231.295 108.677 230.492 108.265C229.741 107.879 228.254 106.11 228.539 105.567C228.814 105.046 231.127 105.072 231.645 104.971C233.249 104.657 233.745 103.037 232.043 103.162C229.66 103.388 227.272 102.788 225.279 101.461L222.74 106.278Z" fill="#B7735E"/>
<path d="M168.862 17.8643C168.862 17.8643 172.623 25.0303 185.493 26.6616C185.493 26.6616 186.973 10.9829 173.222 10.4663C173.222 10.4663 159.144 10.3296 160.963 27.0562C160.963 27.0562 164.705 26.2442 168.862 17.8643Z" fill="#5D2610"/>
<path d="M159.918 28.7013C160.102 30.0509 160.937 31.0519 161.782 30.9366C162.63 30.8209 163.166 29.6334 162.983 28.2833C162.799 26.9337 161.964 25.9332 161.117 26.0485C160.27 26.1637 159.734 27.3512 159.918 28.7013Z" fill="#B7735E"/>
<path d="M183.456 28.1832C183.184 29.5177 183.642 30.7384 184.479 30.9093C185.316 31.0802 186.215 30.1363 186.488 28.8014C186.761 27.4669 186.302 26.2462 185.465 26.0753C184.627 25.9044 183.729 26.8483 183.456 28.1832Z" fill="#B7735E"/>
<path d="M162.392 30.92C162.392 31.075 162.346 31.2265 162.26 31.3555C162.174 31.4844 162.052 31.5849 161.909 31.6444C161.766 31.7038 161.608 31.7194 161.456 31.6893C161.304 31.6591 161.164 31.5845 161.055 31.475C160.945 31.3655 160.87 31.2259 160.84 31.0739C160.81 30.9219 160.826 30.7643 160.885 30.6212C160.944 30.478 161.045 30.3557 161.174 30.2696C161.302 30.1836 161.454 30.1377 161.609 30.1378C161.816 30.138 162.015 30.2204 162.162 30.367C162.309 30.5137 162.391 30.7126 162.392 30.92Z" fill="#F2665E"/>
<path d="M185.26 30.92C185.26 31.0748 185.214 31.2262 185.129 31.3549C185.043 31.4837 184.92 31.584 184.777 31.6432C184.634 31.7025 184.477 31.718 184.325 31.6878C184.173 31.6575 184.034 31.583 183.924 31.4735C183.815 31.3639 183.74 31.2244 183.71 31.0726C183.68 30.9207 183.696 30.7634 183.755 30.6204C183.814 30.4774 183.915 30.3552 184.044 30.2693C184.172 30.1834 184.324 30.1377 184.479 30.1378C184.686 30.1381 184.885 30.2206 185.031 30.3673C185.178 30.5139 185.26 30.7127 185.26 30.92Z" fill="#F2665E"/>
<path d="M166.926 12.1862C167.681 11.3021 168.64 10.6151 169.72 10.1847C170.81 9.72746 171.982 9.49528 173.164 9.5021C174.344 9.51754 175.509 9.76766 176.592 10.2379C177.656 10.6894 178.617 11.3523 179.417 12.1862C178.391 11.7844 177.343 11.4401 176.279 11.1549C175.257 10.893 174.207 10.7548 173.152 10.7433C170.995 10.7548 168.868 11.2477 166.926 12.1862Z" fill="#F2665E"/>
<path d="M193.221 246.604C193.652 247.641 194.147 250.257 194.694 251.653C195.963 254.894 196.54 256.621 198.213 260.528C199.136 262.683 199.556 267.875 195.388 268.426C191.079 268.996 188.978 264.15 188.679 261.771C187.99 256.281 187.595 253.211 186.791 247.791C186.485 245.724 188.432 244.904 190.148 244.947C191.483 244.981 192.695 245.334 193.221 246.604Z" fill="#B7735E"/>
<path d="M198.213 260.528C196.944 257.565 196.306 255.857 195.519 253.791C195.747 254.582 196.732 258.414 196.887 259.746C197.109 260.881 196.987 262.056 196.537 263.121C196.249 263.585 195.828 263.951 195.328 264.171C194.829 264.392 194.275 264.456 193.738 264.357C192.777 264.132 190.815 264.111 188.35 256.797C188.227 256.427 187.992 255.44 187.819 255.069C188.09 257.098 188.352 259.16 188.679 261.771C188.979 264.15 191.079 268.996 195.388 268.426C199.557 267.875 199.136 262.683 198.213 260.528Z" fill="#5D2610"/>
<path d="M166.841 250.801C166.841 250.801 168.173 251.445 167.615 255.355C167.264 257.826 165.526 257.924 163.857 258.708C161.678 259.734 160.762 266.173 153.52 266.173C149.424 266.173 148.83 263.182 150.8 260.955C154.65 256.6 158.253 253.302 160.872 250.801H166.841Z" fill="#B7735E"/>
<path d="M167.036 252.26C166.683 253.116 166.387 253.995 166.15 254.891C166.013 255.274 165.812 255.632 165.556 255.949C164.9 256.659 164.089 257.209 163.186 257.555C162.069 258.109 161.089 258.904 160.316 259.883C159.523 260.769 158.534 261.456 157.429 261.891C156.452 262.199 155.402 262.183 154.435 261.846C154.122 261.761 153.83 261.614 153.576 261.413C153.321 261.213 153.109 260.964 152.953 260.68C152.796 260.397 152.698 260.084 152.665 259.762C152.631 259.44 152.663 259.114 152.758 258.805C152.115 259.492 151.462 260.208 150.8 260.955C148.83 263.182 149.424 266.173 153.52 266.173C160.762 266.173 161.678 259.733 163.857 258.708C165.526 257.924 167.264 257.826 167.615 255.355C167.87 254.131 167.816 252.863 167.458 251.666C167.307 251.856 167.166 252.054 167.036 252.26Z" fill="#5D2610"/>
<path d="M193.871 248.825L193.376 193.543C193.376 193.543 191.507 143.561 190.259 126.333C190.097 123.649 189.663 120.988 188.964 118.392H155.08C152.621 124.282 151.285 130.581 151.142 136.963C151.149 140.776 151.584 152.235 152.321 159.269C155.761 192.095 159.519 243.479 160.169 251.47L167.215 251.184L171.131 139.623L177.005 193.753L187.018 248.914L193.871 248.825Z" fill="#B7735E"/>
<path d="M151.147 158.951C152.212 169.095 152.236 183.031 153.351 184.776C155.136 187.57 191.3 186.357 192.929 184.544C194.351 182.962 192.544 149.287 192.249 133.755C192.214 128.108 191.524 122.483 190.193 116.994H154.379C154.379 116.994 150.604 127.239 150.622 136.964C150.629 140.777 150.411 151.917 151.147 158.951Z" fill="#1C224E"/>
<path d="M165.991 119.65L167.543 45.9904C166.289 45.9873 165.041 46.1694 163.84 46.5309C163.84 46.5309 148.439 47.7814 143.25 88.4938L143.241 88.4923L138.796 119.857L146.069 121.215L152.321 90.4313L152.263 90.4191C153.076 85.8155 155.49 72.1378 155.972 69.2325C156.244 77.3702 157.877 84.2994 157.779 93.4752C157.681 102.522 152.303 119.108 153.525 120.814C154.971 122.831 165.991 119.65 165.991 119.65Z" fill="#F2665E"/>
<path d="M201.995 87.9248C197.807 49.5767 184.185 47.1514 184.185 47.1514C182.532 46.6661 180.841 46.3171 179.131 46.1079L179.752 119.003C179.752 119.003 190.213 122.883 191.082 121.21C191.996 119.448 188.192 102.419 188.094 93.3711C188.002 84.8203 189.592 77.9863 190.074 70.5088C190.849 76.354 192.789 94.9473 192.789 94.9473L223.367 107.745L226.438 101.015L201.995 87.9248Z" fill="#F2665E"/>
<path d="M67.0345 32.4215C62.7831 24.3043 62.7098 16.9884 62.3338 13.4093L34.597 13.6754C34.3739 17.9947 33.5687 26.6495 29.8495 31.7701C21.5506 43.1954 24.9325 58.8278 32.9759 58.7198L66.0648 58.8278C74.1073 58.9357 72.37 42.6066 67.0345 32.4215Z" fill="#5D2610"/>
<path d="M13.7722 116.319C12.5593 119.304 11.6043 122.387 10.9177 125.534C10.4236 127.71 10.1936 131.163 12.7141 132.798C12.9968 132.982 13.8586 133.097 14.0705 132.845C14.3469 132.517 14.4211 132.142 13.9529 131.28C13.5727 130.709 13.3091 130.069 13.1775 129.395C13.0458 128.722 13.0487 128.029 13.1858 127.357C13.3796 126.51 13.4968 125.898 13.7112 124.949C13.9133 124.063 15.3269 122.046 15.9485 122.204C16.5447 122.356 17.0989 124.784 17.3323 125.3C18.0515 126.898 19.8142 126.995 19.261 125.246C18.4326 122.806 18.4397 120.159 19.281 117.723L13.7722 116.319Z" fill="#F8AA97"/>
<path d="M37.0266 245.691C36.5789 246.772 36.0623 249.497 35.4929 250.951C34.1707 254.327 33.5691 256.126 31.8269 260.197C30.8665 262.441 30.4265 267.85 34.7688 268.424C39.2581 269.017 41.4465 263.97 41.7585 261.491C42.4768 255.772 42.8879 252.575 43.7258 246.928C44.0447 244.775 42.0159 243.922 40.2293 243.965C38.8376 244.001 37.5754 244.368 37.0266 245.691Z" fill="#F8AA97"/>
<path d="M39.2673 262.892C38.9645 263.333 38.5734 263.707 38.1187 263.99C37.664 264.272 37.1556 264.457 36.6257 264.533C36.0958 264.609 35.5558 264.574 35.0401 264.431C34.5243 264.288 34.0439 264.039 33.6292 263.7C32.5883 262.817 31.9402 261.558 31.8269 260.197C30.8665 262.441 30.4265 267.85 34.7688 268.424C39.2581 269.017 41.4465 263.97 41.7585 261.491C42.2156 257.849 42.5491 255.228 42.947 252.347C42.5891 253.645 41.5715 259.558 39.2673 262.892Z" fill="#5D2610"/>
<path d="M51.8293 249.895C51.8293 249.895 50.4426 250.564 51.0227 254.638C51.3899 257.212 53.2 257.315 54.9387 258.13C57.2087 259.199 58.1638 265.908 65.7058 265.908C69.9739 265.908 70.592 262.792 68.5408 260.471C64.5295 255.936 60.7766 252.5 58.0476 249.895H51.8293Z" fill="#F8AA97"/>
<path d="M68.5408 260.471C67.8513 259.692 67.1714 258.945 66.5012 258.232C66.5999 258.554 66.6327 258.894 66.5978 259.229C66.5629 259.565 66.4609 259.89 66.2979 260.186C66.1349 260.481 65.9143 260.741 65.649 260.949C65.3837 261.158 65.0793 261.311 64.7537 261.4C63.7467 261.751 62.6532 261.768 61.636 261.447C60.4838 260.995 59.4537 260.278 58.6282 259.356C57.8229 258.336 56.8013 257.507 55.637 256.93C54.6967 256.569 53.8519 255.997 53.1677 255.257C52.5228 254.449 52.222 253.42 52.3303 252.391C52.4006 251.551 52.4602 250.724 52.5022 249.895H51.8293C51.8293 249.895 50.4426 250.564 51.0227 254.638C51.3899 257.212 53.2 257.315 54.9387 258.131C57.2087 259.199 58.1638 265.908 65.7058 265.908C69.9739 265.908 70.592 262.792 68.5408 260.471Z" fill="#5D2610"/>
<path d="M65.0947 49.0196C64.3662 45.0807 62.9536 40.2975 59.3779 38.9034C57.0468 38.0611 54.5741 37.6807 52.0976 37.7833C52.0976 37.7833 51.9248 42.2443 47.9589 42.7096C43.9921 42.2443 43.8178 37.7833 43.8178 37.7833C41.5944 37.5617 39.3503 37.8754 37.2729 38.6984C33.6948 40.0929 31.7841 45.2272 31.143 49.1813C28.6904 64.295 32.3715 73.2526 32.2202 87.1744C31.9922 95.8482 30.8977 104.478 28.9531 112.934H65.6865C65.6332 107.652 63.9028 96.4913 63.8002 87.0665C63.6498 73.1446 67.7885 63.5948 65.0947 49.0196Z" fill="#C7D3E3"/>
<path d="M53.1524 38.6353C53.1326 39.2344 52.992 39.8233 52.7392 40.3667C52.4863 40.9102 52.1264 41.397 51.6809 41.798C51.2354 42.199 50.7135 42.5059 50.1465 42.7004C49.5796 42.8948 48.9792 42.9729 48.3814 42.9297C47.7918 42.971 47.2 42.8906 46.6428 42.6936C46.0856 42.4965 45.5749 42.187 45.1423 41.7843C44.7097 41.3816 44.3646 40.8943 44.1282 40.3526C43.8919 39.8108 43.7695 39.2263 43.7686 38.6353V31.77H53.1524V38.6353Z" fill="#F7A08B"/>
<path d="M59.453 24.7404C55.6815 34.1114 51.412 35.7218 48.0843 35.7218C45.4564 35.7218 40.5326 32.6529 36.6673 23.7364C35.1209 20.1686 35.409 15.2819 35.9984 12.0924C37.6771 2.99906 44.1351 1.40686 48.2225 1.40686C52.5306 1.40686 58.6478 3.37066 60.6331 12.3883C61.5163 16.5292 61.1043 20.8416 59.453 24.7404Z" fill="#F8AA97"/>
<path d="M38.5347 38.2731C38.5347 38.2731 22.4131 39.6241 17.0459 83.8492L26.1958 87.2418C26.1958 87.2418 29.733 65.3409 30.3365 61.5597C32.1656 50.1188 38.5347 38.2731 38.5347 38.2731Z" fill="#C7D3E3"/>
<path d="M20.0243 118.82L12.4473 117.356L17.0783 83.5291L26.5353 85.6201L20.0243 118.82Z" fill="#C7D3E3"/>
<path d="M82.6344 116.319C83.8478 119.304 84.803 122.387 85.4894 125.534C85.984 127.71 86.2135 131.163 83.6925 132.798C83.4093 132.982 82.5485 133.097 82.3361 132.845C82.0597 132.517 81.9855 132.142 82.4542 131.28C82.8346 130.709 83.0982 130.069 83.2297 129.395C83.3613 128.722 83.3583 128.029 83.2209 127.357C83.029 126.51 82.9108 125.898 82.6955 124.949C82.4938 124.063 81.0802 122.046 80.4591 122.204C79.8615 122.356 79.3078 124.784 79.0753 125.3C78.3551 126.898 76.5929 126.995 77.1457 125.246C77.974 122.806 77.9671 120.159 77.1261 117.723L82.6344 116.319Z" fill="#F8AA97"/>
<path d="M58.4658 38.603C58.4658 38.603 73.9941 39.624 79.3623 83.8491L69.9448 88.0528C69.9448 88.0528 66.6753 65.3408 66.0708 61.5596C64.2417 50.1187 58.4658 38.603 58.4658 38.603Z" fill="#C7D3E3"/>
<path d="M76.3844 118.82L83.9614 117.356L79.3294 83.5291L69.6064 86.4311L76.3844 118.82Z" fill="#C7D3E3"/>
<path d="M65.6868 112.934H28.9543C26.9234 119.186 25.8416 125.707 25.7449 132.28C25.7517 136.252 25.5251 147.857 26.2927 155.184C30.1882 192.355 33.3093 250.527 33.3093 250.527C33.3093 250.527 36.5916 252.718 39.3001 252.718C40.2649 252.76 41.228 252.604 42.1309 252.262C43.0338 251.919 43.8575 251.397 44.552 250.726L47.1106 135.051L52.5061 192.102H52.5369L49.5813 250.132C49.5779 250.129 50.1228 252.718 54.0374 252.718C56.0201 252.691 57.9881 252.373 59.8782 251.773L68.9426 192.102H68.9749C68.9749 192.102 68.3347 139.153 67.0349 121.207C66.8663 118.411 66.4147 115.639 65.6868 112.934Z" fill="#1C224E"/>
<path d="M38.7162 35.8433C35.9105 28.3013 36.1942 20.73 36.5052 19.3262C37.2103 16.1445 41.9486 16.793 42.864 9.97563C42.864 9.97563 48.9621 4.06013 49.4602 0.022526C49.4602 0.022526 36.6399 -0.829074 34.5876 12.0991C33.761 23.3174 33.1428 30.9795 33.7395 35.8433H38.7162Z" fill="#5D2610"/>
<path d="M56.6462 15.7154C56.6462 15.7154 52.8796 13.3956 53.4934 11.2692C53.4934 11.2692 56.0266 14.8922 59.9206 15.796C60.2561 17.5729 61.3318 28.2428 53.3391 35.8434H62.1809C62.2673 30.8644 62.4983 16.3849 62.3542 13.7511C62.1111 9.32817 59.2209 1.40687 51.5227 0.142675C42.1096 -1.40423 42.2981 10.1378 42.2981 10.1378C42.2981 10.1378 47.3381 17.6139 56.6462 15.7154Z" fill="#5D2610"/>
<path d="M58.4044 19.422C58.1203 20.8126 58.5973 22.0841 59.4694 22.2623C60.3415 22.4401 61.2775 21.4567 61.5617 20.0665C61.8444 18.6759 61.3678 17.4049 60.4962 17.2267C59.6232 17.0489 58.6876 18.0319 58.4044 19.422Z" fill="#F8AA97"/>
<path d="M35.3786 20.1104C35.694 21.4942 36.653 22.4546 37.5216 22.2569C38.3883 22.0586 38.8361 20.7764 38.5202 19.3931C38.2038 18.0098 37.2443 17.0488 36.3776 17.2466C35.5089 17.4448 35.0631 18.7271 35.3786 20.1104Z" fill="#F8AA97"/>
<path d="M48.3809 42.9298C50.1793 44.6669 52.3287 45.9992 54.6846 46.837C54.6846 46.837 54.0303 40.4249 55.711 37.923C54.8615 37.8239 54.0071 37.772 53.1519 37.7677C53.1519 37.7677 51.6954 43.0021 48.3809 42.9298Z" fill="#1C224E"/>
<path d="M48.3808 42.9297C46.5166 44.6103 44.304 45.8581 41.9013 46.584C41.9013 46.584 42.7861 40.2119 41.1064 37.7105C42.0109 37.6804 42.9163 37.7047 43.8178 37.7832C43.8178 37.7832 45.5273 43.126 48.3808 42.9297Z" fill="#1C224E"/>
<path d="M37.5498 22.465C37.5498 22.6263 37.502 22.784 37.4124 22.9181C37.3227 23.0522 37.1953 23.1567 37.0463 23.2184C36.8973 23.2801 36.7333 23.2962 36.5751 23.2647C36.4169 23.2332 36.2716 23.1555 36.1576 23.0414C36.0436 22.9273 35.966 22.782 35.9346 22.6238C35.9031 22.4656 35.9194 22.3016 35.9812 22.1526C36.0429 22.0036 36.1475 21.8763 36.2817 21.7867C36.4158 21.6972 36.5736 21.6494 36.7348 21.6495C36.9511 21.6497 37.1584 21.7356 37.3112 21.8885C37.464 22.0415 37.5499 22.2488 37.5498 22.465Z" fill="#F2665E"/>
<path d="M60.5064 22.465C60.5063 22.6263 60.4584 22.7839 60.3688 22.9179C60.2792 23.052 60.1518 23.1564 60.0028 23.218C59.8538 23.2797 59.6898 23.2957 59.5317 23.2642C59.3736 23.2326 59.2283 23.1549 59.1144 23.0408C59.0004 22.9267 58.9229 22.7814 58.8915 22.6232C58.8602 22.4651 58.8764 22.3011 58.9383 22.1522C59.0001 22.0033 59.1047 21.876 59.2388 21.7866C59.373 21.6971 59.5306 21.6494 59.6919 21.6495C59.7989 21.6496 59.9049 21.6707 60.0037 21.7118C60.1026 21.7528 60.1924 21.8129 60.268 21.8886C60.3437 21.9643 60.4036 22.0542 60.4445 22.1531C60.4854 22.252 60.5064 22.358 60.5064 22.465Z" fill="#F2665E"/>
<path d="M36.082 124.834L3.74609 125.893L4.54101 150.157L36.8769 149.098L36.082 124.834Z" fill="#C7D3E3"/>
<path d="M19.9033 125.62L19.5117 129.229L31.916 130.575L32.3076 126.965L19.9033 125.62Z" fill="#2FB8D3"/>
<path d="M2.61819 125.909L0 150.045L32.1648 153.534L34.783 129.399L2.61819 125.909Z" fill="#2FB8D3"/>
<path d="M26.8907 132.158L24.9883 149.704L29.1622 150.157L31.0646 132.61L26.8907 132.158Z" fill="#0098B9"/>
<path d="M13.1858 127.357C13.3415 126.674 13.4485 126.141 13.5974 125.464H10.9348C10.9294 125.488 10.9241 125.511 10.9177 125.534C10.4236 127.71 10.1936 131.163 12.7141 132.798C12.9968 132.982 13.8586 133.097 14.0705 132.845C14.3469 132.517 14.4211 132.142 13.9529 131.28C13.5727 130.709 13.3091 130.069 13.1775 129.395C13.0458 128.722 13.0487 128.029 13.1858 127.357Z" fill="#F8AA97"/>
<path d="M82.6343 124.514H78.2461V134.133H82.6343V124.514Z" fill="#461600"/>
<path d="M87.9024 133.896H72.9795V174.373H87.9024V133.896Z" fill="#5D2610"/>
<defs>
<linearGradient id="paint0_linear_1615_18155" x1="226.977" y1="168.152" x2="226.977" y2="99.3976" gradientUnits="userSpaceOnUse">
<stop stop-color="#FDCA72"/>
<stop offset="1" stop-color="#FAAD29"/>
</linearGradient>
<linearGradient id="paint1_linear_1615_18155" x1="113.274" y1="166.791" x2="113.274" y2="97.1186" gradientUnits="userSpaceOnUse">
<stop stop-color="#FDCA72"/>
<stop offset="1" stop-color="#FAAD29"/>
</linearGradient>
<linearGradient id="paint2_linear_1615_18155" x1="287.838" y1="166.784" x2="287.838" y2="97.124" gradientUnits="userSpaceOnUse">
<stop stop-color="#FDCA72"/>
<stop offset="1" stop-color="#FAAD29"/>
</linearGradient>
</defs>
</svg>
