<svg width="483" height="268" viewBox="0 0 483 268" fill="none" xmlns="http://www.w3.org/2000/svg">
<path d="M440.081 268H85.8384L85.7188 267.876C75.488 257.302 67.2468 247.084 60.5242 236.637C52.7723 224.663 46.717 211.673 42.531 198.038C35.4533 175.068 31.8996 148.055 32.5245 121.974C33.2359 92.2776 39.339 65.9739 50.1739 45.9069C61.8309 24.3169 78.6159 10.2225 100.063 4.01503C111.386 0.738116 123.319 0.56162 136.546 3.47592C146.973 5.77363 158.316 10.0781 171.222 16.6351C185.502 23.8901 199.434 32.4798 212.908 40.7866C224.593 47.9907 236.675 55.4399 248.929 61.9841C263.719 69.882 277.198 75.5409 290.137 79.2839C305.328 83.6785 319.922 85.3659 333.512 84.2981C345.273 83.3744 357.723 80.5874 369.763 77.8919C388.282 73.7461 407.431 69.4591 424.613 71.8168C433.888 73.0898 441.857 76.1415 448.974 81.1459C456.953 86.7571 463.659 94.6563 469.473 105.295C476.113 117.443 480.272 131.241 481.835 146.306C483.299 160.418 482.462 175.252 479.347 190.396C476.323 205.047 471.368 219.231 464.611 232.578C457.838 245.979 449.625 257.853 440.202 267.872L440.081 268ZM86.1829 267.188H439.73C449.05 257.252 457.177 245.486 463.886 232.212C470.61 218.929 475.542 204.813 478.551 190.233C481.65 175.17 482.482 160.419 481.027 146.389C479.475 131.433 475.348 117.738 468.76 105.684C463.007 95.1576 456.382 87.3484 448.506 81.8104C441.498 76.8823 433.646 73.8765 424.502 72.6217C407.467 70.2832 388.389 74.5544 369.94 78.6847C357.872 81.3862 345.394 84.1798 333.576 85.1078C319.887 86.1833 305.197 84.486 289.911 80.0642C276.917 76.3053 263.387 70.6256 248.547 62.7006C236.27 56.1446 224.177 48.6887 212.482 41.4781C199.022 33.1798 185.104 24.5992 170.854 17.3593C158.01 10.8337 146.731 6.55203 136.371 4.26919C123.28 1.38484 111.478 1.55697 100.289 4.79532C79.0588 10.9399 62.4383 24.9017 50.8886 46.2928C27.1513 90.2566 30.3191 155.647 43.3074 197.799C47.4717 211.364 53.4956 224.286 61.2074 236.197C67.8745 246.558 76.045 256.696 86.1829 267.188Z" fill="#D3DFFF"/>
<path d="M446.663 206.749C472.589 128.774 470.906 7.7274 365.04 0.302608C330.414 -2.12585 295.185 10.5135 263.056 22.0485C236.453 31.5995 202.349 45.6311 194.053 75.7493C190.797 87.5726 189.857 109.137 172.855 107.9C127.685 104.612 75.1965 75.0636 45.1281 126.049C19.2873 169.866 37.0935 232.552 72.6487 267.585H406.065C423.492 250.893 438.278 231.967 446.663 206.749Z" fill="#EAF0FF"/>
<path d="M285.306 193.621H198.389V267.542H285.306V193.621Z" fill="#3A6BEA"/>
<path opacity="0.6" d="M285.306 242.28L198.389 234.493V193.622H285.306V242.28Z" fill="#1F3C88"/>
<path d="M375.167 22.0139H108.531C104.715 22.0139 101.622 25.1072 101.622 28.9229V213.063C101.622 216.879 104.715 219.972 108.531 219.972H375.167C378.982 219.972 382.075 216.879 382.075 213.063V28.9229C382.075 25.1072 378.982 22.0139 375.167 22.0139Z" fill="#3A6BEA"/>
<path d="M368.807 31.3384H114.894V206.124H368.807V31.3384Z" fill="white"/>
<path opacity="0.3" d="M225.783 79.6788V206.124H114.894V74.8049H220.909C221.549 74.8049 222.183 74.931 222.774 75.1759C223.365 75.4209 223.902 75.7799 224.355 76.2325C224.808 76.685 225.167 77.2223 225.412 77.8137C225.657 78.405 225.783 79.0388 225.783 79.6788Z" fill="#86A7FF"/>
<path opacity="0.3" d="M368.806 74.8049V206.124H252.353V79.6788C252.353 78.3862 252.866 77.1465 253.78 76.2325C254.694 75.3184 255.934 74.8049 257.226 74.8049L368.806 74.8049Z" fill="#86A7FF"/>
<path d="M75.8135 186.381C75.8135 188.105 76.4981 189.757 77.7168 190.976C78.9356 192.195 80.5885 192.88 82.312 192.88H208.452C210.176 192.88 211.829 192.195 213.048 190.976C214.266 189.757 214.951 188.105 214.951 186.381V57.4788H75.8135V186.381Z" fill="white"/>
<path d="M208.453 193.285H82.3129C80.4823 193.283 78.7272 192.555 77.4328 191.261C76.1384 189.966 75.4103 188.211 75.4082 186.381V57.0725H215.358V186.381C215.356 188.211 214.628 189.966 213.333 191.261C212.039 192.555 210.284 193.283 208.453 193.285ZM76.2205 57.8848V186.381C76.2223 187.996 76.8648 189.545 78.0069 190.687C79.1491 191.829 80.6976 192.471 82.3129 192.473H208.453C210.068 192.471 211.617 191.829 212.759 190.687C213.901 189.545 214.544 187.996 214.546 186.381V57.8848H76.2205Z" fill="#3A6BEA"/>
<path d="M208.452 43.2412H82.312C80.5885 43.2412 78.9356 43.9259 77.7168 45.1446C76.4981 46.3633 75.8135 48.0162 75.8135 49.7397V57.4785H214.951V49.7397C214.951 48.0162 214.266 46.3633 213.048 45.1446C211.829 43.9259 210.176 43.2412 208.452 43.2412Z" fill="#3A6BEA"/>
<path d="M215.358 57.8846H75.4082V49.7396C75.4103 47.909 76.1384 46.154 77.4328 44.8596C78.7273 43.5652 80.4823 42.837 82.3129 42.835H208.453C210.284 42.837 212.039 43.5652 213.333 44.8596C214.628 46.154 215.356 47.909 215.358 49.7396V57.8846ZM76.2205 57.0723H214.546V49.7396C214.544 48.1244 213.901 46.5758 212.759 45.4337C211.617 44.2916 210.068 43.6491 208.453 43.6473H82.3129C80.6976 43.6491 79.1491 44.2916 78.0069 45.4337C76.8648 46.5758 76.2223 48.1244 76.2205 49.7396V57.0723Z" fill="#3A6BEA"/>
<path d="M86.2406 53.1462C87.8108 53.1462 89.0837 51.8733 89.0837 50.3031C89.0837 48.7329 87.8108 47.46 86.2406 47.46C84.6704 47.46 83.3975 48.7329 83.3975 50.3031C83.3975 51.8733 84.6704 53.1462 86.2406 53.1462Z" fill="white"/>
<path d="M202.648 107.436H88.1172V68.8508H202.648V107.436ZM88.9295 106.623H201.836V69.6631H88.9295V106.623Z" fill="#DADADA"/>
<path d="M202.242 97.1802H88.5234V97.9925H202.242V97.1802Z" fill="#DADADA"/>
<path d="M202.242 87.7373H88.5234V88.5496H202.242V87.7373Z" fill="#DADADA"/>
<path d="M202.242 78.2942H88.5234V79.1065H202.242V78.2942Z" fill="#DADADA"/>
<path d="M191.276 69.2571H190.464V107.03H191.276V69.2571Z" fill="#DADADA"/>
<path d="M179.904 69.2571H179.092V107.03H179.904V69.2571Z" fill="#DADADA"/>
<path d="M168.532 69.2571H167.72V107.03H168.532V69.2571Z" fill="#DADADA"/>
<path d="M157.161 69.2571H156.349V107.03H157.161V69.2571Z" fill="#DADADA"/>
<path d="M145.789 69.2571H144.977V107.03H145.789V69.2571Z" fill="#DADADA"/>
<path d="M134.417 69.2571H133.604V107.03H134.417V69.2571Z" fill="#DADADA"/>
<path d="M123.045 69.2571H122.232V107.03H123.045V69.2571Z" fill="#DADADA"/>
<path d="M111.674 69.2571H110.861V107.03H111.674V69.2571Z" fill="#DADADA"/>
<path d="M100.301 69.2571H99.4883V107.03H100.301V69.2571Z" fill="#DADADA"/>
<path d="M201.738 107.422C200.955 105.835 200.067 104.036 198.665 102.812C197.024 101.378 194.984 101.112 193.469 102.134C193.11 102.4 192.774 102.694 192.463 103.015C191.499 103.949 190.299 105.112 188.764 104.491C187.648 104.039 187.005 103.185 186.384 102.359C186.026 101.839 185.605 101.364 185.132 100.946C183.981 100.009 182.551 100.083 180.633 101.178L180.503 101.252C179.349 101.914 177.913 102.737 176.573 101.173C175.935 100.43 175.771 99.5064 175.613 98.6134C175.479 97.8583 175.353 97.1451 174.955 96.5789C173.786 94.9259 172.168 94.3503 170.516 94.9989C169.68 95.3275 168.709 96.4562 167.681 97.6512C166.186 99.389 164.53 101.314 162.744 101.314C162.281 101.31 161.828 101.184 161.43 100.949C160.011 100.142 160.118 98.3878 160.212 96.8397C160.299 95.4044 160.382 94.0487 159.432 93.4525C158.22 92.692 156.648 94.0518 155.886 95.1515C154.745 96.8002 152.847 98.38 151.182 98.1904C150.475 98.1103 149.496 97.6703 148.841 96.0289C148.319 94.7206 148.401 93.3063 148.481 91.9386C148.536 90.9993 148.587 90.112 148.452 89.2814C148.246 88.0191 147.227 86.3263 145.612 86.5185C144.463 86.6542 143.895 87.6987 143.292 88.8045C142.988 89.4284 142.605 90.0103 142.151 90.5359C141.448 91.2705 140.765 91.5561 140.122 91.385C139.37 91.1851 138.8 90.3847 138.472 89.0703C138.457 89.0074 138.438 88.9246 138.416 88.8271C138.003 87.0067 137.69 86.7431 137.575 86.7142C137.559 86.7104 137.467 86.7328 137.308 86.9169C136.903 87.3843 136.904 88.0845 136.904 88.8256C136.905 89.4564 136.906 90.1085 136.656 90.6889C136.474 91.087 136.194 91.4321 135.841 91.6918C135.489 91.9515 135.076 92.1173 134.642 92.1734C134.052 92.2698 133.448 92.2228 132.88 92.0365C132.312 91.8502 131.797 91.53 131.379 91.1029C130.273 89.8928 129.851 88.04 130.127 85.5961C130.349 83.6289 130.308 78.3414 128.895 77.5313C128.54 77.3286 128.059 77.4509 127.464 77.8958C126.599 78.5426 126.073 80.2758 125.936 81.7067C125.637 84.7677 124.693 87.7308 123.167 90.401C122.695 91.2233 122.013 92.1904 120.92 92.3716C120.627 92.4174 120.327 92.4017 120.039 92.3255C119.752 92.2493 119.483 92.1141 119.251 91.9287C118.509 91.3328 118.033 90.4677 117.927 89.5223C117.868 88.7568 117.9 87.987 118.023 87.2291C118.107 86.6657 118.149 86.0967 118.147 85.527C118.114 84.3454 117.453 83.064 116.406 82.9649C115.864 82.912 114.814 83.8529 113.971 84.6077C112.741 85.7097 111.678 86.6603 110.784 86.3305C110.289 86.1476 109.991 85.6203 109.872 84.7183C109.851 84.5654 109.841 84.3958 109.83 84.2162C109.783 83.4335 109.71 82.8269 109.247 82.7271C109.121 82.6854 108.987 82.6754 108.856 82.698C108.726 82.7207 108.603 82.7752 108.498 82.8568C107.74 83.4815 107.783 85.7579 107.809 87.1179C107.84 87.6312 107.827 88.1463 107.768 88.6573C107.669 89.1213 107.472 89.5586 107.19 89.9397C106.907 90.3208 106.546 90.6367 106.131 90.8659C105.867 91.0092 105.575 91.0898 105.275 91.1012C104.976 91.1127 104.678 91.0548 104.404 90.9321C103.219 90.383 103.005 88.9397 102.951 87.7435L102.584 79.6467C102.541 78.6852 102.381 77.3632 101.503 76.9859C101.348 76.9219 101.182 76.8902 101.014 76.8928C100.847 76.8953 100.681 76.9321 100.529 77.0007C99.8835 77.3027 99.3757 77.8364 99.1065 78.4958C98.9195 78.9741 98.7687 79.4657 98.6555 79.9666C98.4708 80.6943 98.2798 81.4466 97.8768 82.1255C97.6377 82.5171 97.3151 82.8511 96.932 83.1036C96.5489 83.3561 96.1147 83.5209 95.6606 83.5862C95.3726 83.6271 95.0791 83.599 94.8041 83.5044C94.5291 83.4097 94.2805 83.2512 94.0787 83.0419C93.3842 82.3051 93.499 81.3002 93.6002 80.4135C93.6663 79.9843 93.6853 79.5491 93.6569 79.1157C93.6163 78.7708 93.4914 78.4411 93.2931 78.1559C93.0949 77.8707 92.8294 77.6388 92.5202 77.4806C91.9751 77.2066 91.3763 77.0562 90.7665 77.0403C90.1567 77.0243 89.5508 77.1432 88.9922 77.3884L88.6436 76.6548C89.3188 76.3537 90.0529 76.2078 90.7919 76.2277C91.5309 76.2477 92.2561 76.433 92.9141 76.7701C93.3386 76.988 93.7024 77.3079 93.9729 77.701C94.2434 78.0942 94.4121 78.5483 94.4638 79.0227C94.5012 79.5176 94.4822 80.0151 94.4073 80.5058C94.3144 81.3196 94.2341 82.0224 94.6698 82.4847C94.7849 82.6032 94.9271 82.6919 95.0842 82.7432C95.2413 82.7944 95.4085 82.8066 95.5713 82.7788C95.9006 82.7279 96.2148 82.606 96.4923 82.4216C96.7698 82.2372 97.0038 81.9947 97.1783 81.7108C97.5213 81.1329 97.6898 80.4694 97.8682 79.7667C97.9913 79.2262 98.155 78.6958 98.358 78.18C98.7103 77.3206 99.3785 76.6289 100.225 76.2472C100.477 76.1384 100.749 76.0817 101.024 76.0803C101.298 76.079 101.57 76.1332 101.824 76.2396C103.121 76.797 103.342 78.43 103.396 79.61L103.763 87.7067C103.806 88.6735 103.958 89.8299 104.746 90.1951C104.907 90.2671 105.084 90.2998 105.261 90.2905C105.438 90.2811 105.61 90.2301 105.763 90.1415C106.069 89.9682 106.335 89.7322 106.543 89.4489C106.752 89.1655 106.897 88.8413 106.971 88.4976C107.014 88.0442 107.022 87.5882 106.997 87.1336C106.964 85.4331 106.92 83.1043 107.982 82.2298C108.181 82.0707 108.415 81.9609 108.664 81.9094C108.914 81.8578 109.172 81.8659 109.418 81.9331C110.52 82.1706 110.593 83.3721 110.641 84.1671C110.651 84.3318 110.66 84.4875 110.677 84.6116C110.748 85.147 110.893 85.5048 111.066 85.5685C111.499 85.7297 112.616 84.7315 113.429 84.0026C114.538 83.0094 115.586 82.0715 116.482 82.1562C118.033 82.3029 118.916 83.9904 118.959 85.5038C118.962 86.1143 118.919 86.7241 118.829 87.328C118.715 88.0223 118.683 88.7276 118.734 89.4293C118.816 90.1534 119.177 90.8172 119.74 91.28C119.885 91.399 120.052 91.4864 120.233 91.5363C120.413 91.5863 120.602 91.5978 120.788 91.5702C121.544 91.4449 122.08 90.6636 122.462 89.9968C123.931 87.4269 124.839 84.575 125.127 81.6289C125.27 80.1379 125.841 78.0951 126.978 77.2452C127.856 76.5883 128.637 76.4473 129.299 76.8265C131.628 78.1618 130.942 85.6127 130.934 85.6871C130.686 87.8876 131.037 89.5253 131.979 90.5548C132.304 90.8838 132.703 91.1299 133.143 91.2722C133.583 91.4145 134.051 91.4489 134.507 91.3725C134.898 91.3065 135.6 91.0882 135.91 90.368C136.094 89.9417 136.093 89.4001 136.092 88.8267C136.091 88.0088 136.09 87.082 136.694 86.3851C137.123 85.8899 137.517 85.8624 137.773 85.9262C138.573 86.1269 138.933 87.436 139.208 88.6474C139.229 88.7384 139.246 88.8155 139.261 88.8741C139.501 89.8406 139.901 90.4859 140.331 90.6C140.749 90.7112 141.232 90.3211 141.564 89.9743C141.967 89.4997 142.308 88.9761 142.579 88.416C143.222 87.2352 143.951 85.8968 145.516 85.7117C147.467 85.4825 148.948 87.2791 149.254 89.1507C149.403 90.0698 149.347 91.0438 149.292 91.9858C149.217 93.2648 149.14 94.5873 149.595 95.7278C150.002 96.7462 150.566 97.3032 151.273 97.3833C152.601 97.5355 154.247 96.0921 155.218 94.689C156.343 93.0639 158.277 91.7687 159.864 92.7645C161.222 93.6169 161.116 95.3553 161.023 96.889C160.935 98.3277 160.853 99.6866 161.831 100.243C163.544 101.216 165.334 99.1345 167.065 97.1214C168.161 95.848 169.196 94.6452 170.219 94.2429C172.218 93.4575 174.237 94.1558 175.619 96.1107C176.122 96.8254 176.27 97.6624 176.413 98.4718C176.559 99.2935 176.696 100.07 177.189 100.645C178.05 101.649 178.817 101.282 180.099 100.548L180.23 100.472C182.447 99.2065 184.218 99.1554 185.645 100.316C186.169 100.775 186.636 101.297 187.033 101.871C187.613 102.642 188.162 103.371 189.069 103.738C190.041 104.131 190.82 103.476 191.898 102.431C192.242 102.077 192.616 101.752 193.015 101.46C194.844 100.227 197.272 100.517 199.2 102.2C200.724 103.531 201.65 105.407 202.467 107.062L201.738 107.422Z" fill="#3A6BEA"/>
<path d="M118.507 82.8176C118.669 81.8212 117.992 80.8824 116.996 80.7207C116 80.559 115.061 81.2357 114.899 82.232C114.738 83.2284 115.414 84.1672 116.411 84.3289C117.407 84.4906 118.346 83.8139 118.507 82.8176Z" fill="#102048"/>
<path d="M168.014 98.839C169.024 98.839 169.842 98.0207 169.842 97.0113C169.842 96.0019 169.024 95.1836 168.014 95.1836C167.005 95.1836 166.187 96.0019 166.187 97.0113C166.187 98.0207 167.005 98.839 168.014 98.839Z" fill="#102048"/>
<path d="M97.0189 119.685H88.625V181.157H97.0189V119.685Z" fill="#86A7FF"/>
<path d="M114.538 128.15H106.145V181.221H114.538V128.15Z" fill="#D3DFFF"/>
<path d="M132.06 138.832H123.666V181.302H132.06V138.832Z" fill="#86A7FF"/>
<path d="M149.579 145.39H141.186V181.334H149.579V145.39Z" fill="#D3DFFF"/>
<path d="M167.101 135.151H158.707V181.246H167.101V135.151Z" fill="#86A7FF"/>
<path d="M184.619 151.963H176.226V181.304H184.619V151.963Z" fill="#D3DFFF"/>
<path d="M202.141 168.615H193.747V181.581H202.141V168.615Z" fill="#86A7FF"/>
<path d="M262.917 57.4788V186.381C262.917 188.105 263.602 189.757 264.82 190.976C266.039 192.195 267.692 192.88 269.416 192.88H395.556C397.279 192.88 398.932 192.195 400.151 190.976C401.37 189.757 402.054 188.105 402.054 186.381V57.4788H262.917Z" fill="white"/>
<path d="M395.556 193.285H269.415C267.585 193.283 265.83 192.555 264.535 191.261C263.241 189.966 262.513 188.211 262.511 186.381V57.0725H402.46V186.381C402.458 188.211 401.73 189.966 400.436 191.261C399.141 192.555 397.386 193.283 395.556 193.285ZM263.323 57.8848V186.381C263.325 187.996 263.967 189.545 265.109 190.687C266.252 191.829 267.8 192.471 269.415 192.473H395.556C397.171 192.471 398.72 191.829 399.862 190.687C401.004 189.545 401.646 187.996 401.648 186.381V57.8848H263.323Z" fill="#3A6BEA"/>
<path d="M402.054 49.7397C402.054 48.0162 401.37 46.3633 400.151 45.1446C398.932 43.9259 397.279 43.2412 395.556 43.2412H269.416C267.692 43.2412 266.039 43.9259 264.82 45.1446C263.602 46.3633 262.917 48.0162 262.917 49.7397V57.4785H402.054V49.7397Z" fill="#3A6BEA"/>
<path d="M402.46 57.8846H262.511V49.7396C262.513 47.909 263.241 46.154 264.535 44.8596C265.83 43.5651 267.585 42.837 269.415 42.835H395.556C397.386 42.837 399.141 43.5651 400.436 44.8596C401.73 46.154 402.458 47.909 402.46 49.7396V57.8846ZM263.323 57.0723H401.648V49.7396C401.646 48.1244 401.004 46.5758 399.862 45.4337C398.72 44.2916 397.171 43.6491 395.556 43.6473H269.415C267.8 43.6491 266.252 44.2916 265.109 45.4337C263.967 46.5758 263.325 48.1244 263.323 49.7396V57.0723Z" fill="#3A6BEA"/>
<path d="M274.021 53.1462C275.591 53.1462 276.864 51.8733 276.864 50.3031C276.864 48.7329 275.591 47.46 274.021 47.46C272.451 47.46 271.178 48.7329 271.178 50.3031C271.178 51.8733 272.451 53.1462 274.021 53.1462Z" fill="white"/>
<path d="M389.244 119.685H380.85V181.157H389.244V119.685Z" fill="#86A7FF"/>
<path d="M371.724 122.103H363.33V181.175H371.724V122.103Z" fill="#D3DFFF"/>
<path d="M354.203 132.072H345.809V181.238H354.203V132.072Z" fill="#86A7FF"/>
<path d="M336.683 139.011H328.289V181.259H336.683V139.011Z" fill="#D3DFFF"/>
<path d="M319.162 151.794H310.769V181.407H319.162V151.794Z" fill="#86A7FF"/>
<path d="M301.642 162.372H293.248V181.469H301.642V162.372Z" fill="#D3DFFF"/>
<path d="M284.122 168.615H275.729V181.581H284.122V168.615Z" fill="#86A7FF"/>
<path d="M298.586 129.22H282.918C282.598 129.22 282.282 129.283 281.987 129.406C281.692 129.528 281.424 129.707 281.198 129.933C280.972 130.159 280.793 130.427 280.67 130.722C280.548 131.017 280.485 131.333 280.485 131.653V141.226C280.485 141.871 280.742 142.489 281.198 142.945C281.654 143.402 282.273 143.658 282.918 143.658H292.768L295.725 148.31L298.688 143.648C299.314 143.623 299.906 143.357 300.341 142.905C300.775 142.454 301.018 141.852 301.019 141.226V131.653C301.019 131.333 300.956 131.017 300.833 130.722C300.711 130.427 300.532 130.159 300.306 129.933C300.08 129.707 299.812 129.528 299.517 129.406C299.222 129.283 298.906 129.22 298.586 129.22Z" fill="#86A7FF"/>
<path d="M290.751 132.463L291.991 134.974L294.762 135.376L292.756 137.331L293.23 140.09L290.751 138.787L288.273 140.09L288.746 137.331L286.741 135.376L289.512 134.974L290.751 132.463Z" fill="white"/>
<path d="M389.752 107.436H275.221V68.8508H389.752V107.436ZM276.033 106.623H388.94V69.6631H276.033V106.623Z" fill="#DADADA"/>
<path d="M389.345 97.1802H275.626V97.9925H389.345V97.1802Z" fill="#DADADA"/>
<path d="M389.345 87.7373H275.626V88.5496H389.345V87.7373Z" fill="#DADADA"/>
<path d="M389.345 78.2942H275.626V79.1065H389.345V78.2942Z" fill="#DADADA"/>
<path d="M378.379 69.2571H377.566V107.03H378.379V69.2571Z" fill="#DADADA"/>
<path d="M367.008 69.2571H366.195V107.03H367.008V69.2571Z" fill="#DADADA"/>
<path d="M355.636 69.2571H354.823V107.03H355.636V69.2571Z" fill="#DADADA"/>
<path d="M344.263 69.2571H343.451V107.03H344.263V69.2571Z" fill="#DADADA"/>
<path d="M332.891 69.2571H332.079V107.03H332.891V69.2571Z" fill="#DADADA"/>
<path d="M321.52 69.2571H320.708V107.03H321.52V69.2571Z" fill="#DADADA"/>
<path d="M310.148 69.2571H309.336V107.03H310.148V69.2571Z" fill="#DADADA"/>
<path d="M298.776 69.2571H297.964V107.03H298.776V69.2571Z" fill="#DADADA"/>
<path d="M287.404 69.2571H286.592V107.03H287.404V69.2571Z" fill="#DADADA"/>
<path d="M284.93 101.124C284.706 101.123 284.483 101.1 284.263 101.054C282.454 100.689 282.125 99.0638 281.861 97.7577C281.587 96.4041 281.367 95.5698 280.325 95.481C279.126 95.3791 277.079 96.9038 276.075 97.9669L275.484 97.409C276.252 96.5966 278.633 94.5197 280.394 94.6717C282.095 94.8167 282.394 96.2936 282.657 97.5967C282.96 99.0919 283.23 100.017 284.424 100.258C286.406 100.659 287.217 98.6408 287.937 96.3563L290.448 88.3992C290.837 87.167 291.278 85.7702 292.266 84.7259C293.229 83.7073 294.985 83.0659 296.343 83.885C297.357 84.4971 297.873 85.6768 297.875 87.3913C297.875 87.7009 297.866 88.0263 297.856 88.3708C297.819 89.6377 297.777 91.0737 298.238 92.075C298.339 92.3014 298.486 92.5042 298.669 92.6707C298.853 92.8371 299.069 92.9635 299.304 93.0417C299.464 93.0907 299.634 93.103 299.8 93.0776C299.966 93.0523 300.125 92.9898 300.264 92.895C301.208 92.2812 301.321 91.1329 301.441 89.9173C301.516 89.1557 301.594 88.3684 301.891 87.6965C302.443 86.448 303.755 85.9155 305.08 86.4012C307.792 87.3942 307.667 90.6687 307.584 92.8355L307.575 93.0767C307.518 94.6242 307.692 96.7979 308.841 98.3654C309.297 98.9865 309.911 99.3409 310.482 99.3134C310.99 99.2891 311.439 98.9734 311.78 98.4004C312.366 97.4165 312.437 96.0608 312.506 94.7498C312.527 94.351 312.546 93.9744 312.581 93.6112L313.121 87.8606C313.346 85.4784 314.172 84.0538 315.512 83.7405C315.775 83.6663 316.051 83.651 316.321 83.6955C316.59 83.74 316.847 83.8434 317.072 83.9982C317.759 84.4852 318.177 85.482 318.348 87.0457C318.383 87.5119 318.382 87.9801 318.345 88.4462C318.262 90.0887 318.296 91.1886 319.491 91.5008C320.227 91.6929 321.076 91.1657 321.472 90.5448C321.99 89.7326 322.126 88.7088 322.258 87.7186C322.295 87.4355 322.332 87.1544 322.378 86.879C322.695 84.9528 323.092 82.6845 323.639 80.4662L323.646 80.4372C323.952 79.1967 324.37 77.4977 325.672 76.7439C326.655 76.1745 327.434 76.3317 327.914 76.564C329.08 77.1274 329.8 78.7426 329.998 80.0933C330.103 81.0069 330.133 81.9276 330.089 82.8461C330.063 84.0696 330.037 85.3347 330.373 86.4103C330.704 87.4748 331.773 88.811 333.115 88.4489C334.543 88.0628 334.84 86.8275 335.183 85.3974C335.25 85.1193 335.319 84.8318 335.397 84.5543C336.028 82.3181 336.892 79.2555 338.829 77.2789C339.415 76.6854 340.179 76.2994 341.004 76.1795C341.83 76.0596 342.672 76.2123 343.402 76.6145C345.659 77.8595 345.638 80.5783 345.619 82.9771C345.61 84.223 345.601 85.3998 345.886 86.2914C346.259 87.4604 346.899 88.1887 347.787 88.4561C348.114 88.5687 348.462 88.6094 348.807 88.5754C349.152 88.5414 349.485 88.4335 349.784 88.2591C350.874 87.6128 351.53 86.1153 351.781 84.9293L351.888 84.4177C352.4 81.9576 353.102 78.5884 354.69 76.7247C355.758 75.4714 357.192 74.9763 358.623 75.3663C360.165 75.7859 361.355 77.1637 361.656 78.8761C361.692 79.0831 361.724 79.2914 361.756 79.5C361.826 80.1345 361.971 80.7585 362.188 81.3589C362.519 82.1669 363.081 82.6635 363.772 82.7571C364.533 82.8611 365.338 82.4649 365.929 81.7001C366.363 81.0903 366.724 80.4324 367.007 79.7395C367.201 79.3143 367.401 78.8747 367.635 78.4542C369.768 74.632 374.259 73.1334 377.752 73.0055C381.81 72.8569 385.739 74.1341 389.208 75.261L388.957 76.0336C385.552 74.9274 381.695 73.6742 377.782 73.8172C374.51 73.9371 370.313 75.3222 368.345 78.85C368.126 79.2415 367.933 79.6658 367.746 80.0763C367.438 80.8263 367.044 81.538 366.572 82.1971C365.8 83.1943 364.711 83.7039 363.663 83.5621C362.687 83.4297 361.876 82.739 361.436 81.6669C361.194 81.0071 361.032 80.3209 360.953 79.6226C360.922 79.4201 360.891 79.2177 360.856 79.0168C360.609 77.6127 359.649 76.4875 358.41 76.1501C357.294 75.8461 356.164 76.2478 355.308 77.2514C353.855 78.9571 353.178 82.209 352.683 84.5834L352.576 85.0971C352.205 86.8517 351.316 88.295 350.198 88.9579C349.803 89.1914 349.362 89.3369 348.906 89.3845C348.449 89.4322 347.988 89.3808 347.553 89.2339C346.409 88.8897 345.565 87.9576 345.112 86.5386C344.787 85.5234 344.797 84.2835 344.807 82.9708C344.825 80.6926 344.843 78.337 343.01 77.3258C342.435 77.0088 341.772 76.8882 341.122 76.9823C340.472 77.0765 339.871 77.3802 339.409 77.8474C337.618 79.6758 336.786 82.623 336.179 84.7748C336.105 85.0371 336.038 85.3167 335.973 85.587C335.62 87.056 335.22 88.7211 333.327 89.233C331.64 89.6891 330.105 88.2794 329.597 86.6521C329.222 85.4502 329.25 84.1178 329.276 82.8293C329.32 81.9557 329.293 81.0799 329.194 80.2107C329.028 79.0741 328.414 77.7076 327.561 77.2953C327.113 77.0787 326.629 77.1284 326.079 77.4467C325.076 78.0275 324.721 79.4713 324.435 80.6315L324.428 80.6605C323.888 82.8515 323.494 85.1003 323.179 87.011C323.135 87.2781 323.099 87.5508 323.063 87.8254C322.92 88.9032 322.772 90.0178 322.157 90.9818C321.598 91.8573 320.432 92.5867 319.285 92.2868C317.362 91.784 317.461 89.8312 317.534 88.4052C317.567 87.9822 317.57 87.5574 317.541 87.1341C317.363 85.5138 316.932 84.895 316.602 84.6612C316.47 84.5739 316.321 84.5171 316.164 84.4946C316.008 84.4722 315.848 84.4848 315.697 84.5315C314.41 84.8324 314.038 86.794 313.93 87.9366L313.389 93.6873C313.357 94.0337 313.338 94.4021 313.317 94.7922C313.247 96.1362 313.167 97.6595 312.478 98.8161C311.998 99.6226 311.303 100.087 310.521 100.125C309.665 100.168 308.812 99.6995 308.186 98.8458C306.899 97.09 306.702 94.7233 306.763 93.047L306.772 92.8046C306.85 90.7574 306.957 87.9537 304.801 87.1639C303.881 86.8272 303.01 87.1733 302.633 88.025C302.389 88.5776 302.321 89.267 302.25 89.9968C302.122 91.2871 301.978 92.7495 300.706 93.5762C300.47 93.7349 300.201 93.8392 299.92 93.8817C299.638 93.9242 299.351 93.9038 299.078 93.822C298.73 93.7122 298.41 93.53 298.138 93.2874C297.866 93.0449 297.649 92.7474 297.501 92.4147C296.96 91.2405 297.005 89.7034 297.044 88.3472C297.054 88.009 297.063 87.6896 297.063 87.3923C297.061 85.9816 296.678 85.0356 295.923 84.5805C294.93 83.9819 293.601 84.4957 292.856 85.2841C291.996 86.1927 291.586 87.4948 291.223 88.6438L288.717 96.5837C288.167 98.3268 287.284 101.124 284.93 101.124Z" fill="#3A6BEA"/>
<path d="M310.304 101.14C311.314 101.14 312.132 100.322 312.132 99.3126C312.132 98.3032 311.314 97.4849 310.304 97.4849C309.295 97.4849 308.477 98.3032 308.477 99.3126C308.477 100.322 309.295 101.14 310.304 101.14Z" fill="#102048"/>
<path d="M377.929 75.1461C378.939 75.1461 379.757 74.3278 379.757 73.3184C379.757 72.309 378.939 71.4907 377.929 71.4907C376.92 71.4907 376.102 72.309 376.102 73.3184C376.102 74.3278 376.92 75.1461 377.929 75.1461Z" fill="#102048"/>
<path d="M473.309 267.178H0V267.991H473.309V267.178Z" fill="#102048"/>
</svg>
