<svg width="321" height="307" viewBox="0 0 321 307" fill="none" xmlns="http://www.w3.org/2000/svg">
<g clip-path="url(#clip0_1615_18311)">
<g style="mix-blend-mode:multiply">
<path d="M256.376 30.6433H62.6906C58.0398 30.6433 54.2695 34.4136 54.2695 39.0644V169.592C54.2695 174.242 58.0398 178.013 62.6906 178.013H256.376C261.027 178.013 264.797 174.242 264.797 169.592V39.0644C264.797 34.4136 261.027 30.6433 256.376 30.6433Z" fill="#DBDBDB"/>
</g>
<path d="M250.995 26.1987H57.3098C52.6589 26.1987 48.8887 29.969 48.8887 34.6198V165.147C48.8887 169.798 52.6589 173.568 57.3098 173.568H250.995C255.646 173.568 259.416 169.798 259.416 165.147V34.6198C259.416 29.969 255.646 26.1987 250.995 26.1987Z" fill="white"/>
<path d="M259.416 34.6198C259.416 32.3864 258.529 30.2445 256.95 28.6653C255.37 27.086 253.229 26.1988 250.995 26.1987H57.3098C55.0764 26.1987 52.9344 27.086 51.3552 28.6652C49.7759 30.2445 48.8887 32.3864 48.8887 34.6198V47.9532H259.416V34.6198Z" fill="#6434DB"/>
<path d="M216.611 41.3743C218.856 41.3743 220.675 39.5547 220.675 37.3101C220.675 35.0655 218.856 33.2458 216.611 33.2458C214.366 33.2458 212.547 35.0655 212.547 37.3101C212.547 39.5547 214.366 41.3743 216.611 41.3743Z" fill="#E5C0FF"/>
<path d="M229.826 41.3743C232.071 41.3743 233.89 39.5547 233.89 37.3101C233.89 35.0655 232.071 33.2458 229.826 33.2458C227.581 33.2458 225.762 35.0655 225.762 37.3101C225.762 39.5547 227.581 41.3743 229.826 41.3743Z" fill="#E5C0FF"/>
<path d="M243.043 41.3743C245.287 41.3743 247.107 39.5547 247.107 37.3101C247.107 35.0655 245.287 33.2458 243.043 33.2458C240.798 33.2458 238.979 35.0655 238.979 37.3101C238.979 39.5547 240.798 41.3743 243.043 41.3743Z" fill="#E5C0FF"/>
<path d="M183.18 68.9467C181.852 66.0201 161.452 61.4457 154.153 61.4457C146.853 61.4457 126.455 66.0201 125.126 68.9467C121.575 76.7665 124.786 99.5253 124.995 121.446C125.12 134.162 125.902 161.544 127.644 164.609C129.387 167.674 147.064 165.408 154.153 165.408C161.242 165.408 178.919 167.674 180.662 164.609C182.403 161.544 183.187 134.162 183.312 121.446C183.519 99.5253 186.729 76.7665 183.18 68.9467Z" fill="#F3F5F5"/>
<path d="M159.776 105.451C159.565 98.3195 156.833 80.9372 156.833 80.9372C156.833 80.9372 156.275 79.7136 154.153 79.7136C152.03 79.7136 151.471 80.9372 151.471 80.9372C151.471 80.9372 148.74 98.3195 148.528 105.451C148.329 112.148 147.042 127.291 147.891 129.742C148.74 132.194 152.773 140.2 154.153 140.2C155.532 140.2 159.565 132.194 160.414 129.742C161.262 127.291 159.976 112.148 159.776 105.451Z" fill="#BD4547"/>
<path d="M154.153 83.0997C155.129 83.2386 156.126 83.0905 157.02 82.6735C156.903 81.5859 156.833 80.9372 156.833 80.9372C156.833 80.9372 156.275 79.7136 154.153 79.7136C152.029 79.7136 151.471 80.9372 151.471 80.9372C151.471 80.9372 151.4 81.5859 151.284 82.6735C152.179 83.0906 153.175 83.2387 154.153 83.0997Z" fill="#86393D"/>
<path d="M154.152 70.9489C152.177 70.9489 149.28 75.6021 149.28 75.6021C149.28 75.6021 149.668 80.4709 150.839 81.3556C152.009 82.2407 153.32 82.0193 154.152 82.0193C154.982 82.0193 156.295 82.2407 157.465 81.3556C158.634 80.4709 159.024 75.6021 159.024 75.6021C159.024 75.6021 156.126 70.9489 154.152 70.9489Z" fill="#BD4547"/>
<path d="M166.635 63.3971C165.483 59.4897 161.847 59.778 154.153 59.778C146.458 59.778 142.821 59.4897 141.669 63.3971C140.518 67.3057 146.66 80.2156 146.66 80.2156L154.153 73.0055L161.644 80.2156C161.644 80.2156 167.786 67.3057 166.635 63.3971Z" fill="white"/>
<path d="M154.116 139.864C154.116 139.864 141.869 62.6566 141.565 62.2558C141.263 61.8562 122.851 65.7522 121.652 69.0852C120.808 71.428 122.177 95.9155 122.983 105.647C123.791 115.378 124.198 134.22 123.123 140.438C122.047 146.654 122.323 168.946 123.655 170.813C124.988 172.677 141.902 171.2 145.898 170.666C149.896 170.133 155.491 169.508 155.491 169.508L154.116 139.864Z" fill="#4A457D"/>
<path d="M151.294 117.533C150.266 112.656 148.549 98.6632 147.763 95.1959C146.42 89.2498 141.636 62.1564 141.636 62.1564C141.636 62.1564 136.737 62.5555 135.271 65.6199C134.477 67.2797 138.868 78.809 138.868 78.809C138.868 78.809 134.472 82.1418 135.005 84.2724C135.537 86.4026 139.637 101.59 142.465 108.386C145.292 115.179 153.602 139.864 154.116 139.993C154.629 140.121 152.32 122.41 151.294 117.533Z" fill="#544F9C"/>
<path d="M110.067 84.2179C113.531 73.8261 120.916 66.7523 124.513 68.3515C128.11 69.95 127.163 80.89 127.163 87.5001C127.163 91.2279 125.462 101.093 125.11 104.698C124.757 108.304 125.11 124.72 125.11 124.72C125.11 124.72 124.34 139.864 124.596 145.768C124.853 151.672 125.366 168.614 124.083 169.64C122.8 170.666 110.866 170.279 109.001 168.414C107.136 166.55 106.032 154.809 105.859 148.079C105.686 141.347 106.884 127.081 106.884 122.153C106.884 117.222 106.604 94.6085 110.067 84.2179Z" fill="#4A457D"/>
<path d="M123.447 68.3516C123.447 68.3516 125.624 71.8422 126.907 79.7997C128.191 87.7568 125.046 105.52 125.046 105.52C125.046 105.52 125.643 119.352 125.111 125.747C124.577 132.142 124.093 163.274 123.827 168.87" stroke="#544F9C" stroke-width="0.728439" stroke-miterlimit="10"/>
<path d="M154.19 139.864C154.19 139.864 166.437 62.6566 166.739 62.2558C167.044 61.8562 185.455 65.7522 186.654 69.0852C187.498 71.428 186.129 95.9155 185.323 105.647C184.515 115.378 184.108 134.22 185.183 140.438C186.259 146.654 185.982 168.946 184.649 170.813C183.317 172.677 166.404 171.2 162.406 170.666C158.41 170.133 152.815 169.508 152.815 169.508L154.19 139.864Z" fill="#4A457D"/>
<path d="M157.012 117.533C158.039 112.656 159.757 98.6632 160.54 95.1959C161.885 89.2498 166.669 62.1564 166.669 62.1564C166.669 62.1564 171.568 62.5555 173.034 65.6199C173.829 67.2797 169.437 78.809 169.437 78.809C169.437 78.809 173.833 82.1418 173.3 84.2724C172.768 86.4026 168.668 101.59 165.839 108.386C163.012 115.179 154.702 139.864 154.189 139.993C153.675 140.121 155.985 122.41 157.012 117.533Z" fill="#544F9C"/>
<path d="M198.238 84.2179C194.774 73.8261 187.389 66.7523 183.792 68.3515C180.195 69.95 181.142 80.89 181.142 87.5001C181.142 91.2279 182.841 101.093 183.195 104.698C183.547 108.304 183.195 124.72 183.195 124.72C183.195 124.72 183.965 139.864 183.708 145.768C183.452 151.672 182.939 168.614 184.222 169.64C185.505 170.666 197.439 170.279 199.304 168.414C201.169 166.55 202.273 154.809 202.446 148.079C202.619 141.347 201.419 127.081 201.419 122.153C201.419 117.222 201.702 94.6085 198.238 84.2179Z" fill="#4A457D"/>
<path d="M184.858 68.3516C184.858 68.3516 182.682 71.8422 181.397 79.7997C180.115 87.7568 183.259 105.52 183.259 105.52C183.259 105.52 182.663 119.352 183.195 125.747C183.727 132.142 184.212 163.274 184.478 168.87" stroke="#544F9C" stroke-width="0.728439" stroke-miterlimit="10"/>
<path d="M144.199 63.4375L146.717 54.5076C149.136 55.2225 151.63 55.6508 154.149 55.7836C156.67 55.6509 159.167 55.2226 161.589 54.5076L164.105 63.4362C164.105 63.4362 159.452 71.3375 154.149 71.3375C148.848 71.3375 144.199 63.4375 144.199 63.4375Z" fill="#F5C4AF"/>
<path d="M139.028 40.6861C139.028 50.7815 144.682 58.9668 154.152 58.9668C163.623 58.9668 169.276 50.7815 169.276 40.6861C169.276 30.585 165.331 22.4017 154.152 22.4017C142.972 22.4017 139.028 30.585 139.028 40.6861Z" fill="#F5C4AF"/>
<path d="M173.246 40.2247C174.096 43.4628 171.711 47.5908 168.54 48.2059C165.359 48.8209 165.926 44.0358 167.224 41.5076C168.523 38.9881 172.398 36.9887 173.246 40.2247Z" fill="#F5C4AF"/>
<path d="M137.232 38.598C140.407 39.2148 142.782 43.3404 141.939 46.5812C141.091 49.8156 137.216 47.8196 135.919 45.2925C134.621 42.7665 134.056 37.9813 137.232 38.598Z" fill="#F5C4AF"/>
<path d="M154.415 41.2969L154.497 41.6988C154.541 41.9489 154.603 42.306 154.678 42.7347C154.744 43.1541 154.831 43.6472 154.952 44.1184C154.997 44.3289 155.073 44.5319 155.175 44.7214L155.2 44.7625L155.26 44.8509C155.302 44.9143 155.338 44.964 155.373 45.0093L155.611 45.3272C155.802 45.5703 155.975 45.8263 156.13 46.0934C156.357 46.4656 156.451 46.9043 156.395 47.3369C156.354 47.58 156.252 47.8087 156.099 48.0016C156.01 48.0969 155.929 48.1939 155.839 48.2813C155.641 48.4767 155.418 48.6456 155.176 48.7836C154.841 48.978 154.472 49.1079 154.089 49.1663C153.981 49.1848 153.872 49.1932 153.762 49.1917L153.646 49.1896C153.646 49.1896 153.736 49.0611 153.894 48.836C154.045 48.6181 154.268 48.3337 154.485 47.9992C154.612 47.8283 154.68 47.6829 154.794 47.5137C154.851 47.4027 154.92 47.2961 154.985 47.183C154.983 47.1639 154.998 47.132 154.988 47.1248C154.962 47.007 154.916 46.8944 154.853 46.7917C154.754 46.6002 154.594 46.372 154.443 46.1215C154.363 45.9951 154.289 45.8721 154.21 45.722C154.168 45.6466 154.131 45.5746 154.103 45.514L154.057 45.4177L153.995 45.2659C153.877 44.9462 153.817 44.6085 153.817 44.2681C153.811 43.7476 153.863 43.228 153.972 42.7189C154.046 42.3669 154.143 42.0199 154.261 41.68C154.359 41.436 154.415 41.2969 154.415 41.2969Z" fill="#D27D73"/>
<path d="M158.513 42.7436C158.513 43.0817 158.614 43.4119 158.803 43.6926C158.991 43.9733 159.258 44.1918 159.571 44.3205C159.884 44.4491 160.227 44.4821 160.559 44.4152C160.89 44.3484 161.194 44.1847 161.433 43.9449C161.671 43.7052 161.833 43.4001 161.898 43.0683C161.962 42.7365 161.927 42.393 161.797 42.0811C161.666 41.7693 161.446 41.5032 161.164 41.3165C160.883 41.1298 160.552 41.0309 160.214 41.0324C159.761 41.0346 159.328 41.2159 159.01 41.5366C158.691 41.8574 158.512 42.2914 158.513 42.7436Z" fill="#522C31"/>
<path d="M149.792 42.7668C149.778 43.1018 149.667 43.4255 149.471 43.6977C149.276 43.9699 149.004 44.1786 148.691 44.2977C148.378 44.4169 148.036 44.4413 147.709 44.3679C147.382 44.2945 147.084 44.1265 146.851 43.8849C146.619 43.6433 146.463 43.3387 146.402 43.009C146.342 42.6793 146.379 42.339 146.511 42.0306C146.642 41.7221 146.861 41.459 147.14 41.2741C147.42 41.0892 147.748 40.9906 148.083 40.9905C148.312 40.9942 148.538 41.0431 148.748 41.1346C148.958 41.226 149.148 41.358 149.307 41.5231C149.466 41.6882 149.59 41.8831 149.674 42.0966C149.757 42.31 149.797 42.5378 149.792 42.7668Z" fill="#522C31"/>
<path d="M151.069 38.4793C149.985 37.7987 148.721 37.4619 147.442 37.5133C146.734 37.5315 146.041 37.7184 145.42 38.0585C145.123 38.2285 144.857 38.4479 144.634 38.7072C144.428 38.9889 144.238 39.2814 144.063 39.5834C143.902 39.8061 144.237 40.0146 144.421 39.8593C144.67 39.6898 144.949 39.5691 145.243 39.5035C145.512 39.4119 145.794 39.3384 146.069 39.2671C146.337 39.2044 146.608 39.1583 146.882 39.1291C147.123 39.0845 147.368 39.0596 147.614 39.0544C148.635 39.0324 149.65 39.2171 150.598 39.5974C151.263 39.8592 151.634 38.8327 151.069 38.4793Z" fill="#272736"/>
<path d="M157.708 39.5974C158.186 39.4206 158.679 39.2895 159.182 39.2059C159.425 39.1598 159.691 39.103 159.841 39.0879C160.123 39.0584 160.407 39.0472 160.691 39.0544C161.212 39.0626 161.731 39.134 162.235 39.2671C162.51 39.3384 162.792 39.4119 163.061 39.5035C163.356 39.569 163.634 39.6897 163.883 39.8593C164.066 40.013 164.404 39.808 164.241 39.5834C164.043 39.3094 163.922 38.9946 163.7 38.7399C163.48 38.4768 163.217 38.2532 162.922 38.079C162.292 37.7257 161.585 37.5315 160.862 37.5132C159.584 37.4622 158.32 37.7989 157.237 38.4792C157.11 38.5552 157.015 38.6742 156.969 38.8145C156.923 38.9548 156.929 39.107 156.986 39.2432C157.042 39.3803 157.147 39.4921 157.28 39.5574C157.413 39.6227 157.565 39.637 157.708 39.5974Z" fill="#272736"/>
<path d="M160.262 50.1936C159.639 48.8654 158.646 48.7592 157.722 49.3705C156.708 50.1157 155.514 50.5767 154.263 50.7059C153.053 50.5996 151.903 50.1346 150.959 49.3705C150.109 48.7469 148.681 48.445 148.041 49.6957C147.401 50.9463 149.285 53.983 153.07 54.5186C156.858 55.0541 161.182 52.1546 160.262 50.1936Z" fill="white"/>
<path d="M168.634 27.6057C167.712 26.092 166.238 24.9957 164.523 24.5478C164.523 24.5478 162.507 18.9724 157.111 18.7724C149.997 18.5085 143.249 22.9116 141.517 24.4512C139.784 25.9914 138.886 30.0025 138.501 32.3124C138.197 34.8838 138.299 37.4869 138.801 40.0269C139.2 41.8248 140.444 42.6791 140.999 41.8248C142.056 40.1951 143.346 34.3659 143.346 34.3659C143.346 34.3659 143.442 36.5802 144.693 36.6761C145.945 36.7724 149.025 34.2696 150.661 32.7297C152.298 31.1895 154.319 28.8793 154.319 28.8793C154.319 28.8793 153.549 31.382 153.26 32.4409C152.971 33.4997 152.201 34.5585 152.779 35.0399C153.357 35.521 156.822 33.6922 157.785 33.2112C158.803 32.5198 159.742 31.718 160.584 30.8204C160.584 30.8204 160.865 32.9223 160.961 34.0771C161.057 35.2322 161.538 35.4251 162.501 34.3659C163.138 33.4649 163.611 32.458 163.896 31.392C164.307 32.0323 164.646 32.7163 164.907 33.4315C165.637 35.5988 166.527 40.9093 167.306 41.8248C168.084 42.7404 169.104 41.8248 169.503 40.0269C169.903 38.2273 170.233 30.6032 168.634 27.6057Z" fill="#272736"/>
<path d="M162.181 56.9603C159.689 58.4495 156.85 59.2594 153.947 59.3095C151.173 59.2594 148.466 58.4466 146.124 56.9603" stroke="#D27D73" stroke-width="0.728439" stroke-miterlimit="10"/>
<path d="M126.421 0H89.1076C87.0646 2.79165e-05 85.1052 0.81162 83.6606 2.25624C82.216 3.70087 81.4043 5.66019 81.4043 7.7032V27.2826C81.4043 29.3256 82.2159 31.2849 83.6606 32.7295C85.1052 34.1742 87.0645 34.9858 89.1076 34.9858H110.935C110.989 36.8516 111.499 39.9009 114.031 41.89C116.521 43.7528 119.474 44.896 122.569 45.1949C122.569 45.1949 119.801 40.2911 119.697 34.9858H126.421C128.464 34.9858 130.423 34.1742 131.868 32.7295C133.312 31.2849 134.124 29.3256 134.124 27.2826V7.7032C134.124 5.66019 133.312 3.70086 131.868 2.25624C130.423 0.811617 128.464 2.60554e-05 126.421 0Z" fill="#A548F2"/>
<path d="M96.0968 19.4735C97.4533 19.4735 98.5529 18.3738 98.5529 17.0173C98.5529 15.6608 97.4533 14.5612 96.0968 14.5612C94.7403 14.5612 93.6406 15.6608 93.6406 17.0173C93.6406 18.3738 94.7403 19.4735 96.0968 19.4735Z" fill="white"/>
<path d="M107.764 19.4735C109.12 19.4735 110.22 18.3738 110.22 17.0173C110.22 15.6608 109.12 14.5612 107.764 14.5612C106.407 14.5612 105.308 15.6608 105.308 17.0173C105.308 18.3738 106.407 19.4735 107.764 19.4735Z" fill="white"/>
<path d="M119.431 19.4735C120.787 19.4735 121.887 18.3738 121.887 17.0173C121.887 15.6608 120.787 14.5612 119.431 14.5612C118.074 14.5612 116.975 15.6608 116.975 17.0173C116.975 18.3738 118.074 19.4735 119.431 19.4735Z" fill="white"/>
<path d="M48.8887 135.673V165.147C48.8887 167.38 49.7759 169.522 51.3552 171.102C52.9344 172.681 55.0764 173.568 57.3098 173.568H250.995C253.229 173.568 255.37 172.681 256.95 171.102C258.529 169.522 259.416 167.38 259.416 165.147V135.673H48.8887Z" fill="#F1EAFA"/>
<path d="M155.113 143.352C157.536 143.542 159.849 144.446 161.758 145.95C163.667 147.455 165.087 149.491 165.839 151.802C166.591 154.114 166.64 156.596 165.981 158.935C165.322 161.275 163.984 163.366 162.136 164.945C160.288 166.524 158.014 167.52 155.6 167.806C153.187 168.092 150.742 167.656 148.577 166.554C146.411 165.451 144.621 163.73 143.432 161.61C142.244 159.49 141.712 157.065 141.902 154.641C142.157 151.393 143.692 148.378 146.17 146.261C148.647 144.144 151.864 143.098 155.113 143.352Z" fill="#9E00DB"/>
<path d="M159.98 159.612C159.984 159.708 159.967 159.804 159.928 159.892C159.889 159.98 159.83 160.057 159.756 160.118L157.903 161.686C157.809 161.771 157.701 161.838 157.583 161.884C157.461 161.932 157.333 161.963 157.202 161.976C157.195 161.976 157.166 161.974 157.127 161.972C157.082 161.971 157.027 161.969 156.955 161.962C156.689 161.932 156.426 161.884 156.167 161.818C155.71 161.699 155.27 161.525 154.856 161.299C154.247 160.973 153.669 160.593 153.128 160.163C152.392 159.579 151.72 158.917 151.124 158.19C150.619 157.619 150.161 157.008 149.755 156.363C149.439 155.856 149.159 155.328 148.916 154.782C148.733 154.363 148.584 153.93 148.472 153.487C148.392 153.163 148.337 152.832 148.308 152.5C148.283 152.285 148.281 152.068 148.304 151.853C148.328 151.69 148.334 151.608 148.334 151.596C148.365 151.469 148.415 151.347 148.484 151.236C148.544 151.124 148.626 151.026 148.726 150.947L150.584 149.364C150.639 149.31 150.706 149.269 150.78 149.243C150.853 149.218 150.931 149.208 151.009 149.216C151.114 149.224 151.215 149.264 151.297 149.331C151.377 149.407 151.444 149.495 151.498 149.592L152.675 152.324C152.741 152.467 152.752 152.629 152.707 152.78C152.664 152.935 152.575 153.073 152.453 153.178L151.768 153.757C151.747 153.783 151.73 153.811 151.718 153.842C151.705 153.872 151.696 153.904 151.69 153.937C151.72 154.157 151.781 154.373 151.873 154.576C151.993 154.853 152.136 155.119 152.3 155.371C152.543 155.763 152.821 156.131 153.132 156.472C153.427 156.83 153.749 157.165 154.093 157.477C154.317 157.677 154.558 157.859 154.812 158.021C154.953 158.114 155.105 158.19 155.265 158.247L155.422 158.289C155.451 158.291 155.48 158.287 155.507 158.276C155.539 158.271 155.57 158.26 155.597 158.241L156.395 157.544C156.555 157.421 156.756 157.364 156.957 157.383C157.077 157.386 157.193 157.422 157.294 157.487L157.306 157.488L159.686 159.161C159.763 159.212 159.829 159.278 159.88 159.356C159.93 159.434 159.964 159.521 159.98 159.612Z" fill="white"/>
<path d="M131.557 155.603C131.557 156.911 131.169 158.19 130.442 159.277C129.716 160.365 128.683 161.212 127.474 161.713C126.266 162.213 124.936 162.344 123.653 162.089C122.37 161.834 121.192 161.204 120.267 160.279C119.342 159.354 118.712 158.176 118.457 156.893C118.202 155.61 118.333 154.28 118.833 153.072C119.334 151.864 120.182 150.831 121.269 150.104C122.357 149.377 123.635 148.989 124.943 148.989C126.697 148.989 128.38 149.686 129.62 150.926C130.86 152.167 131.557 153.849 131.557 155.603Z" fill="#9C90FF"/>
<path d="M183.362 162.216C187.015 162.216 189.976 159.255 189.976 155.603C189.976 151.95 187.015 148.99 183.362 148.99C179.71 148.99 176.749 151.95 176.749 155.603C176.749 159.255 179.71 162.216 183.362 162.216Z" fill="#9C90FF"/>
<path d="M313.038 306.902C313.559 299.914 314.032 291.042 315.011 282.983C315.851 276.052 317.883 267.536 318.606 265.807C321.004 260.061 319.307 244.234 318.201 239.176L285.075 238.841C285.075 238.841 285.242 250.276 284.726 265.56C284.574 270.011 284.964 292.777 285.406 306.902H313.038Z" fill="#2D2456"/>
<path d="M308.921 239.082L285.075 238.841C285.075 238.841 285.242 250.276 284.726 265.56C284.598 269.299 284.853 285.963 285.2 299.572C287.69 290.601 292.9 281.952 299.184 272.634C306.95 261.118 308.583 245.728 308.921 239.082Z" fill="#191A34"/>
<path d="M283.301 306.902C285.372 295.34 289.948 271.985 294.062 266.068C296.822 262.126 298.775 257.678 299.809 252.978C300.843 248.278 300.938 243.421 300.087 238.685L259.426 239.142L256.601 259.562L255.928 279.125C255.928 279.125 254.971 297.282 254.57 306.902H283.301Z" fill="#2D2456"/>
<path d="M287.732 153.708C284.774 153.969 280.713 154.019 277.288 154.908C272.669 156.106 268.091 158.015 264.096 162.808C260.101 167.602 261.506 177.824 260.938 187.37C260.294 198.198 260.806 212.638 260.236 221.756C259.534 232.984 253.92 267.02 255.324 268.774C256.727 270.528 269.563 264.801 277.078 263.862C285.5 262.809 296.342 262.887 302.342 263.16C310.061 263.511 319.39 265.399 320.587 261.406C321.786 257.411 318.795 221.067 319.535 212.984C320.274 204.9 321.991 184.563 320.237 170.879C317.875 152.461 299.3 152.245 299.3 152.245C299.3 152.245 290.689 153.447 287.732 153.708Z" fill="#403E7D"/>
<path d="M293.219 235.089C293.219 235.089 297.078 220.353 302.342 213.686C307.605 207.019 310.763 195.791 310.763 195.791" stroke="#57528A" stroke-width="0.701759" stroke-miterlimit="10"/>
<path d="M220.828 150.477C220.596 148.88 220.278 147.297 219.874 145.734C219.228 143.305 219.525 141.19 217.638 141.189C215.801 141.189 215.526 143.401 215.48 145.067C215.508 146.587 215.685 148.101 216.009 149.587C216.009 149.587 211.816 144.566 210.492 140.772C209.494 137.921 208.725 135.972 207.838 135.751C206.949 135.528 205.987 136.231 205.839 137.452C205.692 138.672 206.193 140.717 206.8 142.408C207.711 144.954 209.168 147.615 208.996 147.848C208.611 148.363 206.372 144.034 205.432 142.472C204.061 140.204 203.862 137.273 201.967 138.179C200.076 139.086 201.019 141.564 201.608 143.16C202.275 144.962 205.688 150.619 205.467 150.878C205.244 151.138 202.146 146.498 201.373 144.876C200.711 143.489 200.253 140.927 198.885 140.742C197.517 140.556 197.272 142.152 197.366 143.083C197.59 144.418 198.037 145.705 198.691 146.89C199.517 148.497 202.359 152.616 202.101 153.023C201.841 153.43 199.21 149.2 198.587 148.186C197.922 147.104 197.145 145.808 196.11 146.179C195.073 146.548 195.313 148.357 195.775 149.397C196.372 150.739 197.67 152.224 198.365 153.314C199.422 154.97 200.798 156.802 201.859 158.213C204.045 161.125 208.615 165.111 211.084 165.678C213.552 166.244 218.868 164.122 220.139 161.137C221.41 158.15 220.828 150.477 220.828 150.477Z" fill="#FFC4A8"/>
<path d="M209.283 166.246L211.856 171.626L225.189 165.778L221.915 159.462L209.283 166.246Z" fill="white"/>
<path d="M223.551 162.269C223.551 162.269 237.077 178.247 239.884 181.054C242.692 183.861 248.656 188.072 248.656 188.072C248.656 188.072 261.113 163.64 265.85 161.054C270.586 158.468 280.811 162.47 283.744 167.604C287.487 174.154 282.34 187.721 279.066 192.4C276.15 196.565 269.709 206.668 264.095 212.282C258.481 217.896 251.464 223.16 244.863 221.702C241.238 220.901 233.727 214.784 227.604 206.668C221.48 198.552 209.867 172.913 209.867 172.913L223.551 162.269Z" fill="#403E7D"/>
<path d="M282.105 139.026L280.82 154.365C280.82 154.365 283.705 157.084 290.938 156.188C298.172 155.291 301.075 152.814 301.075 152.814L299.207 135.345L282.105 139.026Z" fill="#FFC4A8"/>
<path d="M275.339 121.14C276.308 119.824 277.888 114.421 278.811 112.46C284.653 100.018 298.94 102.027 306.033 107.729C313.128 113.427 310.691 130.201 306.346 134.634C302.006 139.073 293.474 141.606 289.51 142.182C285.542 142.758 280.47 143.052 274.671 140.144C271.634 138.619 273.299 130.338 272.973 129.804C272.243 128.622 270.594 127.009 271.273 125.45C272.726 124.109 274.085 122.669 275.339 121.14Z" fill="#FFC4A8"/>
<path d="M282.213 142.762C282.213 142.762 289.982 142.821 293.518 141.104" stroke="#DC8C7A" stroke-width="0.64959" stroke-miterlimit="10"/>
<path d="M287.398 101.667C286.72 101.407 285.995 101.292 285.27 101.331C284.546 101.369 283.837 101.56 283.191 101.891C281.887 102.633 279.759 105.071 279.894 107.277C280.088 110.461 280.927 112.99 282.524 113.057C284.12 113.124 284.47 109.54 284.47 109.54C285.085 111.334 285.609 113.157 286.04 115.003C286.504 117.271 286.717 119.582 286.676 121.896C286.656 123.042 285.696 125.354 285.803 126.291C285.955 127.608 287.347 127.019 289.057 128.161C290.769 129.302 290.772 129.102 291.934 130.916C293.035 132.636 292.234 136.524 293.342 137.372C294.448 138.219 297.133 137.236 297.133 137.236C297.133 137.236 297.308 140.067 298.481 140.352C299.653 140.638 301.723 138.245 303.734 137.375C306.85 136.027 308.965 135.922 311.572 132.205C313.344 129.679 314.484 126.138 315.161 123.948C315.734 122.107 315.859 120.156 315.526 118.257C315.192 116.358 314.41 114.567 313.244 113.031C313.244 113.031 314.345 109.465 310.369 105.392C306.532 101.458 302.297 100.944 296.356 100.654C293.555 100.518 287.398 101.667 287.398 101.667Z" fill="#272736"/>
<path d="M287.467 126.557C288.538 124.711 293.174 121.295 294.461 125.796C295.65 129.956 291.201 133.681 287.863 132.676C284.525 131.67 286.394 128.402 287.467 126.557Z" fill="#FFC4A8"/>
<path d="M282.276 119.67C282.321 119.685 282.369 119.691 282.416 119.687C282.464 119.684 282.51 119.67 282.552 119.648C282.594 119.625 282.632 119.595 282.661 119.557C282.691 119.52 282.713 119.477 282.725 119.431C282.748 119.285 282.718 119.136 282.641 119.01L282.677 119.285L282.681 119.273L282.585 119.438C282.936 119.091 282.429 118.579 282.181 118.345C281.861 118.039 281.504 117.773 281.119 117.553C280.186 116.979 279.069 116.781 277.994 117C277.923 117.019 277.857 117.052 277.799 117.097C277.741 117.142 277.692 117.199 277.655 117.263C277.619 117.327 277.595 117.397 277.586 117.47C277.577 117.543 277.583 117.617 277.602 117.688C277.622 117.759 277.655 117.826 277.7 117.884C277.746 117.942 277.802 117.99 277.866 118.026C277.93 118.063 278.001 118.086 278.074 118.095C278.147 118.104 278.221 118.098 278.292 118.078C278.356 118.061 278.42 118.045 278.486 118.032C278.507 118.028 278.651 118.005 278.606 118.01C278.566 118.015 278.729 118.001 278.753 118C278.808 117.997 278.864 117.995 278.919 117.995C279.028 117.996 279.137 118.004 279.247 118.013C279.374 118.023 279.202 118.001 279.317 118.022C279.371 118.032 279.424 118.041 279.478 118.053C279.892 118.136 280.289 118.287 280.655 118.499C280.831 118.597 281.003 118.705 281.173 118.813C281.248 118.86 281.322 118.91 281.395 118.96C281.429 118.985 281.463 119.009 281.497 119.034C281.519 119.05 281.541 119.066 281.562 119.082C281.522 119.05 281.515 119.045 281.542 119.066C281.677 119.172 281.804 119.285 281.944 119.383C281.967 119.399 281.988 119.416 282.011 119.431C282.082 119.481 281.943 119.379 282.004 119.427C282.07 119.491 282.154 119.532 282.245 119.545C282.336 119.557 282.429 119.54 282.509 119.496L282.321 119.547L282.333 119.546L282.081 119.442C282.099 119.458 282.114 119.478 282.132 119.493C282.173 119.528 282.091 119.423 282.113 119.468C282.136 119.513 282.103 119.46 282.098 119.424C282.092 119.342 282.115 119.261 282.163 119.193C282.21 119.126 282.28 119.078 282.359 119.056C281.985 119.05 281.964 119.549 282.276 119.67Z" fill="#272736"/>
<path d="M280.337 122.083C280.229 122.359 280.044 122.597 279.804 122.771C279.565 122.944 279.28 123.044 278.985 123.06C278.69 123.075 278.396 123.006 278.139 122.859C277.883 122.712 277.674 122.494 277.537 122.232C277.401 121.969 277.343 121.673 277.371 121.379C277.399 121.084 277.511 120.804 277.693 120.572C277.876 120.339 278.122 120.164 278.402 120.068C278.681 119.971 278.983 119.957 279.27 120.028C279.683 120.16 280.027 120.45 280.227 120.836C280.427 121.221 280.466 121.669 280.337 122.083Z" fill="#522C31"/>
<path d="M273.086 131.484C273.922 132.25 275.027 132.652 276.159 132.604C277.312 132.523 278.425 132.152 279.396 131.525C280.407 130.864 282.268 130.99 282.022 133.653C281.775 136.315 278.232 137.354 275.867 136.544C273.501 135.733 273.086 131.484 273.086 131.484Z" fill="white"/>
<path d="M280.516 150.255L278.12 154.921C278.12 154.921 280.611 158.101 289.709 157.545C298.809 156.989 302.715 153.902 302.715 153.902L300.931 147.667C297.283 148.803 293.58 149.752 289.836 150.511C286.738 150.966 283.584 150.88 280.516 150.255Z" fill="white"/>
<path d="M269.241 73.1001H219.066C216.832 73.1001 214.69 73.9874 213.111 75.5666C211.532 77.1459 210.645 79.2878 210.645 81.5212V102.925C210.645 105.158 211.532 107.3 213.111 108.879C214.69 110.459 216.832 111.346 219.066 111.346H252.313C252.372 113.385 252.93 116.719 255.698 118.893C258.419 120.93 261.648 122.179 265.031 122.506C265.031 122.506 262.003 117.146 261.89 111.346H269.241C271.475 111.346 273.617 110.459 275.196 108.879C276.775 107.3 277.662 105.158 277.662 102.925V81.5212C277.662 79.2878 276.775 77.1459 275.196 75.5666C273.617 73.9874 271.475 73.1001 269.241 73.1001Z" fill="#8404E3"/>
<path d="M225.645 95.7318C227.001 95.7318 228.101 94.6321 228.101 93.2756C228.101 91.9191 227.001 90.8195 225.645 90.8195C224.288 90.8195 223.188 91.9191 223.188 93.2756C223.188 94.6321 224.288 95.7318 225.645 95.7318Z" fill="white"/>
<path d="M237.312 95.7318C238.668 95.7318 239.768 94.6321 239.768 93.2756C239.768 91.9191 238.668 90.8195 237.312 90.8195C235.955 90.8195 234.855 91.9191 234.855 93.2756C234.855 94.6321 235.955 95.7318 237.312 95.7318Z" fill="white"/>
<path d="M248.979 95.7318C250.335 95.7318 251.435 94.6321 251.435 93.2756C251.435 91.9191 250.335 90.8195 248.979 90.8195C247.622 90.8195 246.522 91.9191 246.522 93.2756C246.522 94.6321 247.622 95.7318 248.979 95.7318Z" fill="white"/>
<path d="M260.797 94.1783C260.682 93.389 260.73 92.6864 260.942 92.0704C261.153 91.4351 261.442 90.8673 261.808 90.3668C262.193 89.847 262.588 89.3754 262.992 88.9519C263.396 88.5091 263.733 88.0856 264.002 87.6814C264.291 87.2579 264.436 86.8344 264.436 86.4109C264.436 85.8141 264.253 85.3618 263.887 85.0538C263.54 84.7458 263.078 84.5918 262.501 84.5918C261.962 84.5918 261.481 84.7169 261.057 84.9671C260.653 85.2174 260.258 85.535 259.873 85.92L257.534 83.7833C258.208 82.994 259.017 82.3587 259.96 81.8775C260.903 81.3962 261.933 81.1556 263.05 81.1556C264.089 81.1556 265.013 81.3289 265.822 81.6754C266.649 82.0219 267.304 82.5609 267.785 83.2924C268.266 84.0239 268.507 84.9575 268.507 86.0933C268.507 86.8055 268.363 87.4408 268.074 87.999C267.785 88.538 267.429 89.0385 267.005 89.5005C266.582 89.9625 266.168 90.4245 265.764 90.8865C265.36 91.3293 265.032 91.8201 264.782 92.3591C264.532 92.8789 264.445 93.4853 264.522 94.1783H260.797ZM262.645 101.195C261.914 101.195 261.307 100.945 260.826 100.444C260.345 99.9244 260.104 99.2891 260.104 98.5384C260.104 97.7684 260.345 97.1331 260.826 96.6326C261.307 96.1129 261.914 95.853 262.645 95.853C263.377 95.853 263.983 96.1129 264.464 96.6326C264.965 97.1331 265.215 97.7684 265.215 98.5384C265.215 99.2891 264.965 99.9244 264.464 100.444C263.983 100.945 263.377 101.195 262.645 101.195Z" fill="white"/>
<g style="mix-blend-mode:multiply">
<path d="M95.7618 85.8486H27.6028C24.6805 85.8486 22.3115 88.2176 22.3115 91.1399V214.738C22.3115 217.66 24.6805 220.029 27.6028 220.029H95.7618C98.6841 220.029 101.053 217.66 101.053 214.738V91.1399C101.053 88.2176 98.6841 85.8486 95.7618 85.8486Z" fill="#DBDBDB"/>
</g>
<path d="M90.8497 80.2345H22.6907C19.7684 80.2345 17.3994 82.6035 17.3994 85.5258V209.124C17.3994 212.046 19.7684 214.415 22.6907 214.415H90.8497C93.772 214.415 96.1409 212.046 96.1409 209.124V85.5258C96.1409 82.6035 93.772 80.2345 90.8497 80.2345Z" fill="white"/>
<path d="M96.1409 85.5258C96.141 84.8309 96.0041 84.1428 95.7382 83.5008C95.4723 82.8589 95.0826 82.2755 94.5912 81.7842C94.0999 81.2928 93.5166 80.9031 92.8746 80.6372C92.2326 80.3713 91.5445 80.2345 90.8497 80.2345H22.6907C21.9958 80.2345 21.3077 80.3713 20.6658 80.6372C20.0238 80.9031 19.4404 81.2928 18.9491 81.7842C18.4578 82.2755 18.068 82.8589 17.8021 83.5008C17.5362 84.1428 17.3994 84.8309 17.3994 85.5258V93.9037H96.1409V85.5258Z" fill="#6434DB"/>
<path d="M71.7983 87.2157C71.7982 87.7207 71.6483 88.2144 71.3677 88.6342C71.087 89.054 70.6882 89.3812 70.2216 89.5744C69.755 89.7675 69.2416 89.818 68.7463 89.7194C68.251 89.6208 67.7961 89.3775 67.439 89.0204C67.082 88.6633 66.8389 88.2083 66.7404 87.713C66.6419 87.2177 66.6926 86.7043 66.8859 86.2377C67.0791 85.7712 67.4064 85.3724 67.8263 85.0919C68.2462 84.8114 68.7399 84.6616 69.2449 84.6616C69.5803 84.6617 69.9123 84.7278 70.2222 84.8561C70.532 84.9845 70.8135 85.1727 71.0506 85.4098C71.2877 85.647 71.4758 85.9286 71.6041 86.2384C71.7324 86.5483 71.7984 86.8804 71.7983 87.2157Z" fill="#E5C0FF"/>
<path d="M80.1024 87.2157C80.1023 87.7208 79.9524 88.2144 79.6718 88.6343C79.3911 89.0542 78.9923 89.3814 78.5257 89.5746C78.0591 89.7678 77.5456 89.8183 77.0503 89.7198C76.555 89.6212 76.1 89.378 75.7429 89.0208C75.3858 88.6637 75.1427 88.2087 75.0442 87.7133C74.9457 87.218 74.9962 86.7046 75.1895 86.238C75.3828 85.7714 75.7101 85.3726 76.13 85.092C76.5499 84.8114 77.0436 84.6616 77.5486 84.6616C78.226 84.6617 78.8755 84.9308 79.3545 85.4098C79.8334 85.8888 80.1024 86.5384 80.1024 87.2157Z" fill="#E5C0FF"/>
<path d="M88.4061 87.2157C88.406 87.7208 88.2561 88.2145 87.9755 88.6344C87.6948 89.0542 87.2959 89.3815 86.8293 89.5747C86.3627 89.7679 85.8492 89.8183 85.3539 89.7197C84.8586 89.6211 84.4036 89.3779 84.0465 89.0207C83.6894 88.6635 83.4463 88.2085 83.3478 87.7131C83.2494 87.2178 83.3 86.7043 83.4933 86.2378C83.6866 85.7712 84.014 85.3724 84.4339 85.0919C84.8539 84.8113 85.3476 84.6616 85.8527 84.6616C86.188 84.6617 86.5201 84.7278 86.8299 84.8561C87.1398 84.9845 87.4213 85.1727 87.6584 85.4098C87.8955 85.647 88.0836 85.9286 88.2118 86.2384C88.3401 86.5483 88.4061 86.8804 88.4061 87.2157Z" fill="#E5C0FF"/>
<path d="M81.56 153.607H31.9805V158.282H81.56V153.607Z" fill="#DDCFF0"/>
<path d="M72.8938 164.485H57.4873V169.161H72.8938V164.485Z" fill="#DDCFF0"/>
<path d="M53.979 164.485H23.835V169.161H53.979V164.485Z" fill="#DDCFF0"/>
<path d="M89.7042 164.485H76.4023V169.161H89.7042V164.485Z" fill="#DDCFF0"/>
<path d="M56.052 191.145H40.6455V195.82H56.052V191.145Z" fill="#DDCFF0"/>
<path d="M89.7047 191.145H59.5605V195.82H89.7047V191.145Z" fill="#DDCFF0"/>
<path d="M37.1368 191.145H23.835V195.82H37.1368V191.145Z" fill="#DDCFF0"/>
<path d="M62.3404 173.372H39.5332V178.048H62.3404V173.372Z" fill="#DDCFF0"/>
<path d="M36.0239 173.372H23.835V178.048H36.0239V173.372Z" fill="#DDCFF0"/>
<path d="M89.705 173.372H65.8486V178.048H89.705V173.372Z" fill="#DDCFF0"/>
<path d="M62.3404 200.031H39.5332V204.707H62.3404V200.031Z" fill="#DDCFF0"/>
<path d="M36.0239 200.031H23.835V204.707H36.0239V200.031Z" fill="#DDCFF0"/>
<path d="M89.705 200.031H65.8486V204.707H89.705V200.031Z" fill="#DDCFF0"/>
<path d="M46.9009 182.258H24.0938V186.934H46.9009V182.258Z" fill="#DDCFF0"/>
<path d="M89.7052 182.258H50.4102V186.934H89.7052V182.258Z" fill="#DDCFF0"/>
<mask id="mask0_1615_18311" style="mask-type:luminance" maskUnits="userSpaceOnUse" x="33" y="99" width="48" height="49">
<path d="M56.7697 147.369C69.8827 147.369 80.513 136.739 80.513 123.626C80.513 110.513 69.8827 99.8823 56.7697 99.8823C43.6566 99.8823 33.0264 110.513 33.0264 123.626C33.0264 136.739 43.6566 147.369 56.7697 147.369Z" fill="white"/>
</mask>
<g mask="url(#mask0_1615_18311)">
<path d="M56.7697 147.369C69.8827 147.369 80.513 136.739 80.513 123.626C80.513 110.513 69.8827 99.8823 56.7697 99.8823C43.6566 99.8823 33.0264 110.513 33.0264 123.626C33.0264 136.739 43.6566 147.369 56.7697 147.369Z" fill="#CADDFF"/>
<path d="M74.1077 135.427C73.3142 133.679 61.1297 130.948 56.7701 130.948C52.4098 130.948 40.226 133.679 39.432 135.427C37.3116 140.098 39.2288 153.691 39.3539 166.785C39.4283 174.38 39.8957 190.735 40.9363 192.565C41.9773 194.396 52.5359 193.042 56.7701 193.042C61.0039 193.042 71.5625 194.396 72.6031 192.565C73.6434 190.735 74.1115 174.38 74.1862 166.785C74.3099 153.691 76.227 140.098 74.1077 135.427Z" fill="#F3F5F5"/>
<path d="M60.1283 157.231C60.0022 152.972 58.3705 142.59 58.3705 142.59C58.3705 142.59 58.0371 141.858 56.7697 141.858C55.5015 141.858 55.1677 142.59 55.1677 142.59C55.1677 142.59 53.5364 152.972 53.4099 157.231C53.2913 161.231 52.5228 170.275 53.0296 171.74C53.5364 173.204 55.9459 177.986 56.7697 177.986C57.5934 177.986 60.0022 173.204 60.5097 171.74C61.0155 170.275 60.2479 161.231 60.1283 157.231Z" fill="#BD4547"/>
<path d="M56.7699 143.881C57.3533 143.964 57.9483 143.875 58.4825 143.626C58.4129 142.977 58.3708 142.59 58.3708 142.59C58.3708 142.59 58.0374 141.858 56.7699 141.858C55.5018 141.858 55.168 142.59 55.168 142.59C55.168 142.59 55.1258 142.977 55.0566 143.626C55.591 143.875 56.1863 143.964 56.7699 143.881Z" fill="#86393D"/>
<path d="M56.7702 136.623C55.5904 136.623 53.8604 139.402 53.8604 139.402C53.8604 139.402 54.092 142.31 54.791 142.839C55.3818 143.204 56.0842 143.345 56.7702 143.236C57.4559 143.345 58.1581 143.204 58.7487 142.839C59.4473 142.31 59.68 139.402 59.68 139.402C59.68 139.402 57.9493 136.623 56.7702 136.623Z" fill="#BD4547"/>
<path d="M64.2257 132.113C63.5376 129.779 61.3656 129.95 56.7699 129.95C52.1739 129.95 50.0018 129.779 49.3133 132.113C48.626 134.447 52.2941 142.158 52.2941 142.158L56.7699 137.852L61.2443 142.158C61.2443 142.158 64.9131 134.447 64.2257 132.113Z" fill="white"/>
<path d="M56.7475 177.786C56.7475 177.786 49.4321 131.67 49.2505 131.431C49.07 131.192 38.0728 133.519 37.3566 135.51C36.8526 136.91 37.6705 151.536 38.1519 157.348C38.634 163.16 38.8777 174.414 38.2352 178.128C37.5927 181.841 37.7576 195.157 38.5532 196.271C39.3492 197.384 49.452 196.502 51.8386 196.184C54.2266 195.864 57.5685 195.492 57.5685 195.492L56.7475 177.786Z" fill="#4A457D"/>
<path d="M55.0611 164.448C54.4481 161.534 53.4218 153.177 52.9531 151.106C52.1509 147.554 49.2928 131.371 49.2928 131.371C49.2928 131.371 46.3672 131.61 45.4914 133.44C45.0168 134.431 47.6402 141.318 47.6402 141.318C47.6402 141.318 45.0144 143.309 45.3324 144.581C45.6504 145.853 48.0993 154.925 49.788 158.984C51.4769 163.041 56.4402 177.786 56.7476 177.863C57.054 177.939 55.6748 167.361 55.0611 164.448Z" fill="#544F9C"/>
<path d="M30.4379 144.548C32.5069 138.341 36.9175 134.116 39.0663 135.072C41.2145 136.026 40.6491 142.561 40.6491 146.509C40.6491 148.736 39.6331 154.628 39.423 156.782C39.2117 158.934 39.423 168.74 39.423 168.74C39.423 168.74 38.9632 177.786 39.116 181.312C39.2696 184.838 39.5762 194.958 38.8093 195.57C38.0432 196.184 30.9149 195.952 29.8009 194.838C28.687 193.725 28.0277 186.712 27.9242 182.692C27.8211 178.672 28.5369 170.151 28.5369 167.207C28.5369 164.262 28.369 150.754 30.4379 144.548Z" fill="#4A457D"/>
<path d="M38.4297 135.072C38.4297 135.072 39.73 137.156 40.4959 141.91C41.2631 146.662 39.3847 157.272 39.3847 157.272C39.3847 157.272 39.7414 165.534 39.4234 169.354C39.1044 173.173 38.8152 191.768 38.6562 195.111" stroke="#544F9C" stroke-width="0.67832" stroke-miterlimit="10"/>
<path d="M56.7917 177.786C56.7917 177.786 64.1071 131.67 64.2873 131.431C64.4693 131.192 75.4661 133.519 76.1823 135.51C76.6866 136.91 75.8687 151.536 75.3873 157.348C74.9052 163.16 74.6612 174.414 75.3037 178.128C75.9462 181.841 75.7806 195.157 74.9844 196.271C74.1887 197.384 64.0872 196.502 61.6992 196.184C59.3126 195.864 55.9707 195.492 55.9707 195.492L56.7917 177.786Z" fill="#4A457D"/>
<path d="M58.4786 164.448C59.0913 161.534 60.1175 153.177 60.5856 151.106C61.3888 147.554 64.2465 131.371 64.2465 131.371C64.2465 131.371 67.1724 131.61 68.0483 133.44C68.5225 134.431 65.8992 141.318 65.8992 141.318C65.8992 141.318 68.5253 143.309 68.2072 144.581C67.8893 145.853 65.44 154.925 63.7507 158.984C62.0617 163.041 57.0984 177.786 56.792 177.863C56.485 177.939 57.8649 167.361 58.4786 164.448Z" fill="#544F9C"/>
<path d="M83.1008 144.548C81.0319 138.341 76.6212 134.116 74.4724 135.072C72.3244 136.026 72.8894 142.561 72.8894 146.509C72.8894 148.736 73.9047 154.628 74.1154 156.782C74.3258 158.934 74.1154 168.74 74.1154 168.74C74.1154 168.74 74.5753 177.786 74.4218 181.312C74.2693 184.838 73.963 194.958 74.7294 195.57C75.4956 196.184 82.6239 195.952 83.7379 194.838C84.8515 193.725 85.5111 186.712 85.6143 182.692C85.7177 178.672 85.0013 170.151 85.0013 167.207C85.0013 164.262 85.1698 150.754 83.1008 144.548Z" fill="#4A457D"/>
<path d="M75.1092 135.072C75.1092 135.072 73.8091 137.156 73.0422 141.91C72.2757 146.662 74.1541 157.272 74.1541 157.272C74.1541 157.272 73.7978 165.534 74.1154 169.354C74.4341 173.173 74.7226 191.768 74.8816 195.111" stroke="#544F9C" stroke-width="0.67832" stroke-miterlimit="10"/>
<path d="M50.8242 132.137L52.3282 126.803C53.7729 127.23 55.2628 127.486 56.7673 127.565C58.2732 127.486 59.7645 127.23 61.2108 126.803L62.7137 132.136C62.7137 132.136 59.9347 136.856 56.7673 136.856C53.6011 136.856 50.8242 132.137 50.8242 132.137Z" fill="#F5C4AF"/>
<path d="M47.7363 118.547C47.7363 124.577 51.1135 129.466 56.7694 129.466C62.4267 129.466 65.8029 124.577 65.8029 118.547C65.8029 112.514 63.4465 107.626 56.7694 107.626C50.0918 107.626 47.7363 112.514 47.7363 118.547Z" fill="#F5C4AF"/>
<path d="M68.1741 118.271C68.6816 120.206 67.2572 122.671 65.363 123.038C63.4633 123.407 63.8022 120.548 64.5773 119.038C65.353 117.533 67.6673 116.339 68.1741 118.271Z" fill="#F5C4AF"/>
<path d="M46.6633 117.3C48.5596 117.668 49.9782 120.133 49.4745 122.069C48.9677 124.001 46.6534 122.807 45.8787 121.299C45.1039 119.791 44.7657 116.932 46.6633 117.3Z" fill="#F5C4AF"/>
<path d="M56.926 118.912C56.926 118.912 56.9583 119.001 57.0145 119.155C57.0656 119.308 57.1289 119.524 57.2012 119.774C57.2649 120.021 57.3465 120.312 57.4359 120.573C57.4653 120.678 57.5132 120.778 57.5775 120.867L57.8358 121.187C57.958 121.336 58.0676 121.494 58.1634 121.661C58.3244 121.929 58.388 122.245 58.3433 122.555C58.3123 122.738 58.2346 122.91 58.1178 123.053C58.0606 123.108 58.0099 123.164 57.951 123.212C57.816 123.336 57.6625 123.438 57.4959 123.515C57.2666 123.621 57.0162 123.673 56.7637 123.668C56.6632 123.666 56.5633 123.652 56.4663 123.626C56.4663 123.626 56.5084 123.53 56.582 123.36C56.6472 123.221 56.7407 123.023 56.8524 122.785C56.9147 122.67 56.9264 122.594 56.9781 122.497C57.0066 122.427 57.0456 122.362 57.0803 122.291C57.0539 122.308 57.0484 122.32 57.033 122.358C57.0155 122.44 57.035 122.409 56.974 122.311C56.9271 122.215 56.8346 122.08 56.7475 121.926C56.6999 121.848 56.6578 121.773 56.6091 121.674C56.559 121.577 56.5152 121.477 56.4779 121.374C56.4025 121.162 56.3692 120.937 56.3799 120.712C56.3924 120.388 56.4474 120.068 56.5433 119.759C56.6103 119.545 56.6943 119.338 56.7945 119.138C56.8785 118.994 56.926 118.912 56.926 118.912Z" fill="#D27D73"/>
<path d="M59.3731 119.777C59.3736 119.979 59.434 120.176 59.5467 120.344C59.6593 120.511 59.8191 120.641 60.0059 120.718C60.1927 120.795 60.398 120.814 60.5959 120.774C60.7937 120.734 60.9753 120.636 61.1176 120.493C61.2598 120.35 61.3564 120.168 61.395 119.97C61.4337 119.771 61.4127 119.566 61.3347 119.38C61.2567 119.194 61.1252 119.035 60.9569 118.923C60.7886 118.812 60.5909 118.753 60.3891 118.754C60.1187 118.755 59.8599 118.863 59.6694 119.055C59.479 119.247 59.3724 119.507 59.3731 119.777Z" fill="#522C31"/>
<path d="M54.1641 119.791C54.1563 119.991 54.0898 120.184 53.973 120.347C53.8561 120.509 53.694 120.634 53.5069 120.705C53.3198 120.776 53.1158 120.791 52.9205 120.747C52.7251 120.703 52.547 120.603 52.4082 120.459C52.2694 120.314 52.1761 120.132 52.1399 119.935C52.1037 119.739 52.1262 119.535 52.2045 119.351C52.2829 119.167 52.4137 119.01 52.5807 118.899C52.7477 118.789 52.9435 118.73 53.1437 118.73C53.2805 118.732 53.4155 118.761 53.5409 118.816C53.6663 118.871 53.7797 118.949 53.8745 119.048C53.9694 119.147 54.0438 119.263 54.0935 119.39C54.1432 119.518 54.1672 119.654 54.1641 119.791Z" fill="#522C31"/>
<path d="M54.9655 117.166C54.312 116.739 53.5419 116.527 52.7622 116.559C52.3232 116.569 51.8936 116.688 51.5131 116.907C51.3317 117.015 51.1719 117.156 51.042 117.323C50.9023 117.494 50.8442 117.695 50.7203 117.875C50.607 118.04 50.8434 118.18 50.9768 118.073C51.1268 117.984 51.293 117.927 51.4656 117.903C51.6293 117.856 51.7986 117.82 51.9643 117.781C51.9979 117.773 52.0316 117.765 52.0654 117.759C52.0619 117.76 52.2088 117.734 52.1475 117.743C52.0836 117.752 52.2156 117.737 52.2278 117.735C52.2865 117.729 52.3448 117.723 52.4033 117.715C52.4622 117.706 52.5206 117.697 52.5791 117.687C52.6857 117.668 52.5425 117.689 52.6087 117.683C52.694 117.676 52.7789 117.669 52.8646 117.666C53.0256 117.661 53.1868 117.667 53.3472 117.682C53.3446 117.682 53.4938 117.699 53.4244 117.69C53.3533 117.681 53.4869 117.7 53.5001 117.703C53.5812 117.717 53.661 117.736 53.7418 117.751C54.0429 117.796 54.3393 117.869 54.6272 117.968C54.7297 117.996 54.8389 117.986 54.9343 117.939C55.0297 117.892 55.1047 117.812 55.1451 117.714C55.1856 117.616 55.1897 117.507 55.1567 117.407C55.1238 117.306 55.056 117.221 54.9655 117.166Z" fill="#272736"/>
<path d="M58.9123 117.968C59.2001 117.869 59.4963 117.796 59.7973 117.751C59.87 117.738 59.9418 117.72 60.0146 117.707C60.0555 117.7 60.0965 117.693 60.1376 117.687C60.0571 117.699 60.1226 117.689 60.1668 117.685C60.3355 117.668 60.505 117.662 60.6745 117.666C60.7515 117.668 60.8279 117.676 60.9047 117.681C61.066 117.691 60.843 117.669 60.9346 117.683C60.9769 117.69 61.0188 117.698 61.0611 117.705C61.178 117.723 61.2944 117.73 61.4115 117.746C61.3326 117.735 61.4118 117.747 61.4481 117.754C61.4905 117.762 61.5327 117.771 61.5747 117.781C61.7405 117.82 61.9096 117.856 62.0734 117.903C62.2459 117.927 62.412 117.985 62.562 118.073C62.6941 118.179 62.9327 118.041 62.8186 117.875C62.6999 117.702 62.6461 117.507 62.5137 117.343C62.3856 117.175 62.2279 117.032 62.0482 116.92C61.6624 116.693 61.2246 116.569 60.7768 116.559C59.9974 116.528 59.2274 116.74 58.574 117.166C58.4833 117.221 58.4153 117.306 58.3823 117.407C58.3493 117.507 58.3536 117.616 58.3944 117.714C58.4348 117.812 58.5097 117.893 58.6052 117.939C58.7006 117.986 58.8098 117.997 58.9123 117.968Z" fill="#272736"/>
<path d="M60.4189 124.226C60.3787 124.072 60.3004 123.931 60.1913 123.816C60.0822 123.7 59.9458 123.614 59.7946 123.565C59.6434 123.516 59.4824 123.506 59.3262 123.536C59.1701 123.565 59.024 123.634 58.9013 123.735C58.2965 124.18 57.5833 124.455 56.8361 124.532C56.1134 124.468 55.426 124.191 54.862 123.735C54.355 123.362 53.5018 123.182 53.1193 123.929C52.7373 124.676 53.8625 126.49 56.1234 126.81C58.3859 127.129 60.9689 125.398 60.4189 124.226Z" fill="white"/>
<path d="M65.419 110.734C64.868 109.83 63.9873 109.175 62.9628 108.908C62.9628 108.908 61.759 105.578 58.5357 105.459C54.2871 105.301 50.2564 107.931 49.222 108.85C48.1868 109.771 47.6499 112.167 47.4203 113.546C47.2391 115.082 47.2997 116.637 47.5998 118.154C47.8379 119.227 48.5812 119.738 48.9122 119.227C49.5437 118.254 50.314 114.773 50.314 114.773C50.314 114.773 50.3719 116.095 51.1189 116.152C51.8666 116.21 53.7063 114.715 54.6839 113.796C55.6608 112.875 56.8687 111.495 56.8687 111.495C56.8687 111.495 56.4085 112.99 56.2361 113.623C56.0634 114.255 55.6033 114.887 55.9487 115.174C56.2937 115.462 58.3633 114.37 58.9383 114.083C59.5466 113.67 60.1074 113.191 60.6104 112.655C60.6104 112.655 60.7784 113.91 60.8356 114.6C60.8931 115.29 61.1806 115.405 61.7553 114.773C62.136 114.235 62.4182 113.633 62.5886 112.997C62.8344 113.379 63.0369 113.787 63.1924 114.214C63.6286 115.509 64.16 118.681 64.6253 119.227C65.09 119.774 65.6996 119.227 65.9381 118.154C66.1766 117.079 66.3739 112.525 65.419 110.734Z" fill="#272736"/>
<path d="M61.5642 128.268C60.0755 129.157 58.3798 129.641 56.6461 129.671C54.9894 129.641 53.3729 129.156 51.9736 128.268" stroke="#D27D73" stroke-width="0.67832" stroke-miterlimit="10"/>
</g>
<path d="M109.114 202.831C106.419 200.136 103.019 198.254 99.3031 197.401C95.5875 196.549 91.707 196.761 88.1061 198.012C84.5052 199.263 81.3296 201.503 78.9432 204.476C76.5568 207.449 75.0561 211.034 74.6131 214.82C74.1701 218.606 74.8026 222.441 76.4383 225.884C78.0739 229.327 80.6465 232.24 83.8613 234.289C87.076 236.338 90.8029 237.44 94.6149 237.468C98.4269 237.496 102.17 236.45 105.415 234.45L119.383 248.417C119.739 248.773 120.161 249.055 120.626 249.247C121.091 249.44 121.589 249.539 122.092 249.539C122.595 249.539 123.093 249.44 123.558 249.247C124.023 249.055 124.445 248.773 124.801 248.417L126.005 247.213C126.723 246.495 127.127 245.52 127.127 244.504C127.127 243.488 126.723 242.513 126.005 241.795L112.037 227.827C114.434 223.94 115.449 219.358 114.918 214.822C114.388 210.286 112.343 206.061 109.114 202.831ZM104.921 227.332C102.912 229.341 100.354 230.708 97.5684 231.262C94.783 231.816 91.8958 231.532 89.272 230.445C86.6482 229.358 84.4056 227.518 82.8278 225.157C81.2499 222.795 80.4078 220.019 80.4078 217.179C80.4078 214.339 81.2499 211.563 82.8278 209.201C84.4056 206.84 86.6482 205 89.272 203.913C91.8958 202.826 94.783 202.542 97.5684 203.096C100.354 203.65 102.912 205.017 104.921 207.026C106.254 208.359 107.312 209.942 108.034 211.684C108.756 213.426 109.127 215.293 109.127 217.179C109.127 219.065 108.756 220.932 108.034 222.674C107.312 224.416 106.254 225.999 104.921 227.332Z" fill="#9E00DB"/>
<path opacity="0.5" d="M104.921 227.332C102.913 229.341 100.354 230.708 97.5688 231.262C94.7834 231.816 91.8962 231.532 89.2724 230.445C86.6486 229.358 84.406 227.518 82.8282 225.157C81.2504 222.795 80.4082 220.019 80.4082 217.179C80.4082 214.339 81.2504 211.563 82.8282 209.201C84.406 206.84 86.6486 205 89.2724 203.913C91.8962 202.826 94.7834 202.542 97.5688 203.096C100.354 203.65 102.913 205.017 104.921 207.026C106.255 208.359 107.312 209.942 108.034 211.684C108.756 213.426 109.127 215.293 109.127 217.179C109.127 219.065 108.756 220.932 108.034 222.674C107.312 224.416 106.255 225.999 104.921 227.332Z" fill="white"/>
<g opacity="0.6">
<mask id="mask1_1615_18311" style="mask-type:luminance" maskUnits="userSpaceOnUse" x="80" y="202" width="30" height="30">
<path d="M104.921 227.332C102.913 229.341 100.354 230.708 97.5688 231.262C94.7834 231.816 91.8962 231.532 89.2724 230.445C86.6486 229.358 84.406 227.518 82.8282 225.157C81.2504 222.795 80.4082 220.019 80.4082 217.179C80.4082 214.339 81.2504 211.563 82.8282 209.201C84.406 206.84 86.6486 205 89.2724 203.913C91.8962 202.826 94.7834 202.542 97.5688 203.096C100.354 203.65 102.913 205.017 104.921 207.026C106.255 208.359 107.312 209.942 108.034 211.684C108.756 213.426 109.127 215.293 109.127 217.179C109.127 219.065 108.756 220.932 108.034 222.674C107.312 224.416 106.255 225.999 104.921 227.332Z" fill="white"/>
</mask>
<g mask="url(#mask1_1615_18311)">
<path d="M111.92 203.212L79.998 235.138L83.229 238.368L115.151 206.443L111.92 203.212Z" fill="white"/>
<path d="M116.591 207.884L84.668 239.807L85.8793 241.019L117.802 209.096L116.591 207.884Z" fill="white"/>
<path d="M103.669 194.962L71.7461 226.886L72.9574 228.097L104.881 196.174L103.669 194.962Z" fill="white"/>
</g>
</g>
<path d="M38.8304 78.1288C38.8305 81.9688 37.6919 85.7226 35.5585 88.9155C33.4252 92.1084 30.3929 94.5969 26.8452 96.0664C23.2976 97.536 19.3938 97.9205 15.6276 97.1714C11.8614 96.4222 8.40188 94.5731 5.68659 91.8578C2.9713 89.1425 1.12218 85.683 0.373049 81.9168C-0.376079 78.1506 0.00843605 74.2468 1.47797 70.6992C2.9475 67.1515 5.43605 64.1192 8.62892 61.9859C11.8218 59.8526 15.5756 58.7139 19.4156 58.714C24.5647 58.7141 29.5029 60.7596 33.1438 64.4006C36.7848 68.0415 38.8303 72.9797 38.8304 78.1288Z" fill="#8404E3"/>
<path d="M10.7607 74.1514L19.6499 82.5725L40.7027 62.924" stroke="white" stroke-width="6.31583" stroke-miterlimit="10"/>
</g>
<defs>
<clipPath id="clip0_1615_18311">
<rect width="321" height="306.902" fill="white"/>
</clipPath>
</defs>
</svg>
