<svg width="376" height="376" viewBox="0 0 376 376" fill="none" xmlns="http://www.w3.org/2000/svg">
<mask id="mask0_1615_18440" style="mask-type:luminance" maskUnits="userSpaceOnUse" x="0" y="0" width="376" height="376">
<path d="M375.414 0H0V375.43H375.414V0Z" fill="white"/>
</mask>
<g mask="url(#mask0_1615_18440)">
<g style="mix-blend-mode:multiply" opacity="0.5">
<path d="M78.0561 189.313H73.5714C73.1936 190.263 73.1025 191.304 73.3093 192.306C73.5162 193.308 74.0119 194.227 74.7353 194.951C75.4587 195.674 76.3781 196.17 77.3801 196.377C78.382 196.584 79.4226 196.493 80.3733 196.115V191.63C80.3733 191.325 80.3134 191.024 80.1969 190.743C80.0805 190.462 79.9098 190.206 79.6946 189.991C79.4794 189.776 79.224 189.605 78.9428 189.489C78.6617 189.372 78.3604 189.312 78.0561 189.313Z" fill="#F8C623"/>
</g>
<path d="M51.707 58.0977V277.245H323.707V58.0977H51.707ZM85.8642 84.815C84.7 84.8101 83.5594 84.4861 82.5665 83.8782C81.8907 83.3257 81.3382 82.6376 80.9447 81.8585C80.5511 81.0793 80.3252 80.2263 80.2815 79.3544C80.2379 78.4826 80.3774 77.6113 80.6912 76.7967C81.0049 75.9821 81.4859 75.2423 82.1031 74.625C82.7204 74.0078 83.4601 73.5267 84.2746 73.2129C85.0892 72.8991 85.9605 72.7595 86.8323 72.8031C87.7041 72.8467 88.5571 73.0726 89.3362 73.4661C90.1154 73.8597 90.8034 74.4122 91.3559 75.088C91.9494 76.0598 92.2726 77.1726 92.2921 78.3112C92.3115 79.4497 92.0266 80.5729 91.4668 81.5645C90.9069 82.5561 90.0924 83.3802 89.1075 83.9517C88.1225 84.5231 87.0029 84.8212 85.8642 84.815ZM119.395 84.815C118.231 84.8101 117.09 84.486 116.097 83.8782C115.421 83.3257 114.869 82.6376 114.475 81.8585C114.082 81.0793 113.856 80.2263 113.812 79.3544C113.768 78.4826 113.908 77.6113 114.222 76.7967C114.535 75.9821 115.016 75.2423 115.634 74.625C116.251 74.0078 116.991 73.5267 117.805 73.2129C118.62 72.8991 119.491 72.7595 120.363 72.8031C121.235 72.8467 122.088 73.0726 122.867 73.4661C123.646 73.8597 124.334 74.4122 124.887 75.088C125.48 76.0598 125.803 77.1726 125.823 78.3111C125.842 79.4497 125.557 80.5729 124.997 81.5645C124.438 82.5561 123.623 83.3802 122.638 83.9517C121.653 84.5231 120.533 84.8212 119.395 84.815ZM152.925 84.815C151.761 84.8101 150.621 84.4861 149.628 83.8782C148.952 83.3257 148.4 82.6376 148.006 81.8585C147.612 81.0793 147.387 80.2263 147.343 79.3544C147.299 78.4826 147.439 77.6113 147.752 76.7967C148.066 75.9821 148.547 75.2423 149.164 74.6251C149.782 74.0078 150.521 73.5267 151.336 73.2129C152.15 72.8991 153.022 72.7595 153.894 72.8031C154.765 72.8467 155.618 73.0726 156.398 73.4661C157.177 73.8597 157.865 74.4122 158.417 75.088C159.011 76.0598 159.334 77.1726 159.353 78.3111C159.373 79.4497 159.088 80.5728 158.528 81.5644C157.968 82.5561 157.154 83.3802 156.169 83.9516C155.184 84.5231 154.064 84.8212 152.925 84.815ZM186.456 84.815C185.292 84.8101 184.151 84.486 183.158 83.8782C182.483 83.3257 181.93 82.6376 181.536 81.8585C181.143 81.0793 180.917 80.2263 180.873 79.3544C180.83 78.4826 180.969 77.6113 181.283 76.7967C181.597 75.9821 182.078 75.2423 182.695 74.625C183.312 74.0078 184.052 73.5267 184.866 73.2129C185.681 72.8991 186.552 72.7595 187.424 72.8031C188.296 72.8467 189.149 73.0726 189.928 73.4661C190.707 73.8597 191.395 74.4122 191.948 75.088C192.541 76.0598 192.864 77.1726 192.884 78.3111C192.903 79.4497 192.618 80.5728 192.059 81.5644C191.499 82.556 190.684 83.3801 189.699 83.9516C188.714 84.5231 187.595 84.8211 186.456 84.815ZM219.987 84.815C218.822 84.8101 217.682 84.4861 216.689 83.8782C216.013 83.3257 215.461 82.6376 215.067 81.8585C214.674 81.0793 214.448 80.2263 214.404 79.3544C214.36 78.4826 214.5 77.6113 214.814 76.7967C215.127 75.9821 215.608 75.2423 216.226 74.625C216.843 74.0078 217.583 73.5267 218.397 73.2129C219.212 72.8991 220.083 72.7595 220.955 72.8031C221.827 72.8467 222.68 73.0726 223.459 73.4661C224.238 73.8597 224.926 74.4122 225.478 75.088C226.072 76.0598 226.395 77.1726 226.415 78.3112C226.434 79.4497 226.149 80.5729 225.589 81.5645C225.029 82.5561 224.215 83.3802 223.23 83.9517C222.245 84.5231 221.125 84.8212 219.987 84.815ZM253.517 84.815C252.353 84.8101 251.213 84.486 250.22 83.8782C249.544 83.3257 248.991 82.6376 248.598 81.8585C248.204 81.0793 247.978 80.2263 247.935 79.3544C247.891 78.4826 248.031 77.6113 248.344 76.7967C248.658 75.9821 249.139 75.2423 249.756 74.625C250.373 74.0078 251.113 73.5267 251.928 73.2129C252.742 72.8991 253.614 72.7595 254.485 72.8031C255.357 72.8467 256.21 73.0726 256.989 73.4661C257.769 73.8597 258.457 74.4122 259.009 75.088C259.602 76.0598 259.926 77.1726 259.945 78.3111C259.965 79.4497 259.68 80.5728 259.12 81.5644C258.56 82.556 257.746 83.3801 256.761 83.9516C255.776 84.5231 254.656 84.8211 253.517 84.815ZM287.048 84.815C285.884 84.8101 284.743 84.4861 283.75 83.8782C283.074 83.3257 282.522 82.6376 282.128 81.8585C281.735 81.0793 281.509 80.2263 281.465 79.3544C281.422 78.4826 281.561 77.6113 281.875 76.7967C282.189 75.9821 282.67 75.2423 283.287 74.625C283.904 74.0078 284.644 73.5267 285.458 73.2129C286.273 72.8991 287.144 72.7595 288.016 72.8031C288.888 72.8467 289.741 73.0726 290.52 73.4661C291.299 73.8597 291.987 74.4122 292.54 75.088C293.133 76.0598 293.456 77.1726 293.476 78.3112C293.495 79.4497 293.21 80.5729 292.651 81.5645C292.091 82.5561 291.276 83.3802 290.291 83.9517C289.306 84.5231 288.187 84.8212 287.048 84.815Z" fill="#552D7F"/>
<path d="M60.0889 66.4795V268.862H315.325V66.4795H60.0889ZM85.8639 84.8151C84.6997 84.8101 83.5592 84.4861 82.5663 83.8783C81.8905 83.3257 81.338 82.6377 80.9444 81.8585C80.5508 81.0794 80.3249 80.2263 80.2813 79.3545C80.2376 78.4827 80.3772 77.6113 80.6909 76.7968C81.0047 75.9822 81.4857 75.2424 82.1029 74.6251C82.7201 74.0078 83.4598 73.5268 84.2744 73.213C85.0889 72.8991 85.9602 72.7595 86.832 72.8032C87.7038 72.8468 88.5568 73.0726 89.336 73.4662C90.1151 73.8597 90.8032 74.4122 91.3557 75.088C91.9491 76.0599 92.2723 77.1726 92.2918 78.3112C92.3113 79.4498 92.0264 80.5729 91.4665 81.5646C90.9067 82.5562 90.0922 83.3803 89.1072 83.9518C88.1223 84.5232 87.0026 84.8213 85.8639 84.8151ZM119.395 84.8151C118.23 84.8101 117.09 84.4861 116.097 83.8783C115.421 83.3257 114.869 82.6377 114.475 81.8585C114.081 81.0794 113.855 80.2263 113.812 79.3545C113.768 78.4827 113.908 77.6113 114.221 76.7968C114.535 75.9822 115.016 75.2424 115.633 74.6251C116.251 74.0078 116.99 73.5268 117.805 73.213C118.619 72.8991 119.491 72.7595 120.363 72.8032C121.234 72.8468 122.087 73.0726 122.867 73.4662C123.646 73.8597 124.334 74.4122 124.886 75.088C125.48 76.0599 125.803 77.1726 125.822 78.3112C125.842 79.4498 125.557 80.5729 124.997 81.5645C124.437 82.5561 123.623 83.3803 122.638 83.9517C121.653 84.5232 120.533 84.8212 119.395 84.8151ZM152.925 84.8151C151.761 84.8102 150.62 84.4861 149.628 83.8783C148.952 83.3257 148.399 82.6377 148.006 81.8585C147.612 81.0794 147.386 80.2263 147.343 79.3545C147.299 78.4827 147.438 77.6114 147.752 76.7968C148.066 75.9822 148.547 75.2424 149.164 74.6251C149.781 74.0079 150.521 73.5268 151.336 73.213C152.15 72.8992 153.021 72.7596 153.893 72.8032C154.765 72.8468 155.618 73.0727 156.397 73.4662C157.176 73.8597 157.864 74.4122 158.417 75.088C159.01 76.0599 159.334 77.1726 159.353 78.3112C159.372 79.4498 159.088 80.5729 158.528 81.5645C157.968 82.5561 157.153 83.3802 156.168 83.9517C155.184 84.5231 154.064 84.8212 152.925 84.8151ZM186.456 84.8151C185.292 84.8101 184.151 84.4861 183.158 83.8783C182.482 83.3257 181.93 82.6377 181.536 81.8585C181.143 81.0794 180.917 80.2263 180.873 79.3545C180.829 78.4827 180.969 77.6113 181.283 76.7968C181.597 75.9822 182.077 75.2424 182.695 74.6251C183.312 74.0078 184.052 73.5268 184.866 73.213C185.681 72.8991 186.552 72.7595 187.424 72.8032C188.296 72.8468 189.149 73.0726 189.928 73.4662C190.707 73.8597 191.395 74.4122 191.948 75.088C192.541 76.0599 192.864 77.1726 192.884 78.3112C192.903 79.4498 192.618 80.5729 192.058 81.5645C191.498 82.5561 190.684 83.3802 189.699 83.9517C188.714 84.5231 187.594 84.8212 186.456 84.8151ZM219.986 84.8151C218.822 84.8101 217.682 84.4861 216.689 83.8783C216.013 83.3257 215.46 82.6377 215.067 81.8585C214.673 81.0794 214.447 80.2263 214.404 79.3545C214.36 78.4827 214.5 77.6113 214.813 76.7968C215.127 75.9822 215.608 75.2424 216.225 74.6251C216.843 74.0078 217.582 73.5268 218.397 73.213C219.211 72.8991 220.083 72.7595 220.955 72.8032C221.826 72.8468 222.679 73.0726 223.458 73.4662C224.238 73.8597 224.926 74.4122 225.478 75.088C226.072 76.0599 226.395 77.1726 226.414 78.3112C226.434 79.4498 226.149 80.5729 225.589 81.5645C225.029 82.5562 224.215 83.3803 223.23 83.9517C222.245 84.5232 221.125 84.8212 219.986 84.8151ZM253.517 84.8151C252.353 84.8101 251.212 84.4861 250.219 83.8783C249.544 83.3257 248.991 82.6377 248.598 81.8585C248.204 81.0794 247.978 80.2263 247.934 79.3545C247.891 78.4827 248.03 77.6113 248.344 76.7968C248.658 75.9822 249.139 75.2424 249.756 74.6251C250.373 74.0078 251.113 73.5268 251.927 73.213C252.742 72.8991 253.613 72.7595 254.485 72.8032C255.357 72.8468 256.21 73.0726 256.989 73.4662C257.768 73.8597 258.456 74.4122 259.009 75.088C259.602 76.0599 259.925 77.1726 259.945 78.3112C259.964 79.4498 259.679 80.5729 259.12 81.5645C258.56 82.5561 257.745 83.3802 256.76 83.9517C255.775 84.5231 254.656 84.8212 253.517 84.8151ZM287.048 84.8151C285.883 84.8101 284.743 84.4861 283.75 83.8783C283.074 83.3257 282.522 82.6377 282.128 81.8585C281.735 81.0794 281.509 80.2263 281.465 79.3545C281.421 78.4827 281.561 77.6113 281.875 76.7968C282.188 75.9822 282.669 75.2424 283.287 74.6251C283.904 74.0078 284.644 73.5268 285.458 73.213C286.273 72.8991 287.144 72.7595 288.016 72.8032C288.888 72.8468 289.741 73.0726 290.52 73.4662C291.299 73.8597 291.987 74.4122 292.539 75.088C293.133 76.0599 293.456 77.1726 293.476 78.3112C293.495 79.4498 293.21 80.5729 292.65 81.5646C292.09 82.5562 291.276 83.3803 290.291 83.9518C289.306 84.5232 288.186 84.8213 287.048 84.8151Z" fill="#D9D9FF"/>
<path d="M60.0889 66.4795V95.4032H315.325V66.4795H60.0889ZM85.8639 84.8151C84.6997 84.8101 83.5592 84.4861 82.5663 83.8783C81.8905 83.3257 81.338 82.6377 80.9444 81.8585C80.5508 81.0794 80.3249 80.2263 80.2813 79.3545C80.2376 78.4827 80.3772 77.6113 80.6909 76.7968C81.0047 75.9822 81.4857 75.2424 82.1029 74.6251C82.7201 74.0078 83.4598 73.5268 84.2744 73.213C85.0889 72.8991 85.9602 72.7595 86.832 72.8032C87.7038 72.8468 88.5568 73.0726 89.336 73.4662C90.1151 73.8597 90.8032 74.4122 91.3557 75.088C91.9491 76.0599 92.2723 77.1726 92.2918 78.3112C92.3113 79.4498 92.0264 80.5729 91.4665 81.5646C90.9067 82.5562 90.0922 83.3803 89.1072 83.9518C88.1223 84.5232 87.0026 84.8213 85.8639 84.8151ZM119.395 84.8151C118.23 84.8101 117.09 84.4861 116.097 83.8783C115.421 83.3257 114.869 82.6377 114.475 81.8585C114.081 81.0794 113.855 80.2263 113.812 79.3545C113.768 78.4827 113.908 77.6113 114.221 76.7968C114.535 75.9822 115.016 75.2424 115.633 74.6251C116.251 74.0078 116.99 73.5268 117.805 73.213C118.619 72.8991 119.491 72.7595 120.363 72.8032C121.234 72.8468 122.087 73.0726 122.867 73.4662C123.646 73.8597 124.334 74.4122 124.886 75.088C125.48 76.0599 125.803 77.1726 125.822 78.3112C125.842 79.4498 125.557 80.5729 124.997 81.5645C124.437 82.5561 123.623 83.3803 122.638 83.9517C121.653 84.5232 120.533 84.8212 119.395 84.8151ZM152.925 84.8151C151.761 84.8102 150.62 84.4861 149.628 83.8783C148.952 83.3257 148.399 82.6377 148.006 81.8585C147.612 81.0794 147.386 80.2263 147.343 79.3545C147.299 78.4827 147.438 77.6114 147.752 76.7968C148.066 75.9822 148.547 75.2424 149.164 74.6251C149.781 74.0079 150.521 73.5268 151.336 73.213C152.15 72.8992 153.021 72.7596 153.893 72.8032C154.765 72.8468 155.618 73.0727 156.397 73.4662C157.176 73.8597 157.864 74.4122 158.417 75.088C159.01 76.0599 159.334 77.1726 159.353 78.3112C159.372 79.4498 159.088 80.5729 158.528 81.5645C157.968 82.5561 157.153 83.3802 156.168 83.9517C155.184 84.5231 154.064 84.8212 152.925 84.8151ZM186.456 84.8151C185.292 84.8101 184.151 84.4861 183.158 83.8783C182.482 83.3257 181.93 82.6377 181.536 81.8585C181.143 81.0794 180.917 80.2263 180.873 79.3545C180.829 78.4827 180.969 77.6113 181.283 76.7968C181.597 75.9822 182.077 75.2424 182.695 74.6251C183.312 74.0078 184.052 73.5268 184.866 73.213C185.681 72.8991 186.552 72.7595 187.424 72.8032C188.296 72.8468 189.149 73.0726 189.928 73.4662C190.707 73.8597 191.395 74.4122 191.948 75.088C192.541 76.0599 192.864 77.1726 192.884 78.3112C192.903 79.4498 192.618 80.5729 192.058 81.5645C191.498 82.5561 190.684 83.3802 189.699 83.9517C188.714 84.5231 187.594 84.8212 186.456 84.8151ZM219.986 84.8151C218.822 84.8101 217.682 84.4861 216.689 83.8783C216.013 83.3257 215.46 82.6377 215.067 81.8585C214.673 81.0794 214.447 80.2263 214.404 79.3545C214.36 78.4827 214.5 77.6113 214.813 76.7968C215.127 75.9822 215.608 75.2424 216.225 74.6251C216.843 74.0078 217.582 73.5268 218.397 73.213C219.211 72.8991 220.083 72.7595 220.955 72.8032C221.826 72.8468 222.679 73.0726 223.458 73.4662C224.238 73.8597 224.926 74.4122 225.478 75.088C226.072 76.0599 226.395 77.1726 226.414 78.3112C226.434 79.4498 226.149 80.5729 225.589 81.5645C225.029 82.5562 224.215 83.3803 223.23 83.9517C222.245 84.5232 221.125 84.8212 219.986 84.8151ZM253.517 84.8151C252.353 84.8101 251.212 84.4861 250.219 83.8783C249.544 83.3257 248.991 82.6377 248.598 81.8585C248.204 81.0794 247.978 80.2263 247.934 79.3545C247.891 78.4827 248.03 77.6113 248.344 76.7968C248.658 75.9822 249.139 75.2424 249.756 74.6251C250.373 74.0078 251.113 73.5268 251.927 73.213C252.742 72.8991 253.613 72.7595 254.485 72.8032C255.357 72.8468 256.21 73.0726 256.989 73.4662C257.768 73.8597 258.456 74.4122 259.009 75.088C259.602 76.0599 259.925 77.1726 259.945 78.3112C259.964 79.4498 259.679 80.5729 259.12 81.5645C258.56 82.5561 257.745 83.3802 256.76 83.9517C255.775 84.5231 254.656 84.8212 253.517 84.8151ZM287.048 84.8151C285.883 84.8101 284.743 84.4861 283.75 83.8783C283.074 83.3257 282.522 82.6377 282.128 81.8585C281.735 81.0794 281.509 80.2263 281.465 79.3545C281.421 78.4827 281.561 77.6113 281.875 76.7968C282.188 75.9822 282.669 75.2424 283.287 74.6251C283.904 74.0078 284.644 73.5268 285.458 73.213C286.273 72.8991 287.144 72.7595 288.016 72.8032C288.888 72.8468 289.741 73.0726 290.52 73.4662C291.299 73.8597 291.987 74.4122 292.539 75.088C293.133 76.0599 293.456 77.1726 293.476 78.3112C293.495 79.4498 293.21 80.5729 292.65 81.5646C292.09 82.5562 291.276 83.3803 290.291 83.9518C289.306 84.5232 288.186 84.8213 287.048 84.8151Z" fill="#7768FF"/>
<path d="M259.739 76.8462C259.776 76.9894 259.808 77.1345 259.834 77.2814C259.809 77.1335 259.775 76.9905 259.739 76.8462Z" fill="#868788"/>
<path d="M247.927 79.0672C247.922 77.7764 248.317 76.5156 249.057 75.4583C249.798 74.401 250.848 73.5991 252.063 73.1628C253.277 72.7265 254.598 72.6774 255.842 73.0221C257.086 73.3668 258.192 74.0884 259.009 75.0877C258.514 74.2504 257.835 73.5369 257.023 73.0013C256.211 72.4656 255.288 72.1219 254.323 71.9961C253.359 71.8704 252.378 71.9659 251.456 72.2755C250.534 72.5851 249.695 73.1007 249.001 73.783C248.308 74.4653 247.779 75.2966 247.455 76.2137C247.131 77.1308 247.02 78.1096 247.13 79.0761C247.241 80.0425 247.57 80.9711 248.092 81.7915C248.615 82.6118 249.318 83.3024 250.147 83.8108C249.454 83.229 248.897 82.5032 248.514 81.684C248.13 80.8647 247.93 79.9717 247.927 79.0672Z" fill="#868788"/>
<path d="M258.601 82.28C258.541 82.3574 258.478 82.4306 258.415 82.5051C258.478 82.431 258.541 82.357 258.601 82.28Z" fill="#868788"/>
<path d="M254.594 84.7065C254.239 84.773 253.879 84.8093 253.518 84.8151C253.879 84.8115 254.239 84.7751 254.594 84.7065Z" fill="#868788"/>
<path d="M259.011 75.0913C259.239 75.4794 259.428 75.8896 259.575 76.3156C259.431 75.8887 259.242 75.4783 259.011 75.0913Z" fill="#868788"/>
<path d="M250.439 83.9975C250.478 84.0189 250.52 84.0346 250.559 84.0552C250.505 84.0266 250.45 84.0006 250.396 83.9707C250.411 83.9788 250.424 83.9895 250.439 83.9975Z" fill="#868788"/>
<path d="M256.595 83.9971L256.597 83.9963L256.593 83.9987L256.595 83.9971Z" fill="#868788"/>
<path d="M255.463 84.4824C255.32 84.5282 255.18 84.5804 255.032 84.6162C255.179 84.5786 255.321 84.5301 255.463 84.4824Z" fill="#868788"/>
<path d="M253.517 79.911C252.967 79.9111 252.422 79.8027 251.913 79.5921C251.405 79.3815 250.943 79.0727 250.554 78.6835C250.164 78.2943 249.856 77.8323 249.645 77.3237C249.434 76.8152 249.326 76.2702 249.326 75.7197V55.3924C249.326 54.842 249.435 54.297 249.645 53.7885C249.856 53.28 250.165 52.8179 250.554 52.4287C250.943 52.0396 251.405 51.7308 251.913 51.5202C252.422 51.3096 252.967 51.2012 253.517 51.2012C254.068 51.2012 254.613 51.3096 255.121 51.5202C255.63 51.7308 256.092 52.0396 256.481 52.4287C256.87 52.8179 257.179 53.28 257.389 53.7885C257.6 54.297 257.708 54.842 257.708 55.3924V75.7197C257.708 76.2701 257.6 76.8152 257.389 77.3237C257.179 77.8322 256.87 78.2943 256.481 78.6835C256.092 79.0727 255.63 79.3814 255.121 79.592C254.613 79.8027 254.068 79.9111 253.517 79.911Z" fill="#F9C5F9"/>
<path d="M292.541 75.0913C292.77 75.4794 292.959 75.8896 293.105 76.3156C292.961 75.8887 292.772 75.4783 292.541 75.0913Z" fill="#868788"/>
<path d="M290.125 83.9971L290.128 83.9963L290.123 83.9987L290.125 83.9971Z" fill="#868788"/>
<path d="M293.271 76.8462C293.307 76.9894 293.339 77.1346 293.366 77.2814C293.34 77.1335 293.306 76.9905 293.271 76.8462Z" fill="#868788"/>
<path d="M281.457 79.0672C281.452 77.7764 281.847 76.5156 282.588 75.4583C283.328 74.401 284.378 73.5991 285.593 73.1628C286.808 72.7265 288.128 72.6774 289.372 73.0221C290.616 73.3668 291.722 74.0884 292.54 75.0877C292.044 74.2504 291.365 73.5369 290.553 73.0013C289.741 72.4656 288.818 72.1219 287.854 71.9961C286.889 71.8704 285.909 71.9659 284.986 72.2755C284.064 72.5851 283.225 73.1007 282.532 73.783C281.838 74.4653 281.31 75.2966 280.985 76.2137C280.661 77.1308 280.55 78.1096 280.661 79.0761C280.771 80.0425 281.1 80.9711 281.623 81.7915C282.145 82.6118 282.848 83.3024 283.677 83.8108C282.985 83.229 282.427 82.5032 282.044 81.684C281.66 80.8647 281.46 79.9717 281.457 79.0672Z" fill="#868788"/>
<path d="M288.125 84.7065C287.769 84.773 287.409 84.8094 287.048 84.8151C287.409 84.8115 287.77 84.7752 288.125 84.7065Z" fill="#868788"/>
<path d="M283.97 83.9975C284.009 84.0189 284.051 84.0346 284.09 84.0552C284.036 84.0266 283.981 84.0006 283.928 83.9707C283.942 83.9788 283.955 83.9895 283.97 83.9975Z" fill="#868788"/>
<path d="M288.994 84.4824C288.851 84.5282 288.711 84.5804 288.563 84.6162C288.71 84.5786 288.852 84.5301 288.994 84.4824Z" fill="#868788"/>
<path d="M287.048 79.911C286.498 79.9111 285.953 79.8027 285.445 79.592C284.936 79.3814 284.474 79.0727 284.085 78.6835C283.696 78.2943 283.387 77.8322 283.176 77.3237C282.966 76.8152 282.857 76.2701 282.857 75.7197V55.3924C282.857 54.2808 283.299 53.2148 284.085 52.4287C284.871 51.6427 285.937 51.2012 287.048 51.2012C288.16 51.2012 289.226 51.6427 290.012 52.4287C290.798 53.2148 291.24 54.2808 291.24 55.3924V75.7197C291.24 76.2702 291.131 76.8152 290.921 77.3237C290.71 77.8322 290.401 78.2943 290.012 78.6835C289.623 79.0727 289.161 79.3814 288.652 79.5921C288.144 79.8027 287.599 79.9111 287.048 79.911Z" fill="#F9C5F9"/>
<path d="M192.646 76.8462C192.682 76.9894 192.714 77.1345 192.74 77.2814C192.715 77.1335 192.681 76.9905 192.646 76.8462Z" fill="#868788"/>
<path d="M180.833 79.0672C180.828 77.7764 181.223 76.5156 181.964 75.4583C182.704 74.401 183.754 73.5991 184.969 73.1628C186.184 72.7265 187.504 72.6774 188.748 73.0221C189.992 73.3668 191.098 74.0884 191.916 75.0877C191.42 74.2504 190.741 73.5369 189.929 73.0013C189.117 72.4656 188.194 72.1219 187.23 71.9961C186.265 71.8704 185.285 71.9659 184.362 72.2755C183.44 72.5851 182.601 73.1007 181.908 73.783C181.214 74.4653 180.686 75.2966 180.361 76.2137C180.037 77.1308 179.926 78.1096 180.037 79.0761C180.147 80.0425 180.476 80.9711 180.999 81.7915C181.521 82.6118 182.224 83.3024 183.053 83.8108C182.361 83.229 181.803 82.5032 181.42 81.684C181.036 80.8647 180.836 79.9717 180.833 79.0672Z" fill="#868788"/>
<path d="M191.507 82.28C191.448 82.3574 191.384 82.4306 191.321 82.5051C191.385 82.431 191.447 82.357 191.507 82.28Z" fill="#868788"/>
<path d="M187.501 84.7065C187.145 84.773 186.785 84.8093 186.424 84.8151C186.785 84.8115 187.146 84.7751 187.501 84.7065Z" fill="#868788"/>
<path d="M191.917 75.0913C192.146 75.4794 192.335 75.8896 192.481 76.3156C192.337 75.8887 192.148 75.4783 191.917 75.0913Z" fill="#868788"/>
<path d="M183.345 83.9975C183.384 84.0189 183.426 84.0346 183.465 84.0552C183.411 84.0266 183.356 84.0006 183.303 83.9707C183.317 83.9788 183.33 83.9895 183.345 83.9975Z" fill="#868788"/>
<path d="M189.501 83.9971L189.504 83.9963L189.499 83.9987L189.501 83.9971Z" fill="#868788"/>
<path d="M188.37 84.4824C188.226 84.5282 188.086 84.5804 187.938 84.6162C188.085 84.5786 188.227 84.5301 188.37 84.4824Z" fill="#868788"/>
<path d="M186.424 79.911C185.873 79.9111 185.328 79.8027 184.82 79.5921C184.311 79.3815 183.849 79.0727 183.46 78.6835C183.071 78.2943 182.762 77.8323 182.551 77.3237C182.341 76.8152 182.232 76.2702 182.232 75.7197V55.3924C182.232 54.2808 182.674 53.2148 183.46 52.4287C184.246 51.6427 185.312 51.2012 186.423 51.2012C187.535 51.2012 188.601 51.6427 189.387 52.4287C190.173 53.2148 190.615 54.2808 190.615 55.3924V75.7197C190.615 76.2701 190.506 76.8152 190.296 77.3237C190.085 77.8322 189.776 78.2943 189.387 78.6835C188.998 79.0727 188.536 79.3814 188.027 79.592C187.519 79.8027 186.974 79.9111 186.424 79.911Z" fill="#F9C5F9"/>
<path d="M225.447 75.0913C225.676 75.4794 225.865 75.8896 226.011 76.3156C225.867 75.8887 225.678 75.4783 225.447 75.0913Z" fill="#868788"/>
<path d="M223.032 83.9971L223.034 83.9963L223.029 83.9987L223.032 83.9971Z" fill="#868788"/>
<path d="M226.177 76.8462C226.214 76.9894 226.245 77.1346 226.272 77.2814C226.246 77.1335 226.212 76.9905 226.177 76.8462Z" fill="#868788"/>
<path d="M214.364 79.0672C214.358 77.7764 214.753 76.5156 215.494 75.4583C216.234 74.401 217.284 73.5991 218.499 73.1628C219.714 72.7265 221.034 72.6774 222.278 73.0221C223.522 73.3668 224.629 74.0884 225.446 75.0877C224.951 74.2504 224.271 73.5369 223.459 73.0013C222.648 72.4656 221.724 72.1219 220.76 71.9961C219.795 71.8704 218.815 71.9659 217.893 72.2755C216.971 72.5851 216.131 73.1007 215.438 73.783C214.745 74.4653 214.216 75.2966 213.892 76.2137C213.567 77.1308 213.456 78.1096 213.567 79.0761C213.677 80.0425 214.006 80.9711 214.529 81.7915C215.052 82.6118 215.754 83.3024 216.583 83.8108C215.891 83.229 215.333 82.5032 214.95 81.684C214.567 80.8647 214.367 79.9717 214.364 79.0672Z" fill="#868788"/>
<path d="M221.031 84.7065C220.676 84.773 220.315 84.8094 219.954 84.8151C220.316 84.8115 220.676 84.7752 221.031 84.7065Z" fill="#868788"/>
<path d="M216.876 83.9975C216.915 84.0189 216.957 84.0346 216.996 84.0552C216.942 84.0266 216.887 84.0006 216.834 83.9707C216.849 83.9788 216.862 83.9895 216.876 83.9975Z" fill="#868788"/>
<path d="M221.901 84.4824C221.757 84.5282 221.617 84.5804 221.47 84.6162C221.616 84.5786 221.758 84.5301 221.901 84.4824Z" fill="#868788"/>
<path d="M219.954 79.911C219.403 79.9111 218.858 79.8027 218.35 79.592C217.841 79.3814 217.379 79.0727 216.99 78.6835C216.601 78.2943 216.292 77.8322 216.082 77.3237C215.871 76.8152 215.763 76.2701 215.763 75.7197V55.3924C215.76 54.8405 215.867 54.2936 216.077 53.783C216.286 53.2724 216.595 52.8083 216.984 52.4172C217.373 52.0262 217.836 51.7158 218.346 51.5041C218.855 51.2924 219.402 51.1833 219.954 51.1833C220.506 51.1833 221.052 51.2924 221.562 51.5041C222.071 51.7158 222.534 52.0262 222.924 52.4172C223.313 52.8083 223.621 53.2724 223.831 53.783C224.041 54.2936 224.147 54.8405 224.145 55.3924V75.7197C224.145 76.2701 224.037 76.8152 223.826 77.3237C223.615 77.8322 223.307 78.2943 222.917 78.6835C222.528 79.0727 222.066 79.3814 221.558 79.592C221.049 79.8027 220.504 79.9111 219.954 79.911Z" fill="#F9C5F9"/>
<path d="M125.552 76.8462C125.589 76.9894 125.62 77.1345 125.647 77.2814C125.621 77.1335 125.587 76.9905 125.552 76.8462Z" fill="#868788"/>
<path d="M113.74 79.0672C113.734 77.7764 114.129 76.5156 114.87 75.4583C115.61 74.401 116.66 73.599 117.875 73.1628C119.09 72.7265 120.41 72.6774 121.654 73.0221C122.898 73.3667 124.005 74.0884 124.822 75.0877C124.327 74.2504 123.647 73.5369 122.835 73.0013C122.024 72.4656 121.1 72.1219 120.136 71.9961C119.171 71.8704 118.191 71.9659 117.269 72.2755C116.347 72.5851 115.507 73.1006 114.814 73.783C114.121 74.4653 113.592 75.2965 113.268 76.2136C112.943 77.1307 112.832 78.1096 112.943 79.076C113.053 80.0425 113.382 80.9711 113.905 81.7914C114.427 82.6118 115.13 83.3024 115.959 83.8108C115.267 83.229 114.709 82.5032 114.326 81.6839C113.943 80.8647 113.743 79.9717 113.74 79.0672Z" fill="#868788"/>
<path d="M124.413 82.28C124.354 82.3574 124.29 82.4306 124.228 82.5051C124.291 82.431 124.353 82.357 124.413 82.28Z" fill="#868788"/>
<path d="M120.407 84.7065C120.052 84.773 119.691 84.8094 119.33 84.8151C119.692 84.8115 120.052 84.7751 120.407 84.7065Z" fill="#868788"/>
<path d="M124.823 75.0913C125.052 75.4794 125.241 75.8896 125.387 76.3156C125.243 75.8886 125.054 75.4782 124.823 75.0913Z" fill="#868788"/>
<path d="M116.251 83.9975C116.29 84.0189 116.332 84.0346 116.371 84.0552C116.317 84.0266 116.262 84.0006 116.209 83.9707C116.224 83.9788 116.237 83.9895 116.251 83.9975Z" fill="#868788"/>
<path d="M122.408 83.9971L122.41 83.9963L122.405 83.9987L122.408 83.9971Z" fill="#868788"/>
<path d="M121.276 84.4824C121.132 84.5282 120.992 84.5804 120.845 84.6162C120.991 84.5786 121.133 84.5301 121.276 84.4824Z" fill="#868788"/>
<path d="M119.33 79.911C118.779 79.9111 118.234 79.8027 117.726 79.5921C117.217 79.3815 116.755 79.0727 116.366 78.6835C115.977 78.2943 115.668 77.8323 115.458 77.3237C115.247 76.8152 115.139 76.2702 115.139 75.7197V55.3924C115.139 54.2808 115.58 53.2148 116.366 52.4287C117.152 51.6427 118.218 51.2012 119.33 51.2012C120.441 51.2012 121.507 51.6427 122.293 52.4287C123.079 53.2148 123.521 54.2808 123.521 55.3924V75.7197C123.521 76.2701 123.412 76.8152 123.202 77.3237C122.991 77.8322 122.683 78.2943 122.293 78.6835C121.904 79.0727 121.442 79.3814 120.934 79.592C120.425 79.8027 119.88 79.9111 119.33 79.911Z" fill="#F9C5F9"/>
<path d="M158.354 75.0913C158.582 75.4794 158.771 75.8896 158.918 76.3156C158.773 75.8887 158.584 75.4783 158.354 75.0913Z" fill="#868788"/>
<path d="M155.939 83.9971L155.94 83.9963L155.936 83.9987L155.939 83.9971Z" fill="#868788"/>
<path d="M159.083 76.8462C159.12 76.9894 159.151 77.1346 159.178 77.2814C159.152 77.1335 159.119 76.9905 159.083 76.8462Z" fill="#868788"/>
<path d="M147.27 79.0672C147.265 77.7764 147.66 76.5156 148.4 75.4583C149.141 74.401 150.191 73.5991 151.405 73.1628C152.62 72.7265 153.94 72.6774 155.184 73.0221C156.428 73.3668 157.535 74.0884 158.352 75.0877C157.857 74.2504 157.178 73.5369 156.366 73.0013C155.554 72.4656 154.631 72.1219 153.666 71.9961C152.702 71.8704 151.721 71.9659 150.799 72.2755C149.877 72.5851 149.037 73.1006 148.344 73.783C147.651 74.4653 147.122 75.2965 146.798 76.2136C146.474 77.1307 146.363 78.1096 146.473 79.076C146.583 80.0425 146.912 80.9711 147.435 81.7914C147.958 82.6118 148.66 83.3024 149.49 83.8108C148.797 83.229 148.24 82.5032 147.856 81.684C147.473 80.8647 147.273 79.9717 147.27 79.0672Z" fill="#868788"/>
<path d="M153.937 84.7065C153.582 84.773 153.222 84.8094 152.86 84.8151C153.222 84.8115 153.582 84.7752 153.937 84.7065Z" fill="#868788"/>
<path d="M149.782 83.9975C149.821 84.0189 149.863 84.0346 149.903 84.0552C149.849 84.0266 149.793 84.0006 149.74 83.9707C149.755 83.9788 149.768 83.9895 149.782 83.9975Z" fill="#868788"/>
<path d="M154.807 84.4824C154.664 84.5282 154.523 84.5804 154.376 84.6162C154.523 84.5786 154.664 84.5301 154.807 84.4824Z" fill="#868788"/>
<path d="M152.86 79.9111C152.31 79.9111 151.765 79.8027 151.256 79.5921C150.748 79.3815 150.286 79.0728 149.896 78.6836C149.507 78.2944 149.199 77.8323 148.988 77.3238C148.777 76.8153 148.669 76.2702 148.669 75.7198V55.3925C148.667 54.8407 148.774 54.294 148.983 53.7837C149.193 53.2733 149.502 52.8094 149.891 52.4185C150.28 52.0276 150.743 51.7175 151.253 51.5059C151.762 51.2942 152.308 51.1853 152.86 51.1853C153.412 51.1853 153.958 51.2942 154.468 51.5059C154.977 51.7175 155.44 52.0276 155.829 52.4185C156.219 52.8094 156.527 53.2733 156.737 53.7837C156.946 54.294 157.053 54.8407 157.051 55.3925V75.7198C157.051 76.2702 156.943 76.8153 156.732 77.3238C156.522 77.8323 156.213 78.2944 155.824 78.6836C155.434 79.0728 154.972 79.3815 154.464 79.5921C153.955 79.8027 153.41 79.9111 152.86 79.9111Z" fill="#F9C5F9"/>
<path d="M91.2598 75.0913C91.4885 75.4794 91.6774 75.8896 91.8238 76.3156C91.6796 75.8887 91.4906 75.4783 91.2598 75.0913Z" fill="#868788"/>
<path d="M88.8442 83.9971L88.8465 83.9963L88.8418 83.9987L88.8442 83.9971Z" fill="#868788"/>
<path d="M91.9893 76.8462C92.0261 76.9894 92.0574 77.1346 92.0842 77.2814C92.0585 77.1335 92.0249 76.9905 91.9893 76.8462Z" fill="#868788"/>
<path d="M80.1762 79.0672C80.171 77.7764 80.5658 76.5156 81.3064 75.4583C82.0469 74.401 83.0968 73.599 84.3116 73.1628C85.5265 72.7265 86.8467 72.6774 88.0906 73.0221C89.3346 73.3667 90.4412 74.0884 91.2583 75.0877C90.7632 74.2504 90.0839 73.5369 89.272 73.0013C88.46 72.4656 87.5368 72.1219 86.5723 71.9961C85.6078 71.8704 84.6273 71.9659 83.7052 72.2755C82.7831 72.5851 81.9436 73.1006 81.2504 73.783C80.5572 74.4653 80.0284 75.2965 79.7042 76.2136C79.38 77.1307 79.2689 78.1096 79.3793 79.076C79.4897 80.0425 79.8187 80.9711 80.3413 81.7914C80.864 82.6118 81.5666 83.3024 82.3958 83.8108C81.7033 83.229 81.1459 82.5032 80.7626 81.6839C80.3792 80.8647 80.1791 79.9717 80.1762 79.0672Z" fill="#868788"/>
<path d="M86.8435 84.7065C86.4882 84.773 86.128 84.8094 85.7666 84.8151C86.1281 84.8115 86.4886 84.7752 86.8435 84.7065Z" fill="#868788"/>
<path d="M82.6886 83.9975C82.7276 84.0189 82.7697 84.0346 82.809 84.0552C82.755 84.0266 82.6996 84.0006 82.6465 83.9707C82.6611 83.9788 82.674 83.9895 82.6886 83.9975Z" fill="#868788"/>
<path d="M87.7123 84.4824C87.569 84.5282 87.4288 84.5804 87.2812 84.6162C87.4279 84.5786 87.5697 84.5301 87.7123 84.4824Z" fill="#868788"/>
<path d="M85.7663 79.911C85.2159 79.9111 84.6709 79.8027 84.1624 79.592C83.6539 79.3814 83.1919 79.0727 82.8027 78.6835C82.4135 78.2943 82.1048 77.8322 81.8942 77.3237C81.6836 76.8152 81.5752 76.2701 81.5752 75.7197V55.3924C81.5729 54.8405 81.6796 54.2936 81.8892 53.783C82.0987 53.2724 82.4071 52.8083 82.7965 52.4172C83.1859 52.0262 83.6487 51.7158 84.1584 51.5041C84.668 51.2924 85.2144 51.1833 85.7663 51.1833C86.3182 51.1833 86.8646 51.2924 87.3743 51.5041C87.8839 51.7158 88.3467 52.0262 88.7362 52.4172C89.1256 52.8083 89.4339 53.2724 89.6435 53.783C89.8531 54.2936 89.9597 54.8405 89.9574 55.3924V75.7197C89.9574 76.2701 89.8491 76.8152 89.6384 77.3237C89.4278 77.8322 89.1191 78.2943 88.7299 78.6835C88.3407 79.0727 87.8787 79.3814 87.3702 79.592C86.8617 79.8027 86.3167 79.9111 85.7663 79.911Z" fill="#F9C5F9"/>
<path d="M92.5741 124.389C91.8271 124.389 91.203 124.245 90.7016 123.959C90.2002 123.662 89.8216 123.232 89.5658 122.67C89.31 122.107 89.1668 121.416 89.1361 120.598L91.0853 120.214C91.1058 120.695 91.162 121.119 91.2541 121.488C91.3564 121.856 91.5048 122.143 91.6992 122.347C91.9039 122.542 92.1699 122.639 92.4973 122.639C92.8657 122.639 93.1266 122.531 93.2801 122.317C93.4335 122.091 93.5103 121.81 93.5103 121.472C93.5103 120.93 93.3875 120.485 93.1419 120.137C92.8964 119.789 92.5689 119.441 92.1597 119.094L90.5942 117.712C90.1542 117.334 89.8012 116.914 89.5352 116.454C89.2794 115.983 89.1515 115.405 89.1515 114.719C89.1515 113.737 89.4379 112.98 90.0109 112.448C90.5839 111.916 91.3667 111.65 92.3592 111.65C92.9424 111.65 93.4284 111.742 93.8172 111.926C94.2061 112.1 94.513 112.346 94.7381 112.663C94.9735 112.98 95.1474 113.343 95.2599 113.752C95.3725 114.151 95.4441 114.576 95.4748 115.026L93.541 115.364C93.5205 114.975 93.4745 114.627 93.4028 114.32C93.3414 114.013 93.2238 113.773 93.0498 113.599C92.8861 113.425 92.6406 113.338 92.3131 113.338C91.9755 113.338 91.7146 113.451 91.5304 113.676C91.3564 113.891 91.2695 114.162 91.2695 114.489C91.2695 114.909 91.3564 115.257 91.5304 115.533C91.7043 115.799 91.955 116.075 92.2824 116.362L93.8326 117.728C94.3442 118.157 94.779 118.664 95.1372 119.247C95.5055 119.82 95.6897 120.516 95.6897 121.334C95.6897 121.928 95.5567 122.455 95.2906 122.915C95.0348 123.376 94.6716 123.739 94.2009 124.005C93.7405 124.261 93.1982 124.389 92.5741 124.389ZM100.434 124.389C99.5135 124.389 98.7973 124.22 98.2857 123.882C97.7741 123.544 97.4211 123.064 97.2266 122.439C97.0322 121.815 96.935 121.068 96.935 120.199V111.788H99.1451V120.459C99.1451 120.848 99.1707 121.217 99.2219 121.565C99.273 121.902 99.3907 122.178 99.5749 122.393C99.7693 122.598 100.056 122.7 100.434 122.7C100.833 122.7 101.12 122.598 101.294 122.393C101.478 122.178 101.596 121.902 101.647 121.565C101.708 121.217 101.739 120.848 101.739 120.459V111.788H103.934V120.199C103.934 121.068 103.837 121.815 103.642 122.439C103.448 123.064 103.095 123.544 102.583 123.882C102.082 124.22 101.365 124.389 100.434 124.389ZM89.4431 147.22V134.788H91.0239L94.0475 141.879V134.788H95.9199V147.22H94.4158L91.3769 139.791V147.22H89.4431Z" fill="#7768FF"/>
<path d="M119.357 124.22L119.572 111.788H121.92L123.685 120.398L125.527 111.788H127.798L128.028 124.22H126.34L126.156 115.579L124.391 124.22H123.025L121.229 115.548L121.06 124.22H119.357ZM133.241 124.389C132.361 124.389 131.66 124.225 131.138 123.897C130.616 123.57 130.243 123.099 130.018 122.485C129.793 121.871 129.68 121.145 129.68 120.306V115.656C129.68 114.817 129.793 114.1 130.018 113.507C130.243 112.903 130.616 112.443 131.138 112.126C131.66 111.808 132.361 111.65 133.241 111.65C134.141 111.65 134.847 111.808 135.359 112.126C135.881 112.443 136.254 112.903 136.479 113.507C136.715 114.1 136.832 114.817 136.832 115.656V120.321C136.832 121.15 136.715 121.871 136.479 122.485C136.254 123.089 135.881 123.56 135.359 123.897C134.847 124.225 134.141 124.389 133.241 124.389ZM133.241 122.716C133.619 122.716 133.896 122.634 134.07 122.47C134.254 122.306 134.376 122.081 134.438 121.795C134.499 121.508 134.53 121.196 134.53 120.859V115.134C134.53 114.786 134.499 114.474 134.438 114.197C134.376 113.921 134.254 113.706 134.07 113.553C133.896 113.389 133.619 113.307 133.241 113.307C132.883 113.307 132.611 113.389 132.427 113.553C132.243 113.706 132.12 113.921 132.059 114.197C131.998 114.474 131.967 114.786 131.967 115.134V120.859C131.967 121.196 131.992 121.508 132.044 121.795C132.105 122.081 132.228 122.306 132.412 122.47C132.596 122.634 132.872 122.716 133.241 122.716ZM119.387 147.22V134.788H120.968L123.992 141.879V134.788H125.864V147.22H124.36L121.321 139.791V147.22H119.387Z" fill="#552D7F"/>
<path d="M152.67 124.22V113.461H150.69V111.788H156.89V113.461H154.941V124.22H152.67ZM161.429 124.389C160.508 124.389 159.791 124.22 159.28 123.882C158.768 123.544 158.415 123.064 158.221 122.439C158.026 121.815 157.929 121.068 157.929 120.199V111.788H160.139V120.459C160.139 120.848 160.165 121.217 160.216 121.565C160.267 121.902 160.385 122.178 160.569 122.393C160.763 122.598 161.05 122.7 161.429 122.7C161.828 122.7 162.114 122.598 162.288 122.393C162.472 122.178 162.59 121.902 162.641 121.565C162.702 121.217 162.733 120.848 162.733 120.459V111.788H164.928V120.199C164.928 121.068 164.831 121.815 164.636 122.439C164.442 123.064 164.089 123.544 163.577 123.882C163.076 124.22 162.36 124.389 161.429 124.389ZM151.426 147.22V134.788H156.645V136.384H153.698V139.96H156.016V141.541H153.698V145.654H156.675V147.22H151.426Z" fill="#552D7F"/>
<path d="M182.236 124.22L180.471 111.788H182.374L183.402 119.846L184.692 111.819H186.242L187.562 119.846L188.575 111.788H190.447L188.713 124.22H186.871L185.49 115.886L184.124 124.22H182.236ZM191.858 124.22V111.788H197.076V113.384H194.129V116.96H196.447V118.541H194.129V122.654H197.107V124.22H191.858ZM180.931 147.22V134.788H183.863C184.876 134.788 185.664 134.926 186.226 135.202C186.799 135.479 187.204 135.903 187.439 136.476C187.684 137.049 187.807 137.776 187.807 138.656V143.199C187.807 144.099 187.684 144.851 187.439 145.455C187.204 146.048 186.805 146.493 186.242 146.79C185.689 147.076 184.927 147.22 183.955 147.22H180.931ZM183.203 145.639H183.894C184.415 145.639 184.789 145.547 185.014 145.363C185.239 145.178 185.377 144.912 185.428 144.565C185.479 144.206 185.505 143.772 185.505 143.26V138.502C185.505 138.001 185.469 137.597 185.398 137.29C185.326 136.983 185.178 136.758 184.953 136.614C184.727 136.471 184.364 136.399 183.863 136.399H183.203V145.639Z" fill="#552D7F"/>
<path d="M214.041 124.22V113.461H212.061V111.788H218.261V113.461H216.312V124.22H214.041ZM219.423 124.22V111.788H221.679V116.991H224.212V111.788H226.483V124.22H224.212V118.602H221.679V124.22H219.423ZM216.205 147.389C215.284 147.389 214.568 147.22 214.056 146.882C213.544 146.544 213.191 146.064 212.997 145.439C212.803 144.815 212.705 144.068 212.705 143.199V134.788H214.916V143.459C214.916 143.848 214.941 144.217 214.992 144.565C215.043 144.902 215.161 145.178 215.345 145.393C215.54 145.598 215.826 145.7 216.205 145.7C216.604 145.7 216.89 145.598 217.064 145.393C217.248 145.178 217.366 144.902 217.417 144.565C217.479 144.217 217.509 143.848 217.509 143.459V134.788H219.704V143.199C219.704 144.068 219.607 144.815 219.413 145.439C219.218 146.064 218.865 146.544 218.354 146.882C217.852 147.22 217.136 147.389 216.205 147.389Z" fill="#552D7F"/>
<path d="M245.153 124.22V111.788H250.264V113.353H247.425V116.975H249.742V118.556H247.425V124.22H245.153ZM251.493 124.22V111.788H254.471C255.31 111.788 256.016 111.89 256.589 112.095C257.172 112.289 257.612 112.627 257.909 113.108C258.215 113.589 258.369 114.244 258.369 115.072C258.369 115.574 258.323 116.024 258.231 116.423C258.139 116.822 257.98 117.165 257.755 117.451C257.54 117.728 257.238 117.942 256.85 118.096L258.584 124.22H256.312L254.808 118.526H253.765V124.22H251.493ZM253.765 117.098H254.471C254.911 117.098 255.258 117.037 255.514 116.914C255.78 116.781 255.97 116.576 256.082 116.3C256.195 116.014 256.251 115.65 256.251 115.21C256.251 114.586 256.133 114.121 255.898 113.814C255.673 113.497 255.238 113.338 254.593 113.338H253.765V117.098ZM245.214 147.22V134.788H247.455V147.22H245.214Z" fill="#552D7F"/>
<path d="M277.582 124.389C276.835 124.389 276.211 124.245 275.709 123.959C275.208 123.662 274.829 123.232 274.574 122.67C274.318 122.107 274.175 121.416 274.144 120.598L276.093 120.214C276.114 120.695 276.17 121.119 276.262 121.488C276.364 121.856 276.513 122.143 276.707 122.347C276.912 122.542 277.178 122.639 277.505 122.639C277.873 122.639 278.134 122.531 278.288 122.317C278.441 122.091 278.518 121.81 278.518 121.472C278.518 120.93 278.395 120.485 278.15 120.137C277.904 119.789 277.577 119.441 277.167 119.094L275.602 117.712C275.162 117.334 274.809 116.914 274.543 116.454C274.287 115.983 274.159 115.405 274.159 114.719C274.159 113.737 274.446 112.98 275.019 112.448C275.592 111.916 276.374 111.65 277.367 111.65C277.95 111.65 278.436 111.742 278.825 111.926C279.214 112.1 279.521 112.346 279.746 112.663C279.981 112.98 280.155 113.343 280.268 113.752C280.38 114.151 280.452 114.576 280.483 115.026L278.549 115.364C278.528 114.975 278.482 114.627 278.411 114.32C278.349 114.013 278.232 113.773 278.058 113.599C277.894 113.425 277.648 113.338 277.321 113.338C276.983 113.338 276.722 113.451 276.538 113.676C276.364 113.891 276.277 114.162 276.277 114.489C276.277 114.909 276.364 115.257 276.538 115.533C276.712 115.799 276.963 116.075 277.29 116.362L278.84 117.728C279.352 118.157 279.787 118.664 280.145 119.247C280.513 119.82 280.698 120.516 280.698 121.334C280.698 121.928 280.564 122.455 280.298 122.915C280.043 123.376 279.679 123.739 279.209 124.005C278.748 124.261 278.206 124.389 277.582 124.389ZM281.346 124.22L283.832 111.788H286.257L288.743 124.22H286.641L286.15 121.35H283.986L283.479 124.22H281.346ZM284.216 119.907H285.904L285.06 114.689L284.216 119.907ZM275.694 147.22V136.461H273.714V134.788H279.915V136.461H277.966V147.22H275.694Z" fill="#552D7F"/>
<path d="M140.995 151.447H79.4355V172.164H140.995V151.447Z" fill="#D9D9FF"/>
<path d="M100.67 154.886H82.4023V157.195H100.67V154.886Z" fill="white"/>
<path d="M115.204 154.886H107.141V157.195H115.204V154.886Z" fill="white"/>
<path d="M123.959 154.886H119.928V157.195H123.959V154.886Z" fill="white"/>
<path d="M123.959 164.979H119.928V167.287H123.959V164.979Z" fill="white"/>
<path d="M135.424 159.583H82.4023V161.893H135.424V159.583Z" fill="white"/>
<path d="M109.502 164.979H82.4023V167.287H109.502V164.979Z" fill="white"/>
<path d="M110.347 172.309H79.292V151.303H110.347V172.309ZM79.58 172.021H110.059V151.591H79.58V172.021Z" fill="white"/>
<path d="M110.347 151.591H79.292V130.586H110.347V151.591ZM79.58 151.303H110.059V130.874H79.58V151.303Z" fill="white"/>
<path d="M110.347 213.743H79.292V192.737H110.347V213.743ZM79.58 213.455H110.059V193.025H79.58V213.455Z" fill="white"/>
<path d="M110.347 234.46H79.292V213.455H110.347V234.46ZM79.58 234.172H110.059V213.743H79.58V234.172Z" fill="white"/>
<path d="M110.347 255.178H79.292V234.172H110.347V255.178ZM79.58 254.89H110.059V234.46H79.58V254.89Z" fill="white"/>
<path d="M110.347 193.025H79.292V172.021H110.347V193.025ZM79.58 192.737H110.059V172.309H79.58V192.737Z" fill="white"/>
<path d="M140.996 234.089H110.229V254.806H140.996V234.089Z" fill="#D9D9FF"/>
<path d="M120.406 237.528H113.195V239.837H120.406V237.528Z" fill="white"/>
<path d="M134.124 242.226H113.195V244.535H134.124V242.226Z" fill="white"/>
<path d="M123.892 247.62H113.195V249.929H123.892V247.62Z" fill="white"/>
<path d="M141.139 172.309H110.084V151.303H141.139V172.309ZM110.372 172.021H140.851V151.591H110.372V172.021Z" fill="white"/>
<path d="M141.139 151.591H110.084V130.586H141.139V151.591ZM110.372 151.303H140.851V130.874H110.372V151.303Z" fill="white"/>
<path d="M141.139 213.743H110.084V192.737H141.139V213.743ZM110.372 213.455H140.851V193.025H110.372V213.455Z" fill="white"/>
<path d="M141.139 234.46H110.084V213.455H141.139V234.46ZM110.372 234.172H140.851V213.743H110.372V234.172Z" fill="white"/>
<path d="M141.139 255.178H110.084V234.172H141.139V255.178ZM110.372 254.89H140.851V234.46H110.372V254.89Z" fill="white"/>
<path d="M141.139 193.025H110.084V172.021H141.139V193.025ZM110.372 192.737H140.851V172.309H110.372V192.737Z" fill="white"/>
<path d="M264.089 192.882H140.995V213.599H264.089V192.882Z" fill="#F9C5F9"/>
<path d="M233.322 234.358H202.555V255.075H233.322V234.358Z" fill="#F9C5F9"/>
<path d="M157.168 196.918H143.977V199.227H157.168V196.918Z" fill="white"/>
<path d="M182.265 201.615H143.977V203.924H182.265V201.615Z" fill="white"/>
<path d="M163.546 207.01H143.977V209.319H163.546V207.01Z" fill="white"/>
<path d="M171.906 172.309H140.852V151.303H171.906V172.309ZM141.139 172.021H171.618V151.591H141.139V172.021Z" fill="white"/>
<path d="M171.906 151.591H140.852V130.586H171.906V151.591ZM141.139 151.303H171.618V130.874H141.139V151.303Z" fill="white"/>
<path d="M171.906 213.743H140.852V192.737H171.906V213.743ZM141.139 213.455H171.618V193.025H141.139V213.455Z" fill="white"/>
<path d="M171.906 234.46H140.852V213.455H171.906V234.46ZM141.139 234.172H171.618V213.743H141.139V234.172Z" fill="white"/>
<path d="M171.906 255.178H140.852V234.172H171.906V255.178ZM141.139 254.89H171.618V234.46H141.139V254.89Z" fill="white"/>
<path d="M171.906 193.025H140.852V172.021H171.906V193.025ZM141.139 192.737H171.618V172.309H141.139V192.737Z" fill="white"/>
<path d="M202.699 172.309H171.645V151.303H202.699V172.309ZM171.932 172.021H202.411V151.591H171.932V172.021Z" fill="white"/>
<path d="M202.699 151.591H171.645V130.586H202.699V151.591ZM171.932 151.303H202.411V130.874H171.932V151.303Z" fill="white"/>
<path d="M202.699 213.743H171.645V192.737H202.699V213.743ZM171.932 213.455H202.411V193.025H171.932V213.455Z" fill="white"/>
<path d="M202.699 234.46H171.645V213.455H202.699V234.46ZM171.932 234.172H202.411V213.743H171.932V234.172Z" fill="white"/>
<path d="M202.699 255.178H171.645V234.172H202.699V255.178ZM171.932 254.89H202.411V234.46H171.932V254.89Z" fill="white"/>
<path d="M202.699 193.025H171.645V172.021H202.699V193.025ZM171.932 192.737H202.411V172.309H171.932V192.737Z" fill="white"/>
<path d="M233.466 172.309H202.411V151.303H233.466V172.309ZM202.699 172.021H233.178V151.591H202.699V172.021Z" fill="white"/>
<path d="M233.466 151.591H202.411V130.586H233.466V151.591ZM202.699 151.303H233.178V130.874H202.699V151.303Z" fill="white"/>
<path d="M233.466 213.743H202.411V192.737H233.466V213.743ZM202.699 213.455H233.178V193.025H202.699V213.455Z" fill="white"/>
<path d="M233.466 234.46H202.411V213.455H233.466V234.46ZM202.699 234.172H233.178V213.743H202.699V234.172Z" fill="white"/>
<path d="M233.466 255.178H202.411V234.172H233.466V255.178ZM202.699 254.89H233.178V234.46H202.699V254.89Z" fill="white"/>
<path d="M233.466 193.025H202.411V172.021H233.466V193.025ZM202.699 192.737H233.178V172.309H202.699V192.737Z" fill="white"/>
<path d="M156.379 169.119C154.932 169.119 153.518 168.69 152.316 167.887C151.113 167.083 150.176 165.941 149.622 164.605C149.069 163.268 148.924 161.798 149.206 160.379C149.488 158.96 150.185 157.657 151.207 156.635C152.23 155.612 153.533 154.915 154.952 154.633C156.37 154.351 157.841 154.496 159.177 155.049C160.513 155.603 161.656 156.54 162.459 157.743C163.263 158.945 163.692 160.359 163.692 161.806C163.69 163.745 162.918 165.604 161.547 166.975C160.176 168.346 158.317 169.117 156.379 169.119ZM156.379 155.644C155.16 155.644 153.969 156.005 152.955 156.682C151.942 157.36 151.152 158.322 150.686 159.448C150.22 160.574 150.098 161.813 150.335 163.008C150.573 164.203 151.16 165.301 152.022 166.163C152.883 167.025 153.981 167.612 155.176 167.849C156.372 168.087 157.611 167.965 158.736 167.499C159.862 167.032 160.825 166.242 161.502 165.229C162.179 164.216 162.54 163.024 162.54 161.806C162.538 160.172 161.888 158.606 160.733 157.451C159.578 156.296 158.012 155.646 156.379 155.644Z" fill="#552D7F"/>
<path d="M279.472 148.402C278.026 148.402 276.612 147.974 275.409 147.17C274.207 146.366 273.269 145.224 272.716 143.888C272.162 142.551 272.018 141.081 272.3 139.662C272.582 138.244 273.278 136.941 274.301 135.918C275.324 134.895 276.627 134.198 278.046 133.916C279.464 133.634 280.935 133.779 282.271 134.332C283.607 134.886 284.749 135.823 285.553 137.026C286.356 138.229 286.785 139.643 286.785 141.089C286.783 143.028 286.012 144.887 284.641 146.258C283.27 147.629 281.411 148.4 279.472 148.402ZM279.472 134.927C278.254 134.927 277.062 135.289 276.049 135.966C275.036 136.643 274.246 137.605 273.78 138.731C273.313 139.857 273.191 141.096 273.429 142.291C273.667 143.486 274.254 144.584 275.115 145.446C275.977 146.308 277.075 146.895 278.27 147.132C279.465 147.37 280.704 147.248 281.83 146.782C282.956 146.315 283.918 145.526 284.595 144.512C285.273 143.499 285.634 142.308 285.634 141.089C285.632 139.455 284.982 137.889 283.827 136.734C282.672 135.579 281.106 134.929 279.472 134.927Z" fill="#552D7F"/>
<path d="M264.089 172.164H233.322V192.882H264.089V172.164Z" fill="#D9D9FF"/>
<path d="M257.708 175.603H236.288V177.912H257.708V175.603Z" fill="white"/>
<path d="M261.48 180.301H236.288V182.61H261.48V180.301Z" fill="white"/>
<path d="M252.669 185.696H236.288V188.005H252.669V185.696Z" fill="white"/>
<path d="M264.233 172.309H233.178V151.303H264.233V172.309ZM233.466 172.021H263.945V151.591H233.466V172.021Z" fill="white"/>
<path d="M264.233 151.591H233.178V130.586H264.233V151.591ZM233.466 151.303H263.945V130.874H233.466V151.303Z" fill="white"/>
<path d="M264.233 213.743H233.178V192.737H264.233V213.743ZM233.466 213.455H263.945V193.025H233.466V213.455Z" fill="white"/>
<path d="M264.233 234.46H233.178V213.455H264.233V234.46ZM233.466 234.172H263.945V213.743H233.466V234.172Z" fill="white"/>
<path d="M264.233 255.178H233.178V234.172H264.233V255.178ZM233.466 254.89H263.945V234.46H233.466V254.89Z" fill="white"/>
<path d="M264.233 193.025H233.178V172.021H264.233V193.025ZM233.466 192.737H263.945V172.309H233.466V192.737Z" fill="white"/>
<path d="M295 172.309H263.945V151.303H295V172.309ZM264.233 172.021H294.713V151.591H264.233V172.021Z" fill="white"/>
<path d="M295 151.591H263.945V130.586H295V151.591ZM264.233 151.303H294.713V130.874H264.233V151.303Z" fill="white"/>
<path d="M295 213.743H263.945V192.737H295V213.743ZM264.233 213.455H294.713V193.025H264.233V213.455Z" fill="white"/>
<path d="M295 234.46H263.945V213.455H295V234.46ZM264.233 234.172H294.713V213.743H264.233V234.172Z" fill="white"/>
<path d="M295 255.178H263.945V234.172H295V255.178ZM264.233 254.89H294.713V234.46H264.233V254.89Z" fill="white"/>
<path d="M295 193.025H263.945V172.021H295V193.025ZM264.233 192.737H294.713V172.309H264.233V192.737Z" fill="white"/>
<path d="M124.876 210.213C124.652 210.213 124.437 210.126 124.276 209.971L117.46 203.391C117.295 203.232 117.201 203.014 117.197 202.785C117.194 202.556 117.281 202.335 117.44 202.171C117.598 202.006 117.816 201.911 118.045 201.907C118.273 201.902 118.494 201.989 118.66 202.147L124.813 208.087L134.765 196.331C134.838 196.244 134.927 196.172 135.028 196.12C135.129 196.068 135.239 196.036 135.352 196.026C135.465 196.017 135.579 196.03 135.688 196.064C135.796 196.099 135.896 196.154 135.983 196.228C136.069 196.301 136.141 196.391 136.193 196.492C136.245 196.593 136.276 196.703 136.285 196.816C136.295 196.929 136.281 197.043 136.247 197.151C136.212 197.259 136.156 197.36 136.083 197.446L125.535 209.907C125.459 209.997 125.365 210.071 125.259 210.123C125.153 210.176 125.037 210.206 124.919 210.212C124.905 210.213 124.891 210.213 124.876 210.213Z" fill="#7768FF"/>
<path d="M216.786 231.133C216.562 231.133 216.347 231.046 216.186 230.891L209.369 224.311C209.205 224.152 209.11 223.934 209.107 223.705C209.103 223.476 209.19 223.256 209.349 223.091C209.507 222.926 209.725 222.831 209.954 222.827C210.183 222.822 210.404 222.909 210.569 223.067L216.722 229.008L226.674 217.25C226.822 217.075 227.033 216.966 227.261 216.947C227.49 216.928 227.716 217.001 227.891 217.148C228.065 217.296 228.174 217.508 228.193 217.736C228.212 217.964 228.14 218.191 227.992 218.365L217.445 230.827C217.368 230.917 217.274 230.991 217.168 231.043C217.062 231.096 216.947 231.126 216.829 231.132C216.814 231.133 216.8 231.133 216.786 231.133Z" fill="#7768FF"/>
<path d="M260.264 180.241C260.096 178.89 264.608 162.691 265.259 161.491C266.962 158.353 274.751 157.727 278.125 159.863C283.584 163.32 292.001 179.025 290.295 183.105L260.264 180.241Z" fill="#1A004C"/>
<path d="M276.719 170.975C276.717 171.018 276.724 171.06 276.74 171.1C276.755 171.139 276.778 171.176 276.808 171.206C276.837 171.237 276.873 171.261 276.912 171.278C276.951 171.294 276.993 171.303 277.036 171.303C277.788 171.299 279.524 171.139 279.77 173.107C280.018 175.097 278.122 176.216 276.981 176.279C276.522 176.268 276.069 176.381 275.669 176.607C274.983 177.353 274.661 178.984 274.133 181.016C273.762 182.215 273.792 183.502 274.218 184.682C274.644 185.862 275.443 186.871 276.493 187.557C276.493 187.557 264.734 193.338 264.843 187.542C264.843 187.542 265.773 176.88 265.718 176.825C264.8 175.907 261.234 175.513 263.476 167.913C265.553 160.872 270.718 161.373 272.031 161.606C273.139 161.802 276.986 162.043 276.719 170.975Z" fill="#B65F42"/>
<path d="M277.03 170.831C277.029 170.873 277.036 170.916 277.051 170.956C277.066 170.995 277.09 171.032 277.119 171.062C277.149 171.093 277.184 171.117 277.224 171.134C277.263 171.15 277.305 171.159 277.348 171.159C278.1 171.155 279.836 170.995 280.081 172.963C280.329 174.953 278.433 176.072 277.293 176.134C276.834 176.123 276.38 176.237 275.981 176.462C275.295 177.209 274.972 178.839 274.444 180.872C274.074 182.071 274.104 183.357 274.53 184.537C274.956 185.718 275.754 186.727 276.805 187.412C276.805 187.412 265.045 193.194 265.155 187.398C265.155 187.398 266.084 176.736 266.029 176.681C265.111 175.763 261.546 175.369 263.788 167.768C265.864 160.728 271.03 161.229 272.343 161.462C273.451 161.658 277.297 161.899 277.03 170.831Z" fill="#B65F42"/>
<path d="M269.106 160.509C269.106 160.509 271.349 170.673 274.101 171.726C277.15 172.892 276.867 168.049 277.19 171.197C277.19 171.197 282.698 156.251 269.106 160.509Z" fill="#1A004C"/>
<path d="M278.914 173.678C278.914 173.678 277.732 171.183 276.231 174.526L278.914 173.678Z" fill="#CB7043"/>
<path d="M270.181 170.984C269.831 170.976 269.488 171.072 269.193 171.259C268.898 171.447 268.665 171.718 268.524 172.038C268.383 172.357 268.34 172.712 268.401 173.056C268.461 173.4 268.622 173.719 268.864 173.971C269.105 174.224 269.416 174.399 269.757 174.475C270.098 174.551 270.454 174.524 270.78 174.398C271.106 174.271 271.387 174.051 271.588 173.765C271.788 173.479 271.9 173.14 271.907 172.79C271.913 172.558 271.872 172.328 271.788 172.111C271.704 171.895 271.579 171.697 271.418 171.529C271.258 171.362 271.066 171.227 270.854 171.134C270.641 171.04 270.413 170.989 270.181 170.984Z" fill="#80301A"/>
<path d="M262.819 171.643C263.173 171.579 263.498 171.408 263.752 171.154C264.006 170.899 264.176 170.574 264.241 170.22C264.305 169.866 264.26 169.502 264.111 169.174C263.963 168.847 263.718 168.573 263.41 168.388C263.005 169.425 262.804 170.53 262.819 171.643Z" fill="#80301A"/>
<path d="M266.805 168.032L266.063 170.652L265.127 170.239L266.805 168.032Z" fill="#CB7043"/>
<path d="M270.036 168.157C270.067 167.873 270.156 167.509 270.014 167.301C269.816 167.082 269.585 166.894 269.33 166.745C268.946 166.483 268.53 166.547 268.497 166.948C268.626 167.173 269.17 167.119 269.614 167.543C269.776 167.732 269.918 167.938 270.036 168.157Z" fill="black"/>
<path d="M264.657 165.967C264.418 166.034 264.879 165.652 265.213 165.54C265.504 165.46 265.812 165.46 266.103 165.54C266.561 165.63 266.771 165.966 266.417 166.226C266.033 166.509 265.585 165.706 264.657 165.967Z" fill="black"/>
<path d="M268.271 169.47C268.142 169.792 267.91 170.002 267.753 169.939C267.597 169.876 267.576 169.564 267.706 169.242C267.836 168.92 268.068 168.71 268.224 168.773C268.38 168.836 268.402 169.148 268.271 169.47Z" fill="black"/>
<path d="M265.776 168.282C265.652 168.59 265.431 168.79 265.282 168.73C265.133 168.67 265.112 168.372 265.237 168.064C265.361 167.757 265.582 167.556 265.731 167.616C265.88 167.676 265.901 167.975 265.776 168.282Z" fill="black"/>
<path d="M265.717 176.825C267.382 177.154 269.073 177.332 270.769 177.357C272.464 177.248 265.148 181.582 265.717 176.825Z" fill="black"/>
<path d="M264.603 170.825C264.603 170.825 264.27 172.16 264.849 172.381C265.185 172.481 265.54 172.496 265.883 172.425C266.226 172.353 266.546 172.197 266.814 171.971L264.603 170.825Z" fill="#FAF9F4"/>
<path opacity="0.35" d="M319.668 346.414C319.668 345.3 303.974 344.397 284.614 344.397C265.254 344.397 249.56 345.3 249.56 346.414C249.56 347.528 265.254 348.431 284.614 348.431C303.974 348.431 319.668 347.528 319.668 346.414Z" fill="#AFACD4"/>
<path d="M267.56 331.996L266.338 340.668C266.338 340.668 264.38 346.419 262.561 344.193C261.518 342.896 260.3 341.751 258.942 340.79L258.345 331.774L267.56 331.996Z" fill="#E27A51"/>
<path d="M262.799 332.32L262.484 344.116C262.484 344.116 268.24 344.98 266.101 341.127L267.36 332.949L262.799 332.32Z" fill="#80301A"/>
<path d="M296.544 331.33L299.242 339.981C299.242 339.981 301.296 341.782 302.038 341.735C303.386 341.65 304.093 339.323 304.093 339.323L304.315 331.33H296.544Z" fill="#E27A51"/>
<path d="M300.432 329.017L302.319 343.329C302.319 343.329 306.188 344.351 304.049 340.498L304.521 329.489L300.432 329.017Z" fill="#80301A"/>
<path d="M258.342 340.745L251.079 346.632C250.708 346.908 250.973 347.373 251.504 347.377L262.226 347.464C262.339 347.472 262.453 347.449 262.554 347.398C262.655 347.347 262.741 347.268 262.801 347.172L263.61 345.514C263.843 345.035 264.309 344.997 264.266 345.504L264.662 347.104C264.641 347.357 267.204 347.288 267.226 347.058C267.291 344.593 267.153 342.127 266.815 339.685C266.783 339.581 266.719 339.491 266.633 339.424C266.547 339.358 266.443 339.319 266.335 339.314L266.334 339.313C266.228 339.295 266.119 339.3 266.016 339.329C265.912 339.357 265.816 339.409 265.735 339.479C265.011 340.179 262.697 342.286 261.464 341.859C260.673 341.599 259.923 341.232 259.233 340.767C259.106 340.67 258.951 340.616 258.791 340.612C258.631 340.608 258.474 340.655 258.342 340.745Z" fill="#7768FF"/>
<path d="M304.194 339.024L308.318 345.932C308.42 346.096 308.486 346.28 308.512 346.472C308.537 346.663 308.52 346.858 308.463 347.043C308.406 347.228 308.31 347.398 308.181 347.542C308.053 347.687 307.894 347.801 307.717 347.879C306.427 348.647 305.374 350.178 304.562 350.2C303.096 350.241 300.817 348.697 299.489 348.118C298.598 347.729 297.899 347.16 298.01 346.414L299.035 339.485C299.048 339.399 299.199 339.368 299.273 339.435L300.852 340.867C301.37 341.336 302.774 341.273 303.122 340.711C303.371 340.311 303.955 339.018 303.955 339.018C303.97 339.002 303.989 338.989 304.01 338.981C304.031 338.972 304.053 338.968 304.075 338.968C304.098 338.969 304.12 338.974 304.14 338.983C304.161 338.993 304.179 339.007 304.194 339.024Z" fill="#7768FF"/>
<path d="M282.319 217.37C285.527 222.879 287.888 228.84 289.322 235.052C291.541 243.732 303.924 317.078 304.97 332.866C302.235 333.525 298.09 333.231 296.361 333.135C290.863 317.378 274.567 266.475 272.21 256.549C271.848 255.023 269.49 255.358 269.674 256.915C271.012 268.251 268.922 314.303 267.845 333.404C266.411 334.134 259.557 334 257.9 333.792C256.098 314.35 246.537 240.749 260.971 216.891C267.572 215.981 275.626 217.17 282.319 217.37Z" fill="#212129"/>
<path d="M261.833 219.476C261.833 219.476 255.954 234.025 255.954 254.56C255.954 275.096 259.775 327.216 259.775 327.216" stroke="white" stroke-width="0.31472" stroke-miterlimit="10"/>
<path d="M300.128 326.947L279.064 218.805" stroke="white" stroke-width="0.31472" stroke-miterlimit="10"/>
<path d="M274.948 219.38C274.948 219.38 275.148 238.189 283.59 236.706" stroke="white" stroke-width="0.31472" stroke-miterlimit="10"/>
<g style="mix-blend-mode:multiply" opacity="0.21">
<path d="M261.067 219.859L288.242 240.322C288.242 240.322 289.377 229.279 284.549 220.215L261.067 219.859Z" fill="black"/>
</g>
<path d="M257.43 237.569C265.871 239.052 264.514 220.337 264.514 220.337" stroke="white" stroke-width="0.31472" stroke-miterlimit="10"/>
<path d="M268.115 327.485L257.095 327.232" stroke="white" stroke-width="0.31472" stroke-miterlimit="10"/>
<path d="M304.432 327.485L294.479 327.216" stroke="white" stroke-width="0.31472" stroke-miterlimit="10"/>
<path d="M231.696 206.593C231.696 206.593 256.975 223.424 259.842 219.212C259.842 219.212 263.13 214.38 256.051 202.336C255.577 201.086 255.246 200.221 255.216 200.008C255.216 200.008 262.772 189.9 263.875 186.481C263.996 186.106 264.488 185.308 264.387 185.319C257.402 186.117 257.331 202.332 250.643 208.202C250.389 208.425 234.043 201.234 234.043 201.234C234.043 201.234 224.491 195.185 224.227 195.834C223.844 196.776 227.729 199.614 227.729 199.614C227.71 199.949 227.566 200.265 227.326 200.501C227.123 200.694 226.974 200.935 226.891 201.203C226.809 201.47 226.796 201.754 226.855 202.027C226.936 202.733 226.432 203.352 226.465 203.769C226.499 204.186 229.963 206.118 231.696 206.593Z" fill="#B65F42"/>
<path d="M233.808 201.261C233.808 201.261 231.146 198.087 230.648 198.397C230.151 198.706 228.167 200.615 228.564 201.51C228.96 202.404 230.722 200.885 230.722 200.885C230.722 200.885 231.112 203.07 232.235 202.956C233.358 202.841 233.808 201.261 233.808 201.261Z" fill="#B65F42"/>
<path d="M230.07 200.945C230.07 200.945 230.467 201.839 229.774 202.283C229.804 202.417 229.806 202.555 229.778 202.69C229.751 202.824 229.696 202.951 229.615 203.062C229.535 203.174 229.433 203.267 229.314 203.335C229.195 203.404 229.063 203.446 228.927 203.46C228.927 203.46 229.357 203.789 228.806 204.119C228.806 204.119 232.362 205.914 230.07 200.945Z" fill="#80301A"/>
<path d="M229.899 198.999C229.565 199.476 229.219 199.935 228.854 200.375C228.69 200.602 228.454 200.812 228.334 201.022C228.204 201.259 228.213 201.391 228.379 201.454C228.891 201.578 229.428 201.529 229.91 201.317C230.046 201.296 230.162 201.177 230.432 201.249C230.485 201.275 230.529 201.315 230.561 201.365C230.593 201.414 230.611 201.471 230.613 201.53L230.635 201.746L230.686 202.613L230.662 202.617L230.512 201.768C230.474 201.638 230.499 201.452 230.375 201.394C230.245 201.355 230.108 201.446 229.975 201.489C229.45 201.749 228.849 201.813 228.281 201.671C228.21 201.643 228.148 201.596 228.102 201.535C228.056 201.474 228.027 201.402 228.02 201.326C228.018 201.176 228.064 201.03 228.15 200.908C228.322 200.676 228.511 200.457 228.714 200.253L229.882 198.982L229.899 198.999Z" fill="#80301A"/>
<path d="M227.642 199.515C227.759 199.492 227.88 199.49 227.999 199.509C228.103 199.531 228.206 199.561 228.306 199.599C228.399 199.65 228.487 199.709 228.571 199.773C228.659 199.849 228.732 199.941 228.787 200.043L228.776 200.064C228.388 199.9 228.007 199.724 227.631 199.537L227.642 199.515Z" fill="#80301A"/>
<path d="M227.058 201.283C227.358 201.362 227.648 201.444 227.931 201.534C228.216 201.62 228.492 201.723 228.778 201.795C229.05 201.895 229.349 201.974 229.615 202.053C229.738 202.094 229.869 202.104 229.998 202.083C230.066 202.078 230.133 202.056 230.191 202.019C230.25 201.983 230.298 201.933 230.333 201.874L230.356 201.88C230.292 202.021 230.18 202.135 230.039 202.201C229.898 202.266 229.738 202.278 229.589 202.236C229.291 202.183 228.997 202.111 228.707 202.022C228.131 201.84 227.575 201.599 227.047 201.304L227.058 201.283Z" fill="#80301A"/>
<path d="M229.829 202.264C229.924 202.435 229.974 202.627 229.974 202.822C229.973 203.017 229.923 203.208 229.828 203.378C229.761 203.468 229.676 203.541 229.578 203.595C229.481 203.648 229.373 203.68 229.261 203.688C229.063 203.708 228.863 203.691 228.671 203.64C228.327 203.524 227.999 203.366 227.694 203.171C227.392 202.985 227.109 202.769 226.85 202.528L226.862 202.508C227.162 202.684 227.468 202.849 227.778 203.007C228.083 203.171 228.403 203.307 228.734 203.411C228.891 203.479 229.063 203.501 229.232 203.474C229.401 203.447 229.558 203.372 229.686 203.259C229.774 203.111 229.83 202.947 229.851 202.776C229.872 202.606 229.856 202.433 229.806 202.268L229.829 202.264Z" fill="#80301A"/>
<path d="M228.931 203.273C229.055 203.466 229.127 203.687 229.14 203.916C229.154 204.044 229.14 204.174 229.099 204.297C229.03 204.431 228.917 204.538 228.78 204.603C228.564 204.706 228.322 204.746 228.084 204.718C227.968 204.709 227.852 204.692 227.739 204.667C227.625 204.62 227.526 204.546 227.448 204.452L227.459 204.431C227.645 204.533 227.863 204.564 228.07 204.517C228.28 204.518 228.489 204.478 228.684 204.399C228.781 204.365 228.862 204.298 228.916 204.21C228.955 204.114 228.976 204.011 228.98 203.907C228.995 203.696 228.971 203.484 228.909 203.283L228.931 203.273Z" fill="#80301A"/>
<path d="M264.47 184.334C264.47 184.334 261.047 184.843 258.725 189.331C256.884 192.891 249.893 207.727 249.893 207.727L236.052 201.79L234.796 210.442C234.796 210.442 256.14 223.3 259.816 220.449C263.492 217.599 266.241 188.912 264.47 184.334Z" fill="white"/>
<path d="M265.095 184.089C265.287 184.555 257.219 200.629 257.448 205.199C257.679 209.804 260.823 217.551 260.579 218.243C260.579 218.243 264.151 221.062 283.858 217.958C289.917 212.658 284.594 194.641 282.559 188.937C282.559 188.937 277.194 188.169 274.92 185.399C274.92 185.399 266.159 192.195 265.095 184.089Z" fill="white"/>
<g opacity="0.37">
<path d="M284.086 193.743C286.289 201.452 288.684 213.736 283.858 217.958C271.414 219.918 265.409 219.516 262.669 218.954C269.973 210.686 277.232 202.382 284.086 193.743Z" fill="#C2C6E2"/>
</g>
<path d="M268.294 221.128L256.368 206.557L243.674 206.662L253.411 220.083L259.15 220.903C259.509 220.919 268.294 221.128 268.294 221.128Z" fill="#7768FF"/>
<path d="M261.434 212.722L261.434 214.867L264.295 215.925L261.434 212.722Z" fill="#0E162E"/>
<path d="M273.719 224.038C267.92 222.845 262.217 221.227 256.656 219.197C256.011 218.974 254.14 218.099 254.147 217.818C254.162 217.177 257.936 218.869 257.793 218.712C257.651 218.556 253.154 217.058 253.153 216.539C253.153 215.76 258.138 217.521 258.223 217.547C259.516 217.936 253.388 216.047 253.258 215.512C253.129 214.977 255.983 215.645 256.085 215.667C256.085 215.667 258.495 216.384 258.585 216.219C258.674 216.054 253.863 213.169 254.368 212.861C254.874 212.553 258.56 214.283 259.431 214.615C260.234 214.942 261.114 215.03 261.966 214.866C262.248 214.696 261.959 213.286 261.383 212.743C262.565 213.265 263.65 213.985 264.592 214.871C264.978 215.328 265.332 215.811 265.65 216.317L273.915 217.929L273.719 224.038Z" fill="#B65F42"/>
<path d="M278.455 194.829C278.455 194.829 277.284 187.228 281.17 187.844C287.746 188.886 295.254 203.89 292.374 223.826C291.439 230.301 265.201 223.986 265.201 223.986L266.884 214.511L280.584 216.785L278.455 194.829Z" fill="white"/>
</g>
</svg>
